<svg width="201" height="349" viewBox="0 0 201 349" fill="none" xmlns="http://www.w3.org/2000/svg">
<path d="M43.2929 91.7071C43.6834 92.0976 44.3166 92.0976 44.7071 91.7071L51.0711 85.3431C51.4616 84.9526 51.4616 84.3195 51.0711 83.9289C50.6805 83.5384 50.0474 83.5384 49.6569 83.9289L44 89.5858L38.3431 83.9289C37.9526 83.5384 37.3195 83.5384 36.9289 83.9289C36.5384 84.3195 36.5384 84.9526 36.9289 85.3431L43.2929 91.7071ZM43 35V91H45V35H43Z" fill="black"/>
<path d="M100.293 348.707C100.683 349.098 101.317 349.098 101.707 348.707L108.071 342.343C108.462 341.953 108.462 341.319 108.071 340.929C107.681 340.538 107.047 340.538 106.657 340.929L101 346.586L95.3431 340.929C94.9526 340.538 94.3195 340.538 93.9289 340.929C93.5384 341.319 93.5384 341.953 93.9289 342.343L100.293 348.707ZM100 292V348H102V292H100Z" fill="black"/>
<path d="M160.293 91.7071C160.683 92.0976 161.317 92.0976 161.707 91.7071L168.071 85.3431C168.462 84.9526 168.462 84.3195 168.071 83.9289C167.681 83.5384 167.047 83.5384 166.657 83.9289L161 89.5858L155.343 83.9289C154.953 83.5384 154.319 83.5384 153.929 83.9289C153.538 84.3195 153.538 84.9526 153.929 85.3431L160.293 91.7071ZM160 35V91H162V35H160Z" fill="black"/>
<rect x="0.5" y="91.5" width="200" height="200" fill="#C4C4C4" stroke="black"/>
<path d="M58.7012 187.469L61.4902 194.43L64.2793 187.469H65.7383V196H64.6133V192.678L64.7188 189.092L61.918 196H61.0566L58.2617 189.109L58.373 192.678V196H57.248V187.469H58.7012ZM68.9316 196H67.8066V187.469H68.9316V196ZM77.5508 196H76.4199L72.125 189.426V196H70.9941V187.469H72.125L76.4316 194.072V187.469H77.5508V196ZM86.1113 192.01C86.1113 192.846 85.9707 193.576 85.6895 194.201C85.4082 194.822 85.0098 195.297 84.4941 195.625C83.9785 195.953 83.377 196.117 82.6895 196.117C82.0176 196.117 81.4219 195.953 80.9023 195.625C80.3828 195.293 79.9785 194.822 79.6895 194.213C79.4043 193.6 79.2578 192.891 79.25 192.086V191.471C79.25 190.65 79.3926 189.926 79.6777 189.297C79.9629 188.668 80.3652 188.188 80.8848 187.855C81.4082 187.52 82.0059 187.352 82.6777 187.352C83.3613 187.352 83.9629 187.518 84.4824 187.85C85.0059 188.178 85.4082 188.656 85.6895 189.285C85.9707 189.91 86.1113 190.639 86.1113 191.471V192.01ZM84.9922 191.459C84.9922 190.447 84.7891 189.672 84.3828 189.133C83.9766 188.59 83.4082 188.318 82.6777 188.318C81.9668 188.318 81.4062 188.59 80.9961 189.133C80.5898 189.672 80.3809 190.422 80.3691 191.383V192.01C80.3691 192.99 80.5742 193.762 80.9844 194.324C81.3984 194.883 81.9668 195.162 82.6895 195.162C83.416 195.162 83.9785 194.898 84.377 194.371C84.7754 193.84 84.9805 193.08 84.9922 192.092V191.459ZM90.9277 192.549H88.9238V196H87.793V187.469H90.6172C91.5781 187.469 92.3164 187.688 92.832 188.125C93.3516 188.562 93.6113 189.199 93.6113 190.035C93.6113 190.566 93.4668 191.029 93.1777 191.424C92.8926 191.818 92.4941 192.113 91.9824 192.309L93.9863 195.93V196H92.7793L90.9277 192.549ZM88.9238 191.629H90.6523C91.2109 191.629 91.6543 191.484 91.9824 191.195C92.3145 190.906 92.4805 190.52 92.4805 190.035C92.4805 189.508 92.3223 189.104 92.0059 188.822C91.6934 188.541 91.2402 188.398 90.6465 188.395H88.9238V191.629ZM100.016 192.057H96.3184V195.08H100.613V196H95.1934V187.469H100.555V188.395H96.3184V191.137H100.016V192.057ZM108.02 187.469V193.27C108.016 194.074 107.762 194.732 107.258 195.244C106.758 195.756 106.078 196.043 105.219 196.105L104.92 196.117C103.986 196.117 103.242 195.865 102.688 195.361C102.133 194.857 101.852 194.164 101.844 193.281V187.469H102.957V193.246C102.957 193.863 103.127 194.344 103.467 194.688C103.807 195.027 104.291 195.197 104.92 195.197C105.557 195.197 106.043 195.027 106.379 194.688C106.719 194.348 106.889 193.869 106.889 193.252V187.469H108.02ZM116.094 194.881C115.805 195.295 115.4 195.605 114.881 195.812C114.365 196.016 113.764 196.117 113.076 196.117C112.381 196.117 111.764 195.955 111.225 195.631C110.686 195.303 110.268 194.838 109.971 194.236C109.678 193.635 109.527 192.938 109.52 192.145V191.4C109.52 190.115 109.818 189.119 110.416 188.412C111.018 187.705 111.861 187.352 112.947 187.352C113.838 187.352 114.555 187.58 115.098 188.037C115.641 188.49 115.973 189.135 116.094 189.971H114.969C114.758 188.842 114.086 188.277 112.953 188.277C112.199 188.277 111.627 188.543 111.236 189.074C110.85 189.602 110.654 190.367 110.65 191.371V192.068C110.65 193.025 110.869 193.787 111.307 194.354C111.744 194.916 112.336 195.197 113.082 195.197C113.504 195.197 113.873 195.15 114.189 195.057C114.506 194.963 114.768 194.805 114.975 194.582V192.666H113V191.752H116.094V194.881ZM123.98 187.469V193.27C123.977 194.074 123.723 194.732 123.219 195.244C122.719 195.756 122.039 196.043 121.18 196.105L120.881 196.117C119.947 196.117 119.203 195.865 118.648 195.361C118.094 194.857 117.812 194.164 117.805 193.281V187.469H118.918V193.246C118.918 193.863 119.088 194.344 119.428 194.688C119.768 195.027 120.252 195.197 120.881 195.197C121.518 195.197 122.004 195.027 122.34 194.688C122.68 194.348 122.85 193.869 122.85 193.252V187.469H123.98ZM130.338 193.773H126.764L125.961 196H124.801L128.059 187.469H129.043L132.307 196H131.152L130.338 193.773ZM127.104 192.848H130.004L128.551 188.857L127.104 192.848ZM134.586 195.08H138.629V196H133.455V187.469H134.586V195.08ZM144.734 192.057H141.037V195.08H145.332V196H139.912V187.469H145.273V188.395H141.037V191.137H144.734V192.057ZM85.9941 206.537C85.9941 205.654 86.1113 204.807 86.3457 203.994C86.584 203.182 86.9375 202.443 87.4062 201.779C87.875 201.115 88.3613 200.646 88.8652 200.373L89.0879 201.088C88.5176 201.525 88.0488 202.193 87.6816 203.092C87.3184 203.99 87.1191 204.996 87.084 206.109L87.0781 206.607C87.0781 208.115 87.3535 209.424 87.9043 210.533C88.2363 211.197 88.6309 211.717 89.0879 212.092L88.8652 212.754C88.3457 212.465 87.8496 211.98 87.377 211.301C86.4551 209.973 85.9941 208.385 85.9941 206.537ZM94.2793 201.463V202.383H94.0801C93.2363 202.398 92.5645 202.648 92.0645 203.133C91.5645 203.617 91.2754 204.299 91.1973 205.178C91.6465 204.662 92.2598 204.404 93.0371 204.404C93.7793 204.404 94.3711 204.666 94.8125 205.189C95.2578 205.713 95.4805 206.389 95.4805 207.217C95.4805 208.096 95.2402 208.799 94.7598 209.326C94.2832 209.854 93.6426 210.117 92.8379 210.117C92.0215 210.117 91.3594 209.805 90.8516 209.18C90.3438 208.551 90.0898 207.742 90.0898 206.754V206.338C90.0898 204.768 90.4238 203.568 91.0918 202.74C91.7637 201.908 92.7617 201.482 94.0859 201.463H94.2793ZM92.8555 205.307C92.4844 205.307 92.1426 205.418 91.8301 205.641C91.5176 205.863 91.3008 206.143 91.1797 206.479V206.877C91.1797 207.58 91.3379 208.146 91.6543 208.576C91.9707 209.006 92.3652 209.221 92.8379 209.221C93.3262 209.221 93.709 209.041 93.9863 208.682C94.2676 208.322 94.4082 207.852 94.4082 207.27C94.4082 206.684 94.2656 206.211 93.9805 205.852C93.6992 205.488 93.3242 205.307 92.8555 205.307ZM105.219 206.9C105.219 207.869 104.996 208.648 104.551 209.238C104.105 209.824 103.508 210.117 102.758 210.117C101.957 210.117 101.338 209.834 100.9 209.268L100.848 210H99.8516V201H100.936V204.357C101.373 203.814 101.977 203.543 102.746 203.543C103.516 203.543 104.119 203.834 104.557 204.416C104.998 204.998 105.219 205.795 105.219 206.807V206.9ZM104.135 206.777C104.135 206.039 103.992 205.469 103.707 205.066C103.422 204.664 103.012 204.463 102.477 204.463C101.762 204.463 101.248 204.795 100.936 205.459V208.201C101.268 208.865 101.785 209.197 102.488 209.197C103.008 209.197 103.412 208.996 103.701 208.594C103.99 208.191 104.135 207.586 104.135 206.777ZM107.768 210H106.684V203.66H107.768V210ZM106.596 201.979C106.596 201.803 106.648 201.654 106.754 201.533C106.863 201.412 107.023 201.352 107.234 201.352C107.445 201.352 107.605 201.412 107.715 201.533C107.824 201.654 107.879 201.803 107.879 201.979C107.879 202.154 107.824 202.301 107.715 202.418C107.605 202.535 107.445 202.594 107.234 202.594C107.023 202.594 106.863 202.535 106.754 202.418C106.648 202.301 106.596 202.154 106.596 201.979ZM110.979 202.125V203.66H112.162V204.498H110.979V208.43C110.979 208.684 111.031 208.875 111.137 209.004C111.242 209.129 111.422 209.191 111.676 209.191C111.801 209.191 111.973 209.168 112.191 209.121V210C111.906 210.078 111.629 210.117 111.359 210.117C110.875 210.117 110.51 209.971 110.264 209.678C110.018 209.385 109.895 208.969 109.895 208.43V204.498H108.74V203.66H109.895V202.125H110.979ZM115.936 206.596C115.936 207.467 115.82 208.303 115.59 209.104C115.363 209.9 115.014 210.637 114.541 211.312C114.072 211.988 113.58 212.469 113.064 212.754L112.836 212.092C113.438 211.631 113.92 210.916 114.283 209.947C114.65 208.975 114.838 207.896 114.846 206.713V206.525C114.846 205.705 114.76 204.943 114.588 204.24C114.416 203.533 114.176 202.9 113.867 202.342C113.562 201.783 113.219 201.348 112.836 201.035L113.064 200.373C113.58 200.658 114.07 201.135 114.535 201.803C115.004 202.471 115.354 203.207 115.584 204.012C115.818 204.816 115.936 205.678 115.936 206.596Z" fill="black"/>
<path d="M96.2656 280.293C96.1602 281.195 95.8262 281.893 95.2637 282.385C94.7051 282.873 93.9609 283.117 93.0312 283.117C92.0234 283.117 91.2148 282.756 90.6055 282.033C90 281.311 89.6973 280.344 89.6973 279.133V278.312C89.6973 277.52 89.8379 276.822 90.1191 276.221C90.4043 275.619 90.8066 275.158 91.3262 274.838C91.8457 274.514 92.4473 274.352 93.1309 274.352C94.0371 274.352 94.7637 274.605 95.3105 275.113C95.8574 275.617 96.1758 276.316 96.2656 277.211H95.1348C95.0371 276.531 94.8242 276.039 94.4961 275.734C94.1719 275.43 93.7168 275.277 93.1309 275.277C92.4121 275.277 91.8477 275.543 91.4375 276.074C91.0312 276.605 90.8281 277.361 90.8281 278.342V279.168C90.8281 280.094 91.0215 280.83 91.4082 281.377C91.7949 281.924 92.3359 282.197 93.0312 282.197C93.6562 282.197 94.1348 282.057 94.4668 281.775C94.8027 281.49 95.0254 280.996 95.1348 280.293H96.2656ZM98.8145 283H97.7305V274H98.8145V283ZM103.186 283.117C102.326 283.117 101.627 282.836 101.088 282.273C100.549 281.707 100.279 280.951 100.279 280.006V279.807C100.279 279.178 100.398 278.617 100.637 278.125C100.879 277.629 101.215 277.242 101.645 276.965C102.078 276.684 102.547 276.543 103.051 276.543C103.875 276.543 104.516 276.814 104.973 277.357C105.43 277.9 105.658 278.678 105.658 279.689V280.141H101.363C101.379 280.766 101.561 281.271 101.908 281.658C102.26 282.041 102.705 282.232 103.244 282.232C103.627 282.232 103.951 282.154 104.217 281.998C104.482 281.842 104.715 281.635 104.914 281.377L105.576 281.893C105.045 282.709 104.248 283.117 103.186 283.117ZM103.051 277.434C102.613 277.434 102.246 277.594 101.949 277.914C101.652 278.23 101.469 278.676 101.398 279.25H104.574V279.168C104.543 278.617 104.395 278.191 104.129 277.891C103.863 277.586 103.504 277.434 103.051 277.434ZM107.088 283V274.469H109.496C110.238 274.469 110.895 274.633 111.465 274.961C112.035 275.289 112.475 275.756 112.783 276.361C113.096 276.967 113.254 277.662 113.258 278.447V278.992C113.258 279.797 113.102 280.502 112.789 281.107C112.48 281.713 112.037 282.178 111.459 282.502C110.885 282.826 110.215 282.992 109.449 283H107.088ZM108.213 275.395V282.08H109.396C110.264 282.08 110.938 281.811 111.418 281.271C111.902 280.732 112.145 279.965 112.145 278.969V278.471C112.145 277.502 111.916 276.75 111.459 276.215C111.006 275.676 110.361 275.402 109.525 275.395H108.213Z" fill="black"/>
<path d="M30.2656 107.293C30.1602 108.195 29.8262 108.893 29.2637 109.385C28.7051 109.873 27.9609 110.117 27.0312 110.117C26.0234 110.117 25.2148 109.756 24.6055 109.033C24 108.311 23.6973 107.344 23.6973 106.133V105.312C23.6973 104.52 23.8379 103.822 24.1191 103.221C24.4043 102.619 24.8066 102.158 25.3262 101.838C25.8457 101.514 26.4473 101.352 27.1309 101.352C28.0371 101.352 28.7637 101.605 29.3105 102.113C29.8574 102.617 30.1758 103.316 30.2656 104.211H29.1348C29.0371 103.531 28.8242 103.039 28.4961 102.734C28.1719 102.43 27.7168 102.277 27.1309 102.277C26.4121 102.277 25.8477 102.543 25.4375 103.074C25.0312 103.605 24.8281 104.361 24.8281 105.342V106.168C24.8281 107.094 25.0215 107.83 25.4082 108.377C25.7949 108.924 26.3359 109.197 27.0312 109.197C27.6562 109.197 28.1348 109.057 28.4668 108.775C28.8027 108.49 29.0254 107.996 29.1348 107.293H30.2656ZM32.0234 105.723L32.457 101.469H36.8281V102.471H33.377L33.1191 104.797C33.5371 104.551 34.0117 104.428 34.543 104.428C35.3203 104.428 35.9375 104.686 36.3945 105.201C36.8516 105.713 37.0801 106.406 37.0801 107.281C37.0801 108.16 36.8418 108.854 36.3652 109.361C35.8926 109.865 35.2305 110.117 34.3789 110.117C33.625 110.117 33.0098 109.908 32.5332 109.49C32.0566 109.072 31.7852 108.494 31.7188 107.756H32.7441C32.8105 108.244 32.9844 108.613 33.2656 108.863C33.5469 109.109 33.918 109.232 34.3789 109.232C34.8828 109.232 35.2773 109.061 35.5625 108.717C35.8516 108.373 35.9961 107.898 35.9961 107.293C35.9961 106.723 35.8398 106.266 35.5273 105.922C35.2188 105.574 34.8066 105.4 34.291 105.4C33.8184 105.4 33.4473 105.504 33.1777 105.711L32.8906 105.945L32.0234 105.723ZM41.375 109.432C41.375 109.244 41.4297 109.088 41.5391 108.963C41.6523 108.838 41.8203 108.775 42.043 108.775C42.2656 108.775 42.4336 108.838 42.5469 108.963C42.6641 109.088 42.7227 109.244 42.7227 109.432C42.7227 109.611 42.6641 109.762 42.5469 109.883C42.4336 110.004 42.2656 110.064 42.043 110.064C41.8203 110.064 41.6523 110.004 41.5391 109.883C41.4297 109.762 41.375 109.611 41.375 109.432ZM44.5391 109.432C44.5391 109.244 44.5938 109.088 44.7031 108.963C44.8164 108.838 44.9844 108.775 45.207 108.775C45.4297 108.775 45.5977 108.838 45.7109 108.963C45.8281 109.088 45.8867 109.244 45.8867 109.432C45.8867 109.611 45.8281 109.762 45.7109 109.883C45.5977 110.004 45.4297 110.064 45.207 110.064C44.9844 110.064 44.8164 110.004 44.7031 109.883C44.5938 109.762 44.5391 109.611 44.5391 109.432ZM57.1016 107.293C56.9961 108.195 56.6621 108.893 56.0996 109.385C55.541 109.873 54.7969 110.117 53.8672 110.117C52.8594 110.117 52.0508 109.756 51.4414 109.033C50.8359 108.311 50.5332 107.344 50.5332 106.133V105.312C50.5332 104.52 50.6738 103.822 50.9551 103.221C51.2402 102.619 51.6426 102.158 52.1621 101.838C52.6816 101.514 53.2832 101.352 53.9668 101.352C54.873 101.352 55.5996 101.605 56.1465 102.113C56.6934 102.617 57.0117 103.316 57.1016 104.211H55.9707C55.873 103.531 55.6602 103.039 55.332 102.734C55.0078 102.43 54.5527 102.277 53.9668 102.277C53.248 102.277 52.6836 102.543 52.2734 103.074C51.8672 103.605 51.6641 104.361 51.6641 105.342V106.168C51.6641 107.094 51.8574 107.83 52.2441 108.377C52.6309 108.924 53.1719 109.197 53.8672 109.197C54.4922 109.197 54.9707 109.057 55.3027 108.775C55.6387 108.49 55.8613 107.996 55.9707 107.293H57.1016ZM63.7109 106.361C63.7109 107.631 63.4941 108.574 63.0605 109.191C62.627 109.809 61.9492 110.117 61.0273 110.117C60.1172 110.117 59.4434 109.816 59.0059 109.215C58.5684 108.609 58.3418 107.707 58.3262 106.508V105.061C58.3262 103.807 58.543 102.875 58.9766 102.266C59.4102 101.656 60.0898 101.352 61.0156 101.352C61.9336 101.352 62.6094 101.646 63.043 102.236C63.4766 102.822 63.6992 103.729 63.7109 104.955V106.361ZM62.627 104.879C62.627 103.961 62.498 103.293 62.2402 102.875C61.9824 102.453 61.5742 102.242 61.0156 102.242C60.4609 102.242 60.0566 102.451 59.8027 102.869C59.5488 103.287 59.418 103.93 59.4102 104.797V106.531C59.4102 107.453 59.543 108.135 59.8086 108.576C60.0781 109.014 60.4844 109.232 61.0273 109.232C61.5625 109.232 61.959 109.025 62.2168 108.611C62.4785 108.197 62.6152 107.545 62.627 106.654V104.879Z" fill="black"/>
<path d="M141.99 110V101.469H144.398C145.141 101.469 145.797 101.633 146.367 101.961C146.938 102.289 147.377 102.756 147.686 103.361C147.998 103.967 148.156 104.662 148.16 105.447V105.992C148.16 106.797 148.004 107.502 147.691 108.107C147.383 108.713 146.939 109.178 146.361 109.502C145.787 109.826 145.117 109.992 144.352 110H141.99ZM143.115 102.395V109.08H144.299C145.166 109.08 145.84 108.811 146.32 108.271C146.805 107.732 147.047 106.965 147.047 105.969V105.471C147.047 104.502 146.818 103.75 146.361 103.215C145.908 102.676 145.264 102.402 144.428 102.395H143.115ZM150.082 105.723L150.516 101.469H154.887V102.471H151.436L151.178 104.797C151.596 104.551 152.07 104.428 152.602 104.428C153.379 104.428 153.996 104.686 154.453 105.201C154.91 105.713 155.139 106.406 155.139 107.281C155.139 108.16 154.9 108.854 154.424 109.361C153.951 109.865 153.289 110.117 152.438 110.117C151.684 110.117 151.068 109.908 150.592 109.49C150.115 109.072 149.844 108.494 149.777 107.756H150.803C150.869 108.244 151.043 108.613 151.324 108.863C151.605 109.109 151.977 109.232 152.438 109.232C152.941 109.232 153.336 109.061 153.621 108.717C153.91 108.373 154.055 107.898 154.055 107.293C154.055 106.723 153.898 106.266 153.586 105.922C153.277 105.574 152.865 105.4 152.35 105.4C151.877 105.4 151.506 105.504 151.236 105.711L150.949 105.945L150.082 105.723ZM159.434 109.432C159.434 109.244 159.488 109.088 159.598 108.963C159.711 108.838 159.879 108.775 160.102 108.775C160.324 108.775 160.492 108.838 160.605 108.963C160.723 109.088 160.781 109.244 160.781 109.432C160.781 109.611 160.723 109.762 160.605 109.883C160.492 110.004 160.324 110.064 160.102 110.064C159.879 110.064 159.711 110.004 159.598 109.883C159.488 109.762 159.434 109.611 159.434 109.432ZM162.598 109.432C162.598 109.244 162.652 109.088 162.762 108.963C162.875 108.838 163.043 108.775 163.266 108.775C163.488 108.775 163.656 108.838 163.77 108.963C163.887 109.088 163.945 109.244 163.945 109.432C163.945 109.611 163.887 109.762 163.77 109.883C163.656 110.004 163.488 110.064 163.266 110.064C163.043 110.064 162.875 110.004 162.762 109.883C162.652 109.762 162.598 109.611 162.598 109.432ZM168.885 110V101.469H171.293C172.035 101.469 172.691 101.633 173.262 101.961C173.832 102.289 174.271 102.756 174.58 103.361C174.893 103.967 175.051 104.662 175.055 105.447V105.992C175.055 106.797 174.898 107.502 174.586 108.107C174.277 108.713 173.834 109.178 173.256 109.502C172.682 109.826 172.012 109.992 171.246 110H168.885ZM170.01 102.395V109.08H171.193C172.061 109.08 172.734 108.811 173.215 108.271C173.699 107.732 173.941 106.965 173.941 105.969V105.471C173.941 104.502 173.713 103.75 173.256 103.215C172.803 102.676 172.158 102.402 171.322 102.395H170.01ZM181.828 106.361C181.828 107.631 181.611 108.574 181.178 109.191C180.744 109.809 180.066 110.117 179.145 110.117C178.234 110.117 177.561 109.816 177.123 109.215C176.686 108.609 176.459 107.707 176.443 106.508V105.061C176.443 103.807 176.66 102.875 177.094 102.266C177.527 101.656 178.207 101.352 179.133 101.352C180.051 101.352 180.727 101.646 181.16 102.236C181.594 102.822 181.816 103.729 181.828 104.955V106.361ZM180.744 104.879C180.744 103.961 180.615 103.293 180.357 102.875C180.1 102.453 179.691 102.242 179.133 102.242C178.578 102.242 178.174 102.451 177.92 102.869C177.666 103.287 177.535 103.93 177.527 104.797V106.531C177.527 107.453 177.66 108.135 177.926 108.576C178.195 109.014 178.602 109.232 179.145 109.232C179.68 109.232 180.076 109.025 180.334 108.611C180.596 108.197 180.732 107.545 180.744 106.654V104.879Z" fill="black"/>
<path d="M45.8691 8.29297C45.7637 9.19531 45.4297 9.89258 44.8672 10.3848C44.3086 10.873 43.5645 11.1172 42.6348 11.1172C41.627 11.1172 40.8184 10.7559 40.209 10.0332C39.6035 9.31055 39.3008 8.34375 39.3008 7.13281V6.3125C39.3008 5.51953 39.4414 4.82227 39.7227 4.2207C40.0078 3.61914 40.4102 3.1582 40.9297 2.83789C41.4492 2.51367 42.0508 2.35156 42.7344 2.35156C43.6406 2.35156 44.3672 2.60547 44.9141 3.11328C45.4609 3.61719 45.7793 4.31641 45.8691 5.21094H44.7383C44.6406 4.53125 44.4277 4.03906 44.0996 3.73438C43.7754 3.42969 43.3203 3.27734 42.7344 3.27734C42.0156 3.27734 41.4512 3.54297 41.041 4.07422C40.6348 4.60547 40.4316 5.36133 40.4316 6.3418V7.16797C40.4316 8.09375 40.625 8.83008 41.0117 9.37695C41.3984 9.92383 41.9395 10.1973 42.6348 10.1973C43.2598 10.1973 43.7383 10.0566 44.0703 9.77539C44.4062 9.49023 44.6289 8.99609 44.7383 8.29297H45.8691ZM28.9941 21.5371C28.9941 20.6543 29.1113 19.8066 29.3457 18.9941C29.584 18.1816 29.9375 17.4434 30.4062 16.7793C30.875 16.1152 31.3613 15.6465 31.8652 15.373L32.0879 16.0879C31.5176 16.5254 31.0488 17.1934 30.6816 18.0918C30.3184 18.9902 30.1191 19.9961 30.084 21.1094L30.0781 21.6074C30.0781 23.1152 30.3535 24.4238 30.9043 25.5332C31.2363 26.1973 31.6309 26.7168 32.0879 27.0918L31.8652 27.7539C31.3457 27.4648 30.8496 26.9805 30.377 26.3008C29.4551 24.9727 28.9941 23.3848 28.9941 21.5371ZM37.2793 16.4629V17.3828H37.0801C36.2363 17.3984 35.5645 17.6484 35.0645 18.1328C34.5645 18.6172 34.2754 19.2988 34.1973 20.1777C34.6465 19.6621 35.2598 19.4043 36.0371 19.4043C36.7793 19.4043 37.3711 19.666 37.8125 20.1895C38.2578 20.7129 38.4805 21.3887 38.4805 22.2168C38.4805 23.0957 38.2402 23.7988 37.7598 24.3262C37.2832 24.8535 36.6426 25.1172 35.8379 25.1172C35.0215 25.1172 34.3594 24.8047 33.8516 24.1797C33.3438 23.5508 33.0898 22.7422 33.0898 21.7539V21.3379C33.0898 19.7676 33.4238 18.5684 34.0918 17.7402C34.7637 16.9082 35.7617 16.4824 37.0859 16.4629H37.2793ZM35.8555 20.3066C35.4844 20.3066 35.1426 20.418 34.8301 20.6406C34.5176 20.8633 34.3008 21.1426 34.1797 21.4785V21.877C34.1797 22.5801 34.3379 23.1465 34.6543 23.5762C34.9707 24.0059 35.3652 24.2207 35.8379 24.2207C36.3262 24.2207 36.709 24.041 36.9863 23.6816C37.2676 23.3223 37.4082 22.8516 37.4082 22.2695C37.4082 21.6836 37.2656 21.2109 36.9805 20.8516C36.6992 20.4883 36.3242 20.3066 35.8555 20.3066ZM48.2188 21.9004C48.2188 22.8691 47.9961 23.6484 47.5508 24.2383C47.1055 24.8242 46.5078 25.1172 45.7578 25.1172C44.957 25.1172 44.3379 24.834 43.9004 24.2676L43.8477 25H42.8516V16H43.9355V19.3574C44.373 18.8145 44.9766 18.543 45.7461 18.543C46.5156 18.543 47.1191 18.834 47.5566 19.416C47.998 19.998 48.2188 20.7949 48.2188 21.8066V21.9004ZM47.1348 21.7773C47.1348 21.0391 46.9922 20.4688 46.707 20.0664C46.4219 19.6641 46.0117 19.4629 45.4766 19.4629C44.7617 19.4629 44.248 19.7949 43.9355 20.459V23.2012C44.2676 23.8652 44.7852 24.1973 45.4883 24.1973C46.0078 24.1973 46.4121 23.9961 46.7012 23.5938C46.9902 23.1914 47.1348 22.5859 47.1348 21.7773ZM50.7676 25H49.6836V18.6602H50.7676V25ZM49.5957 16.9785C49.5957 16.8027 49.6484 16.6543 49.7539 16.5332C49.8633 16.4121 50.0234 16.3516 50.2344 16.3516C50.4453 16.3516 50.6055 16.4121 50.7148 16.5332C50.8242 16.6543 50.8789 16.8027 50.8789 16.9785C50.8789 17.1543 50.8242 17.3008 50.7148 17.418C50.6055 17.5352 50.4453 17.5938 50.2344 17.5938C50.0234 17.5938 49.8633 17.5352 49.7539 17.418C49.6484 17.3008 49.5957 17.1543 49.5957 16.9785ZM53.9785 17.125V18.6602H55.1621V19.498H53.9785V23.4297C53.9785 23.6836 54.0312 23.875 54.1367 24.0039C54.2422 24.1289 54.4219 24.1914 54.6758 24.1914C54.8008 24.1914 54.9727 24.168 55.1914 24.1211V25C54.9062 25.0781 54.6289 25.1172 54.3594 25.1172C53.875 25.1172 53.5098 24.9707 53.2637 24.6777C53.0176 24.3848 52.8945 23.9688 52.8945 23.4297V19.498H51.7402V18.6602H52.8945V17.125H53.9785ZM58.9355 21.5957C58.9355 22.4668 58.8203 23.3027 58.5898 24.1035C58.3633 24.9004 58.0137 25.6367 57.541 26.3125C57.0723 26.9883 56.5801 27.4688 56.0645 27.7539L55.8359 27.0918C56.4375 26.6309 56.9199 25.916 57.2832 24.9473C57.6504 23.9746 57.8379 22.8965 57.8457 21.7129V21.5254C57.8457 20.7051 57.7598 19.9434 57.5879 19.2402C57.416 18.5332 57.1758 17.9004 56.8672 17.3418C56.5625 16.7832 56.2188 16.3477 55.8359 16.0352L56.0645 15.373C56.5801 15.6582 57.0703 16.1348 57.5352 16.8027C58.0039 17.4707 58.3535 18.207 58.584 19.0117C58.8184 19.8164 58.9355 20.6777 58.9355 21.5957Z" fill="black"/>
<path d="M156.564 11V2.46875H158.973C159.715 2.46875 160.371 2.63281 160.941 2.96094C161.512 3.28906 161.951 3.75586 162.26 4.36133C162.572 4.9668 162.73 5.66211 162.734 6.44727V6.99219C162.734 7.79688 162.578 8.50195 162.266 9.10742C161.957 9.71289 161.514 10.1777 160.936 10.502C160.361 10.8262 159.691 10.9922 158.926 11H156.564ZM157.689 3.39453V10.0801H158.873C159.74 10.0801 160.414 9.81055 160.895 9.27148C161.379 8.73242 161.621 7.96484 161.621 6.96875V6.4707C161.621 5.50195 161.393 4.75 160.936 4.21484C160.482 3.67578 159.838 3.40234 159.002 3.39453H157.689ZM145.994 21.5371C145.994 20.6543 146.111 19.8066 146.346 18.9941C146.584 18.1816 146.938 17.4434 147.406 16.7793C147.875 16.1152 148.361 15.6465 148.865 15.373L149.088 16.0879C148.518 16.5254 148.049 17.1934 147.682 18.0918C147.318 18.9902 147.119 19.9961 147.084 21.1094L147.078 21.6074C147.078 23.1152 147.354 24.4238 147.904 25.5332C148.236 26.1973 148.631 26.7168 149.088 27.0918L148.865 27.7539C148.346 27.4648 147.85 26.9805 147.377 26.3008C146.455 24.9727 145.994 23.3848 145.994 21.5371ZM154.279 16.4629V17.3828H154.08C153.236 17.3984 152.564 17.6484 152.064 18.1328C151.564 18.6172 151.275 19.2988 151.197 20.1777C151.646 19.6621 152.26 19.4043 153.037 19.4043C153.779 19.4043 154.371 19.666 154.812 20.1895C155.258 20.7129 155.48 21.3887 155.48 22.2168C155.48 23.0957 155.24 23.7988 154.76 24.3262C154.283 24.8535 153.643 25.1172 152.838 25.1172C152.021 25.1172 151.359 24.8047 150.852 24.1797C150.344 23.5508 150.09 22.7422 150.09 21.7539V21.3379C150.09 19.7676 150.424 18.5684 151.092 17.7402C151.764 16.9082 152.762 16.4824 154.086 16.4629H154.279ZM152.855 20.3066C152.484 20.3066 152.143 20.418 151.83 20.6406C151.518 20.8633 151.301 21.1426 151.18 21.4785V21.877C151.18 22.5801 151.338 23.1465 151.654 23.5762C151.971 24.0059 152.365 24.2207 152.838 24.2207C153.326 24.2207 153.709 24.041 153.986 23.6816C154.268 23.3223 154.408 22.8516 154.408 22.2695C154.408 21.6836 154.266 21.2109 153.98 20.8516C153.699 20.4883 153.324 20.3066 152.855 20.3066ZM165.219 21.9004C165.219 22.8691 164.996 23.6484 164.551 24.2383C164.105 24.8242 163.508 25.1172 162.758 25.1172C161.957 25.1172 161.338 24.834 160.9 24.2676L160.848 25H159.852V16H160.936V19.3574C161.373 18.8145 161.977 18.543 162.746 18.543C163.516 18.543 164.119 18.834 164.557 19.416C164.998 19.998 165.219 20.7949 165.219 21.8066V21.9004ZM164.135 21.7773C164.135 21.0391 163.992 20.4688 163.707 20.0664C163.422 19.6641 163.012 19.4629 162.477 19.4629C161.762 19.4629 161.248 19.7949 160.936 20.459V23.2012C161.268 23.8652 161.785 24.1973 162.488 24.1973C163.008 24.1973 163.412 23.9961 163.701 23.5938C163.99 23.1914 164.135 22.5859 164.135 21.7773ZM167.768 25H166.684V18.6602H167.768V25ZM166.596 16.9785C166.596 16.8027 166.648 16.6543 166.754 16.5332C166.863 16.4121 167.023 16.3516 167.234 16.3516C167.445 16.3516 167.605 16.4121 167.715 16.5332C167.824 16.6543 167.879 16.8027 167.879 16.9785C167.879 17.1543 167.824 17.3008 167.715 17.418C167.605 17.5352 167.445 17.5938 167.234 17.5938C167.023 17.5938 166.863 17.5352 166.754 17.418C166.648 17.3008 166.596 17.1543 166.596 16.9785ZM170.979 17.125V18.6602H172.162V19.498H170.979V23.4297C170.979 23.6836 171.031 23.875 171.137 24.0039C171.242 24.1289 171.422 24.1914 171.676 24.1914C171.801 24.1914 171.973 24.168 172.191 24.1211V25C171.906 25.0781 171.629 25.1172 171.359 25.1172C170.875 25.1172 170.51 24.9707 170.264 24.6777C170.018 24.3848 169.895 23.9688 169.895 23.4297V19.498H168.74V18.6602H169.895V17.125H170.979ZM175.936 21.5957C175.936 22.4668 175.82 23.3027 175.59 24.1035C175.363 24.9004 175.014 25.6367 174.541 26.3125C174.072 26.9883 173.58 27.4688 173.064 27.7539L172.836 27.0918C173.438 26.6309 173.92 25.916 174.283 24.9473C174.65 23.9746 174.838 22.8965 174.846 21.7129V21.5254C174.846 20.7051 174.76 19.9434 174.588 19.2402C174.416 18.5332 174.176 17.9004 173.867 17.3418C173.562 16.7832 173.219 16.3477 172.836 16.0352L173.064 15.373C173.58 15.6582 174.07 16.1348 174.535 16.8027C175.004 17.4707 175.354 18.207 175.584 19.0117C175.818 19.8164 175.936 20.6777 175.936 21.5957Z" fill="black"/>
</svg>
