<svg width="201" height="349" viewBox="0 0 201 349" fill="none" xmlns="http://www.w3.org/2000/svg">
<path d="M43.2929 91.7071C43.6834 92.0976 44.3166 92.0976 44.7071 91.7071L51.0711 85.3431C51.4616 84.9526 51.4616 84.3195 51.0711 83.9289C50.6805 83.5384 50.0474 83.5384 49.6569 83.9289L44 89.5858L38.3431 83.9289C37.9526 83.5384 37.3195 83.5384 36.9289 83.9289C36.5384 84.3195 36.5384 84.9526 36.9289 85.3431L43.2929 91.7071ZM43 35V91H45V35H43Z" fill="black"/>
<path d="M100.293 348.707C100.683 349.098 101.317 349.098 101.707 348.707L108.071 342.343C108.462 341.953 108.462 341.319 108.071 340.929C107.681 340.538 107.047 340.538 106.657 340.929L101 346.586L95.3431 340.929C94.9526 340.538 94.3195 340.538 93.9289 340.929C93.5384 341.319 93.5384 341.953 93.9289 342.343L100.293 348.707ZM100 292V348H102V292H100Z" fill="black"/>
<path d="M160.293 91.7071C160.683 92.0976 161.317 92.0976 161.707 91.7071L168.071 85.3431C168.462 84.9526 168.462 84.3195 168.071 83.9289C167.681 83.5384 167.047 83.5384 166.657 83.9289L161 89.5858L155.343 83.9289C154.953 83.5384 154.319 83.5384 153.929 83.9289C153.538 84.3195 153.538 84.9526 153.929 85.3431L160.293 91.7071ZM160 35V91H162V35H160Z" fill="black"/>
<rect x="0.5" y="91.5" width="200" height="200" fill="#C4C4C4" stroke="black"/>
<path d="M58.7012 187.469L61.4902 194.43L64.2793 187.469H65.7383V196H64.6133V192.678L64.7188 189.092L61.918 196H61.0566L58.2617 189.109L58.373 192.678V196H57.248V187.469H58.7012ZM68.9316 196H67.8066V187.469H68.9316V196ZM77.5508 196H76.4199L72.125 189.426V196H70.9941V187.469H72.125L76.4316 194.072V187.469H77.5508V196ZM86.1113 192.01C86.1113 192.846 85.9707 193.576 85.6895 194.201C85.4082 194.822 85.0098 195.297 84.4941 195.625C83.9785 195.953 83.377 196.117 82.6895 196.117C82.0176 196.117 81.4219 195.953 80.9023 195.625C80.3828 195.293 79.9785 194.822 79.6895 194.213C79.4043 193.6 79.2578 192.891 79.25 192.086V191.471C79.25 190.65 79.3926 189.926 79.6777 189.297C79.9629 188.668 80.3652 188.188 80.8848 187.855C81.4082 187.52 82.0059 187.352 82.6777 187.352C83.3613 187.352 83.9629 187.518 84.4824 187.85C85.0059 188.178 85.4082 188.656 85.6895 189.285C85.9707 189.91 86.1113 190.639 86.1113 191.471V192.01ZM84.9922 191.459C84.9922 190.447 84.7891 189.672 84.3828 189.133C83.9766 188.59 83.4082 188.318 82.6777 188.318C81.9668 188.318 81.4062 188.59 80.9961 189.133C80.5898 189.672 80.3809 190.422 80.3691 191.383V192.01C80.3691 192.99 80.5742 193.762 80.9844 194.324C81.3984 194.883 81.9668 195.162 82.6895 195.162C83.416 195.162 83.9785 194.898 84.377 194.371C84.7754 193.84 84.9805 193.08 84.9922 192.092V191.459ZM90.9277 192.549H88.9238V196H87.793V187.469H90.6172C91.5781 187.469 92.3164 187.688 92.832 188.125C93.3516 188.562 93.6113 189.199 93.6113 190.035C93.6113 190.566 93.4668 191.029 93.1777 191.424C92.8926 191.818 92.4941 192.113 91.9824 192.309L93.9863 195.93V196H92.7793L90.9277 192.549ZM88.9238 191.629H90.6523C91.2109 191.629 91.6543 191.484 91.9824 191.195C92.3145 190.906 92.4805 190.52 92.4805 190.035C92.4805 189.508 92.3223 189.104 92.0059 188.822C91.6934 188.541 91.2402 188.398 90.6465 188.395H88.9238V191.629ZM100.016 192.057H96.3184V195.08H100.613V196H95.1934V187.469H100.555V188.395H96.3184V191.137H100.016V192.057ZM108.02 187.469V193.27C108.016 194.074 107.762 194.732 107.258 195.244C106.758 195.756 106.078 196.043 105.219 196.105L104.92 196.117C103.986 196.117 103.242 195.865 102.688 195.361C102.133 194.857 101.852 194.164 101.844 193.281V187.469H102.957V193.246C102.957 193.863 103.127 194.344 103.467 194.688C103.807 195.027 104.291 195.197 104.92 195.197C105.557 195.197 106.043 195.027 106.379 194.688C106.719 194.348 106.889 193.869 106.889 193.252V187.469H108.02ZM116.094 194.881C115.805 195.295 115.4 195.605 114.881 195.812C114.365 196.016 113.764 196.117 113.076 196.117C112.381 196.117 111.764 195.955 111.225 195.631C110.686 195.303 110.268 194.838 109.971 194.236C109.678 193.635 109.527 192.938 109.52 192.145V191.4C109.52 190.115 109.818 189.119 110.416 188.412C111.018 187.705 111.861 187.352 112.947 187.352C113.838 187.352 114.555 187.58 115.098 188.037C115.641 188.49 115.973 189.135 116.094 189.971H114.969C114.758 188.842 114.086 188.277 112.953 188.277C112.199 188.277 111.627 188.543 111.236 189.074C110.85 189.602 110.654 190.367 110.65 191.371V192.068C110.65 193.025 110.869 193.787 111.307 194.354C111.744 194.916 112.336 195.197 113.082 195.197C113.504 195.197 113.873 195.15 114.189 195.057C114.506 194.963 114.768 194.805 114.975 194.582V192.666H113V191.752H116.094V194.881ZM123.98 187.469V193.27C123.977 194.074 123.723 194.732 123.219 195.244C122.719 195.756 122.039 196.043 121.18 196.105L120.881 196.117C119.947 196.117 119.203 195.865 118.648 195.361C118.094 194.857 117.812 194.164 117.805 193.281V187.469H118.918V193.246C118.918 193.863 119.088 194.344 119.428 194.688C119.768 195.027 120.252 195.197 120.881 195.197C121.518 195.197 122.004 195.027 122.34 194.688C122.68 194.348 122.85 193.869 122.85 193.252V187.469H123.98ZM130.338 193.773H126.764L125.961 196H124.801L128.059 187.469H129.043L132.307 196H131.152L130.338 193.773ZM127.104 192.848H130.004L128.551 188.857L127.104 192.848ZM134.586 195.08H138.629V196H133.455V187.469H134.586V195.08ZM144.734 192.057H141.037V195.08H145.332V196H139.912V187.469H145.273V188.395H141.037V191.137H144.734V192.057ZM82.625 206.537C82.625 205.654 82.7422 204.807 82.9766 203.994C83.2148 203.182 83.5684 202.443 84.0371 201.779C84.5059 201.115 84.9922 200.646 85.4961 200.373L85.7188 201.088C85.1484 201.525 84.6797 202.193 84.3125 203.092C83.9492 203.99 83.75 204.996 83.7148 206.109L83.709 206.607C83.709 208.115 83.9844 209.424 84.5352 210.533C84.8672 211.197 85.2617 211.717 85.7188 212.092L85.4961 212.754C84.9766 212.465 84.4805 211.98 84.0078 211.301C83.0859 209.973 82.625 208.385 82.625 206.537ZM90.2188 210H89.1289V202.775L86.9434 203.578V202.594L90.0488 201.428H90.2188V210ZM97.6484 201.463V202.383H97.4492C96.6055 202.398 95.9336 202.648 95.4336 203.133C94.9336 203.617 94.6445 204.299 94.5664 205.178C95.0156 204.662 95.6289 204.404 96.4062 204.404C97.1484 204.404 97.7402 204.666 98.1816 205.189C98.627 205.713 98.8496 206.389 98.8496 207.217C98.8496 208.096 98.6094 208.799 98.1289 209.326C97.6523 209.854 97.0117 210.117 96.207 210.117C95.3906 210.117 94.7285 209.805 94.2207 209.18C93.7129 208.551 93.459 207.742 93.459 206.754V206.338C93.459 204.768 93.793 203.568 94.4609 202.74C95.1328 201.908 96.1309 201.482 97.4551 201.463H97.6484ZM96.2246 205.307C95.8535 205.307 95.5117 205.418 95.1992 205.641C94.8867 205.863 94.6699 206.143 94.5488 206.479V206.877C94.5488 207.58 94.707 208.146 95.0234 208.576C95.3398 209.006 95.7344 209.221 96.207 209.221C96.6953 209.221 97.0781 209.041 97.3555 208.682C97.6367 208.322 97.7773 207.852 97.7773 207.27C97.7773 206.684 97.6348 206.211 97.3496 205.852C97.0684 205.488 96.6934 205.307 96.2246 205.307ZM108.588 206.9C108.588 207.869 108.365 208.648 107.92 209.238C107.475 209.824 106.877 210.117 106.127 210.117C105.326 210.117 104.707 209.834 104.27 209.268L104.217 210H103.221V201H104.305V204.357C104.742 203.814 105.346 203.543 106.115 203.543C106.885 203.543 107.488 203.834 107.926 204.416C108.367 204.998 108.588 205.795 108.588 206.807V206.9ZM107.504 206.777C107.504 206.039 107.361 205.469 107.076 205.066C106.791 204.664 106.381 204.463 105.846 204.463C105.131 204.463 104.617 204.795 104.305 205.459V208.201C104.637 208.865 105.154 209.197 105.857 209.197C106.377 209.197 106.781 208.996 107.07 208.594C107.359 208.191 107.504 207.586 107.504 206.777ZM111.137 210H110.053V203.66H111.137V210ZM109.965 201.979C109.965 201.803 110.018 201.654 110.123 201.533C110.232 201.412 110.393 201.352 110.604 201.352C110.814 201.352 110.975 201.412 111.084 201.533C111.193 201.654 111.248 201.803 111.248 201.979C111.248 202.154 111.193 202.301 111.084 202.418C110.975 202.535 110.814 202.594 110.604 202.594C110.393 202.594 110.232 202.535 110.123 202.418C110.018 202.301 109.965 202.154 109.965 201.979ZM114.348 202.125V203.66H115.531V204.498H114.348V208.43C114.348 208.684 114.4 208.875 114.506 209.004C114.611 209.129 114.791 209.191 115.045 209.191C115.17 209.191 115.342 209.168 115.561 209.121V210C115.275 210.078 114.998 210.117 114.729 210.117C114.244 210.117 113.879 209.971 113.633 209.678C113.387 209.385 113.264 208.969 113.264 208.43V204.498H112.109V203.66H113.264V202.125H114.348ZM119.305 206.596C119.305 207.467 119.189 208.303 118.959 209.104C118.732 209.9 118.383 210.637 117.91 211.312C117.441 211.988 116.949 212.469 116.434 212.754L116.205 212.092C116.807 211.631 117.289 210.916 117.652 209.947C118.02 208.975 118.207 207.896 118.215 206.713V206.525C118.215 205.705 118.129 204.943 117.957 204.24C117.785 203.533 117.545 202.9 117.236 202.342C116.932 201.783 116.588 201.348 116.205 201.035L116.434 200.373C116.949 200.658 117.439 201.135 117.904 201.803C118.373 202.471 118.723 203.207 118.953 204.012C119.188 204.816 119.305 205.678 119.305 206.596Z" fill="black"/>
<path d="M96.2656 280.293C96.1602 281.195 95.8262 281.893 95.2637 282.385C94.7051 282.873 93.9609 283.117 93.0312 283.117C92.0234 283.117 91.2148 282.756 90.6055 282.033C90 281.311 89.6973 280.344 89.6973 279.133V278.312C89.6973 277.52 89.8379 276.822 90.1191 276.221C90.4043 275.619 90.8066 275.158 91.3262 274.838C91.8457 274.514 92.4473 274.352 93.1309 274.352C94.0371 274.352 94.7637 274.605 95.3105 275.113C95.8574 275.617 96.1758 276.316 96.2656 277.211H95.1348C95.0371 276.531 94.8242 276.039 94.4961 275.734C94.1719 275.43 93.7168 275.277 93.1309 275.277C92.4121 275.277 91.8477 275.543 91.4375 276.074C91.0312 276.605 90.8281 277.361 90.8281 278.342V279.168C90.8281 280.094 91.0215 280.83 91.4082 281.377C91.7949 281.924 92.3359 282.197 93.0312 282.197C93.6562 282.197 94.1348 282.057 94.4668 281.775C94.8027 281.49 95.0254 280.996 95.1348 280.293H96.2656ZM98.8145 283H97.7305V274H98.8145V283ZM103.186 283.117C102.326 283.117 101.627 282.836 101.088 282.273C100.549 281.707 100.279 280.951 100.279 280.006V279.807C100.279 279.178 100.398 278.617 100.637 278.125C100.879 277.629 101.215 277.242 101.645 276.965C102.078 276.684 102.547 276.543 103.051 276.543C103.875 276.543 104.516 276.814 104.973 277.357C105.43 277.9 105.658 278.678 105.658 279.689V280.141H101.363C101.379 280.766 101.561 281.271 101.908 281.658C102.26 282.041 102.705 282.232 103.244 282.232C103.627 282.232 103.951 282.154 104.217 281.998C104.482 281.842 104.715 281.635 104.914 281.377L105.576 281.893C105.045 282.709 104.248 283.117 103.186 283.117ZM103.051 277.434C102.613 277.434 102.246 277.594 101.949 277.914C101.652 278.23 101.469 278.676 101.398 279.25H104.574V279.168C104.543 278.617 104.395 278.191 104.129 277.891C103.863 277.586 103.504 277.434 103.051 277.434ZM107.088 283V274.469H109.496C110.238 274.469 110.895 274.633 111.465 274.961C112.035 275.289 112.475 275.756 112.783 276.361C113.096 276.967 113.254 277.662 113.258 278.447V278.992C113.258 279.797 113.102 280.502 112.789 281.107C112.48 281.713 112.037 282.178 111.459 282.502C110.885 282.826 110.215 282.992 109.449 283H107.088ZM108.213 275.395V282.08H109.396C110.264 282.08 110.938 281.811 111.418 281.271C111.902 280.732 112.145 279.965 112.145 278.969V278.471C112.145 277.502 111.916 276.75 111.459 276.215C111.006 275.676 110.361 275.402 109.525 275.395H108.213Z" fill="black"/>
<path d="M24.2656 107.293C24.1602 108.195 23.8262 108.893 23.2637 109.385C22.7051 109.873 21.9609 110.117 21.0312 110.117C20.0234 110.117 19.2148 109.756 18.6055 109.033C18 108.311 17.6973 107.344 17.6973 106.133V105.312C17.6973 104.52 17.8379 103.822 18.1191 103.221C18.4043 102.619 18.8066 102.158 19.3262 101.838C19.8457 101.514 20.4473 101.352 21.1309 101.352C22.0371 101.352 22.7637 101.605 23.3105 102.113C23.8574 102.617 24.1758 103.316 24.2656 104.211H23.1348C23.0371 103.531 22.8242 103.039 22.4961 102.734C22.1719 102.43 21.7168 102.277 21.1309 102.277C20.4121 102.277 19.8477 102.543 19.4375 103.074C19.0312 103.605 18.8281 104.361 18.8281 105.342V106.168C18.8281 107.094 19.0215 107.83 19.4082 108.377C19.7949 108.924 20.3359 109.197 21.0312 109.197C21.6562 109.197 22.1348 109.057 22.4668 108.775C22.8027 108.49 23.0254 107.996 23.1348 107.293H24.2656ZM29.0879 110H27.998V102.775L25.8125 103.578V102.594L28.918 101.428H29.0879V110ZM32.7617 105.723L33.1953 101.469H37.5664V102.471H34.1152L33.8574 104.797C34.2754 104.551 34.75 104.428 35.2812 104.428C36.0586 104.428 36.6758 104.686 37.1328 105.201C37.5898 105.713 37.8184 106.406 37.8184 107.281C37.8184 108.16 37.5801 108.854 37.1035 109.361C36.6309 109.865 35.9688 110.117 35.1172 110.117C34.3633 110.117 33.748 109.908 33.2715 109.49C32.7949 109.072 32.5234 108.494 32.457 107.756H33.4824C33.5488 108.244 33.7227 108.613 34.0039 108.863C34.2852 109.109 34.6562 109.232 35.1172 109.232C35.6211 109.232 36.0156 109.061 36.3008 108.717C36.5898 108.373 36.7344 107.898 36.7344 107.293C36.7344 106.723 36.5781 106.266 36.2656 105.922C35.957 105.574 35.5449 105.4 35.0293 105.4C34.5566 105.4 34.1855 105.504 33.916 105.711L33.6289 105.945L32.7617 105.723ZM42.1133 109.432C42.1133 109.244 42.168 109.088 42.2773 108.963C42.3906 108.838 42.5586 108.775 42.7812 108.775C43.0039 108.775 43.1719 108.838 43.2852 108.963C43.4023 109.088 43.4609 109.244 43.4609 109.432C43.4609 109.611 43.4023 109.762 43.2852 109.883C43.1719 110.004 43.0039 110.064 42.7812 110.064C42.5586 110.064 42.3906 110.004 42.2773 109.883C42.168 109.762 42.1133 109.611 42.1133 109.432ZM45.2773 109.432C45.2773 109.244 45.332 109.088 45.4414 108.963C45.5547 108.838 45.7227 108.775 45.9453 108.775C46.168 108.775 46.3359 108.838 46.4492 108.963C46.5664 109.088 46.625 109.244 46.625 109.432C46.625 109.611 46.5664 109.762 46.4492 109.883C46.3359 110.004 46.168 110.064 45.9453 110.064C45.7227 110.064 45.5547 110.004 45.4414 109.883C45.332 109.762 45.2773 109.611 45.2773 109.432ZM57.8398 107.293C57.7344 108.195 57.4004 108.893 56.8379 109.385C56.2793 109.873 55.5352 110.117 54.6055 110.117C53.5977 110.117 52.7891 109.756 52.1797 109.033C51.5742 108.311 51.2715 107.344 51.2715 106.133V105.312C51.2715 104.52 51.4121 103.822 51.6934 103.221C51.9785 102.619 52.3809 102.158 52.9004 101.838C53.4199 101.514 54.0215 101.352 54.7051 101.352C55.6113 101.352 56.3379 101.605 56.8848 102.113C57.4316 102.617 57.75 103.316 57.8398 104.211H56.709C56.6113 103.531 56.3984 103.039 56.0703 102.734C55.7461 102.43 55.291 102.277 54.7051 102.277C53.9863 102.277 53.4219 102.543 53.0117 103.074C52.6055 103.605 52.4023 104.361 52.4023 105.342V106.168C52.4023 107.094 52.5957 107.83 52.9824 108.377C53.3691 108.924 53.9102 109.197 54.6055 109.197C55.2305 109.197 55.709 109.057 56.041 108.775C56.377 108.49 56.5996 107.996 56.709 107.293H57.8398ZM64.4492 106.361C64.4492 107.631 64.2324 108.574 63.7988 109.191C63.3652 109.809 62.6875 110.117 61.7656 110.117C60.8555 110.117 60.1816 109.816 59.7441 109.215C59.3066 108.609 59.0801 107.707 59.0645 106.508V105.061C59.0645 103.807 59.2812 102.875 59.7148 102.266C60.1484 101.656 60.8281 101.352 61.7539 101.352C62.6719 101.352 63.3477 101.646 63.7812 102.236C64.2148 102.822 64.4375 103.729 64.4492 104.955V106.361ZM63.3652 104.879C63.3652 103.961 63.2363 103.293 62.9785 102.875C62.7207 102.453 62.3125 102.242 61.7539 102.242C61.1992 102.242 60.7949 102.451 60.541 102.869C60.2871 103.287 60.1562 103.93 60.1484 104.797V106.531C60.1484 107.453 60.2812 108.135 60.5469 108.576C60.8164 109.014 61.2227 109.232 61.7656 109.232C62.3008 109.232 62.6973 109.025 62.9551 108.611C63.2168 108.197 63.3535 107.545 63.3652 106.654V104.879Z" fill="black"/>
<path d="M137.99 110V101.469H140.398C141.141 101.469 141.797 101.633 142.367 101.961C142.938 102.289 143.377 102.756 143.686 103.361C143.998 103.967 144.156 104.662 144.16 105.447V105.992C144.16 106.797 144.004 107.502 143.691 108.107C143.383 108.713 142.939 109.178 142.361 109.502C141.787 109.826 141.117 109.992 140.352 110H137.99ZM139.115 102.395V109.08H140.299C141.166 109.08 141.84 108.811 142.32 108.271C142.805 107.732 143.047 106.965 143.047 105.969V105.471C143.047 104.502 142.818 103.75 142.361 103.215C141.908 102.676 141.264 102.402 140.428 102.395H139.115ZM149.146 110H148.057V102.775L145.871 103.578V102.594L148.977 101.428H149.146V110ZM152.82 105.723L153.254 101.469H157.625V102.471H154.174L153.916 104.797C154.334 104.551 154.809 104.428 155.34 104.428C156.117 104.428 156.734 104.686 157.191 105.201C157.648 105.713 157.877 106.406 157.877 107.281C157.877 108.16 157.639 108.854 157.162 109.361C156.689 109.865 156.027 110.117 155.176 110.117C154.422 110.117 153.807 109.908 153.33 109.49C152.854 109.072 152.582 108.494 152.516 107.756H153.541C153.607 108.244 153.781 108.613 154.062 108.863C154.344 109.109 154.715 109.232 155.176 109.232C155.68 109.232 156.074 109.061 156.359 108.717C156.648 108.373 156.793 107.898 156.793 107.293C156.793 106.723 156.637 106.266 156.324 105.922C156.016 105.574 155.604 105.4 155.088 105.4C154.615 105.4 154.244 105.504 153.975 105.711L153.688 105.945L152.82 105.723ZM162.172 109.432C162.172 109.244 162.227 109.088 162.336 108.963C162.449 108.838 162.617 108.775 162.84 108.775C163.062 108.775 163.23 108.838 163.344 108.963C163.461 109.088 163.52 109.244 163.52 109.432C163.52 109.611 163.461 109.762 163.344 109.883C163.23 110.004 163.062 110.064 162.84 110.064C162.617 110.064 162.449 110.004 162.336 109.883C162.227 109.762 162.172 109.611 162.172 109.432ZM165.336 109.432C165.336 109.244 165.391 109.088 165.5 108.963C165.613 108.838 165.781 108.775 166.004 108.775C166.227 108.775 166.395 108.838 166.508 108.963C166.625 109.088 166.684 109.244 166.684 109.432C166.684 109.611 166.625 109.762 166.508 109.883C166.395 110.004 166.227 110.064 166.004 110.064C165.781 110.064 165.613 110.004 165.5 109.883C165.391 109.762 165.336 109.611 165.336 109.432ZM171.623 110V101.469H174.031C174.773 101.469 175.43 101.633 176 101.961C176.57 102.289 177.01 102.756 177.318 103.361C177.631 103.967 177.789 104.662 177.793 105.447V105.992C177.793 106.797 177.637 107.502 177.324 108.107C177.016 108.713 176.572 109.178 175.994 109.502C175.42 109.826 174.75 109.992 173.984 110H171.623ZM172.748 102.395V109.08H173.932C174.799 109.08 175.473 108.811 175.953 108.271C176.438 107.732 176.68 106.965 176.68 105.969V105.471C176.68 104.502 176.451 103.75 175.994 103.215C175.541 102.676 174.896 102.402 174.061 102.395H172.748ZM184.566 106.361C184.566 107.631 184.35 108.574 183.916 109.191C183.482 109.809 182.805 110.117 181.883 110.117C180.973 110.117 180.299 109.816 179.861 109.215C179.424 108.609 179.197 107.707 179.182 106.508V105.061C179.182 103.807 179.398 102.875 179.832 102.266C180.266 101.656 180.945 101.352 181.871 101.352C182.789 101.352 183.465 101.646 183.898 102.236C184.332 102.822 184.555 103.729 184.566 104.955V106.361ZM183.482 104.879C183.482 103.961 183.354 103.293 183.096 102.875C182.838 102.453 182.43 102.242 181.871 102.242C181.316 102.242 180.912 102.451 180.658 102.869C180.404 103.287 180.273 103.93 180.266 104.797V106.531C180.266 107.453 180.398 108.135 180.664 108.576C180.934 109.014 181.34 109.232 181.883 109.232C182.418 109.232 182.814 109.025 183.072 108.611C183.334 108.197 183.471 107.545 183.482 106.654V104.879Z" fill="black"/>
<path d="M46.3691 8.29297C46.2637 9.19531 45.9297 9.89258 45.3672 10.3848C44.8086 10.873 44.0645 11.1172 43.1348 11.1172C42.127 11.1172 41.3184 10.7559 40.709 10.0332C40.1035 9.31055 39.8008 8.34375 39.8008 7.13281V6.3125C39.8008 5.51953 39.9414 4.82227 40.2227 4.2207C40.5078 3.61914 40.9102 3.1582 41.4297 2.83789C41.9492 2.51367 42.5508 2.35156 43.2344 2.35156C44.1406 2.35156 44.8672 2.60547 45.4141 3.11328C45.9609 3.61719 46.2793 4.31641 46.3691 5.21094H45.2383C45.1406 4.53125 44.9277 4.03906 44.5996 3.73438C44.2754 3.42969 43.8203 3.27734 43.2344 3.27734C42.5156 3.27734 41.9512 3.54297 41.541 4.07422C41.1348 4.60547 40.9316 5.36133 40.9316 6.3418V7.16797C40.9316 8.09375 41.125 8.83008 41.5117 9.37695C41.8984 9.92383 42.4395 10.1973 43.1348 10.1973C43.7598 10.1973 44.2383 10.0566 44.5703 9.77539C44.9062 9.49023 45.1289 8.99609 45.2383 8.29297H46.3691ZM26.125 21.5371C26.125 20.6543 26.2422 19.8066 26.4766 18.9941C26.7148 18.1816 27.0684 17.4434 27.5371 16.7793C28.0059 16.1152 28.4922 15.6465 28.9961 15.373L29.2188 16.0879C28.6484 16.5254 28.1797 17.1934 27.8125 18.0918C27.4492 18.9902 27.25 19.9961 27.2148 21.1094L27.209 21.6074C27.209 23.1152 27.4844 24.4238 28.0352 25.5332C28.3672 26.1973 28.7617 26.7168 29.2188 27.0918L28.9961 27.7539C28.4766 27.4648 27.9805 26.9805 27.5078 26.3008C26.5859 24.9727 26.125 23.3848 26.125 21.5371ZM33.7188 25H32.6289V17.7754L30.4434 18.5781V17.5938L33.5488 16.4277H33.7188V25ZM41.1484 16.4629V17.3828H40.9492C40.1055 17.3984 39.4336 17.6484 38.9336 18.1328C38.4336 18.6172 38.1445 19.2988 38.0664 20.1777C38.5156 19.6621 39.1289 19.4043 39.9062 19.4043C40.6484 19.4043 41.2402 19.666 41.6816 20.1895C42.127 20.7129 42.3496 21.3887 42.3496 22.2168C42.3496 23.0957 42.1094 23.7988 41.6289 24.3262C41.1523 24.8535 40.5117 25.1172 39.707 25.1172C38.8906 25.1172 38.2285 24.8047 37.7207 24.1797C37.2129 23.5508 36.959 22.7422 36.959 21.7539V21.3379C36.959 19.7676 37.293 18.5684 37.9609 17.7402C38.6328 16.9082 39.6309 16.4824 40.9551 16.4629H41.1484ZM39.7246 20.3066C39.3535 20.3066 39.0117 20.418 38.6992 20.6406C38.3867 20.8633 38.1699 21.1426 38.0488 21.4785V21.877C38.0488 22.5801 38.207 23.1465 38.5234 23.5762C38.8398 24.0059 39.2344 24.2207 39.707 24.2207C40.1953 24.2207 40.5781 24.041 40.8555 23.6816C41.1367 23.3223 41.2773 22.8516 41.2773 22.2695C41.2773 21.6836 41.1348 21.2109 40.8496 20.8516C40.5684 20.4883 40.1934 20.3066 39.7246 20.3066ZM52.0879 21.9004C52.0879 22.8691 51.8652 23.6484 51.4199 24.2383C50.9746 24.8242 50.377 25.1172 49.627 25.1172C48.8262 25.1172 48.207 24.834 47.7695 24.2676L47.7168 25H46.7207V16H47.8047V19.3574C48.2422 18.8145 48.8457 18.543 49.6152 18.543C50.3848 18.543 50.9883 18.834 51.4258 19.416C51.8672 19.998 52.0879 20.7949 52.0879 21.8066V21.9004ZM51.0039 21.7773C51.0039 21.0391 50.8613 20.4688 50.5762 20.0664C50.291 19.6641 49.8809 19.4629 49.3457 19.4629C48.6309 19.4629 48.1172 19.7949 47.8047 20.459V23.2012C48.1367 23.8652 48.6543 24.1973 49.3574 24.1973C49.877 24.1973 50.2812 23.9961 50.5703 23.5938C50.8594 23.1914 51.0039 22.5859 51.0039 21.7773ZM54.6367 25H53.5527V18.6602H54.6367V25ZM53.4648 16.9785C53.4648 16.8027 53.5176 16.6543 53.623 16.5332C53.7324 16.4121 53.8926 16.3516 54.1035 16.3516C54.3145 16.3516 54.4746 16.4121 54.584 16.5332C54.6934 16.6543 54.748 16.8027 54.748 16.9785C54.748 17.1543 54.6934 17.3008 54.584 17.418C54.4746 17.5352 54.3145 17.5938 54.1035 17.5938C53.8926 17.5938 53.7324 17.5352 53.623 17.418C53.5176 17.3008 53.4648 17.1543 53.4648 16.9785ZM57.8477 17.125V18.6602H59.0312V19.498H57.8477V23.4297C57.8477 23.6836 57.9004 23.875 58.0059 24.0039C58.1113 24.1289 58.291 24.1914 58.5449 24.1914C58.6699 24.1914 58.8418 24.168 59.0605 24.1211V25C58.7754 25.0781 58.498 25.1172 58.2285 25.1172C57.7441 25.1172 57.3789 24.9707 57.1328 24.6777C56.8867 24.3848 56.7637 23.9688 56.7637 23.4297V19.498H55.6094V18.6602H56.7637V17.125H57.8477ZM62.8047 21.5957C62.8047 22.4668 62.6895 23.3027 62.459 24.1035C62.2324 24.9004 61.8828 25.6367 61.4102 26.3125C60.9414 26.9883 60.4492 27.4688 59.9336 27.7539L59.7051 27.0918C60.3066 26.6309 60.7891 25.916 61.1523 24.9473C61.5195 23.9746 61.707 22.8965 61.7148 21.7129V21.5254C61.7148 20.7051 61.6289 19.9434 61.457 19.2402C61.2852 18.5332 61.0449 17.9004 60.7363 17.3418C60.4316 16.7832 60.0879 16.3477 59.7051 16.0352L59.9336 15.373C60.4492 15.6582 60.9395 16.1348 61.4043 16.8027C61.873 17.4707 62.2227 18.207 62.4531 19.0117C62.6875 19.8164 62.8047 20.6777 62.8047 21.5957Z" fill="black"/>
<path d="M158.553 11V2.46875H160.961C161.703 2.46875 162.359 2.63281 162.93 2.96094C163.5 3.28906 163.939 3.75586 164.248 4.36133C164.561 4.9668 164.719 5.66211 164.723 6.44727V6.99219C164.723 7.79688 164.566 8.50195 164.254 9.10742C163.945 9.71289 163.502 10.1777 162.924 10.502C162.35 10.8262 161.68 10.9922 160.914 11H158.553ZM159.678 3.39453V10.0801H160.861C161.729 10.0801 162.402 9.81055 162.883 9.27148C163.367 8.73242 163.609 7.96484 163.609 6.96875V6.4707C163.609 5.50195 163.381 4.75 162.924 4.21484C162.471 3.67578 161.826 3.40234 160.99 3.39453H159.678ZM143.125 21.5371C143.125 20.6543 143.242 19.8066 143.477 18.9941C143.715 18.1816 144.068 17.4434 144.537 16.7793C145.006 16.1152 145.492 15.6465 145.996 15.373L146.219 16.0879C145.648 16.5254 145.18 17.1934 144.812 18.0918C144.449 18.9902 144.25 19.9961 144.215 21.1094L144.209 21.6074C144.209 23.1152 144.484 24.4238 145.035 25.5332C145.367 26.1973 145.762 26.7168 146.219 27.0918L145.996 27.7539C145.477 27.4648 144.98 26.9805 144.508 26.3008C143.586 24.9727 143.125 23.3848 143.125 21.5371ZM150.719 25H149.629V17.7754L147.443 18.5781V17.5938L150.549 16.4277H150.719V25ZM158.148 16.4629V17.3828H157.949C157.105 17.3984 156.434 17.6484 155.934 18.1328C155.434 18.6172 155.145 19.2988 155.066 20.1777C155.516 19.6621 156.129 19.4043 156.906 19.4043C157.648 19.4043 158.24 19.666 158.682 20.1895C159.127 20.7129 159.35 21.3887 159.35 22.2168C159.35 23.0957 159.109 23.7988 158.629 24.3262C158.152 24.8535 157.512 25.1172 156.707 25.1172C155.891 25.1172 155.229 24.8047 154.721 24.1797C154.213 23.5508 153.959 22.7422 153.959 21.7539V21.3379C153.959 19.7676 154.293 18.5684 154.961 17.7402C155.633 16.9082 156.631 16.4824 157.955 16.4629H158.148ZM156.725 20.3066C156.354 20.3066 156.012 20.418 155.699 20.6406C155.387 20.8633 155.17 21.1426 155.049 21.4785V21.877C155.049 22.5801 155.207 23.1465 155.523 23.5762C155.84 24.0059 156.234 24.2207 156.707 24.2207C157.195 24.2207 157.578 24.041 157.855 23.6816C158.137 23.3223 158.277 22.8516 158.277 22.2695C158.277 21.6836 158.135 21.2109 157.85 20.8516C157.568 20.4883 157.193 20.3066 156.725 20.3066ZM169.088 21.9004C169.088 22.8691 168.865 23.6484 168.42 24.2383C167.975 24.8242 167.377 25.1172 166.627 25.1172C165.826 25.1172 165.207 24.834 164.77 24.2676L164.717 25H163.721V16H164.805V19.3574C165.242 18.8145 165.846 18.543 166.615 18.543C167.385 18.543 167.988 18.834 168.426 19.416C168.867 19.998 169.088 20.7949 169.088 21.8066V21.9004ZM168.004 21.7773C168.004 21.0391 167.861 20.4688 167.576 20.0664C167.291 19.6641 166.881 19.4629 166.346 19.4629C165.631 19.4629 165.117 19.7949 164.805 20.459V23.2012C165.137 23.8652 165.654 24.1973 166.357 24.1973C166.877 24.1973 167.281 23.9961 167.57 23.5938C167.859 23.1914 168.004 22.5859 168.004 21.7773ZM171.637 25H170.553V18.6602H171.637V25ZM170.465 16.9785C170.465 16.8027 170.518 16.6543 170.623 16.5332C170.732 16.4121 170.893 16.3516 171.104 16.3516C171.314 16.3516 171.475 16.4121 171.584 16.5332C171.693 16.6543 171.748 16.8027 171.748 16.9785C171.748 17.1543 171.693 17.3008 171.584 17.418C171.475 17.5352 171.314 17.5938 171.104 17.5938C170.893 17.5938 170.732 17.5352 170.623 17.418C170.518 17.3008 170.465 17.1543 170.465 16.9785ZM174.848 17.125V18.6602H176.031V19.498H174.848V23.4297C174.848 23.6836 174.9 23.875 175.006 24.0039C175.111 24.1289 175.291 24.1914 175.545 24.1914C175.67 24.1914 175.842 24.168 176.061 24.1211V25C175.775 25.0781 175.498 25.1172 175.229 25.1172C174.744 25.1172 174.379 24.9707 174.133 24.6777C173.887 24.3848 173.764 23.9688 173.764 23.4297V19.498H172.609V18.6602H173.764V17.125H174.848ZM179.805 21.5957C179.805 22.4668 179.689 23.3027 179.459 24.1035C179.232 24.9004 178.883 25.6367 178.41 26.3125C177.941 26.9883 177.449 27.4688 176.934 27.7539L176.705 27.0918C177.307 26.6309 177.789 25.916 178.152 24.9473C178.52 23.9746 178.707 22.8965 178.715 21.7129V21.5254C178.715 20.7051 178.629 19.9434 178.457 19.2402C178.285 18.5332 178.045 17.9004 177.736 17.3418C177.432 16.7832 177.088 16.3477 176.705 16.0352L176.934 15.373C177.449 15.6582 177.939 16.1348 178.404 16.8027C178.873 17.4707 179.223 18.207 179.453 19.0117C179.688 19.8164 179.805 20.6777 179.805 21.5957Z" fill="black"/>
</svg>
