<svg width="201" height="349" viewBox="0 0 201 349" fill="none" xmlns="http://www.w3.org/2000/svg">
<path d="M43.2929 91.7071C43.6834 92.0976 44.3166 92.0976 44.7071 91.7071L51.0711 85.3431C51.4616 84.9526 51.4616 84.3195 51.0711 83.9289C50.6805 83.5384 50.0474 83.5384 49.6569 83.9289L44 89.5858L38.3431 83.9289C37.9526 83.5384 37.3195 83.5384 36.9289 83.9289C36.5384 84.3195 36.5384 84.9526 36.9289 85.3431L43.2929 91.7071ZM43 35V91H45V35H43Z" fill="black"/>
<path d="M100.293 348.707C100.683 349.098 101.317 349.098 101.707 348.707L108.071 342.343C108.462 341.953 108.462 341.319 108.071 340.929C107.681 340.538 107.047 340.538 106.657 340.929L101 346.586L95.3431 340.929C94.9526 340.538 94.3195 340.538 93.9289 340.929C93.5384 341.319 93.5384 341.953 93.9289 342.343L100.293 348.707ZM100 292V348H102V292H100Z" fill="black"/>
<path d="M160.293 91.7071C160.683 92.0976 161.317 92.0976 161.707 91.7071L168.071 85.3431C168.462 84.9526 168.462 84.3195 168.071 83.9289C167.681 83.5384 167.047 83.5384 166.657 83.9289L161 89.5858L155.343 83.9289C154.953 83.5384 154.319 83.5384 153.929 83.9289C153.538 84.3195 153.538 84.9526 153.929 85.3431L160.293 91.7071ZM160 35V91H162V35H160Z" fill="black"/>
<rect x="0.5" y="91.5" width="200" height="200" fill="#C4C4C4" stroke="black"/>
<path d="M73.7266 187.469L76.5156 194.43L79.3047 187.469H80.7637V196H79.6387V192.678L79.7441 189.092L76.9434 196H76.082L73.2871 189.109L73.3984 192.678V196H72.2734V187.469H73.7266ZM87.5664 193.773H83.9922L83.1895 196H82.0293L85.2871 187.469H86.2715L89.5352 196H88.3809L87.5664 193.773ZM84.332 192.848H87.2324L85.7793 188.857L84.332 192.848ZM96.9121 194.881C96.623 195.295 96.2188 195.605 95.6992 195.812C95.1836 196.016 94.582 196.117 93.8945 196.117C93.1992 196.117 92.582 195.955 92.043 195.631C91.5039 195.303 91.0859 194.838 90.7891 194.236C90.4961 193.635 90.3457 192.938 90.3379 192.145V191.4C90.3379 190.115 90.6367 189.119 91.2344 188.412C91.8359 187.705 92.6797 187.352 93.7656 187.352C94.6562 187.352 95.373 187.58 95.916 188.037C96.459 188.49 96.791 189.135 96.9121 189.971H95.7871C95.5762 188.842 94.9043 188.277 93.7715 188.277C93.0176 188.277 92.4453 188.543 92.0547 189.074C91.668 189.602 91.4727 190.367 91.4688 191.371V192.068C91.4688 193.025 91.6875 193.787 92.125 194.354C92.5625 194.916 93.1543 195.197 93.9004 195.197C94.3223 195.197 94.6914 195.15 95.0078 195.057C95.3242 194.963 95.5859 194.805 95.793 194.582V192.666H93.8184V191.752H96.9121V194.881ZM105.092 194.881C104.803 195.295 104.398 195.605 103.879 195.812C103.363 196.016 102.762 196.117 102.074 196.117C101.379 196.117 100.762 195.955 100.223 195.631C99.6836 195.303 99.2656 194.838 98.9688 194.236C98.6758 193.635 98.5254 192.938 98.5176 192.145V191.4C98.5176 190.115 98.8164 189.119 99.4141 188.412C100.016 187.705 100.859 187.352 101.945 187.352C102.836 187.352 103.553 187.58 104.096 188.037C104.639 188.49 104.971 189.135 105.092 189.971H103.967C103.756 188.842 103.084 188.277 101.951 188.277C101.197 188.277 100.625 188.543 100.234 189.074C99.8477 189.602 99.6523 190.367 99.6484 191.371V192.068C99.6484 193.025 99.8672 193.787 100.305 194.354C100.742 194.916 101.334 195.197 102.08 195.197C102.502 195.197 102.871 195.15 103.188 195.057C103.504 194.963 103.766 194.805 103.973 194.582V192.666H101.998V191.752H105.092V194.881ZM108.18 196H107.055V187.469H108.18V196ZM116.805 192.01C116.805 192.846 116.664 193.576 116.383 194.201C116.102 194.822 115.703 195.297 115.188 195.625C114.672 195.953 114.07 196.117 113.383 196.117C112.711 196.117 112.115 195.953 111.596 195.625C111.076 195.293 110.672 194.822 110.383 194.213C110.098 193.6 109.951 192.891 109.943 192.086V191.471C109.943 190.65 110.086 189.926 110.371 189.297C110.656 188.668 111.059 188.188 111.578 187.855C112.102 187.52 112.699 187.352 113.371 187.352C114.055 187.352 114.656 187.518 115.176 187.85C115.699 188.178 116.102 188.656 116.383 189.285C116.664 189.91 116.805 190.639 116.805 191.471V192.01ZM115.686 191.459C115.686 190.447 115.482 189.672 115.076 189.133C114.67 188.59 114.102 188.318 113.371 188.318C112.66 188.318 112.1 188.59 111.689 189.133C111.283 189.672 111.074 190.422 111.062 191.383V192.01C111.062 192.99 111.268 193.762 111.678 194.324C112.092 194.883 112.66 195.162 113.383 195.162C114.109 195.162 114.672 194.898 115.07 194.371C115.469 193.84 115.674 193.08 115.686 192.092V191.459ZM121.621 192.549H119.617V196H118.486V187.469H121.311C122.271 187.469 123.01 187.688 123.525 188.125C124.045 188.562 124.305 189.199 124.305 190.035C124.305 190.566 124.16 191.029 123.871 191.424C123.586 191.818 123.188 192.113 122.676 192.309L124.68 195.93V196H123.473L121.621 192.549ZM119.617 191.629H121.346C121.904 191.629 122.348 191.484 122.676 191.195C123.008 190.906 123.174 190.52 123.174 190.035C123.174 189.508 123.016 189.104 122.699 188.822C122.387 188.541 121.934 188.398 121.34 188.395H119.617V191.629ZM130.709 192.057H127.012V195.08H131.307V196H125.887V187.469H131.248V188.395H127.012V191.137H130.709V192.057ZM86.4941 206.537C86.4941 205.654 86.6113 204.807 86.8457 203.994C87.084 203.182 87.4375 202.443 87.9062 201.779C88.375 201.115 88.8613 200.646 89.3652 200.373L89.5879 201.088C89.0176 201.525 88.5488 202.193 88.1816 203.092C87.8184 203.99 87.6191 204.996 87.584 206.109L87.5781 206.607C87.5781 208.115 87.8535 209.424 88.4043 210.533C88.7363 211.197 89.1309 211.717 89.5879 212.092L89.3652 212.754C88.8457 212.465 88.3496 211.98 87.877 211.301C86.9551 209.973 86.4941 208.385 86.4941 206.537ZM94.7793 201.463V202.383H94.5801C93.7363 202.398 93.0645 202.648 92.5645 203.133C92.0645 203.617 91.7754 204.299 91.6973 205.178C92.1465 204.662 92.7598 204.404 93.5371 204.404C94.2793 204.404 94.8711 204.666 95.3125 205.189C95.7578 205.713 95.9805 206.389 95.9805 207.217C95.9805 208.096 95.7402 208.799 95.2598 209.326C94.7832 209.854 94.1426 210.117 93.3379 210.117C92.5215 210.117 91.8594 209.805 91.3516 209.18C90.8438 208.551 90.5898 207.742 90.5898 206.754V206.338C90.5898 204.768 90.9238 203.568 91.5918 202.74C92.2637 201.908 93.2617 201.482 94.5859 201.463H94.7793ZM93.3555 205.307C92.9844 205.307 92.6426 205.418 92.3301 205.641C92.0176 205.863 91.8008 206.143 91.6797 206.479V206.877C91.6797 207.58 91.8379 208.146 92.1543 208.576C92.4707 209.006 92.8652 209.221 93.3379 209.221C93.8262 209.221 94.209 209.041 94.4863 208.682C94.7676 208.322 94.9082 207.852 94.9082 207.27C94.9082 206.684 94.7656 206.211 94.4805 205.852C94.1992 205.488 93.8242 205.307 93.3555 205.307ZM105.719 206.9C105.719 207.869 105.496 208.648 105.051 209.238C104.605 209.824 104.008 210.117 103.258 210.117C102.457 210.117 101.838 209.834 101.4 209.268L101.348 210H100.352V201H101.436V204.357C101.873 203.814 102.477 203.543 103.246 203.543C104.016 203.543 104.619 203.834 105.057 204.416C105.498 204.998 105.719 205.795 105.719 206.807V206.9ZM104.635 206.777C104.635 206.039 104.492 205.469 104.207 205.066C103.922 204.664 103.512 204.463 102.977 204.463C102.262 204.463 101.748 204.795 101.436 205.459V208.201C101.768 208.865 102.285 209.197 102.988 209.197C103.508 209.197 103.912 208.996 104.201 208.594C104.49 208.191 104.635 207.586 104.635 206.777ZM108.268 210H107.184V203.66H108.268V210ZM107.096 201.979C107.096 201.803 107.148 201.654 107.254 201.533C107.363 201.412 107.523 201.352 107.734 201.352C107.945 201.352 108.105 201.412 108.215 201.533C108.324 201.654 108.379 201.803 108.379 201.979C108.379 202.154 108.324 202.301 108.215 202.418C108.105 202.535 107.945 202.594 107.734 202.594C107.523 202.594 107.363 202.535 107.254 202.418C107.148 202.301 107.096 202.154 107.096 201.979ZM111.479 202.125V203.66H112.662V204.498H111.479V208.43C111.479 208.684 111.531 208.875 111.637 209.004C111.742 209.129 111.922 209.191 112.176 209.191C112.301 209.191 112.473 209.168 112.691 209.121V210C112.406 210.078 112.129 210.117 111.859 210.117C111.375 210.117 111.01 209.971 110.764 209.678C110.518 209.385 110.395 208.969 110.395 208.43V204.498H109.24V203.66H110.395V202.125H111.479ZM116.436 206.596C116.436 207.467 116.32 208.303 116.09 209.104C115.863 209.9 115.514 210.637 115.041 211.312C114.572 211.988 114.08 212.469 113.564 212.754L113.336 212.092C113.938 211.631 114.42 210.916 114.783 209.947C115.15 208.975 115.338 207.896 115.346 206.713V206.525C115.346 205.705 115.26 204.943 115.088 204.24C114.916 203.533 114.676 202.9 114.367 202.342C114.062 201.783 113.719 201.348 113.336 201.035L113.564 200.373C114.08 200.658 114.57 201.135 115.035 201.803C115.504 202.471 115.854 203.207 116.084 204.012C116.318 204.816 116.436 205.678 116.436 206.596Z" fill="black"/>
<path d="M94.7012 280.773H91.127L90.3242 283H89.1641L92.4219 274.469H93.4062L96.6699 283H95.5156L94.7012 280.773ZM91.4668 279.848H94.3672L92.9141 275.857L91.4668 279.848ZM97.3906 279.777C97.3906 278.789 97.6191 278.004 98.0762 277.422C98.5332 276.836 99.1387 276.543 99.8926 276.543C100.666 276.543 101.27 276.816 101.703 277.363L101.756 276.66H102.746V282.848C102.746 283.668 102.502 284.314 102.014 284.787C101.529 285.26 100.877 285.496 100.057 285.496C99.5996 285.496 99.1523 285.398 98.7148 285.203C98.2773 285.008 97.9434 284.74 97.7129 284.4L98.2754 283.75C98.7402 284.324 99.3086 284.611 99.9805 284.611C100.508 284.611 100.918 284.463 101.211 284.166C101.508 283.869 101.656 283.451 101.656 282.912V282.367C101.223 282.867 100.631 283.117 99.8809 283.117C99.1387 283.117 98.5371 282.818 98.0762 282.221C97.6191 281.623 97.3906 280.809 97.3906 279.777ZM98.4805 279.9C98.4805 280.615 98.627 281.178 98.9199 281.588C99.2129 281.994 99.623 282.197 100.15 282.197C100.834 282.197 101.336 281.887 101.656 281.266V278.371C101.324 277.766 100.826 277.463 100.162 277.463C99.6348 277.463 99.2227 277.668 98.9258 278.078C98.6289 278.488 98.4805 279.096 98.4805 279.9ZM105.857 275.125V276.66H107.041V277.498H105.857V281.43C105.857 281.684 105.91 281.875 106.016 282.004C106.121 282.129 106.301 282.191 106.555 282.191C106.68 282.191 106.852 282.168 107.07 282.121V283C106.785 283.078 106.508 283.117 106.238 283.117C105.754 283.117 105.389 282.971 105.143 282.678C104.896 282.385 104.773 281.969 104.773 281.43V277.498H103.619V276.66H104.773V275.125H105.857ZM108.482 283V274.469H111.271C112.197 274.469 112.893 274.66 113.357 275.043C113.826 275.426 114.061 275.992 114.061 276.742C114.061 277.141 113.947 277.494 113.721 277.803C113.494 278.107 113.186 278.344 112.795 278.512C113.256 278.641 113.619 278.887 113.885 279.25C114.154 279.609 114.289 280.039 114.289 280.539C114.289 281.305 114.041 281.906 113.545 282.344C113.049 282.781 112.348 283 111.441 283H108.482ZM109.607 279.01V282.08H111.465C111.988 282.08 112.4 281.945 112.701 281.676C113.006 281.402 113.158 281.027 113.158 280.551C113.158 279.523 112.6 279.01 111.482 279.01H109.607ZM109.607 278.107H111.307C111.799 278.107 112.191 277.984 112.484 277.738C112.781 277.492 112.93 277.158 112.93 276.736C112.93 276.268 112.793 275.928 112.52 275.717C112.246 275.502 111.83 275.395 111.271 275.395H109.607V278.107Z" fill="black"/>
<path d="M28.7012 107.773H25.127L24.3242 110H23.1641L26.4219 101.469H27.4062L30.6699 110H29.5156L28.7012 107.773ZM25.4668 106.848H28.3672L26.9141 102.857L25.4668 106.848ZM32.0352 105.723L32.4688 101.469H36.8398V102.471H33.3887L33.1309 104.797C33.5488 104.551 34.0234 104.428 34.5547 104.428C35.332 104.428 35.9492 104.686 36.4062 105.201C36.8633 105.713 37.0918 106.406 37.0918 107.281C37.0918 108.16 36.8535 108.854 36.377 109.361C35.9043 109.865 35.2422 110.117 34.3906 110.117C33.6367 110.117 33.0215 109.908 32.5449 109.49C32.0684 109.072 31.7969 108.494 31.7305 107.756H32.7559C32.8223 108.244 32.9961 108.613 33.2773 108.863C33.5586 109.109 33.9297 109.232 34.3906 109.232C34.8945 109.232 35.2891 109.061 35.5742 108.717C35.8633 108.373 36.0078 107.898 36.0078 107.293C36.0078 106.723 35.8516 106.266 35.5391 105.922C35.2305 105.574 34.8184 105.4 34.3027 105.4C33.8301 105.4 33.459 105.504 33.1895 105.711L32.9023 105.945L32.0352 105.723ZM41.3867 109.432C41.3867 109.244 41.4414 109.088 41.5508 108.963C41.6641 108.838 41.832 108.775 42.0547 108.775C42.2773 108.775 42.4453 108.838 42.5586 108.963C42.6758 109.088 42.7344 109.244 42.7344 109.432C42.7344 109.611 42.6758 109.762 42.5586 109.883C42.4453 110.004 42.2773 110.064 42.0547 110.064C41.832 110.064 41.6641 110.004 41.5508 109.883C41.4414 109.762 41.3867 109.611 41.3867 109.432ZM44.5508 109.432C44.5508 109.244 44.6055 109.088 44.7148 108.963C44.8281 108.838 44.9961 108.775 45.2188 108.775C45.4414 108.775 45.6094 108.838 45.7227 108.963C45.8398 109.088 45.8984 109.244 45.8984 109.432C45.8984 109.611 45.8398 109.762 45.7227 109.883C45.6094 110.004 45.4414 110.064 45.2188 110.064C44.9961 110.064 44.8281 110.004 44.7148 109.883C44.6055 109.762 44.5508 109.611 44.5508 109.432ZM55.5488 107.773H51.9746L51.1719 110H50.0117L53.2695 101.469H54.2539L57.5176 110H56.3633L55.5488 107.773ZM52.3145 106.848H55.2148L53.7617 102.857L52.3145 106.848ZM63.7344 106.361C63.7344 107.631 63.5176 108.574 63.084 109.191C62.6504 109.809 61.9727 110.117 61.0508 110.117C60.1406 110.117 59.4668 109.816 59.0293 109.215C58.5918 108.609 58.3652 107.707 58.3496 106.508V105.061C58.3496 103.807 58.5664 102.875 59 102.266C59.4336 101.656 60.1133 101.352 61.0391 101.352C61.957 101.352 62.6328 101.646 63.0664 102.236C63.5 102.822 63.7227 103.729 63.7344 104.955V106.361ZM62.6504 104.879C62.6504 103.961 62.5215 103.293 62.2637 102.875C62.0059 102.453 61.5977 102.242 61.0391 102.242C60.4844 102.242 60.0801 102.451 59.8262 102.869C59.5723 103.287 59.4414 103.93 59.4336 104.797V106.531C59.4336 107.453 59.5664 108.135 59.832 108.576C60.1016 109.014 60.5078 109.232 61.0508 109.232C61.5859 109.232 61.9824 109.025 62.2402 108.611C62.502 108.197 62.6387 107.545 62.6504 106.654V104.879Z" fill="black"/>
<path d="M141.99 110V101.469H144.779C145.705 101.469 146.4 101.66 146.865 102.043C147.334 102.426 147.568 102.992 147.568 103.742C147.568 104.141 147.455 104.494 147.229 104.803C147.002 105.107 146.693 105.344 146.303 105.512C146.764 105.641 147.127 105.887 147.393 106.25C147.662 106.609 147.797 107.039 147.797 107.539C147.797 108.305 147.549 108.906 147.053 109.344C146.557 109.781 145.855 110 144.949 110H141.99ZM143.115 106.01V109.08H144.973C145.496 109.08 145.908 108.945 146.209 108.676C146.514 108.402 146.666 108.027 146.666 107.551C146.666 106.523 146.107 106.01 144.99 106.01H143.115ZM143.115 105.107H144.814C145.307 105.107 145.699 104.984 145.992 104.738C146.289 104.492 146.438 104.158 146.438 103.736C146.438 103.268 146.301 102.928 146.027 102.717C145.754 102.502 145.338 102.395 144.779 102.395H143.115V105.107ZM149.684 105.723L150.117 101.469H154.488V102.471H151.037L150.779 104.797C151.197 104.551 151.672 104.428 152.203 104.428C152.98 104.428 153.598 104.686 154.055 105.201C154.512 105.713 154.74 106.406 154.74 107.281C154.74 108.16 154.502 108.854 154.025 109.361C153.553 109.865 152.891 110.117 152.039 110.117C151.285 110.117 150.67 109.908 150.193 109.49C149.717 109.072 149.445 108.494 149.379 107.756H150.404C150.471 108.244 150.645 108.613 150.926 108.863C151.207 109.109 151.578 109.232 152.039 109.232C152.543 109.232 152.938 109.061 153.223 108.717C153.512 108.373 153.656 107.898 153.656 107.293C153.656 106.723 153.5 106.266 153.188 105.922C152.879 105.574 152.467 105.4 151.951 105.4C151.479 105.4 151.107 105.504 150.838 105.711L150.551 105.945L149.684 105.723ZM159.035 109.432C159.035 109.244 159.09 109.088 159.199 108.963C159.312 108.838 159.48 108.775 159.703 108.775C159.926 108.775 160.094 108.838 160.207 108.963C160.324 109.088 160.383 109.244 160.383 109.432C160.383 109.611 160.324 109.762 160.207 109.883C160.094 110.004 159.926 110.064 159.703 110.064C159.48 110.064 159.312 110.004 159.199 109.883C159.09 109.762 159.035 109.611 159.035 109.432ZM162.199 109.432C162.199 109.244 162.254 109.088 162.363 108.963C162.477 108.838 162.645 108.775 162.867 108.775C163.09 108.775 163.258 108.838 163.371 108.963C163.488 109.088 163.547 109.244 163.547 109.432C163.547 109.611 163.488 109.762 163.371 109.883C163.258 110.004 163.09 110.064 162.867 110.064C162.645 110.064 162.477 110.004 162.363 109.883C162.254 109.762 162.199 109.611 162.199 109.432ZM168.486 110V101.469H171.275C172.201 101.469 172.896 101.66 173.361 102.043C173.83 102.426 174.064 102.992 174.064 103.742C174.064 104.141 173.951 104.494 173.725 104.803C173.498 105.107 173.189 105.344 172.799 105.512C173.26 105.641 173.623 105.887 173.889 106.25C174.158 106.609 174.293 107.039 174.293 107.539C174.293 108.305 174.045 108.906 173.549 109.344C173.053 109.781 172.352 110 171.445 110H168.486ZM169.611 106.01V109.08H171.469C171.992 109.08 172.404 108.945 172.705 108.676C173.01 108.402 173.162 108.027 173.162 107.551C173.162 106.523 172.604 106.01 171.486 106.01H169.611ZM169.611 105.107H171.311C171.803 105.107 172.195 104.984 172.488 104.738C172.785 104.492 172.934 104.158 172.934 103.736C172.934 103.268 172.797 102.928 172.523 102.717C172.25 102.502 171.834 102.395 171.275 102.395H169.611V105.107ZM181.031 106.361C181.031 107.631 180.814 108.574 180.381 109.191C179.947 109.809 179.27 110.117 178.348 110.117C177.438 110.117 176.764 109.816 176.326 109.215C175.889 108.609 175.662 107.707 175.646 106.508V105.061C175.646 103.807 175.863 102.875 176.297 102.266C176.73 101.656 177.41 101.352 178.336 101.352C179.254 101.352 179.93 101.646 180.363 102.236C180.797 102.822 181.02 103.729 181.031 104.955V106.361ZM179.947 104.879C179.947 103.961 179.818 103.293 179.561 102.875C179.303 102.453 178.895 102.242 178.336 102.242C177.781 102.242 177.377 102.451 177.123 102.869C176.869 103.287 176.738 103.93 176.73 104.797V106.531C176.73 107.453 176.863 108.135 177.129 108.576C177.398 109.014 177.805 109.232 178.348 109.232C178.883 109.232 179.279 109.025 179.537 108.611C179.799 108.197 179.936 107.545 179.947 106.654V104.879Z" fill="black"/>
<path d="M44.2988 8.77344H40.7246L39.9219 11H38.7617L42.0195 2.46875H43.0039L46.2676 11H45.1133L44.2988 8.77344ZM41.0645 7.84766H43.9648L42.5117 3.85742L41.0645 7.84766ZM28.9941 21.5371C28.9941 20.6543 29.1113 19.8066 29.3457 18.9941C29.584 18.1816 29.9375 17.4434 30.4062 16.7793C30.875 16.1152 31.3613 15.6465 31.8652 15.373L32.0879 16.0879C31.5176 16.5254 31.0488 17.1934 30.6816 18.0918C30.3184 18.9902 30.1191 19.9961 30.084 21.1094L30.0781 21.6074C30.0781 23.1152 30.3535 24.4238 30.9043 25.5332C31.2363 26.1973 31.6309 26.7168 32.0879 27.0918L31.8652 27.7539C31.3457 27.4648 30.8496 26.9805 30.377 26.3008C29.4551 24.9727 28.9941 23.3848 28.9941 21.5371ZM37.2793 16.4629V17.3828H37.0801C36.2363 17.3984 35.5645 17.6484 35.0645 18.1328C34.5645 18.6172 34.2754 19.2988 34.1973 20.1777C34.6465 19.6621 35.2598 19.4043 36.0371 19.4043C36.7793 19.4043 37.3711 19.666 37.8125 20.1895C38.2578 20.7129 38.4805 21.3887 38.4805 22.2168C38.4805 23.0957 38.2402 23.7988 37.7598 24.3262C37.2832 24.8535 36.6426 25.1172 35.8379 25.1172C35.0215 25.1172 34.3594 24.8047 33.8516 24.1797C33.3438 23.5508 33.0898 22.7422 33.0898 21.7539V21.3379C33.0898 19.7676 33.4238 18.5684 34.0918 17.7402C34.7637 16.9082 35.7617 16.4824 37.0859 16.4629H37.2793ZM35.8555 20.3066C35.4844 20.3066 35.1426 20.418 34.8301 20.6406C34.5176 20.8633 34.3008 21.1426 34.1797 21.4785V21.877C34.1797 22.5801 34.3379 23.1465 34.6543 23.5762C34.9707 24.0059 35.3652 24.2207 35.8379 24.2207C36.3262 24.2207 36.709 24.041 36.9863 23.6816C37.2676 23.3223 37.4082 22.8516 37.4082 22.2695C37.4082 21.6836 37.2656 21.2109 36.9805 20.8516C36.6992 20.4883 36.3242 20.3066 35.8555 20.3066ZM48.2188 21.9004C48.2188 22.8691 47.9961 23.6484 47.5508 24.2383C47.1055 24.8242 46.5078 25.1172 45.7578 25.1172C44.957 25.1172 44.3379 24.834 43.9004 24.2676L43.8477 25H42.8516V16H43.9355V19.3574C44.373 18.8145 44.9766 18.543 45.7461 18.543C46.5156 18.543 47.1191 18.834 47.5566 19.416C47.998 19.998 48.2188 20.7949 48.2188 21.8066V21.9004ZM47.1348 21.7773C47.1348 21.0391 46.9922 20.4688 46.707 20.0664C46.4219 19.6641 46.0117 19.4629 45.4766 19.4629C44.7617 19.4629 44.248 19.7949 43.9355 20.459V23.2012C44.2676 23.8652 44.7852 24.1973 45.4883 24.1973C46.0078 24.1973 46.4121 23.9961 46.7012 23.5938C46.9902 23.1914 47.1348 22.5859 47.1348 21.7773ZM50.7676 25H49.6836V18.6602H50.7676V25ZM49.5957 16.9785C49.5957 16.8027 49.6484 16.6543 49.7539 16.5332C49.8633 16.4121 50.0234 16.3516 50.2344 16.3516C50.4453 16.3516 50.6055 16.4121 50.7148 16.5332C50.8242 16.6543 50.8789 16.8027 50.8789 16.9785C50.8789 17.1543 50.8242 17.3008 50.7148 17.418C50.6055 17.5352 50.4453 17.5938 50.2344 17.5938C50.0234 17.5938 49.8633 17.5352 49.7539 17.418C49.6484 17.3008 49.5957 17.1543 49.5957 16.9785ZM53.9785 17.125V18.6602H55.1621V19.498H53.9785V23.4297C53.9785 23.6836 54.0312 23.875 54.1367 24.0039C54.2422 24.1289 54.4219 24.1914 54.6758 24.1914C54.8008 24.1914 54.9727 24.168 55.1914 24.1211V25C54.9062 25.0781 54.6289 25.1172 54.3594 25.1172C53.875 25.1172 53.5098 24.9707 53.2637 24.6777C53.0176 24.3848 52.8945 23.9688 52.8945 23.4297V19.498H51.7402V18.6602H52.8945V17.125H53.9785ZM58.9355 21.5957C58.9355 22.4668 58.8203 23.3027 58.5898 24.1035C58.3633 24.9004 58.0137 25.6367 57.541 26.3125C57.0723 26.9883 56.5801 27.4688 56.0645 27.7539L55.8359 27.0918C56.4375 26.6309 56.9199 25.916 57.2832 24.9473C57.6504 23.9746 57.8379 22.8965 57.8457 21.7129V21.5254C57.8457 20.7051 57.7598 19.9434 57.5879 19.2402C57.416 18.5332 57.1758 17.9004 56.8672 17.3418C56.5625 16.7832 56.2188 16.3477 55.8359 16.0352L56.0645 15.373C56.5801 15.6582 57.0703 16.1348 57.5352 16.8027C58.0039 17.4707 58.3535 18.207 58.584 19.0117C58.8184 19.8164 58.9355 20.6777 58.9355 21.5957Z" fill="black"/>
<path d="M156.764 11V2.46875H159.553C160.479 2.46875 161.174 2.66016 161.639 3.04297C162.107 3.42578 162.342 3.99219 162.342 4.74219C162.342 5.14062 162.229 5.49414 162.002 5.80273C161.775 6.10742 161.467 6.34375 161.076 6.51172C161.537 6.64062 161.9 6.88672 162.166 7.25C162.436 7.60938 162.57 8.03906 162.57 8.53906C162.57 9.30469 162.322 9.90625 161.826 10.3438C161.33 10.7812 160.629 11 159.723 11H156.764ZM157.889 7.00977V10.0801H159.746C160.27 10.0801 160.682 9.94531 160.982 9.67578C161.287 9.40234 161.439 9.02734 161.439 8.55078C161.439 7.52344 160.881 7.00977 159.764 7.00977H157.889ZM157.889 6.10742H159.588C160.08 6.10742 160.473 5.98438 160.766 5.73828C161.062 5.49219 161.211 5.1582 161.211 4.73633C161.211 4.26758 161.074 3.92773 160.801 3.7168C160.527 3.50195 160.111 3.39453 159.553 3.39453H157.889V6.10742ZM145.994 21.5371C145.994 20.6543 146.111 19.8066 146.346 18.9941C146.584 18.1816 146.938 17.4434 147.406 16.7793C147.875 16.1152 148.361 15.6465 148.865 15.373L149.088 16.0879C148.518 16.5254 148.049 17.1934 147.682 18.0918C147.318 18.9902 147.119 19.9961 147.084 21.1094L147.078 21.6074C147.078 23.1152 147.354 24.4238 147.904 25.5332C148.236 26.1973 148.631 26.7168 149.088 27.0918L148.865 27.7539C148.346 27.4648 147.85 26.9805 147.377 26.3008C146.455 24.9727 145.994 23.3848 145.994 21.5371ZM154.279 16.4629V17.3828H154.08C153.236 17.3984 152.564 17.6484 152.064 18.1328C151.564 18.6172 151.275 19.2988 151.197 20.1777C151.646 19.6621 152.26 19.4043 153.037 19.4043C153.779 19.4043 154.371 19.666 154.812 20.1895C155.258 20.7129 155.48 21.3887 155.48 22.2168C155.48 23.0957 155.24 23.7988 154.76 24.3262C154.283 24.8535 153.643 25.1172 152.838 25.1172C152.021 25.1172 151.359 24.8047 150.852 24.1797C150.344 23.5508 150.09 22.7422 150.09 21.7539V21.3379C150.09 19.7676 150.424 18.5684 151.092 17.7402C151.764 16.9082 152.762 16.4824 154.086 16.4629H154.279ZM152.855 20.3066C152.484 20.3066 152.143 20.418 151.83 20.6406C151.518 20.8633 151.301 21.1426 151.18 21.4785V21.877C151.18 22.5801 151.338 23.1465 151.654 23.5762C151.971 24.0059 152.365 24.2207 152.838 24.2207C153.326 24.2207 153.709 24.041 153.986 23.6816C154.268 23.3223 154.408 22.8516 154.408 22.2695C154.408 21.6836 154.266 21.2109 153.98 20.8516C153.699 20.4883 153.324 20.3066 152.855 20.3066ZM165.219 21.9004C165.219 22.8691 164.996 23.6484 164.551 24.2383C164.105 24.8242 163.508 25.1172 162.758 25.1172C161.957 25.1172 161.338 24.834 160.9 24.2676L160.848 25H159.852V16H160.936V19.3574C161.373 18.8145 161.977 18.543 162.746 18.543C163.516 18.543 164.119 18.834 164.557 19.416C164.998 19.998 165.219 20.7949 165.219 21.8066V21.9004ZM164.135 21.7773C164.135 21.0391 163.992 20.4688 163.707 20.0664C163.422 19.6641 163.012 19.4629 162.477 19.4629C161.762 19.4629 161.248 19.7949 160.936 20.459V23.2012C161.268 23.8652 161.785 24.1973 162.488 24.1973C163.008 24.1973 163.412 23.9961 163.701 23.5938C163.99 23.1914 164.135 22.5859 164.135 21.7773ZM167.768 25H166.684V18.6602H167.768V25ZM166.596 16.9785C166.596 16.8027 166.648 16.6543 166.754 16.5332C166.863 16.4121 167.023 16.3516 167.234 16.3516C167.445 16.3516 167.605 16.4121 167.715 16.5332C167.824 16.6543 167.879 16.8027 167.879 16.9785C167.879 17.1543 167.824 17.3008 167.715 17.418C167.605 17.5352 167.445 17.5938 167.234 17.5938C167.023 17.5938 166.863 17.5352 166.754 17.418C166.648 17.3008 166.596 17.1543 166.596 16.9785ZM170.979 17.125V18.6602H172.162V19.498H170.979V23.4297C170.979 23.6836 171.031 23.875 171.137 24.0039C171.242 24.1289 171.422 24.1914 171.676 24.1914C171.801 24.1914 171.973 24.168 172.191 24.1211V25C171.906 25.0781 171.629 25.1172 171.359 25.1172C170.875 25.1172 170.51 24.9707 170.264 24.6777C170.018 24.3848 169.895 23.9688 169.895 23.4297V19.498H168.74V18.6602H169.895V17.125H170.979ZM175.936 21.5957C175.936 22.4668 175.82 23.3027 175.59 24.1035C175.363 24.9004 175.014 25.6367 174.541 26.3125C174.072 26.9883 173.58 27.4688 173.064 27.7539L172.836 27.0918C173.438 26.6309 173.92 25.916 174.283 24.9473C174.65 23.9746 174.838 22.8965 174.846 21.7129V21.5254C174.846 20.7051 174.76 19.9434 174.588 19.2402C174.416 18.5332 174.176 17.9004 173.867 17.3418C173.562 16.7832 173.219 16.3477 172.836 16.0352L173.064 15.373C173.58 15.6582 174.07 16.1348 174.535 16.8027C175.004 17.4707 175.354 18.207 175.584 19.0117C175.818 19.8164 175.936 20.6777 175.936 21.5957Z" fill="black"/>
</svg>
