<svg width="201" height="349" viewBox="0 0 201 349" fill="none" xmlns="http://www.w3.org/2000/svg">
<path d="M43.2929 91.7071C43.6834 92.0976 44.3166 92.0976 44.7071 91.7071L51.0711 85.3431C51.4616 84.9526 51.4616 84.3195 51.0711 83.9289C50.6805 83.5384 50.0474 83.5384 49.6569 83.9289L44 89.5858L38.3431 83.9289C37.9526 83.5384 37.3195 83.5384 36.9289 83.9289C36.5384 84.3195 36.5384 84.9526 36.9289 85.3431L43.2929 91.7071ZM43 35V91H45V35H43Z" fill="black"/>
<path d="M100.293 348.707C100.683 349.098 101.317 349.098 101.707 348.707L108.071 342.343C108.462 341.953 108.462 341.319 108.071 340.929C107.681 340.538 107.047 340.538 106.657 340.929L101 346.586L95.3431 340.929C94.9526 340.538 94.3195 340.538 93.9289 340.929C93.5384 341.319 93.5384 341.953 93.9289 342.343L100.293 348.707ZM100 292V348H102V292H100Z" fill="black"/>
<path d="M160.293 91.7071C160.683 92.0976 161.317 92.0976 161.707 91.7071L168.071 85.3431C168.462 84.9526 168.462 84.3195 168.071 83.9289C167.681 83.5384 167.047 83.5384 166.657 83.9289L161 89.5858L155.343 83.9289C154.953 83.5384 154.319 83.5384 153.929 83.9289C153.538 84.3195 153.538 84.9526 153.929 85.3431L160.293 91.7071ZM160 35V91H162V35H160Z" fill="black"/>
<rect x="0.5" y="91.5" width="200" height="200" fill="#C4C4C4" stroke="black"/>
<path d="M73.7266 187.469L76.5156 194.43L79.3047 187.469H80.7637V196H79.6387V192.678L79.7441 189.092L76.9434 196H76.082L73.2871 189.109L73.3984 192.678V196H72.2734V187.469H73.7266ZM87.5664 193.773H83.9922L83.1895 196H82.0293L85.2871 187.469H86.2715L89.5352 196H88.3809L87.5664 193.773ZM84.332 192.848H87.2324L85.7793 188.857L84.332 192.848ZM96.9121 194.881C96.623 195.295 96.2188 195.605 95.6992 195.812C95.1836 196.016 94.582 196.117 93.8945 196.117C93.1992 196.117 92.582 195.955 92.043 195.631C91.5039 195.303 91.0859 194.838 90.7891 194.236C90.4961 193.635 90.3457 192.938 90.3379 192.145V191.4C90.3379 190.115 90.6367 189.119 91.2344 188.412C91.8359 187.705 92.6797 187.352 93.7656 187.352C94.6562 187.352 95.373 187.58 95.916 188.037C96.459 188.49 96.791 189.135 96.9121 189.971H95.7871C95.5762 188.842 94.9043 188.277 93.7715 188.277C93.0176 188.277 92.4453 188.543 92.0547 189.074C91.668 189.602 91.4727 190.367 91.4688 191.371V192.068C91.4688 193.025 91.6875 193.787 92.125 194.354C92.5625 194.916 93.1543 195.197 93.9004 195.197C94.3223 195.197 94.6914 195.15 95.0078 195.057C95.3242 194.963 95.5859 194.805 95.793 194.582V192.666H93.8184V191.752H96.9121V194.881ZM105.092 194.881C104.803 195.295 104.398 195.605 103.879 195.812C103.363 196.016 102.762 196.117 102.074 196.117C101.379 196.117 100.762 195.955 100.223 195.631C99.6836 195.303 99.2656 194.838 98.9688 194.236C98.6758 193.635 98.5254 192.938 98.5176 192.145V191.4C98.5176 190.115 98.8164 189.119 99.4141 188.412C100.016 187.705 100.859 187.352 101.945 187.352C102.836 187.352 103.553 187.58 104.096 188.037C104.639 188.49 104.971 189.135 105.092 189.971H103.967C103.756 188.842 103.084 188.277 101.951 188.277C101.197 188.277 100.625 188.543 100.234 189.074C99.8477 189.602 99.6523 190.367 99.6484 191.371V192.068C99.6484 193.025 99.8672 193.787 100.305 194.354C100.742 194.916 101.334 195.197 102.08 195.197C102.502 195.197 102.871 195.15 103.188 195.057C103.504 194.963 103.766 194.805 103.973 194.582V192.666H101.998V191.752H105.092V194.881ZM108.18 196H107.055V187.469H108.18V196ZM116.805 192.01C116.805 192.846 116.664 193.576 116.383 194.201C116.102 194.822 115.703 195.297 115.188 195.625C114.672 195.953 114.07 196.117 113.383 196.117C112.711 196.117 112.115 195.953 111.596 195.625C111.076 195.293 110.672 194.822 110.383 194.213C110.098 193.6 109.951 192.891 109.943 192.086V191.471C109.943 190.65 110.086 189.926 110.371 189.297C110.656 188.668 111.059 188.188 111.578 187.855C112.102 187.52 112.699 187.352 113.371 187.352C114.055 187.352 114.656 187.518 115.176 187.85C115.699 188.178 116.102 188.656 116.383 189.285C116.664 189.91 116.805 190.639 116.805 191.471V192.01ZM115.686 191.459C115.686 190.447 115.482 189.672 115.076 189.133C114.67 188.59 114.102 188.318 113.371 188.318C112.66 188.318 112.1 188.59 111.689 189.133C111.283 189.672 111.074 190.422 111.062 191.383V192.01C111.062 192.99 111.268 193.762 111.678 194.324C112.092 194.883 112.66 195.162 113.383 195.162C114.109 195.162 114.672 194.898 115.07 194.371C115.469 193.84 115.674 193.08 115.686 192.092V191.459ZM121.621 192.549H119.617V196H118.486V187.469H121.311C122.271 187.469 123.01 187.688 123.525 188.125C124.045 188.562 124.305 189.199 124.305 190.035C124.305 190.566 124.16 191.029 123.871 191.424C123.586 191.818 123.188 192.113 122.676 192.309L124.68 195.93V196H123.473L121.621 192.549ZM119.617 191.629H121.346C121.904 191.629 122.348 191.484 122.676 191.195C123.008 190.906 123.174 190.52 123.174 190.035C123.174 189.508 123.016 189.104 122.699 188.822C122.387 188.541 121.934 188.398 121.34 188.395H119.617V191.629ZM130.709 192.057H127.012V195.08H131.307V196H125.887V187.469H131.248V188.395H127.012V191.137H130.709V192.057ZM83.125 206.537C83.125 205.654 83.2422 204.807 83.4766 203.994C83.7148 203.182 84.0684 202.443 84.5371 201.779C85.0059 201.115 85.4922 200.646 85.9961 200.373L86.2188 201.088C85.6484 201.525 85.1797 202.193 84.8125 203.092C84.4492 203.99 84.25 204.996 84.2148 206.109L84.209 206.607C84.209 208.115 84.4844 209.424 85.0352 210.533C85.3672 211.197 85.7617 211.717 86.2188 212.092L85.9961 212.754C85.4766 212.465 84.9805 211.98 84.5078 211.301C83.5859 209.973 83.125 208.385 83.125 206.537ZM90.7188 210H89.6289V202.775L87.4434 203.578V202.594L90.5488 201.428H90.7188V210ZM98.1484 201.463V202.383H97.9492C97.1055 202.398 96.4336 202.648 95.9336 203.133C95.4336 203.617 95.1445 204.299 95.0664 205.178C95.5156 204.662 96.1289 204.404 96.9062 204.404C97.6484 204.404 98.2402 204.666 98.6816 205.189C99.127 205.713 99.3496 206.389 99.3496 207.217C99.3496 208.096 99.1094 208.799 98.6289 209.326C98.1523 209.854 97.5117 210.117 96.707 210.117C95.8906 210.117 95.2285 209.805 94.7207 209.18C94.2129 208.551 93.959 207.742 93.959 206.754V206.338C93.959 204.768 94.293 203.568 94.9609 202.74C95.6328 201.908 96.6309 201.482 97.9551 201.463H98.1484ZM96.7246 205.307C96.3535 205.307 96.0117 205.418 95.6992 205.641C95.3867 205.863 95.1699 206.143 95.0488 206.479V206.877C95.0488 207.58 95.207 208.146 95.5234 208.576C95.8398 209.006 96.2344 209.221 96.707 209.221C97.1953 209.221 97.5781 209.041 97.8555 208.682C98.1367 208.322 98.2773 207.852 98.2773 207.27C98.2773 206.684 98.1348 206.211 97.8496 205.852C97.5684 205.488 97.1934 205.307 96.7246 205.307ZM109.088 206.9C109.088 207.869 108.865 208.648 108.42 209.238C107.975 209.824 107.377 210.117 106.627 210.117C105.826 210.117 105.207 209.834 104.77 209.268L104.717 210H103.721V201H104.805V204.357C105.242 203.814 105.846 203.543 106.615 203.543C107.385 203.543 107.988 203.834 108.426 204.416C108.867 204.998 109.088 205.795 109.088 206.807V206.9ZM108.004 206.777C108.004 206.039 107.861 205.469 107.576 205.066C107.291 204.664 106.881 204.463 106.346 204.463C105.631 204.463 105.117 204.795 104.805 205.459V208.201C105.137 208.865 105.654 209.197 106.357 209.197C106.877 209.197 107.281 208.996 107.57 208.594C107.859 208.191 108.004 207.586 108.004 206.777ZM111.637 210H110.553V203.66H111.637V210ZM110.465 201.979C110.465 201.803 110.518 201.654 110.623 201.533C110.732 201.412 110.893 201.352 111.104 201.352C111.314 201.352 111.475 201.412 111.584 201.533C111.693 201.654 111.748 201.803 111.748 201.979C111.748 202.154 111.693 202.301 111.584 202.418C111.475 202.535 111.314 202.594 111.104 202.594C110.893 202.594 110.732 202.535 110.623 202.418C110.518 202.301 110.465 202.154 110.465 201.979ZM114.848 202.125V203.66H116.031V204.498H114.848V208.43C114.848 208.684 114.9 208.875 115.006 209.004C115.111 209.129 115.291 209.191 115.545 209.191C115.67 209.191 115.842 209.168 116.061 209.121V210C115.775 210.078 115.498 210.117 115.229 210.117C114.744 210.117 114.379 209.971 114.133 209.678C113.887 209.385 113.764 208.969 113.764 208.43V204.498H112.609V203.66H113.764V202.125H114.848ZM119.805 206.596C119.805 207.467 119.689 208.303 119.459 209.104C119.232 209.9 118.883 210.637 118.41 211.312C117.941 211.988 117.449 212.469 116.934 212.754L116.705 212.092C117.307 211.631 117.789 210.916 118.152 209.947C118.52 208.975 118.707 207.896 118.715 206.713V206.525C118.715 205.705 118.629 204.943 118.457 204.24C118.285 203.533 118.045 202.9 117.736 202.342C117.432 201.783 117.088 201.348 116.705 201.035L116.934 200.373C117.449 200.658 117.939 201.135 118.404 201.803C118.873 202.471 119.223 203.207 119.453 204.012C119.688 204.816 119.805 205.678 119.805 206.596Z" fill="black"/>
<path d="M94.7012 280.773H91.127L90.3242 283H89.1641L92.4219 274.469H93.4062L96.6699 283H95.5156L94.7012 280.773ZM91.4668 279.848H94.3672L92.9141 275.857L91.4668 279.848ZM97.3906 279.777C97.3906 278.789 97.6191 278.004 98.0762 277.422C98.5332 276.836 99.1387 276.543 99.8926 276.543C100.666 276.543 101.27 276.816 101.703 277.363L101.756 276.66H102.746V282.848C102.746 283.668 102.502 284.314 102.014 284.787C101.529 285.26 100.877 285.496 100.057 285.496C99.5996 285.496 99.1523 285.398 98.7148 285.203C98.2773 285.008 97.9434 284.74 97.7129 284.4L98.2754 283.75C98.7402 284.324 99.3086 284.611 99.9805 284.611C100.508 284.611 100.918 284.463 101.211 284.166C101.508 283.869 101.656 283.451 101.656 282.912V282.367C101.223 282.867 100.631 283.117 99.8809 283.117C99.1387 283.117 98.5371 282.818 98.0762 282.221C97.6191 281.623 97.3906 280.809 97.3906 279.777ZM98.4805 279.9C98.4805 280.615 98.627 281.178 98.9199 281.588C99.2129 281.994 99.623 282.197 100.15 282.197C100.834 282.197 101.336 281.887 101.656 281.266V278.371C101.324 277.766 100.826 277.463 100.162 277.463C99.6348 277.463 99.2227 277.668 98.9258 278.078C98.6289 278.488 98.4805 279.096 98.4805 279.9ZM105.857 275.125V276.66H107.041V277.498H105.857V281.43C105.857 281.684 105.91 281.875 106.016 282.004C106.121 282.129 106.301 282.191 106.555 282.191C106.68 282.191 106.852 282.168 107.07 282.121V283C106.785 283.078 106.508 283.117 106.238 283.117C105.754 283.117 105.389 282.971 105.143 282.678C104.896 282.385 104.773 281.969 104.773 281.43V277.498H103.619V276.66H104.773V275.125H105.857ZM108.482 283V274.469H111.271C112.197 274.469 112.893 274.66 113.357 275.043C113.826 275.426 114.061 275.992 114.061 276.742C114.061 277.141 113.947 277.494 113.721 277.803C113.494 278.107 113.186 278.344 112.795 278.512C113.256 278.641 113.619 278.887 113.885 279.25C114.154 279.609 114.289 280.039 114.289 280.539C114.289 281.305 114.041 281.906 113.545 282.344C113.049 282.781 112.348 283 111.441 283H108.482ZM109.607 279.01V282.08H111.465C111.988 282.08 112.4 281.945 112.701 281.676C113.006 281.402 113.158 281.027 113.158 280.551C113.158 279.523 112.6 279.01 111.482 279.01H109.607ZM109.607 278.107H111.307C111.799 278.107 112.191 277.984 112.484 277.738C112.781 277.492 112.93 277.158 112.93 276.736C112.93 276.268 112.793 275.928 112.52 275.717C112.246 275.502 111.83 275.395 111.271 275.395H109.607V278.107Z" fill="black"/>
<path d="M22.7012 107.773H19.127L18.3242 110H17.1641L20.4219 101.469H21.4062L24.6699 110H23.5156L22.7012 107.773ZM19.4668 106.848H22.3672L20.9141 102.857L19.4668 106.848ZM29.0996 110H28.0098V102.775L25.8242 103.578V102.594L28.9297 101.428H29.0996V110ZM32.7734 105.723L33.207 101.469H37.5781V102.471H34.127L33.8691 104.797C34.2871 104.551 34.7617 104.428 35.293 104.428C36.0703 104.428 36.6875 104.686 37.1445 105.201C37.6016 105.713 37.8301 106.406 37.8301 107.281C37.8301 108.16 37.5918 108.854 37.1152 109.361C36.6426 109.865 35.9805 110.117 35.1289 110.117C34.375 110.117 33.7598 109.908 33.2832 109.49C32.8066 109.072 32.5352 108.494 32.4688 107.756H33.4941C33.5605 108.244 33.7344 108.613 34.0156 108.863C34.2969 109.109 34.668 109.232 35.1289 109.232C35.6328 109.232 36.0273 109.061 36.3125 108.717C36.6016 108.373 36.7461 107.898 36.7461 107.293C36.7461 106.723 36.5898 106.266 36.2773 105.922C35.9688 105.574 35.5566 105.4 35.041 105.4C34.5684 105.4 34.1973 105.504 33.9277 105.711L33.6406 105.945L32.7734 105.723ZM42.125 109.432C42.125 109.244 42.1797 109.088 42.2891 108.963C42.4023 108.838 42.5703 108.775 42.793 108.775C43.0156 108.775 43.1836 108.838 43.2969 108.963C43.4141 109.088 43.4727 109.244 43.4727 109.432C43.4727 109.611 43.4141 109.762 43.2969 109.883C43.1836 110.004 43.0156 110.064 42.793 110.064C42.5703 110.064 42.4023 110.004 42.2891 109.883C42.1797 109.762 42.125 109.611 42.125 109.432ZM45.2891 109.432C45.2891 109.244 45.3438 109.088 45.4531 108.963C45.5664 108.838 45.7344 108.775 45.957 108.775C46.1797 108.775 46.3477 108.838 46.4609 108.963C46.5781 109.088 46.6367 109.244 46.6367 109.432C46.6367 109.611 46.5781 109.762 46.4609 109.883C46.3477 110.004 46.1797 110.064 45.957 110.064C45.7344 110.064 45.5664 110.004 45.4531 109.883C45.3438 109.762 45.2891 109.611 45.2891 109.432ZM56.2871 107.773H52.7129L51.9102 110H50.75L54.0078 101.469H54.9922L58.2559 110H57.1016L56.2871 107.773ZM53.0527 106.848H55.9531L54.5 102.857L53.0527 106.848ZM64.4727 106.361C64.4727 107.631 64.2559 108.574 63.8223 109.191C63.3887 109.809 62.7109 110.117 61.7891 110.117C60.8789 110.117 60.2051 109.816 59.7676 109.215C59.3301 108.609 59.1035 107.707 59.0879 106.508V105.061C59.0879 103.807 59.3047 102.875 59.7383 102.266C60.1719 101.656 60.8516 101.352 61.7773 101.352C62.6953 101.352 63.3711 101.646 63.8047 102.236C64.2383 102.822 64.4609 103.729 64.4727 104.955V106.361ZM63.3887 104.879C63.3887 103.961 63.2598 103.293 63.002 102.875C62.7441 102.453 62.3359 102.242 61.7773 102.242C61.2227 102.242 60.8184 102.451 60.5645 102.869C60.3105 103.287 60.1797 103.93 60.1719 104.797V106.531C60.1719 107.453 60.3047 108.135 60.5703 108.576C60.8398 109.014 61.2461 109.232 61.7891 109.232C62.3242 109.232 62.7207 109.025 62.9785 108.611C63.2402 108.197 63.377 107.545 63.3887 106.654V104.879Z" fill="black"/>
<path d="M137.99 110V101.469H140.779C141.705 101.469 142.4 101.66 142.865 102.043C143.334 102.426 143.568 102.992 143.568 103.742C143.568 104.141 143.455 104.494 143.229 104.803C143.002 105.107 142.693 105.344 142.303 105.512C142.764 105.641 143.127 105.887 143.393 106.25C143.662 106.609 143.797 107.039 143.797 107.539C143.797 108.305 143.549 108.906 143.053 109.344C142.557 109.781 141.855 110 140.949 110H137.99ZM139.115 106.01V109.08H140.973C141.496 109.08 141.908 108.945 142.209 108.676C142.514 108.402 142.666 108.027 142.666 107.551C142.666 106.523 142.107 106.01 140.99 106.01H139.115ZM139.115 105.107H140.814C141.307 105.107 141.699 104.984 141.992 104.738C142.289 104.492 142.438 104.158 142.438 103.736C142.438 103.268 142.301 102.928 142.027 102.717C141.754 102.502 141.338 102.395 140.779 102.395H139.115V105.107ZM148.748 110H147.658V102.775L145.473 103.578V102.594L148.578 101.428H148.748V110ZM152.422 105.723L152.855 101.469H157.227V102.471H153.775L153.518 104.797C153.936 104.551 154.41 104.428 154.941 104.428C155.719 104.428 156.336 104.686 156.793 105.201C157.25 105.713 157.479 106.406 157.479 107.281C157.479 108.16 157.24 108.854 156.764 109.361C156.291 109.865 155.629 110.117 154.777 110.117C154.023 110.117 153.408 109.908 152.932 109.49C152.455 109.072 152.184 108.494 152.117 107.756H153.143C153.209 108.244 153.383 108.613 153.664 108.863C153.945 109.109 154.316 109.232 154.777 109.232C155.281 109.232 155.676 109.061 155.961 108.717C156.25 108.373 156.395 107.898 156.395 107.293C156.395 106.723 156.238 106.266 155.926 105.922C155.617 105.574 155.205 105.4 154.689 105.4C154.217 105.4 153.846 105.504 153.576 105.711L153.289 105.945L152.422 105.723ZM161.773 109.432C161.773 109.244 161.828 109.088 161.938 108.963C162.051 108.838 162.219 108.775 162.441 108.775C162.664 108.775 162.832 108.838 162.945 108.963C163.062 109.088 163.121 109.244 163.121 109.432C163.121 109.611 163.062 109.762 162.945 109.883C162.832 110.004 162.664 110.064 162.441 110.064C162.219 110.064 162.051 110.004 161.938 109.883C161.828 109.762 161.773 109.611 161.773 109.432ZM164.938 109.432C164.938 109.244 164.992 109.088 165.102 108.963C165.215 108.838 165.383 108.775 165.605 108.775C165.828 108.775 165.996 108.838 166.109 108.963C166.227 109.088 166.285 109.244 166.285 109.432C166.285 109.611 166.227 109.762 166.109 109.883C165.996 110.004 165.828 110.064 165.605 110.064C165.383 110.064 165.215 110.004 165.102 109.883C164.992 109.762 164.938 109.611 164.938 109.432ZM171.225 110V101.469H174.014C174.939 101.469 175.635 101.66 176.1 102.043C176.568 102.426 176.803 102.992 176.803 103.742C176.803 104.141 176.689 104.494 176.463 104.803C176.236 105.107 175.928 105.344 175.537 105.512C175.998 105.641 176.361 105.887 176.627 106.25C176.896 106.609 177.031 107.039 177.031 107.539C177.031 108.305 176.783 108.906 176.287 109.344C175.791 109.781 175.09 110 174.184 110H171.225ZM172.35 106.01V109.08H174.207C174.73 109.08 175.143 108.945 175.443 108.676C175.748 108.402 175.9 108.027 175.9 107.551C175.9 106.523 175.342 106.01 174.225 106.01H172.35ZM172.35 105.107H174.049C174.541 105.107 174.934 104.984 175.227 104.738C175.523 104.492 175.672 104.158 175.672 103.736C175.672 103.268 175.535 102.928 175.262 102.717C174.988 102.502 174.572 102.395 174.014 102.395H172.35V105.107ZM183.77 106.361C183.77 107.631 183.553 108.574 183.119 109.191C182.686 109.809 182.008 110.117 181.086 110.117C180.176 110.117 179.502 109.816 179.064 109.215C178.627 108.609 178.4 107.707 178.385 106.508V105.061C178.385 103.807 178.602 102.875 179.035 102.266C179.469 101.656 180.148 101.352 181.074 101.352C181.992 101.352 182.668 101.646 183.102 102.236C183.535 102.822 183.758 103.729 183.77 104.955V106.361ZM182.686 104.879C182.686 103.961 182.557 103.293 182.299 102.875C182.041 102.453 181.633 102.242 181.074 102.242C180.52 102.242 180.115 102.451 179.861 102.869C179.607 103.287 179.477 103.93 179.469 104.797V106.531C179.469 107.453 179.602 108.135 179.867 108.576C180.137 109.014 180.543 109.232 181.086 109.232C181.621 109.232 182.018 109.025 182.275 108.611C182.537 108.197 182.674 107.545 182.686 106.654V104.879Z" fill="black"/>
<path d="M44.7988 8.77344H41.2246L40.4219 11H39.2617L42.5195 2.46875H43.5039L46.7676 11H45.6133L44.7988 8.77344ZM41.5645 7.84766H44.4648L43.0117 3.85742L41.5645 7.84766ZM26.125 21.5371C26.125 20.6543 26.2422 19.8066 26.4766 18.9941C26.7148 18.1816 27.0684 17.4434 27.5371 16.7793C28.0059 16.1152 28.4922 15.6465 28.9961 15.373L29.2188 16.0879C28.6484 16.5254 28.1797 17.1934 27.8125 18.0918C27.4492 18.9902 27.25 19.9961 27.2148 21.1094L27.209 21.6074C27.209 23.1152 27.4844 24.4238 28.0352 25.5332C28.3672 26.1973 28.7617 26.7168 29.2188 27.0918L28.9961 27.7539C28.4766 27.4648 27.9805 26.9805 27.5078 26.3008C26.5859 24.9727 26.125 23.3848 26.125 21.5371ZM33.7188 25H32.6289V17.7754L30.4434 18.5781V17.5938L33.5488 16.4277H33.7188V25ZM41.1484 16.4629V17.3828H40.9492C40.1055 17.3984 39.4336 17.6484 38.9336 18.1328C38.4336 18.6172 38.1445 19.2988 38.0664 20.1777C38.5156 19.6621 39.1289 19.4043 39.9062 19.4043C40.6484 19.4043 41.2402 19.666 41.6816 20.1895C42.127 20.7129 42.3496 21.3887 42.3496 22.2168C42.3496 23.0957 42.1094 23.7988 41.6289 24.3262C41.1523 24.8535 40.5117 25.1172 39.707 25.1172C38.8906 25.1172 38.2285 24.8047 37.7207 24.1797C37.2129 23.5508 36.959 22.7422 36.959 21.7539V21.3379C36.959 19.7676 37.293 18.5684 37.9609 17.7402C38.6328 16.9082 39.6309 16.4824 40.9551 16.4629H41.1484ZM39.7246 20.3066C39.3535 20.3066 39.0117 20.418 38.6992 20.6406C38.3867 20.8633 38.1699 21.1426 38.0488 21.4785V21.877C38.0488 22.5801 38.207 23.1465 38.5234 23.5762C38.8398 24.0059 39.2344 24.2207 39.707 24.2207C40.1953 24.2207 40.5781 24.041 40.8555 23.6816C41.1367 23.3223 41.2773 22.8516 41.2773 22.2695C41.2773 21.6836 41.1348 21.2109 40.8496 20.8516C40.5684 20.4883 40.1934 20.3066 39.7246 20.3066ZM52.0879 21.9004C52.0879 22.8691 51.8652 23.6484 51.4199 24.2383C50.9746 24.8242 50.377 25.1172 49.627 25.1172C48.8262 25.1172 48.207 24.834 47.7695 24.2676L47.7168 25H46.7207V16H47.8047V19.3574C48.2422 18.8145 48.8457 18.543 49.6152 18.543C50.3848 18.543 50.9883 18.834 51.4258 19.416C51.8672 19.998 52.0879 20.7949 52.0879 21.8066V21.9004ZM51.0039 21.7773C51.0039 21.0391 50.8613 20.4688 50.5762 20.0664C50.291 19.6641 49.8809 19.4629 49.3457 19.4629C48.6309 19.4629 48.1172 19.7949 47.8047 20.459V23.2012C48.1367 23.8652 48.6543 24.1973 49.3574 24.1973C49.877 24.1973 50.2812 23.9961 50.5703 23.5938C50.8594 23.1914 51.0039 22.5859 51.0039 21.7773ZM54.6367 25H53.5527V18.6602H54.6367V25ZM53.4648 16.9785C53.4648 16.8027 53.5176 16.6543 53.623 16.5332C53.7324 16.4121 53.8926 16.3516 54.1035 16.3516C54.3145 16.3516 54.4746 16.4121 54.584 16.5332C54.6934 16.6543 54.748 16.8027 54.748 16.9785C54.748 17.1543 54.6934 17.3008 54.584 17.418C54.4746 17.5352 54.3145 17.5938 54.1035 17.5938C53.8926 17.5938 53.7324 17.5352 53.623 17.418C53.5176 17.3008 53.4648 17.1543 53.4648 16.9785ZM57.8477 17.125V18.6602H59.0312V19.498H57.8477V23.4297C57.8477 23.6836 57.9004 23.875 58.0059 24.0039C58.1113 24.1289 58.291 24.1914 58.5449 24.1914C58.6699 24.1914 58.8418 24.168 59.0605 24.1211V25C58.7754 25.0781 58.498 25.1172 58.2285 25.1172C57.7441 25.1172 57.3789 24.9707 57.1328 24.6777C56.8867 24.3848 56.7637 23.9688 56.7637 23.4297V19.498H55.6094V18.6602H56.7637V17.125H57.8477ZM62.8047 21.5957C62.8047 22.4668 62.6895 23.3027 62.459 24.1035C62.2324 24.9004 61.8828 25.6367 61.4102 26.3125C60.9414 26.9883 60.4492 27.4688 59.9336 27.7539L59.7051 27.0918C60.3066 26.6309 60.7891 25.916 61.1523 24.9473C61.5195 23.9746 61.707 22.8965 61.7148 21.7129V21.5254C61.7148 20.7051 61.6289 19.9434 61.457 19.2402C61.2852 18.5332 61.0449 17.9004 60.7363 17.3418C60.4316 16.7832 60.0879 16.3477 59.7051 16.0352L59.9336 15.373C60.4492 15.6582 60.9395 16.1348 61.4043 16.8027C61.873 17.4707 62.2227 18.207 62.4531 19.0117C62.6875 19.8164 62.8047 20.6777 62.8047 21.5957Z" fill="black"/>
<path d="M157.264 11V2.46875H160.053C160.979 2.46875 161.674 2.66016 162.139 3.04297C162.607 3.42578 162.842 3.99219 162.842 4.74219C162.842 5.14062 162.729 5.49414 162.502 5.80273C162.275 6.10742 161.967 6.34375 161.576 6.51172C162.037 6.64062 162.4 6.88672 162.666 7.25C162.936 7.60938 163.07 8.03906 163.07 8.53906C163.07 9.30469 162.822 9.90625 162.326 10.3438C161.83 10.7812 161.129 11 160.223 11H157.264ZM158.389 7.00977V10.0801H160.246C160.77 10.0801 161.182 9.94531 161.482 9.67578C161.787 9.40234 161.939 9.02734 161.939 8.55078C161.939 7.52344 161.381 7.00977 160.264 7.00977H158.389ZM158.389 6.10742H160.088C160.58 6.10742 160.973 5.98438 161.266 5.73828C161.562 5.49219 161.711 5.1582 161.711 4.73633C161.711 4.26758 161.574 3.92773 161.301 3.7168C161.027 3.50195 160.611 3.39453 160.053 3.39453H158.389V6.10742ZM143.125 21.5371C143.125 20.6543 143.242 19.8066 143.477 18.9941C143.715 18.1816 144.068 17.4434 144.537 16.7793C145.006 16.1152 145.492 15.6465 145.996 15.373L146.219 16.0879C145.648 16.5254 145.18 17.1934 144.812 18.0918C144.449 18.9902 144.25 19.9961 144.215 21.1094L144.209 21.6074C144.209 23.1152 144.484 24.4238 145.035 25.5332C145.367 26.1973 145.762 26.7168 146.219 27.0918L145.996 27.7539C145.477 27.4648 144.98 26.9805 144.508 26.3008C143.586 24.9727 143.125 23.3848 143.125 21.5371ZM150.719 25H149.629V17.7754L147.443 18.5781V17.5938L150.549 16.4277H150.719V25ZM158.148 16.4629V17.3828H157.949C157.105 17.3984 156.434 17.6484 155.934 18.1328C155.434 18.6172 155.145 19.2988 155.066 20.1777C155.516 19.6621 156.129 19.4043 156.906 19.4043C157.648 19.4043 158.24 19.666 158.682 20.1895C159.127 20.7129 159.35 21.3887 159.35 22.2168C159.35 23.0957 159.109 23.7988 158.629 24.3262C158.152 24.8535 157.512 25.1172 156.707 25.1172C155.891 25.1172 155.229 24.8047 154.721 24.1797C154.213 23.5508 153.959 22.7422 153.959 21.7539V21.3379C153.959 19.7676 154.293 18.5684 154.961 17.7402C155.633 16.9082 156.631 16.4824 157.955 16.4629H158.148ZM156.725 20.3066C156.354 20.3066 156.012 20.418 155.699 20.6406C155.387 20.8633 155.17 21.1426 155.049 21.4785V21.877C155.049 22.5801 155.207 23.1465 155.523 23.5762C155.84 24.0059 156.234 24.2207 156.707 24.2207C157.195 24.2207 157.578 24.041 157.855 23.6816C158.137 23.3223 158.277 22.8516 158.277 22.2695C158.277 21.6836 158.135 21.2109 157.85 20.8516C157.568 20.4883 157.193 20.3066 156.725 20.3066ZM169.088 21.9004C169.088 22.8691 168.865 23.6484 168.42 24.2383C167.975 24.8242 167.377 25.1172 166.627 25.1172C165.826 25.1172 165.207 24.834 164.77 24.2676L164.717 25H163.721V16H164.805V19.3574C165.242 18.8145 165.846 18.543 166.615 18.543C167.385 18.543 167.988 18.834 168.426 19.416C168.867 19.998 169.088 20.7949 169.088 21.8066V21.9004ZM168.004 21.7773C168.004 21.0391 167.861 20.4688 167.576 20.0664C167.291 19.6641 166.881 19.4629 166.346 19.4629C165.631 19.4629 165.117 19.7949 164.805 20.459V23.2012C165.137 23.8652 165.654 24.1973 166.357 24.1973C166.877 24.1973 167.281 23.9961 167.57 23.5938C167.859 23.1914 168.004 22.5859 168.004 21.7773ZM171.637 25H170.553V18.6602H171.637V25ZM170.465 16.9785C170.465 16.8027 170.518 16.6543 170.623 16.5332C170.732 16.4121 170.893 16.3516 171.104 16.3516C171.314 16.3516 171.475 16.4121 171.584 16.5332C171.693 16.6543 171.748 16.8027 171.748 16.9785C171.748 17.1543 171.693 17.3008 171.584 17.418C171.475 17.5352 171.314 17.5938 171.104 17.5938C170.893 17.5938 170.732 17.5352 170.623 17.418C170.518 17.3008 170.465 17.1543 170.465 16.9785ZM174.848 17.125V18.6602H176.031V19.498H174.848V23.4297C174.848 23.6836 174.9 23.875 175.006 24.0039C175.111 24.1289 175.291 24.1914 175.545 24.1914C175.67 24.1914 175.842 24.168 176.061 24.1211V25C175.775 25.0781 175.498 25.1172 175.229 25.1172C174.744 25.1172 174.379 24.9707 174.133 24.6777C173.887 24.3848 173.764 23.9688 173.764 23.4297V19.498H172.609V18.6602H173.764V17.125H174.848ZM179.805 21.5957C179.805 22.4668 179.689 23.3027 179.459 24.1035C179.232 24.9004 178.883 25.6367 178.41 26.3125C177.941 26.9883 177.449 27.4688 176.934 27.7539L176.705 27.0918C177.307 26.6309 177.789 25.916 178.152 24.9473C178.52 23.9746 178.707 22.8965 178.715 21.7129V21.5254C178.715 20.7051 178.629 19.9434 178.457 19.2402C178.285 18.5332 178.045 17.9004 177.736 17.3418C177.432 16.7832 177.088 16.3477 176.705 16.0352L176.934 15.373C177.449 15.6582 177.939 16.1348 178.404 16.8027C178.873 17.4707 179.223 18.207 179.453 19.0117C179.688 19.8164 179.805 20.6777 179.805 21.5957Z" fill="black"/>
</svg>
