<svg width="112" height="69" viewBox="0 0 112 69" fill="none" xmlns="http://www.w3.org/2000/svg">
<path d="M110.105 23.0195C110.105 24.6914 109.824 26.1523 109.262 27.4023C108.699 28.6445 107.902 29.5938 106.871 30.25C105.84 30.9062 104.637 31.2344 103.262 31.2344C101.918 31.2344 100.727 30.9062 99.6875 30.25C98.6484 29.5859 97.8398 28.6445 97.2617 27.4258C96.6914 26.1992 96.3984 24.7812 96.3828 23.1719V21.9414C96.3828 20.3008 96.668 18.8516 97.2383 17.5938C97.8086 16.3359 98.6133 15.375 99.6523 14.7109C100.699 14.0391 101.895 13.7031 103.238 13.7031C104.605 13.7031 105.809 14.0352 106.848 14.6992C107.895 15.3555 108.699 16.3125 109.262 17.5703C109.824 18.8203 110.105 20.2773 110.105 21.9414V23.0195ZM107.867 21.918C107.867 19.8945 107.461 18.3438 106.648 17.2656C105.836 16.1797 104.699 15.6367 103.238 15.6367C101.816 15.6367 100.695 16.1797 99.875 17.2656C99.0625 18.3438 98.6445 19.8438 98.6211 21.7656V23.0195C98.6211 24.9805 99.0312 26.5234 99.8516 27.6484C100.68 28.7656 101.816 29.3242 103.262 29.3242C104.715 29.3242 105.84 28.7969 106.637 27.7422C107.434 26.6797 107.844 25.1602 107.867 23.1836V21.918Z" fill="black"/>
<path d="M2.98047 63V45.9375H8.55859C10.4102 45.9375 11.8008 46.3203 12.7305 47.0859C13.668 47.8516 14.1367 48.9844 14.1367 50.4844C14.1367 51.2812 13.9102 51.9883 13.457 52.6055C13.0039 53.2148 12.3867 53.6875 11.6055 54.0234C12.5273 54.2812 13.2539 54.7734 13.7852 55.5C14.3242 56.2188 14.5938 57.0781 14.5938 58.0781C14.5938 59.6094 14.0977 60.8125 13.1055 61.6875C12.1133 62.5625 10.7109 63 8.89844 63H2.98047ZM5.23047 55.0195V61.1602H8.94531C9.99219 61.1602 10.8164 60.8906 11.418 60.3516C12.0273 59.8047 12.332 59.0547 12.332 58.1016C12.332 56.0469 11.2148 55.0195 8.98047 55.0195H5.23047ZM5.23047 53.2148H8.62891C9.61328 53.2148 10.3984 52.9688 10.9844 52.4766C11.5781 51.9844 11.875 51.3164 11.875 50.4727C11.875 49.5352 11.6016 48.8555 11.0547 48.4336C10.5078 48.0039 9.67578 47.7891 8.55859 47.7891H5.23047V53.2148Z" fill="black"/>
<path d="M11.4023 17.5469H4.25391L2.64844 22H0.328125L6.84375 4.9375H8.8125L15.3398 22H13.0312L11.4023 17.5469ZM4.93359 15.6953H10.7344L7.82812 7.71484L4.93359 15.6953Z" fill="black"/>
<path d="M40 44H13M78 34H103H78ZM39 24H13H39Z" stroke="black" stroke-width="2"/>
<path d="M38 14V54H58.4762C69.7441 54 78.4762 45 78.4762 34C78.4762 23 69.7441 14 58.4762 14H38ZM40.8571 16.8571H58.4762C68.2369 16.8571 75.1429 24.4971 75.1429 34C75.1429 43.5029 67.7607 51.1429 58 51.1429H40.8571V16.8571V16.8571Z" fill="black"/>
</svg>
