<svg width="264" height="69" viewBox="0 0 264 69" fill="none" xmlns="http://www.w3.org/2000/svg">
<path d="M262.105 24.0195C262.105 25.6914 261.824 27.1523 261.262 28.4023C260.699 29.6445 259.902 30.5938 258.871 31.25C257.84 31.9062 256.637 32.2344 255.262 32.2344C253.918 32.2344 252.727 31.9062 251.688 31.25C250.648 30.5859 249.84 29.6445 249.262 28.4258C248.691 27.1992 248.398 25.7812 248.383 24.1719V22.9414C248.383 21.3008 248.668 19.8516 249.238 18.5938C249.809 17.3359 250.613 16.375 251.652 15.7109C252.699 15.0391 253.895 14.7031 255.238 14.7031C256.605 14.7031 257.809 15.0352 258.848 15.6992C259.895 16.3555 260.699 17.3125 261.262 18.5703C261.824 19.8203 262.105 21.2773 262.105 22.9414V24.0195ZM259.867 22.918C259.867 20.8945 259.461 19.3438 258.648 18.2656C257.836 17.1797 256.699 16.6367 255.238 16.6367C253.816 16.6367 252.695 17.1797 251.875 18.2656C251.062 19.3438 250.645 20.8438 250.621 22.7656V24.0195C250.621 25.9805 251.031 27.5234 251.852 28.6484C252.68 29.7656 253.816 30.3242 255.262 30.3242C256.715 30.3242 257.84 29.7969 258.637 28.7422C259.434 27.6797 259.844 26.1602 259.867 24.1836V22.918Z" fill="black"/>
<path d="M186.043 34H162.043M236.157 34H252H236.157Z" stroke="black" stroke-width="2"/>
<path d="M185.969 11.5938V56.4062L188.125 55.3438L229.156 35.3438V32.6562L188.125 12.6562L185.969 11.5938ZM188.969 16.4062L225.094 34L188.969 51.5938V16.4062Z" fill="black"/>
<path d="M236 34C236 35.0609 235.579 36.0783 234.828 36.8284C234.078 37.5786 233.061 38 232 38C230.939 38 229.922 37.5786 229.172 36.8284C228.421 36.0783 228 35.0609 228 34C228 32.9391 228.421 31.9217 229.172 31.1716C229.922 30.4214 230.939 30 232 30C233.061 30 234.078 30.4214 234.828 31.1716C235.579 31.9217 236 32.9391 236 34Z" stroke="black" stroke-width="3"/>
<path d="M91.4023 24.5469H84.2539L82.6484 29H80.3281L86.8438 11.9375H88.8125L95.3398 29H93.0312L91.4023 24.5469ZM84.9336 22.6953H90.7344L87.8281 14.7148L84.9336 22.6953ZM110.75 29H108.488L99.8984 15.8516V29H97.6367V11.9375H99.8984L108.512 25.1445V11.9375H110.75V29ZM114.746 29V11.9375H119.562C121.047 11.9375 122.359 12.2656 123.5 12.9219C124.641 13.5781 125.52 14.5117 126.137 15.7227C126.762 16.9336 127.078 18.3242 127.086 19.8945V20.9844C127.086 22.5938 126.773 24.0039 126.148 25.2148C125.531 26.4258 124.645 27.3555 123.488 28.0039C122.34 28.6523 121 28.9844 119.469 29H114.746ZM116.996 13.7891V27.1602H119.363C121.098 27.1602 122.445 26.6211 123.406 25.543C124.375 24.4648 124.859 22.9297 124.859 20.9375V19.9414C124.859 18.0039 124.402 16.5 123.488 15.4297C122.582 14.3516 121.293 13.8047 119.621 13.7891H116.996ZM139.297 30.7695H128.562V29H139.297V30.7695ZM154.449 21.0195C154.449 22.6914 154.168 24.1523 153.605 25.4023C153.043 26.6445 152.246 27.5938 151.215 28.25C150.184 28.9062 148.98 29.2344 147.605 29.2344C146.262 29.2344 145.07 28.9062 144.031 28.25C142.992 27.5859 142.184 26.6445 141.605 25.4258C141.035 24.1992 140.742 22.7812 140.727 21.1719V19.9414C140.727 18.3008 141.012 16.8516 141.582 15.5938C142.152 14.3359 142.957 13.375 143.996 12.7109C145.043 12.0391 146.238 11.7031 147.582 11.7031C148.949 11.7031 150.152 12.0352 151.191 12.6992C152.238 13.3555 153.043 14.3125 153.605 15.5703C154.168 16.8203 154.449 18.2773 154.449 19.9414V21.0195ZM152.211 19.918C152.211 17.8945 151.805 16.3438 150.992 15.2656C150.18 14.1797 149.043 13.6367 147.582 13.6367C146.16 13.6367 145.039 14.1797 144.219 15.2656C143.406 16.3438 142.988 17.8438 142.965 19.7656V21.0195C142.965 22.9805 143.375 24.5234 144.195 25.6484C145.023 26.7656 146.16 27.3242 147.605 27.3242C149.059 27.3242 150.184 26.7969 150.98 25.7422C151.777 24.6797 152.188 23.1602 152.211 21.1836V19.918ZM169.836 11.9375V23.5391C169.828 25.1484 169.32 26.4648 168.312 27.4883C167.312 28.5117 165.953 29.0859 164.234 29.2109L163.637 29.2344C161.77 29.2344 160.281 28.7305 159.172 27.7227C158.062 26.7148 157.5 25.3281 157.484 23.5625V11.9375H159.711V23.4922C159.711 24.7266 160.051 25.6875 160.73 26.375C161.41 27.0547 162.379 27.3945 163.637 27.3945C164.91 27.3945 165.883 27.0547 166.555 26.375C167.234 25.6953 167.574 24.7383 167.574 23.5039V11.9375H169.836ZM185.176 13.7891H179.691V29H177.453V13.7891H171.98V11.9375H185.176V13.7891Z" fill="black"/>
<path d="M2.98047 63V45.9375H8.55859C10.4102 45.9375 11.8008 46.3203 12.7305 47.0859C13.668 47.8516 14.1367 48.9844 14.1367 50.4844C14.1367 51.2812 13.9102 51.9883 13.457 52.6055C13.0039 53.2148 12.3867 53.6875 11.6055 54.0234C12.5273 54.2812 13.2539 54.7734 13.7852 55.5C14.3242 56.2188 14.5938 57.0781 14.5938 58.0781C14.5938 59.6094 14.0977 60.8125 13.1055 61.6875C12.1133 62.5625 10.7109 63 8.89844 63H2.98047ZM5.23047 55.0195V61.1602H8.94531C9.99219 61.1602 10.8164 60.8906 11.418 60.3516C12.0273 59.8047 12.332 59.0547 12.332 58.1016C12.332 56.0469 11.2148 55.0195 8.98047 55.0195H5.23047ZM5.23047 53.2148H8.62891C9.61328 53.2148 10.3984 52.9688 10.9844 52.4766C11.5781 51.9844 11.875 51.3164 11.875 50.4727C11.875 49.5352 11.6016 48.8555 11.0547 48.4336C10.5078 48.0039 9.67578 47.7891 8.55859 47.7891H5.23047V53.2148Z" fill="black"/>
<path d="M11.4023 17.5469H4.25391L2.64844 22H0.328125L6.84375 4.9375H8.8125L15.3398 22H13.0312L11.4023 17.5469ZM4.93359 15.6953H10.7344L7.82812 7.71484L4.93359 15.6953Z" fill="black"/>
<path d="M78 34H162.5M39 24H13M40 44H13" stroke="black" stroke-width="2"/>
<path d="M38 14V54H58.4762C69.7441 54 78.4762 45 78.4762 34C78.4762 23 69.7441 14 58.4762 14H38ZM40.8571 16.8571H58.4762C68.2369 16.8571 75.1429 24.4971 75.1429 34C75.1429 43.5029 67.7607 51.1429 58 51.1429H40.8571V16.8571V16.8571Z" fill="black"/>
</svg>
