<svg width="112" height="69" viewBox="0 0 112 69" fill="none" xmlns="http://www.w3.org/2000/svg">
<path d="M110.105 24.0195C110.105 25.6914 109.824 27.1523 109.262 28.4023C108.699 29.6445 107.902 30.5938 106.871 31.25C105.84 31.9062 104.637 32.2344 103.262 32.2344C101.918 32.2344 100.727 31.9062 99.6875 31.25C98.6484 30.5859 97.8398 29.6445 97.2617 28.4258C96.6914 27.1992 96.3984 25.7812 96.3828 24.1719V22.9414C96.3828 21.3008 96.668 19.8516 97.2383 18.5938C97.8086 17.3359 98.6133 16.375 99.6523 15.7109C100.699 15.0391 101.895 14.7031 103.238 14.7031C104.605 14.7031 105.809 15.0352 106.848 15.6992C107.895 16.3555 108.699 17.3125 109.262 18.5703C109.824 19.8203 110.105 21.2773 110.105 22.9414V24.0195ZM107.867 22.918C107.867 20.8945 107.461 19.3438 106.648 18.2656C105.836 17.1797 104.699 16.6367 103.238 16.6367C101.816 16.6367 100.695 17.1797 99.875 18.2656C99.0625 19.3438 98.6445 20.8438 98.6211 22.7656V24.0195C98.6211 25.9805 99.0312 27.5234 99.8516 28.6484C100.68 29.7656 101.816 30.3242 103.262 30.3242C104.715 30.3242 105.84 29.7969 106.637 28.7422C107.434 27.6797 107.844 26.1602 107.867 24.1836V22.918Z" fill="black"/>
<path d="M2.98047 63V45.9375H8.55859C10.4102 45.9375 11.8008 46.3203 12.7305 47.0859C13.668 47.8516 14.1367 48.9844 14.1367 50.4844C14.1367 51.2812 13.9102 51.9883 13.457 52.6055C13.0039 53.2148 12.3867 53.6875 11.6055 54.0234C12.5273 54.2812 13.2539 54.7734 13.7852 55.5C14.3242 56.2188 14.5938 57.0781 14.5938 58.0781C14.5938 59.6094 14.0977 60.8125 13.1055 61.6875C12.1133 62.5625 10.7109 63 8.89844 63H2.98047ZM5.23047 55.0195V61.1602H8.94531C9.99219 61.1602 10.8164 60.8906 11.418 60.3516C12.0273 59.8047 12.332 59.0547 12.332 58.1016C12.332 56.0469 11.2148 55.0195 8.98047 55.0195H5.23047ZM5.23047 53.2148H8.62891C9.61328 53.2148 10.3984 52.9688 10.9844 52.4766C11.5781 51.9844 11.875 51.3164 11.875 50.4727C11.875 49.5352 11.6016 48.8555 11.0547 48.4336C10.5078 48.0039 9.67578 47.7891 8.55859 47.7891H5.23047V53.2148Z" fill="black"/>
<path d="M11.4023 17.5469H4.25391L2.64844 22H0.328125L6.84375 4.9375H8.8125L15.3398 22H13.0312L11.4023 17.5469ZM4.93359 15.6953H10.7344L7.82812 7.71484L4.93359 15.6953Z" fill="black"/>
<path d="M40 45H13M87 35H103H87ZM39 25H13H39Z" stroke="black" stroke-width="2"/>
<path fill-rule="evenodd" clip-rule="evenodd" d="M32.0938 15L34.0938 17.4375C34.0938 17.4375 39.75 24.4375 39.75 35C39.75 45.5625 34.0938 52.5625 34.0938 52.5625L32.0938 55H49.25C51.6581 55 56.9397 55.0245 62.875 52.5938C68.8103 50.163 75.4115 45.2505 80.5625 35.7188L79.25 35L80.5625 34.2812C70.2594 15.2156 54.0066 15 49.25 15H32.0938ZM37.9688 18H49.25C53.9342 18 67.5368 17.8698 77.2188 35C72.452 43.4291 66.6975 47.6839 61.5 49.8125C56.1393 52.0079 51.6581 52 49.25 52H38C39.8736 48.8916 42.75 42.9507 42.75 35C42.75 27.0266 39.8415 21.0998 37.9688 18Z" fill="black"/>
<path d="M87 35C87 36.0609 86.5786 37.0783 85.8284 37.8284C85.0783 38.5786 84.0609 39 83 39C81.9391 39 80.9217 38.5786 80.1716 37.8284C79.4214 37.0783 79 36.0609 79 35C79 33.9391 79.4214 32.9217 80.1716 32.1716C80.9217 31.4214 81.9391 31 83 31C84.0609 31 85.0783 31.4214 85.8284 32.1716C86.5786 32.9217 87 33.9391 87 35Z" stroke="black" stroke-width="3"/>
</svg>
