<svg width="263" height="69" viewBox="0 0 263 69" fill="none" xmlns="http://www.w3.org/2000/svg">
<path d="M261.105 24.0195C261.105 25.6914 260.824 27.1523 260.262 28.4023C259.699 29.6445 258.902 30.5938 257.871 31.25C256.84 31.9062 255.637 32.2344 254.262 32.2344C252.918 32.2344 251.727 31.9062 250.688 31.25C249.648 30.5859 248.84 29.6445 248.262 28.4258C247.691 27.1992 247.398 25.7812 247.383 24.1719V22.9414C247.383 21.3008 247.668 19.8516 248.238 18.5938C248.809 17.3359 249.613 16.375 250.652 15.7109C251.699 15.0391 252.895 14.7031 254.238 14.7031C255.605 14.7031 256.809 15.0352 257.848 15.6992C258.895 16.3555 259.699 17.3125 260.262 18.5703C260.824 19.8203 261.105 21.2773 261.105 22.9414V24.0195ZM258.867 22.918C258.867 20.8945 258.461 19.3438 257.648 18.2656C256.836 17.1797 255.699 16.6367 254.238 16.6367C252.816 16.6367 251.695 17.1797 250.875 18.2656C250.062 19.3438 249.645 20.8438 249.621 22.7656V24.0195C249.621 25.9805 250.031 27.5234 250.852 28.6484C251.68 29.7656 252.816 30.3242 254.262 30.3242C255.715 30.3242 256.84 29.7969 257.637 28.7422C258.434 27.6797 258.844 26.1602 258.867 24.1836V22.918Z" fill="black"/>
<path d="M185.043 34H161.043M235.157 34H251H235.157Z" stroke="black" stroke-width="2"/>
<path d="M184.969 11.5938V56.4062L187.125 55.3438L228.156 35.3438V32.6562L187.125 12.6562L184.969 11.5938ZM187.969 16.4062L224.094 34L187.969 51.5938V16.4062Z" fill="black"/>
<path d="M235 34C235 35.0609 234.579 36.0783 233.828 36.8284C233.078 37.5786 232.061 38 231 38C229.939 38 228.922 37.5786 228.172 36.8284C227.421 36.0783 227 35.0609 227 34C227 32.9391 227.421 31.9217 228.172 31.1716C228.922 30.4214 229.939 30 231 30C232.061 30 233.078 30.4214 233.828 31.1716C234.579 31.9217 235 32.9391 235 34Z" stroke="black" stroke-width="3"/>
<path d="M2.98047 63V45.9375H8.55859C10.4102 45.9375 11.8008 46.3203 12.7305 47.0859C13.668 47.8516 14.1367 48.9844 14.1367 50.4844C14.1367 51.2812 13.9102 51.9883 13.457 52.6055C13.0039 53.2148 12.3867 53.6875 11.6055 54.0234C12.5273 54.2812 13.2539 54.7734 13.7852 55.5C14.3242 56.2188 14.5938 57.0781 14.5938 58.0781C14.5938 59.6094 14.0977 60.8125 13.1055 61.6875C12.1133 62.5625 10.7109 63 8.89844 63H2.98047ZM5.23047 55.0195V61.1602H8.94531C9.99219 61.1602 10.8164 60.8906 11.418 60.3516C12.0273 59.8047 12.332 59.0547 12.332 58.1016C12.332 56.0469 11.2148 55.0195 8.98047 55.0195H5.23047ZM5.23047 53.2148H8.62891C9.61328 53.2148 10.3984 52.9688 10.9844 52.4766C11.5781 51.9844 11.875 51.3164 11.875 50.4727C11.875 49.5352 11.6016 48.8555 11.0547 48.4336C10.5078 48.0039 9.67578 47.7891 8.55859 47.7891H5.23047V53.2148Z" fill="black"/>
<path d="M78 34H162M39 24H13M40 44H13" stroke="black" stroke-width="2"/>
<path fill-rule="evenodd" clip-rule="evenodd" d="M32.0938 14L34.0938 16.4375C34.0938 16.4375 39.75 23.4375 39.75 34C39.75 44.5625 34.0938 51.5625 34.0938 51.5625L32.0938 54H49.25C51.6581 54 56.9397 54.0245 62.875 51.5938C68.8103 49.163 75.4115 44.2505 80.5625 34.7188L79.25 34L80.5625 33.2812C70.2594 14.2156 54.0066 14 49.25 14H32.0938ZM37.9688 17H49.25C53.9342 17 67.5368 16.8698 77.2188 34C72.452 42.4291 66.6975 46.6839 61.5 48.8125C56.1393 51.0079 51.6581 51 49.25 51H38C39.8736 47.8916 42.75 41.9507 42.75 34C42.75 26.0266 39.8415 20.0998 37.9688 17Z" fill="black"/>
<path d="M11.4023 17.5469H4.25391L2.64844 22H0.328125L6.84375 4.9375H8.8125L15.3398 22H13.0312L11.4023 17.5469ZM4.93359 15.6953H10.7344L7.82812 7.71484L4.93359 15.6953Z" fill="black"/>
<path d="M104.105 22.0195C104.105 23.6914 103.824 25.1523 103.262 26.4023C102.699 27.6445 101.902 28.5938 100.871 29.25C99.8398 29.9062 98.6367 30.2344 97.2617 30.2344C95.918 30.2344 94.7266 29.9062 93.6875 29.25C92.6484 28.5859 91.8398 27.6445 91.2617 26.4258C90.6914 25.1992 90.3984 23.7812 90.3828 22.1719V20.9414C90.3828 19.3008 90.668 17.8516 91.2383 16.5938C91.8086 15.3359 92.6133 14.375 93.6523 13.7109C94.6992 13.0391 95.8945 12.7031 97.2383 12.7031C98.6055 12.7031 99.8086 13.0352 100.848 13.6992C101.895 14.3555 102.699 15.3125 103.262 16.5703C103.824 17.8203 104.105 19.2773 104.105 20.9414V22.0195ZM101.867 20.918C101.867 18.8945 101.461 17.3438 100.648 16.2656C99.8359 15.1797 98.6992 14.6367 97.2383 14.6367C95.8164 14.6367 94.6953 15.1797 93.875 16.2656C93.0625 17.3438 92.6445 18.8438 92.6211 20.7656V22.0195C92.6211 23.9805 93.0312 25.5234 93.8516 26.6484C94.6797 27.7656 95.8164 28.3242 97.2617 28.3242C98.7148 28.3242 99.8398 27.7969 100.637 26.7422C101.434 25.6797 101.844 24.1602 101.867 22.1836V20.918ZM113.738 23.0977H109.73V30H107.469V12.9375H113.117C115.039 12.9375 116.516 13.375 117.547 14.25C118.586 15.125 119.105 16.3984 119.105 18.0703C119.105 19.1328 118.816 20.0586 118.238 20.8477C117.668 21.6367 116.871 22.2266 115.848 22.6172L119.855 29.8594V30H117.441L113.738 23.0977ZM109.73 21.2578H113.188C114.305 21.2578 115.191 20.9688 115.848 20.3906C116.512 19.8125 116.844 19.0391 116.844 18.0703C116.844 17.0156 116.527 16.207 115.895 15.6445C115.27 15.082 114.363 14.7969 113.176 14.7891H109.73V21.2578ZM131.07 31.7695H120.336V30H131.07V31.7695ZM146.223 22.0195C146.223 23.6914 145.941 25.1523 145.379 26.4023C144.816 27.6445 144.02 28.5938 142.988 29.25C141.957 29.9062 140.754 30.2344 139.379 30.2344C138.035 30.2344 136.844 29.9062 135.805 29.25C134.766 28.5859 133.957 27.6445 133.379 26.4258C132.809 25.1992 132.516 23.7812 132.5 22.1719V20.9414C132.5 19.3008 132.785 17.8516 133.355 16.5938C133.926 15.3359 134.73 14.375 135.77 13.7109C136.816 13.0391 138.012 12.7031 139.355 12.7031C140.723 12.7031 141.926 13.0352 142.965 13.6992C144.012 14.3555 144.816 15.3125 145.379 16.5703C145.941 17.8203 146.223 19.2773 146.223 20.9414V22.0195ZM143.984 20.918C143.984 18.8945 143.578 17.3438 142.766 16.2656C141.953 15.1797 140.816 14.6367 139.355 14.6367C137.934 14.6367 136.812 15.1797 135.992 16.2656C135.18 17.3438 134.762 18.8438 134.738 20.7656V22.0195C134.738 23.9805 135.148 25.5234 135.969 26.6484C136.797 27.7656 137.934 28.3242 139.379 28.3242C140.832 28.3242 141.957 27.7969 142.754 26.7422C143.551 25.6797 143.961 24.1602 143.984 22.1836V20.918ZM161.609 12.9375V24.5391C161.602 26.1484 161.094 27.4648 160.086 28.4883C159.086 29.5117 157.727 30.0859 156.008 30.2109L155.41 30.2344C153.543 30.2344 152.055 29.7305 150.945 28.7227C149.836 27.7148 149.273 26.3281 149.258 24.5625V12.9375H151.484V24.4922C151.484 25.7266 151.824 26.6875 152.504 27.375C153.184 28.0547 154.152 28.3945 155.41 28.3945C156.684 28.3945 157.656 28.0547 158.328 27.375C159.008 26.6953 159.348 25.7383 159.348 24.5039V12.9375H161.609ZM176.949 14.7891H171.465V30H169.227V14.7891H163.754V12.9375H176.949V14.7891Z" fill="black"/>
</svg>
