<svg width="115" height="49" viewBox="0 0 115 49" fill="none" xmlns="http://www.w3.org/2000/svg">
<path d="M113.105 14.0195C113.105 15.6914 112.824 17.1523 112.262 18.4023C111.699 19.6445 110.902 20.5938 109.871 21.25C108.84 21.9062 107.637 22.2344 106.262 22.2344C104.918 22.2344 103.727 21.9062 102.688 21.25C101.648 20.5859 100.84 19.6445 100.262 18.4258C99.6914 17.1992 99.3984 15.7812 99.3828 14.1719V12.9414C99.3828 11.3008 99.668 9.85156 100.238 8.59375C100.809 7.33594 101.613 6.375 102.652 5.71094C103.699 5.03906 104.895 4.70312 106.238 4.70312C107.605 4.70312 108.809 5.03516 109.848 5.69922C110.895 6.35547 111.699 7.3125 112.262 8.57031C112.824 9.82031 113.105 11.2773 113.105 12.9414V14.0195ZM110.867 12.918C110.867 10.8945 110.461 9.34375 109.648 8.26562C108.836 7.17969 107.699 6.63672 106.238 6.63672C104.816 6.63672 103.695 7.17969 102.875 8.26562C102.062 9.34375 101.645 10.8438 101.621 12.7656V14.0195C101.621 15.9805 102.031 17.5234 102.852 18.6484C103.68 19.7656 104.816 20.3242 106.262 20.3242C107.715 20.3242 108.84 19.7969 109.637 18.7422C110.434 17.6797 110.844 16.1602 110.867 14.1836V12.918Z" fill="black"/>
<path d="M37.0435 26H13.0435M87.1569 26H103H87.1569Z" stroke="black" stroke-width="2"/>
<path d="M36.9688 3.59375V48.4062L39.125 47.3438L80.1562 27.3438V24.6562L39.125 4.65625L36.9688 3.59375ZM39.9688 8.40625L76.0938 26L39.9688 43.5938V8.40625Z" fill="black"/>
<path d="M87 26C87 27.0609 86.5786 28.0783 85.8284 28.8284C85.0783 29.5786 84.0609 30 83 30C81.9391 30 80.9217 29.5786 80.1716 28.8284C79.4214 28.0783 79 27.0609 79 26C79 24.9391 79.4214 23.9217 80.1716 23.1716C80.9217 22.4214 81.9391 22 83 22C84.0609 22 85.0783 22.4214 85.8284 23.1716C86.5786 23.9217 87 24.9391 87 26Z" stroke="black" stroke-width="3"/>
<path d="M11.4023 17.5469H4.25391L2.64844 22H0.328125L6.84375 4.9375H8.8125L15.3398 22H13.0312L11.4023 17.5469ZM4.93359 15.6953H10.7344L7.82812 7.71484L4.93359 15.6953Z" fill="black"/>
</svg>
