<svg width="115" height="69" viewBox="0 0 115 69" fill="none" xmlns="http://www.w3.org/2000/svg">
<path d="M113.105 20.0195C113.105 21.6914 112.824 23.1523 112.262 24.4023C111.699 25.6445 110.902 26.5938 109.871 27.25C108.84 27.9062 107.637 28.2344 106.262 28.2344C104.918 28.2344 103.727 27.9062 102.688 27.25C101.648 26.5859 100.84 25.6445 100.262 24.4258C99.6914 23.1992 99.3984 21.7812 99.3828 20.1719V18.9414C99.3828 17.3008 99.668 15.8516 100.238 14.5938C100.809 13.3359 101.613 12.375 102.652 11.7109C103.699 11.0391 104.895 10.7031 106.238 10.7031C107.605 10.7031 108.809 11.0352 109.848 11.6992C110.895 12.3555 111.699 13.3125 112.262 14.5703C112.824 15.8203 113.105 17.2773 113.105 18.9414V20.0195ZM110.867 18.918C110.867 16.8945 110.461 15.3438 109.648 14.2656C108.836 13.1797 107.699 12.6367 106.238 12.6367C104.816 12.6367 103.695 13.1797 102.875 14.2656C102.062 15.3438 101.645 16.8438 101.621 18.7656V20.0195C101.621 21.9805 102.031 23.5234 102.852 24.6484C103.68 25.7656 104.816 26.3242 106.262 26.3242C107.715 26.3242 108.84 25.7969 109.637 24.7422C110.434 23.6797 110.844 22.1602 110.867 20.1836V18.918Z" fill="black"/>
<path d="M2.98047 63V45.9375H8.55859C10.4102 45.9375 11.8008 46.3203 12.7305 47.0859C13.668 47.8516 14.1367 48.9844 14.1367 50.4844C14.1367 51.2812 13.9102 51.9883 13.457 52.6055C13.0039 53.2148 12.3867 53.6875 11.6055 54.0234C12.5273 54.2812 13.2539 54.7734 13.7852 55.5C14.3242 56.2188 14.5938 57.0781 14.5938 58.0781C14.5938 59.6094 14.0977 60.8125 13.1055 61.6875C12.1133 62.5625 10.7109 63 8.89844 63H2.98047ZM5.23047 55.0195V61.1602H8.94531C9.99219 61.1602 10.8164 60.8906 11.418 60.3516C12.0273 59.8047 12.332 59.0547 12.332 58.1016C12.332 56.0469 11.2148 55.0195 8.98047 55.0195H5.23047ZM5.23047 53.2148H8.62891C9.61328 53.2148 10.3984 52.9688 10.9844 52.4766C11.5781 51.9844 11.875 51.3164 11.875 50.4727C11.875 49.5352 11.6016 48.8555 11.0547 48.4336C10.5078 48.0039 9.67578 47.7891 8.55859 47.7891H5.23047V53.2148Z" fill="black"/>
<path d="M40 44H13M78 34H103H78ZM39 24H13H39Z" stroke="black" stroke-width="2"/>
<path fill-rule="evenodd" clip-rule="evenodd" d="M32.0938 14L34.0938 16.4375C34.0938 16.4375 39.75 23.4375 39.75 34C39.75 44.5625 34.0938 51.5625 34.0938 51.5625L32.0938 54H49.25C51.6581 54 56.9397 54.0245 62.875 51.5938C68.8103 49.163 75.4115 44.2505 80.5625 34.7188L79.25 34L80.5625 33.2812C70.2594 14.2156 54.0066 14 49.25 14H32.0938ZM37.9688 17H49.25C53.9342 17 67.5368 16.8698 77.2188 34C72.452 42.4291 66.6975 46.6839 61.5 48.8125C56.1393 51.0079 51.6581 51 49.25 51H38C39.8736 47.8916 42.75 41.9507 42.75 34C42.75 26.0266 39.8415 20.0998 37.9688 17Z" fill="black"/>
<path d="M11.4023 17.5469H4.25391L2.64844 22H0.328125L6.84375 4.9375H8.8125L15.3398 22H13.0312L11.4023 17.5469ZM4.93359 15.6953H10.7344L7.82812 7.71484L4.93359 15.6953Z" fill="black"/>
</svg>
