<svg width="112" height="69" viewBox="0 0 112 69" fill="none" xmlns="http://www.w3.org/2000/svg">
<path d="M110.105 22.0195C110.105 23.6914 109.824 25.1523 109.262 26.4023C108.699 27.6445 107.902 28.5938 106.871 29.25C105.84 29.9062 104.637 30.2344 103.262 30.2344C101.918 30.2344 100.727 29.9062 99.6875 29.25C98.6484 28.5859 97.8398 27.6445 97.2617 26.4258C96.6914 25.1992 96.3984 23.7812 96.3828 22.1719V20.9414C96.3828 19.3008 96.668 17.8516 97.2383 16.5938C97.8086 15.3359 98.6133 14.375 99.6523 13.7109C100.699 13.0391 101.895 12.7031 103.238 12.7031C104.605 12.7031 105.809 13.0352 106.848 13.6992C107.895 14.3555 108.699 15.3125 109.262 16.5703C109.824 17.8203 110.105 19.2773 110.105 20.9414V22.0195ZM107.867 20.918C107.867 18.8945 107.461 17.3438 106.648 16.2656C105.836 15.1797 104.699 14.6367 103.238 14.6367C101.816 14.6367 100.695 15.1797 99.875 16.2656C99.0625 17.3438 98.6445 18.8438 98.6211 20.7656V22.0195C98.6211 23.9805 99.0312 25.5234 99.8516 26.6484C100.68 27.7656 101.816 28.3242 103.262 28.3242C104.715 28.3242 105.84 27.7969 106.637 26.7422C107.434 25.6797 107.844 24.1602 107.867 22.1836V20.918Z" fill="black"/>
<path d="M2.98047 63V45.9375H8.55859C10.4102 45.9375 11.8008 46.3203 12.7305 47.0859C13.668 47.8516 14.1367 48.9844 14.1367 50.4844C14.1367 51.2812 13.9102 51.9883 13.457 52.6055C13.0039 53.2148 12.3867 53.6875 11.6055 54.0234C12.5273 54.2812 13.2539 54.7734 13.7852 55.5C14.3242 56.2188 14.5938 57.0781 14.5938 58.0781C14.5938 59.6094 14.0977 60.8125 13.1055 61.6875C12.1133 62.5625 10.7109 63 8.89844 63H2.98047ZM5.23047 55.0195V61.1602H8.94531C9.99219 61.1602 10.8164 60.8906 11.418 60.3516C12.0273 59.8047 12.332 59.0547 12.332 58.1016C12.332 56.0469 11.2148 55.0195 8.98047 55.0195H5.23047ZM5.23047 53.2148H8.62891C9.61328 53.2148 10.3984 52.9688 10.9844 52.4766C11.5781 51.9844 11.875 51.3164 11.875 50.4727C11.875 49.5352 11.6016 48.8555 11.0547 48.4336C10.5078 48.0039 9.67578 47.7891 8.55859 47.7891H5.23047V53.2148Z" fill="black"/>
<path d="M11.4023 17.5469H4.25391L2.64844 22H0.328125L6.84375 4.9375H8.8125L15.3398 22H13.0312L11.4023 17.5469ZM4.93359 15.6953H10.7344L7.82812 7.71484L4.93359 15.6953Z" fill="black"/>
<path d="M39.3621 45H13M86.3333 35H103H86.3333ZM38.3857 25H13H38.3857Z" stroke="black" stroke-width="2"/>
<path fill-rule="evenodd" clip-rule="evenodd" d="M32.25 52C30.6526 54.6444 30 55 30 55H26.3438L28.3438 52.5625C28.3438 52.5625 34 45.5625 34 35C34 24.4375 28.3438 17.4375 28.3438 17.4375L26.3438 15H30C30.7812 15.9375 31.4219 16.6562 32.2188 18C34.0915 21.0998 37 27.0266 37 35C37 42.9507 34.1033 48.8794 32.25 52Z" fill="black"/>
<path fill-rule="evenodd" clip-rule="evenodd" d="M32.0938 15L34.0938 17.4375C34.0938 17.4375 39.75 24.4375 39.75 35C39.75 45.5625 34.0938 52.5625 34.0938 52.5625L32.0938 55H49.25C51.6581 55 56.9397 55.0245 62.875 52.5938C68.8103 50.163 75.4115 45.2505 80.5625 35.7188L79.25 35L80.5625 34.2812C70.2594 15.2156 54.0066 15 49.25 15H32.0938ZM37.9688 18H49.25C53.9342 18 67.5368 17.8698 77.2188 35C72.452 43.4291 66.6975 47.6839 61.5 49.8125C56.1393 52.0079 51.6581 52 49.25 52H38C39.8736 48.8916 42.75 42.9507 42.75 35C42.75 27.0266 39.8415 21.0998 37.9688 18Z" fill="black"/>
<path d="M87 35C87 36.0609 86.5786 37.0783 85.8284 37.8284C85.0783 38.5786 84.0609 39 83 39C81.9391 39 80.9217 38.5786 80.1716 37.8284C79.4214 37.0783 79 36.0609 79 35C79 33.9391 79.4214 32.9217 80.1716 32.1716C80.9217 31.4214 81.9391 31 83 31C84.0609 31 85.0783 31.4214 85.8284 32.1716C86.5786 32.9217 87 33.9391 87 35Z" stroke="black" stroke-width="3"/>
</svg>
