<svg width="265" height="69" viewBox="0 0 265 69" fill="none" xmlns="http://www.w3.org/2000/svg">
<path d="M263.105 25.0195C263.105 26.6914 262.824 28.1523 262.262 29.4023C261.699 30.6445 260.902 31.5938 259.871 32.25C258.84 32.9062 257.637 33.2344 256.262 33.2344C254.918 33.2344 253.727 32.9062 252.688 32.25C251.648 31.5859 250.84 30.6445 250.262 29.4258C249.691 28.1992 249.398 26.7812 249.383 25.1719V23.9414C249.383 22.3008 249.668 20.8516 250.238 19.5938C250.809 18.3359 251.613 17.375 252.652 16.7109C253.699 16.0391 254.895 15.7031 256.238 15.7031C257.605 15.7031 258.809 16.0352 259.848 16.6992C260.895 17.3555 261.699 18.3125 262.262 19.5703C262.824 20.8203 263.105 22.2773 263.105 23.9414V25.0195ZM260.867 23.918C260.867 21.8945 260.461 20.3438 259.648 19.2656C258.836 18.1797 257.699 17.6367 256.238 17.6367C254.816 17.6367 253.695 18.1797 252.875 19.2656C252.062 20.3438 251.645 21.8438 251.621 23.7656V25.0195C251.621 26.9805 252.031 28.5234 252.852 29.6484C253.68 30.7656 254.816 31.3242 256.262 31.3242C257.715 31.3242 258.84 30.7969 259.637 29.7422C260.434 28.6797 260.844 27.1602 260.867 25.1836V23.918Z" fill="black"/>
<path d="M187.043 35H163.043M237.157 35H253H237.157Z" stroke="black" stroke-width="2"/>
<path d="M186.969 12.5938V57.4062L189.125 56.3438L230.156 36.3438V33.6562L189.125 13.6562L186.969 12.5938ZM189.969 17.4062L226.094 35L189.969 52.5938V17.4062Z" fill="black"/>
<path d="M237 35C237 36.0609 236.579 37.0783 235.828 37.8284C235.078 38.5786 234.061 39 233 39C231.939 39 230.922 38.5786 230.172 37.8284C229.421 37.0783 229 36.0609 229 35C229 33.9391 229.421 32.9217 230.172 32.1716C230.922 31.4214 231.939 31 233 31C234.061 31 235.078 31.4214 235.828 32.1716C236.579 32.9217 237 33.9391 237 35Z" stroke="black" stroke-width="3"/>
<path d="M88.5469 19.4766L92.6367 12.9375H95.2852L89.8945 21.3984L95.4141 30H92.7422L88.5469 23.3438L84.3281 30H81.668L87.1992 21.3984L81.7969 12.9375H84.4336L88.5469 19.4766ZM110.848 22.0195C110.848 23.6914 110.566 25.1523 110.004 26.4023C109.441 27.6445 108.645 28.5938 107.613 29.25C106.582 29.9062 105.379 30.2344 104.004 30.2344C102.66 30.2344 101.469 29.9062 100.43 29.25C99.3906 28.5859 98.582 27.6445 98.0039 26.4258C97.4336 25.1992 97.1406 23.7812 97.125 22.1719V20.9414C97.125 19.3008 97.4102 17.8516 97.9805 16.5938C98.5508 15.3359 99.3555 14.375 100.395 13.7109C101.441 13.0391 102.637 12.7031 103.98 12.7031C105.348 12.7031 106.551 13.0352 107.59 13.6992C108.637 14.3555 109.441 15.3125 110.004 16.5703C110.566 17.8203 110.848 19.2773 110.848 20.9414V22.0195ZM108.609 20.918C108.609 18.8945 108.203 17.3438 107.391 16.2656C106.578 15.1797 105.441 14.6367 103.98 14.6367C102.559 14.6367 101.438 15.1797 100.617 16.2656C99.8047 17.3438 99.3867 18.8438 99.3633 20.7656V22.0195C99.3633 23.9805 99.7734 25.5234 100.594 26.6484C101.422 27.7656 102.559 28.3242 104.004 28.3242C105.457 28.3242 106.582 27.7969 107.379 26.7422C108.176 25.6797 108.586 24.1602 108.609 22.1836V20.918ZM120.48 23.0977H116.473V30H114.211V12.9375H119.859C121.781 12.9375 123.258 13.375 124.289 14.25C125.328 15.125 125.848 16.3984 125.848 18.0703C125.848 19.1328 125.559 20.0586 124.98 20.8477C124.41 21.6367 123.613 22.2266 122.59 22.6172L126.598 29.8594V30H124.184L120.48 23.0977ZM116.473 21.2578H119.93C121.047 21.2578 121.934 20.9688 122.59 20.3906C123.254 19.8125 123.586 19.0391 123.586 18.0703C123.586 17.0156 123.27 16.207 122.637 15.6445C122.012 15.082 121.105 14.7969 119.918 14.7891H116.473V21.2578ZM137.812 31.7695H127.078V30H137.812V31.7695ZM152.965 22.0195C152.965 23.6914 152.684 25.1523 152.121 26.4023C151.559 27.6445 150.762 28.5938 149.73 29.25C148.699 29.9062 147.496 30.2344 146.121 30.2344C144.777 30.2344 143.586 29.9062 142.547 29.25C141.508 28.5859 140.699 27.6445 140.121 26.4258C139.551 25.1992 139.258 23.7812 139.242 22.1719V20.9414C139.242 19.3008 139.527 17.8516 140.098 16.5938C140.668 15.3359 141.473 14.375 142.512 13.7109C143.559 13.0391 144.754 12.7031 146.098 12.7031C147.465 12.7031 148.668 13.0352 149.707 13.6992C150.754 14.3555 151.559 15.3125 152.121 16.5703C152.684 17.8203 152.965 19.2773 152.965 20.9414V22.0195ZM150.727 20.918C150.727 18.8945 150.32 17.3438 149.508 16.2656C148.695 15.1797 147.559 14.6367 146.098 14.6367C144.676 14.6367 143.555 15.1797 142.734 16.2656C141.922 17.3438 141.504 18.8438 141.48 20.7656V22.0195C141.48 23.9805 141.891 25.5234 142.711 26.6484C143.539 27.7656 144.676 28.3242 146.121 28.3242C147.574 28.3242 148.699 27.7969 149.496 26.7422C150.293 25.6797 150.703 24.1602 150.727 22.1836V20.918ZM168.352 12.9375V24.5391C168.344 26.1484 167.836 27.4648 166.828 28.4883C165.828 29.5117 164.469 30.0859 162.75 30.2109L162.152 30.2344C160.285 30.2344 158.797 29.7305 157.688 28.7227C156.578 27.7148 156.016 26.3281 156 24.5625V12.9375H158.227V24.4922C158.227 25.7266 158.566 26.6875 159.246 27.375C159.926 28.0547 160.895 28.3945 162.152 28.3945C163.426 28.3945 164.398 28.0547 165.07 27.375C165.75 26.6953 166.09 25.7383 166.09 24.5039V12.9375H168.352ZM183.691 14.7891H178.207V30H175.969V14.7891H170.496V12.9375H183.691V14.7891Z" fill="black"/>
<path d="M2.98047 63V45.9375H8.55859C10.4102 45.9375 11.8008 46.3203 12.7305 47.0859C13.668 47.8516 14.1367 48.9844 14.1367 50.4844C14.1367 51.2812 13.9102 51.9883 13.457 52.6055C13.0039 53.2148 12.3867 53.6875 11.6055 54.0234C12.5273 54.2812 13.2539 54.7734 13.7852 55.5C14.3242 56.2188 14.5938 57.0781 14.5938 58.0781C14.5938 59.6094 14.0977 60.8125 13.1055 61.6875C12.1133 62.5625 10.7109 63 8.89844 63H2.98047ZM5.23047 55.0195V61.1602H8.94531C9.99219 61.1602 10.8164 60.8906 11.418 60.3516C12.0273 59.8047 12.332 59.0547 12.332 58.1016C12.332 56.0469 11.2148 55.0195 8.98047 55.0195H5.23047ZM5.23047 53.2148H8.62891C9.61328 53.2148 10.3984 52.9688 10.9844 52.4766C11.5781 51.9844 11.875 51.3164 11.875 50.4727C11.875 49.5352 11.6016 48.8555 11.0547 48.4336C10.5078 48.0039 9.67578 47.7891 8.55859 47.7891H5.23047V53.2148Z" fill="black"/>
<path d="M11.4023 17.5469H4.25391L2.64844 22H0.328125L6.84375 4.9375H8.8125L15.3398 22H13.0312L11.4023 17.5469ZM4.93359 15.6953H10.7344L7.82812 7.71484L4.93359 15.6953Z" fill="black"/>
<path d="M78 35H163M38.3857 25H13M39.3621 45H13" stroke="black" stroke-width="2"/>
<path fill-rule="evenodd" clip-rule="evenodd" d="M32.25 52C30.6526 54.6444 30 55 30 55H26.3438L28.3438 52.5625C28.3438 52.5625 34 45.5625 34 35C34 24.4375 28.3438 17.4375 28.3438 17.4375L26.3438 15H30C30.7812 15.9375 31.4219 16.6562 32.2188 18C34.0915 21.0998 37 27.0266 37 35C37 42.9507 34.1033 48.8794 32.25 52Z" fill="black"/>
<path fill-rule="evenodd" clip-rule="evenodd" d="M32.0938 15L34.0938 17.4375C34.0938 17.4375 39.75 24.4375 39.75 35C39.75 45.5625 34.0938 52.5625 34.0938 52.5625L32.0938 55H49.25C51.6581 55 56.9397 55.0245 62.875 52.5938C68.8103 50.163 75.4115 45.2505 80.5625 35.7188L79.25 35L80.5625 34.2812C70.2594 15.2156 54.0066 15 49.25 15H32.0938ZM37.9688 18H49.25C53.9342 18 67.5368 17.8698 77.2188 35C72.452 43.4291 66.6975 47.6839 61.5 49.8125C56.1393 52.0079 51.6581 52 49.25 52H38C39.8736 48.8916 42.75 42.9507 42.75 35C42.75 27.0266 39.8415 21.0998 37.9688 18Z" fill="black"/>
</svg>
