<svg width="971" height="477" viewBox="0 0 971 477" fill="none" xmlns="http://www.w3.org/2000/svg">
<path d="M99.5858 320.586C98.8047 321.367 98.8047 322.633 99.5858 323.414L112.314 336.142C113.095 336.923 114.361 336.923 115.142 336.142C115.923 335.361 115.923 334.095 115.142 333.314L103.828 322L115.142 310.686C115.923 309.905 115.923 308.639 115.142 307.858C114.361 307.077 113.095 307.077 112.314 307.858L99.5858 320.586ZM340 320L101 320V324L340 324V320Z" fill="black"/>
<path d="M341.414 195.414C342.195 194.633 342.195 193.367 341.414 192.586L328.686 179.858C327.905 179.077 326.639 179.077 325.858 179.858C325.077 180.639 325.077 181.905 325.858 182.686L337.172 194L325.858 205.314C325.077 206.095 325.077 207.361 325.858 208.142C326.639 208.923 327.905 208.923 328.686 208.142L341.414 195.414ZM101 196H340V192H101V196Z" fill="black"/>
<path d="M742.586 112.414C743.367 113.195 744.633 113.195 745.414 112.414L758.142 99.6863C758.923 98.9052 758.923 97.6389 758.142 96.8579C757.361 96.0768 756.095 96.0768 755.314 96.8579L744 108.172L732.686 96.8579C731.905 96.0768 730.639 96.0768 729.858 96.8579C729.077 97.6389 729.077 98.9052 729.858 99.6863L742.586 112.414ZM742 34L742 111L746 111L746 34L742 34Z" fill="black"/>
<path d="M514.586 112.414C515.367 113.195 516.633 113.195 517.414 112.414L530.142 99.6863C530.923 98.9052 530.923 97.6389 530.142 96.8579C529.361 96.0768 528.095 96.0768 527.314 96.8579L516 108.172L504.686 96.8579C503.905 96.0768 502.639 96.0768 501.858 96.8579C501.077 97.6389 501.077 98.9052 501.858 99.6863L514.586 112.414ZM514 34L514 111L518 111L518 34L514 34Z" fill="black"/>
<path d="M355.012 16.5859C354.801 18.3906 354.133 19.7852 353.008 20.7695C351.891 21.7461 350.402 22.2344 348.543 22.2344C346.527 22.2344 344.91 21.5117 343.691 20.0664C342.48 18.6211 341.875 16.6875 341.875 14.2656V12.625C341.875 11.0391 342.156 9.64453 342.719 8.44141C343.289 7.23828 344.094 6.31641 345.133 5.67578C346.172 5.02734 347.375 4.70312 348.742 4.70312C350.555 4.70312 352.008 5.21094 353.102 6.22656C354.195 7.23438 354.832 8.63281 355.012 10.4219H352.75C352.555 9.0625 352.129 8.07812 351.473 7.46875C350.824 6.85938 349.914 6.55469 348.742 6.55469C347.305 6.55469 346.176 7.08594 345.355 8.14844C344.543 9.21094 344.137 10.7227 344.137 12.6836V14.3359C344.137 16.1875 344.523 17.6602 345.297 18.7539C346.07 19.8477 347.152 20.3945 348.543 20.3945C349.793 20.3945 350.75 20.1133 351.414 19.5508C352.086 18.9805 352.531 17.9922 352.75 16.5859H355.012ZM367.516 17.5469H360.367L358.762 22H356.441L362.957 4.9375H364.926L371.453 22H369.145L367.516 17.5469ZM361.047 15.6953H366.848L363.941 7.71484L361.047 15.6953ZM378.777 14.3945C376.848 13.8398 375.441 13.1602 374.559 12.3555C373.684 11.543 373.246 10.543 373.246 9.35547C373.246 8.01172 373.781 6.90234 374.852 6.02734C375.93 5.14453 377.328 4.70312 379.047 4.70312C380.219 4.70312 381.262 4.92969 382.176 5.38281C383.098 5.83594 383.809 6.46094 384.309 7.25781C384.816 8.05469 385.07 8.92578 385.07 9.87109H382.809C382.809 8.83984 382.48 8.03125 381.824 7.44531C381.168 6.85156 380.242 6.55469 379.047 6.55469C377.938 6.55469 377.07 6.80078 376.445 7.29297C375.828 7.77734 375.52 8.45312 375.52 9.32031C375.52 10.0156 375.812 10.6055 376.398 11.0898C376.992 11.5664 377.996 12.0039 379.41 12.4023C380.832 12.8008 381.941 13.2422 382.738 13.7266C383.543 14.2031 384.137 14.7617 384.52 15.4023C384.91 16.043 385.105 16.7969 385.105 17.6641C385.105 19.0469 384.566 20.1562 383.488 20.9922C382.41 21.8203 380.969 22.2344 379.164 22.2344C377.992 22.2344 376.898 22.0117 375.883 21.5664C374.867 21.1133 374.082 20.4961 373.527 19.7148C372.98 18.9336 372.707 18.0469 372.707 17.0547H374.969C374.969 18.0859 375.348 18.9023 376.105 19.5039C376.871 20.0977 377.891 20.3945 379.164 20.3945C380.352 20.3945 381.262 20.1523 381.895 19.668C382.527 19.1836 382.844 18.5234 382.844 17.6875C382.844 16.8516 382.551 16.207 381.965 15.7539C381.379 15.293 380.316 14.8398 378.777 14.3945ZM401.113 22H398.852V14.1133H390.25V22H388V4.9375H390.25V12.2734H398.852V4.9375H401.113V22ZM413.91 23.7695H403.176V22H413.91V23.7695ZM422.195 15.0977H418.188V22H415.926V4.9375H421.574C423.496 4.9375 424.973 5.375 426.004 6.25C427.043 7.125 427.562 8.39844 427.562 10.0703C427.562 11.1328 427.273 12.0586 426.695 12.8477C426.125 13.6367 425.328 14.2266 424.305 14.6172L428.312 21.8594V22H425.898L422.195 15.0977ZM418.188 13.2578H421.645C422.762 13.2578 423.648 12.9688 424.305 12.3906C424.969 11.8125 425.301 11.0391 425.301 10.0703C425.301 9.01562 424.984 8.20703 424.352 7.64453C423.727 7.08203 422.82 6.79688 421.633 6.78906H418.188V13.2578ZM433.141 22H430.891V4.9375H433.141V22ZM449.816 16.5859C449.605 18.3906 448.938 19.7852 447.812 20.7695C446.695 21.7461 445.207 22.2344 443.348 22.2344C441.332 22.2344 439.715 21.5117 438.496 20.0664C437.285 18.6211 436.68 16.6875 436.68 14.2656V12.625C436.68 11.0391 436.961 9.64453 437.523 8.44141C438.094 7.23828 438.898 6.31641 439.938 5.67578C440.977 5.02734 442.18 4.70312 443.547 4.70312C445.359 4.70312 446.812 5.21094 447.906 6.22656C449 7.23438 449.637 8.63281 449.816 10.4219H447.555C447.359 9.0625 446.934 8.07812 446.277 7.46875C445.629 6.85938 444.719 6.55469 443.547 6.55469C442.109 6.55469 440.98 7.08594 440.16 8.14844C439.348 9.21094 438.941 10.7227 438.941 12.6836V14.3359C438.941 16.1875 439.328 17.6602 440.102 18.7539C440.875 19.8477 441.957 20.3945 443.348 20.3945C444.598 20.3945 445.555 20.1133 446.219 19.5508C446.891 18.9805 447.336 17.9922 447.555 16.5859H449.816ZM466.012 22H463.75V14.1133H455.148V22H452.898V4.9375H455.148V12.2734H463.75V4.9375H466.012V22ZM472.422 22H470.172V4.9375H472.422V22ZM486.191 14.1133H478.797V20.1602H487.387V22H476.547V4.9375H487.27V6.78906H478.797V12.2734H486.191V14.1133ZM495.215 14.3945C493.285 13.8398 491.879 13.1602 490.996 12.3555C490.121 11.543 489.684 10.543 489.684 9.35547C489.684 8.01172 490.219 6.90234 491.289 6.02734C492.367 5.14453 493.766 4.70312 495.484 4.70312C496.656 4.70312 497.699 4.92969 498.613 5.38281C499.535 5.83594 500.246 6.46094 500.746 7.25781C501.254 8.05469 501.508 8.92578 501.508 9.87109H499.246C499.246 8.83984 498.918 8.03125 498.262 7.44531C497.605 6.85156 496.68 6.55469 495.484 6.55469C494.375 6.55469 493.508 6.80078 492.883 7.29297C492.266 7.77734 491.957 8.45312 491.957 9.32031C491.957 10.0156 492.25 10.6055 492.836 11.0898C493.43 11.5664 494.434 12.0039 495.848 12.4023C497.27 12.8008 498.379 13.2422 499.176 13.7266C499.98 14.2031 500.574 14.7617 500.957 15.4023C501.348 16.043 501.543 16.7969 501.543 17.6641C501.543 19.0469 501.004 20.1562 499.926 20.9922C498.848 21.8203 497.406 22.2344 495.602 22.2344C494.43 22.2344 493.336 22.0117 492.32 21.5664C491.305 21.1133 490.52 20.4961 489.965 19.7148C489.418 18.9336 489.145 18.0469 489.145 17.0547H491.406C491.406 18.0859 491.785 18.9023 492.543 19.5039C493.309 20.0977 494.328 20.3945 495.602 20.3945C496.789 20.3945 497.699 20.1523 498.332 19.668C498.965 19.1836 499.281 18.5234 499.281 17.6875C499.281 16.8516 498.988 16.207 498.402 15.7539C497.816 15.293 496.754 14.8398 495.215 14.3945ZM516.227 6.78906H510.742V22H508.504V6.78906H503.031V4.9375H516.227V6.78906ZM531.555 14.0195C531.555 15.6914 531.273 17.1523 530.711 18.4023C530.148 19.6445 529.352 20.5938 528.32 21.25C527.289 21.9062 526.086 22.2344 524.711 22.2344C523.367 22.2344 522.176 21.9062 521.137 21.25C520.098 20.5859 519.289 19.6445 518.711 18.4258C518.141 17.1992 517.848 15.7812 517.832 14.1719V12.9414C517.832 11.3008 518.117 9.85156 518.688 8.59375C519.258 7.33594 520.062 6.375 521.102 5.71094C522.148 5.03906 523.344 4.70312 524.688 4.70312C526.055 4.70312 527.258 5.03516 528.297 5.69922C529.344 6.35547 530.148 7.3125 530.711 8.57031C531.273 9.82031 531.555 11.2773 531.555 12.9414V14.0195ZM529.316 12.918C529.316 10.8945 528.91 9.34375 528.098 8.26562C527.285 7.17969 526.148 6.63672 524.688 6.63672C523.266 6.63672 522.145 7.17969 521.324 8.26562C520.512 9.34375 520.094 10.8438 520.07 12.7656V14.0195C520.07 15.9805 520.48 17.5234 521.301 18.6484C522.129 19.7656 523.266 20.3242 524.711 20.3242C526.164 20.3242 527.289 19.7969 528.086 18.7422C528.883 17.6797 529.293 16.1602 529.316 14.1836V12.918ZM540.461 15.0742C540.461 13.3086 540.695 11.6133 541.164 9.98828C541.641 8.36328 542.348 6.88672 543.285 5.55859C544.223 4.23047 545.195 3.29297 546.203 2.74609L546.648 4.17578C545.508 5.05078 544.57 6.38672 543.836 8.18359C543.109 9.98047 542.711 11.9922 542.641 14.2188L542.629 15.2148C542.629 18.2305 543.18 20.8477 544.281 23.0664C544.945 24.3945 545.734 25.4336 546.648 26.1836L546.203 27.5078C545.164 26.9297 544.172 25.9609 543.227 24.6016C541.383 21.9453 540.461 18.7695 540.461 15.0742ZM555.648 22H553.469V7.55078L549.098 9.15625V7.1875L555.309 4.85547H555.648V22ZM572.699 14.7227C572.699 17.2617 572.266 19.1484 571.398 20.3828C570.531 21.6172 569.176 22.2344 567.332 22.2344C565.512 22.2344 564.164 21.6328 563.289 20.4297C562.414 19.2188 561.961 17.4141 561.93 15.0156V12.1211C561.93 9.61328 562.363 7.75 563.23 6.53125C564.098 5.3125 565.457 4.70312 567.309 4.70312C569.145 4.70312 570.496 5.29297 571.363 6.47266C572.23 7.64453 572.676 9.45703 572.699 11.9102V14.7227ZM570.531 11.7578C570.531 9.92188 570.273 8.58594 569.758 7.75C569.242 6.90625 568.426 6.48438 567.309 6.48438C566.199 6.48438 565.391 6.90234 564.883 7.73828C564.375 8.57422 564.113 9.85938 564.098 11.5938V15.0625C564.098 16.9062 564.363 18.2695 564.895 19.1523C565.434 20.0273 566.246 20.4648 567.332 20.4648C568.402 20.4648 569.195 20.0508 569.711 19.2227C570.234 18.3945 570.508 17.0898 570.531 15.3086V11.7578ZM592.387 15.8008C592.387 17.7383 591.941 19.2969 591.051 20.4766C590.16 21.6484 588.965 22.2344 587.465 22.2344C585.863 22.2344 584.625 21.668 583.75 20.5352L583.645 22H581.652V4H583.82V10.7148C584.695 9.62891 585.902 9.08594 587.441 9.08594C588.98 9.08594 590.188 9.66797 591.062 10.832C591.945 11.9961 592.387 13.5898 592.387 15.6133V15.8008ZM590.219 15.5547C590.219 14.0781 589.934 12.9375 589.363 12.1328C588.793 11.3281 587.973 10.9258 586.902 10.9258C585.473 10.9258 584.445 11.5898 583.82 12.918V18.4023C584.484 19.7305 585.52 20.3945 586.926 20.3945C587.965 20.3945 588.773 19.9922 589.352 19.1875C589.93 18.3828 590.219 17.1719 590.219 15.5547ZM597.484 22H595.316V9.32031H597.484V22ZM595.141 5.95703C595.141 5.60547 595.246 5.30859 595.457 5.06641C595.676 4.82422 595.996 4.70312 596.418 4.70312C596.84 4.70312 597.16 4.82422 597.379 5.06641C597.598 5.30859 597.707 5.60547 597.707 5.95703C597.707 6.30859 597.598 6.60156 597.379 6.83594C597.16 7.07031 596.84 7.1875 596.418 7.1875C595.996 7.1875 595.676 7.07031 595.457 6.83594C595.246 6.60156 595.141 6.30859 595.141 5.95703ZM603.906 6.25V9.32031H606.273V10.9961H603.906V18.8594C603.906 19.3672 604.012 19.75 604.223 20.0078C604.434 20.2578 604.793 20.3828 605.301 20.3828C605.551 20.3828 605.895 20.3359 606.332 20.2422V22C605.762 22.1562 605.207 22.2344 604.668 22.2344C603.699 22.2344 602.969 21.9414 602.477 21.3555C601.984 20.7695 601.738 19.9375 601.738 18.8594V10.9961H599.43V9.32031H601.738V6.25H603.906ZM613.82 15.1914C613.82 16.9336 613.59 18.6055 613.129 20.207C612.676 21.8008 611.977 23.2734 611.031 24.625C610.094 25.9766 609.109 26.9375 608.078 27.5078L607.621 26.1836C608.824 25.2617 609.789 23.832 610.516 21.8945C611.25 19.9492 611.625 17.793 611.641 15.4258V15.0508C611.641 13.4102 611.469 11.8867 611.125 10.4805C610.781 9.06641 610.301 7.80078 609.684 6.68359C609.074 5.56641 608.387 4.69531 607.621 4.07031L608.078 2.74609C609.109 3.31641 610.09 4.26953 611.02 5.60547C611.957 6.94141 612.656 8.41406 613.117 10.0234C613.586 11.6328 613.82 13.3555 613.82 15.1914Z" fill="black"/>
<path d="M730.586 436.414C731.367 437.195 732.633 437.195 733.414 436.414L746.142 423.686C746.923 422.905 746.923 421.639 746.142 420.858C745.361 420.077 744.095 420.077 743.314 420.858L732 432.172L720.686 420.858C719.905 420.077 718.639 420.077 717.858 420.858C717.077 421.639 717.077 422.905 717.858 423.686L730.586 436.414ZM730 358L730 435L734 435L734 358L730 358Z" fill="black"/>
<path d="M689.57 22.5859C689.359 24.3906 688.691 25.7852 687.566 26.7695C686.449 27.7461 684.961 28.2344 683.102 28.2344C681.086 28.2344 679.469 27.5117 678.25 26.0664C677.039 24.6211 676.434 22.6875 676.434 20.2656V18.625C676.434 17.0391 676.715 15.6445 677.277 14.4414C677.848 13.2383 678.652 12.3164 679.691 11.6758C680.73 11.0273 681.934 10.7031 683.301 10.7031C685.113 10.7031 686.566 11.2109 687.66 12.2266C688.754 13.2344 689.391 14.6328 689.57 16.4219H687.309C687.113 15.0625 686.688 14.0781 686.031 13.4688C685.383 12.8594 684.473 12.5547 683.301 12.5547C681.863 12.5547 680.734 13.0859 679.914 14.1484C679.102 15.2109 678.695 16.7227 678.695 18.6836V20.3359C678.695 22.1875 679.082 23.6602 679.855 24.7539C680.629 25.8477 681.711 26.3945 683.102 26.3945C684.352 26.3945 685.309 26.1133 685.973 25.5508C686.645 24.9805 687.09 23.9922 687.309 22.5859H689.57ZM702.074 23.5469H694.926L693.32 28H691L697.516 10.9375H699.484L706.012 28H703.703L702.074 23.5469ZM695.605 21.6953H701.406L698.5 13.7148L695.605 21.6953ZM713.336 20.3945C711.406 19.8398 710 19.1602 709.117 18.3555C708.242 17.543 707.805 16.543 707.805 15.3555C707.805 14.0117 708.34 12.9023 709.41 12.0273C710.488 11.1445 711.887 10.7031 713.605 10.7031C714.777 10.7031 715.82 10.9297 716.734 11.3828C717.656 11.8359 718.367 12.4609 718.867 13.2578C719.375 14.0547 719.629 14.9258 719.629 15.8711H717.367C717.367 14.8398 717.039 14.0312 716.383 13.4453C715.727 12.8516 714.801 12.5547 713.605 12.5547C712.496 12.5547 711.629 12.8008 711.004 13.293C710.387 13.7773 710.078 14.4531 710.078 15.3203C710.078 16.0156 710.371 16.6055 710.957 17.0898C711.551 17.5664 712.555 18.0039 713.969 18.4023C715.391 18.8008 716.5 19.2422 717.297 19.7266C718.102 20.2031 718.695 20.7617 719.078 21.4023C719.469 22.043 719.664 22.7969 719.664 23.6641C719.664 25.0469 719.125 26.1562 718.047 26.9922C716.969 27.8203 715.527 28.2344 713.723 28.2344C712.551 28.2344 711.457 28.0117 710.441 27.5664C709.426 27.1133 708.641 26.4961 708.086 25.7148C707.539 24.9336 707.266 24.0469 707.266 23.0547H709.527C709.527 24.0859 709.906 24.9023 710.664 25.5039C711.43 26.0977 712.449 26.3945 713.723 26.3945C714.91 26.3945 715.82 26.1523 716.453 25.668C717.086 25.1836 717.402 24.5234 717.402 23.6875C717.402 22.8516 717.109 22.207 716.523 21.7539C715.938 21.293 714.875 20.8398 713.336 20.3945ZM735.672 28H733.41V20.1133H724.809V28H722.559V10.9375H724.809V18.2734H733.41V10.9375H735.672V28ZM748.469 29.7695H737.734V28H748.469V29.7695ZM750.496 28V10.9375H755.312C756.797 10.9375 758.109 11.2656 759.25 11.9219C760.391 12.5781 761.27 13.5117 761.887 14.7227C762.512 15.9336 762.828 17.3242 762.836 18.8945V19.9844C762.836 21.5938 762.523 23.0039 761.898 24.2148C761.281 25.4258 760.395 26.3555 759.238 27.0039C758.09 27.6523 756.75 27.9844 755.219 28H750.496ZM752.746 12.7891V26.1602H755.113C756.848 26.1602 758.195 25.6211 759.156 24.543C760.125 23.4648 760.609 21.9297 760.609 19.9375V18.9414C760.609 17.0039 760.152 15.5 759.238 14.4297C758.332 13.3516 757.043 12.8047 755.371 12.7891H752.746ZM768.66 28H766.41V10.9375H768.66V28ZM777.812 20.3945C775.883 19.8398 774.477 19.1602 773.594 18.3555C772.719 17.543 772.281 16.543 772.281 15.3555C772.281 14.0117 772.816 12.9023 773.887 12.0273C774.965 11.1445 776.363 10.7031 778.082 10.7031C779.254 10.7031 780.297 10.9297 781.211 11.3828C782.133 11.8359 782.844 12.4609 783.344 13.2578C783.852 14.0547 784.105 14.9258 784.105 15.8711H781.844C781.844 14.8398 781.516 14.0312 780.859 13.4453C780.203 12.8516 779.277 12.5547 778.082 12.5547C776.973 12.5547 776.105 12.8008 775.48 13.293C774.863 13.7773 774.555 14.4531 774.555 15.3203C774.555 16.0156 774.848 16.6055 775.434 17.0898C776.027 17.5664 777.031 18.0039 778.445 18.4023C779.867 18.8008 780.977 19.2422 781.773 19.7266C782.578 20.2031 783.172 20.7617 783.555 21.4023C783.945 22.043 784.141 22.7969 784.141 23.6641C784.141 25.0469 783.602 26.1562 782.523 26.9922C781.445 27.8203 780.004 28.2344 778.199 28.2344C777.027 28.2344 775.934 28.0117 774.918 27.5664C773.902 27.1133 773.117 26.4961 772.562 25.7148C772.016 24.9336 771.742 24.0469 771.742 23.0547H774.004C774.004 24.0859 774.383 24.9023 775.141 25.5039C775.906 26.0977 776.926 26.3945 778.199 26.3945C779.387 26.3945 780.297 26.1523 780.93 25.668C781.562 25.1836 781.879 24.5234 781.879 23.6875C781.879 22.8516 781.586 22.207 781 21.7539C780.414 21.293 779.352 20.8398 777.812 20.3945ZM789.285 21.3203V28H787.035V10.9375H793.328C795.195 10.9375 796.656 11.4141 797.711 12.3672C798.773 13.3203 799.305 14.582 799.305 16.1523C799.305 17.8086 798.785 19.0859 797.746 19.9844C796.715 20.875 795.234 21.3203 793.305 21.3203H789.285ZM789.285 19.4805H793.328C794.531 19.4805 795.453 19.1992 796.094 18.6367C796.734 18.0664 797.055 17.2461 797.055 16.1758C797.055 15.1602 796.734 14.3477 796.094 13.7383C795.453 13.1289 794.574 12.8125 793.457 12.7891H789.285V19.4805ZM815.301 20.0195C815.301 21.6914 815.02 23.1523 814.457 24.4023C813.895 25.6445 813.098 26.5938 812.066 27.25C811.035 27.9062 809.832 28.2344 808.457 28.2344C807.113 28.2344 805.922 27.9062 804.883 27.25C803.844 26.5859 803.035 25.6445 802.457 24.4258C801.887 23.1992 801.594 21.7812 801.578 20.1719V18.9414C801.578 17.3008 801.863 15.8516 802.434 14.5938C803.004 13.3359 803.809 12.375 804.848 11.7109C805.895 11.0391 807.09 10.7031 808.434 10.7031C809.801 10.7031 811.004 11.0352 812.043 11.6992C813.09 12.3555 813.895 13.3125 814.457 14.5703C815.02 15.8203 815.301 17.2773 815.301 18.9414V20.0195ZM813.062 18.918C813.062 16.8945 812.656 15.3438 811.844 14.2656C811.031 13.1797 809.895 12.6367 808.434 12.6367C807.012 12.6367 805.891 13.1797 805.07 14.2656C804.258 15.3438 803.84 16.8438 803.816 18.7656V20.0195C803.816 21.9805 804.227 23.5234 805.047 24.6484C805.875 25.7656 807.012 26.3242 808.457 26.3242C809.91 26.3242 811.035 25.7969 811.832 24.7422C812.629 23.6797 813.039 22.1602 813.062 20.1836V18.918ZM831.789 28H829.527L820.938 14.8516V28H818.676V10.9375H820.938L829.551 24.1445V10.9375H831.789V28ZM838.199 28H835.949V10.9375H838.199V28ZM842.324 28V10.9375H847.902C849.754 10.9375 851.145 11.3203 852.074 12.0859C853.012 12.8516 853.48 13.9844 853.48 15.4844C853.48 16.2812 853.254 16.9883 852.801 17.6055C852.348 18.2148 851.73 18.6875 850.949 19.0234C851.871 19.2812 852.598 19.7734 853.129 20.5C853.668 21.2188 853.938 22.0781 853.938 23.0781C853.938 24.6094 853.441 25.8125 852.449 26.6875C851.457 27.5625 850.055 28 848.242 28H842.324ZM844.574 20.0195V26.1602H848.289C849.336 26.1602 850.16 25.8906 850.762 25.3516C851.371 24.8047 851.676 24.0547 851.676 23.1016C851.676 21.0469 850.559 20.0195 848.324 20.0195H844.574ZM844.574 18.2148H847.973C848.957 18.2148 849.742 17.9688 850.328 17.4766C850.922 16.9844 851.219 16.3164 851.219 15.4727C851.219 14.5352 850.945 13.8555 850.398 13.4336C849.852 13.0039 849.02 12.7891 847.902 12.7891H844.574V18.2148ZM859.691 28H857.441V10.9375H859.691V28ZM866.078 26.1602H874.164V28H863.816V10.9375H866.078V26.1602ZM886.375 20.1133H878.98V26.1602H887.57V28H876.73V10.9375H887.453V12.7891H878.98V18.2734H886.375V20.1133ZM895.902 21.0742C895.902 19.3086 896.137 17.6133 896.605 15.9883C897.082 14.3633 897.789 12.8867 898.727 11.5586C899.664 10.2305 900.637 9.29297 901.645 8.74609L902.09 10.1758C900.949 11.0508 900.012 12.3867 899.277 14.1836C898.551 15.9805 898.152 17.9922 898.082 20.2188L898.07 21.2148C898.07 24.2305 898.621 26.8477 899.723 29.0664C900.387 30.3945 901.176 31.4336 902.09 32.1836L901.645 33.5078C900.605 32.9297 899.613 31.9609 898.668 30.6016C896.824 27.9453 895.902 24.7695 895.902 21.0742ZM911.09 28H908.91V13.5508L904.539 15.1562V13.1875L910.75 10.8555H911.09V28ZM925.949 10.9258V12.7656H925.551C923.863 12.7969 922.52 13.2969 921.52 14.2656C920.52 15.2344 919.941 16.5977 919.785 18.3555C920.684 17.3242 921.91 16.8086 923.465 16.8086C924.949 16.8086 926.133 17.332 927.016 18.3789C927.906 19.4258 928.352 20.7773 928.352 22.4336C928.352 24.1914 927.871 25.5977 926.91 26.6523C925.957 27.707 924.676 28.2344 923.066 28.2344C921.434 28.2344 920.109 27.6094 919.094 26.3594C918.078 25.1016 917.57 23.4844 917.57 21.5078V20.6758C917.57 17.5352 918.238 15.1367 919.574 13.4805C920.918 11.8164 922.914 10.9648 925.562 10.9258H925.949ZM923.102 18.6133C922.359 18.6133 921.676 18.8359 921.051 19.2812C920.426 19.7266 919.992 20.2852 919.75 20.957V21.7539C919.75 23.1602 920.066 24.293 920.699 25.1523C921.332 26.0117 922.121 26.4414 923.066 26.4414C924.043 26.4414 924.809 26.082 925.363 25.3633C925.926 24.6445 926.207 23.7031 926.207 22.5391C926.207 21.3672 925.922 20.4219 925.352 19.7031C924.789 18.9766 924.039 18.6133 923.102 18.6133ZM947.828 21.8008C947.828 23.7383 947.383 25.2969 946.492 26.4766C945.602 27.6484 944.406 28.2344 942.906 28.2344C941.305 28.2344 940.066 27.668 939.191 26.5352L939.086 28H937.094V10H939.262V16.7148C940.137 15.6289 941.344 15.0859 942.883 15.0859C944.422 15.0859 945.629 15.668 946.504 16.832C947.387 17.9961 947.828 19.5898 947.828 21.6133V21.8008ZM945.66 21.5547C945.66 20.0781 945.375 18.9375 944.805 18.1328C944.234 17.3281 943.414 16.9258 942.344 16.9258C940.914 16.9258 939.887 17.5898 939.262 18.918V24.4023C939.926 25.7305 940.961 26.3945 942.367 26.3945C943.406 26.3945 944.215 25.9922 944.793 25.1875C945.371 24.3828 945.66 23.1719 945.66 21.5547ZM952.926 28H950.758V15.3203H952.926V28ZM950.582 11.957C950.582 11.6055 950.688 11.3086 950.898 11.0664C951.117 10.8242 951.438 10.7031 951.859 10.7031C952.281 10.7031 952.602 10.8242 952.82 11.0664C953.039 11.3086 953.148 11.6055 953.148 11.957C953.148 12.3086 953.039 12.6016 952.82 12.8359C952.602 13.0703 952.281 13.1875 951.859 13.1875C951.438 13.1875 951.117 13.0703 950.898 12.8359C950.688 12.6016 950.582 12.3086 950.582 11.957ZM959.348 12.25V15.3203H961.715V16.9961H959.348V24.8594C959.348 25.3672 959.453 25.75 959.664 26.0078C959.875 26.2578 960.234 26.3828 960.742 26.3828C960.992 26.3828 961.336 26.3359 961.773 26.2422V28C961.203 28.1562 960.648 28.2344 960.109 28.2344C959.141 28.2344 958.41 27.9414 957.918 27.3555C957.426 26.7695 957.18 25.9375 957.18 24.8594V16.9961H954.871V15.3203H957.18V12.25H959.348ZM969.262 21.1914C969.262 22.9336 969.031 24.6055 968.57 26.207C968.117 27.8008 967.418 29.2734 966.473 30.625C965.535 31.9766 964.551 32.9375 963.52 33.5078L963.062 32.1836C964.266 31.2617 965.23 29.832 965.957 27.8945C966.691 25.9492 967.066 23.793 967.082 21.4258V21.0508C967.082 19.4102 966.91 17.8867 966.566 16.4805C966.223 15.0664 965.742 13.8008 965.125 12.6836C964.516 11.5664 963.828 10.6953 963.062 10.0703L963.52 8.74609C964.551 9.31641 965.531 10.2695 966.461 11.6055C967.398 12.9414 968.098 14.4141 968.559 16.0234C969.027 17.6328 969.262 19.3555 969.262 21.1914Z" fill="black"/>
<rect x="340.5" y="112.5" width="607" height="245" fill="#4051E6" stroke="black"/>
<path d="M587.105 245V227.938H591.922C593.406 227.938 594.719 228.266 595.859 228.922C597 229.578 597.879 230.512 598.496 231.723C599.121 232.934 599.438 234.324 599.445 235.895V236.984C599.445 238.594 599.133 240.004 598.508 241.215C597.891 242.426 597.004 243.355 595.848 244.004C594.699 244.652 593.359 244.984 591.828 245H587.105ZM589.355 229.789V243.16H591.723C593.457 243.16 594.805 242.621 595.766 241.543C596.734 240.465 597.219 238.93 597.219 236.938V235.941C597.219 234.004 596.762 232.5 595.848 231.43C594.941 230.352 593.652 229.805 591.98 229.789H589.355ZM612.02 240.547H604.871L603.266 245H600.945L607.461 227.938H609.43L615.957 245H613.648L612.02 240.547ZM605.551 238.695H611.352L608.445 230.715L605.551 238.695ZM628.52 229.789H623.035V245H620.797V229.789H615.324V227.938H628.52V229.789ZM639.535 240.547H632.387L630.781 245H628.461L634.977 227.938H636.945L643.473 245H641.164L639.535 240.547ZM633.066 238.695H638.867L635.961 230.715L633.066 238.695ZM648.02 238.32V245H645.77V227.938H652.062C653.93 227.938 655.391 228.414 656.445 229.367C657.508 230.32 658.039 231.582 658.039 233.152C658.039 234.809 657.52 236.086 656.48 236.984C655.449 237.875 653.969 238.32 652.039 238.32H648.02ZM648.02 236.48H652.062C653.266 236.48 654.188 236.199 654.828 235.637C655.469 235.066 655.789 234.246 655.789 233.176C655.789 232.16 655.469 231.348 654.828 230.738C654.188 230.129 653.309 229.812 652.191 229.789H648.02V236.48ZM668.715 240.547H661.566L659.961 245H657.641L664.156 227.938H666.125L672.652 245H670.344L668.715 240.547ZM662.246 238.695H668.047L665.141 230.715L662.246 238.695ZM685.215 229.789H679.73V245H677.492V229.789H672.02V227.938H685.215V229.789ZM700.859 245H698.598V237.113H689.996V245H687.746V227.938H689.996V235.273H698.598V227.938H700.859V245Z" fill="black"/>
<path d="M613.809 465.586C613.598 467.391 612.93 468.785 611.805 469.77C610.688 470.746 609.199 471.234 607.34 471.234C605.324 471.234 603.707 470.512 602.488 469.066C601.277 467.621 600.672 465.688 600.672 463.266V461.625C600.672 460.039 600.953 458.645 601.516 457.441C602.086 456.238 602.891 455.316 603.93 454.676C604.969 454.027 606.172 453.703 607.539 453.703C609.352 453.703 610.805 454.211 611.898 455.227C612.992 456.234 613.629 457.633 613.809 459.422H611.547C611.352 458.062 610.926 457.078 610.27 456.469C609.621 455.859 608.711 455.555 607.539 455.555C606.102 455.555 604.973 456.086 604.152 457.148C603.34 458.211 602.934 459.723 602.934 461.684V463.336C602.934 465.188 603.32 466.66 604.094 467.754C604.867 468.848 605.949 469.395 607.34 469.395C608.59 469.395 609.547 469.113 610.211 468.551C610.883 467.98 611.328 466.992 611.547 465.586H613.809ZM626.312 466.547H619.164L617.559 471H615.238L621.754 453.938H623.723L630.25 471H627.941L626.312 466.547ZM619.844 464.695H625.645L622.738 456.715L619.844 464.695ZM637.574 463.395C635.645 462.84 634.238 462.16 633.355 461.355C632.48 460.543 632.043 459.543 632.043 458.355C632.043 457.012 632.578 455.902 633.648 455.027C634.727 454.145 636.125 453.703 637.844 453.703C639.016 453.703 640.059 453.93 640.973 454.383C641.895 454.836 642.605 455.461 643.105 456.258C643.613 457.055 643.867 457.926 643.867 458.871H641.605C641.605 457.84 641.277 457.031 640.621 456.445C639.965 455.852 639.039 455.555 637.844 455.555C636.734 455.555 635.867 455.801 635.242 456.293C634.625 456.777 634.316 457.453 634.316 458.32C634.316 459.016 634.609 459.605 635.195 460.09C635.789 460.566 636.793 461.004 638.207 461.402C639.629 461.801 640.738 462.242 641.535 462.727C642.34 463.203 642.934 463.762 643.316 464.402C643.707 465.043 643.902 465.797 643.902 466.664C643.902 468.047 643.363 469.156 642.285 469.992C641.207 470.82 639.766 471.234 637.961 471.234C636.789 471.234 635.695 471.012 634.68 470.566C633.664 470.113 632.879 469.496 632.324 468.715C631.777 467.934 631.504 467.047 631.504 466.055H633.766C633.766 467.086 634.145 467.902 634.902 468.504C635.668 469.098 636.688 469.395 637.961 469.395C639.148 469.395 640.059 469.152 640.691 468.668C641.324 468.184 641.641 467.523 641.641 466.688C641.641 465.852 641.348 465.207 640.762 464.754C640.176 464.293 639.113 463.84 637.574 463.395ZM659.91 471H657.648V463.113H649.047V471H646.797V453.938H649.047V461.273H657.648V453.938H659.91V471ZM672.707 472.77H661.973V471H672.707V472.77ZM674.734 471V453.938H679.551C681.035 453.938 682.348 454.266 683.488 454.922C684.629 455.578 685.508 456.512 686.125 457.723C686.75 458.934 687.066 460.324 687.074 461.895V462.984C687.074 464.594 686.762 466.004 686.137 467.215C685.52 468.426 684.633 469.355 683.477 470.004C682.328 470.652 680.988 470.984 679.457 471H674.734ZM676.984 455.789V469.16H679.352C681.086 469.16 682.434 468.621 683.395 467.543C684.363 466.465 684.848 464.93 684.848 462.938V461.941C684.848 460.004 684.391 458.5 683.477 457.43C682.57 456.352 681.281 455.805 679.609 455.789H676.984ZM699.648 466.547H692.5L690.895 471H688.574L695.09 453.938H697.059L703.586 471H701.277L699.648 466.547ZM693.18 464.695H698.98L696.074 456.715L693.18 464.695ZM714.684 472.77H703.949V471H714.684V472.77ZM726.355 463.113H718.961V469.16H727.551V471H716.711V453.938H727.434V455.789H718.961V461.273H726.355V463.113ZM736.609 464.098H732.602V471H730.34V453.938H735.988C737.91 453.938 739.387 454.375 740.418 455.25C741.457 456.125 741.977 457.398 741.977 459.07C741.977 460.133 741.688 461.059 741.109 461.848C740.539 462.637 739.742 463.227 738.719 463.617L742.727 470.859V471H740.312L736.609 464.098ZM732.602 462.258H736.059C737.176 462.258 738.062 461.969 738.719 461.391C739.383 460.812 739.715 460.039 739.715 459.07C739.715 458.016 739.398 457.207 738.766 456.645C738.141 456.082 737.234 455.797 736.047 455.789H732.602V462.258ZM758.266 463.02C758.266 464.691 757.984 466.152 757.422 467.402C756.859 468.645 756.062 469.594 755.031 470.25C754 470.906 752.797 471.234 751.422 471.234C750.078 471.234 748.887 470.906 747.848 470.25C746.809 469.586 746 468.645 745.422 467.426C744.852 466.199 744.559 464.781 744.543 463.172V461.941C744.543 460.301 744.828 458.852 745.398 457.594C745.969 456.336 746.773 455.375 747.812 454.711C748.859 454.039 750.055 453.703 751.398 453.703C752.766 453.703 753.969 454.035 755.008 454.699C756.055 455.355 756.859 456.312 757.422 457.57C757.984 458.82 758.266 460.277 758.266 461.941V463.02ZM756.027 461.918C756.027 459.895 755.621 458.344 754.809 457.266C753.996 456.18 752.859 455.637 751.398 455.637C749.977 455.637 748.855 456.18 748.035 457.266C747.223 458.344 746.805 459.844 746.781 461.766V463.02C746.781 464.98 747.191 466.523 748.012 467.648C748.84 468.766 749.977 469.324 751.422 469.324C752.875 469.324 754 468.797 754.797 467.742C755.594 466.68 756.004 465.16 756.027 463.184V461.918ZM774.238 468.762C773.66 469.59 772.852 470.211 771.812 470.625C770.781 471.031 769.578 471.234 768.203 471.234C766.812 471.234 765.578 470.91 764.5 470.262C763.422 469.605 762.586 468.676 761.992 467.473C761.406 466.27 761.105 464.875 761.09 463.289V461.801C761.09 459.23 761.688 457.238 762.883 455.824C764.086 454.41 765.773 453.703 767.945 453.703C769.727 453.703 771.16 454.16 772.246 455.074C773.332 455.98 773.996 457.27 774.238 458.941H771.988C771.566 456.684 770.223 455.555 767.957 455.555C766.449 455.555 765.305 456.086 764.523 457.148C763.75 458.203 763.359 459.734 763.352 461.742V463.137C763.352 465.051 763.789 466.574 764.664 467.707C765.539 468.832 766.723 469.395 768.215 469.395C769.059 469.395 769.797 469.301 770.43 469.113C771.062 468.926 771.586 468.609 772 468.164V464.332H768.051V462.504H774.238V468.762ZM787.422 466.547H780.273L778.668 471H776.348L782.863 453.938H784.832L791.359 471H789.051L787.422 466.547ZM780.953 464.695H786.754L783.848 456.715L780.953 464.695ZM799.914 464.098H795.906V471H793.645V453.938H799.293C801.215 453.938 802.691 454.375 803.723 455.25C804.762 456.125 805.281 457.398 805.281 459.07C805.281 460.133 804.992 461.059 804.414 461.848C803.844 462.637 803.047 463.227 802.023 463.617L806.031 470.859V471H803.617L799.914 464.098ZM795.906 462.258H799.363C800.48 462.258 801.367 461.969 802.023 461.391C802.688 460.812 803.02 460.039 803.02 459.07C803.02 458.016 802.703 457.207 802.07 456.645C801.445 456.082 800.539 455.797 799.352 455.789H795.906V462.258ZM818.09 463.113H810.695V469.16H819.285V471H808.445V453.938H819.168V455.789H810.695V461.273H818.09V463.113ZM827.617 464.074C827.617 462.309 827.852 460.613 828.32 458.988C828.797 457.363 829.504 455.887 830.441 454.559C831.379 453.23 832.352 452.293 833.359 451.746L833.805 453.176C832.664 454.051 831.727 455.387 830.992 457.184C830.266 458.98 829.867 460.992 829.797 463.219L829.785 464.215C829.785 467.23 830.336 469.848 831.438 472.066C832.102 473.395 832.891 474.434 833.805 475.184L833.359 476.508C832.32 475.93 831.328 474.961 830.383 473.602C828.539 470.945 827.617 467.77 827.617 464.074ZM842.805 471H840.625V456.551L836.254 458.156V456.188L842.465 453.855H842.805V471ZM859.855 463.723C859.855 466.262 859.422 468.148 858.555 469.383C857.688 470.617 856.332 471.234 854.488 471.234C852.668 471.234 851.32 470.633 850.445 469.43C849.57 468.219 849.117 466.414 849.086 464.016V461.121C849.086 458.613 849.52 456.75 850.387 455.531C851.254 454.312 852.613 453.703 854.465 453.703C856.301 453.703 857.652 454.293 858.52 455.473C859.387 456.645 859.832 458.457 859.855 460.91V463.723ZM857.688 460.758C857.688 458.922 857.43 457.586 856.914 456.75C856.398 455.906 855.582 455.484 854.465 455.484C853.355 455.484 852.547 455.902 852.039 456.738C851.531 457.574 851.27 458.859 851.254 460.594V464.062C851.254 465.906 851.52 467.27 852.051 468.152C852.59 469.027 853.402 469.465 854.488 469.465C855.559 469.465 856.352 469.051 856.867 468.223C857.391 467.395 857.664 466.09 857.688 464.309V460.758ZM873.59 464.801C873.59 466.738 873.145 468.297 872.254 469.477C871.363 470.648 870.168 471.234 868.668 471.234C867.066 471.234 865.828 470.668 864.953 469.535L864.848 471H862.855V453H865.023V459.715C865.898 458.629 867.105 458.086 868.645 458.086C870.184 458.086 871.391 458.668 872.266 459.832C873.148 460.996 873.59 462.59 873.59 464.613V464.801ZM871.422 464.555C871.422 463.078 871.137 461.938 870.566 461.133C869.996 460.328 869.176 459.926 868.105 459.926C866.676 459.926 865.648 460.59 865.023 461.918V467.402C865.688 468.73 866.723 469.395 868.129 469.395C869.168 469.395 869.977 468.992 870.555 468.188C871.133 467.383 871.422 466.172 871.422 464.555ZM878.688 471H876.52V458.32H878.688V471ZM876.344 454.957C876.344 454.605 876.449 454.309 876.66 454.066C876.879 453.824 877.199 453.703 877.621 453.703C878.043 453.703 878.363 453.824 878.582 454.066C878.801 454.309 878.91 454.605 878.91 454.957C878.91 455.309 878.801 455.602 878.582 455.836C878.363 456.07 878.043 456.188 877.621 456.188C877.199 456.188 876.879 456.07 876.66 455.836C876.449 455.602 876.344 455.309 876.344 454.957ZM885.109 455.25V458.32H887.477V459.996H885.109V467.859C885.109 468.367 885.215 468.75 885.426 469.008C885.637 469.258 885.996 469.383 886.504 469.383C886.754 469.383 887.098 469.336 887.535 469.242V471C886.965 471.156 886.41 471.234 885.871 471.234C884.902 471.234 884.172 470.941 883.68 470.355C883.188 469.77 882.941 468.938 882.941 467.859V459.996H880.633V458.32H882.941V455.25H885.109ZM895.023 464.191C895.023 465.934 894.793 467.605 894.332 469.207C893.879 470.801 893.18 472.273 892.234 473.625C891.297 474.977 890.312 475.938 889.281 476.508L888.824 475.184C890.027 474.262 890.992 472.832 891.719 470.895C892.453 468.949 892.828 466.793 892.844 464.426V464.051C892.844 462.41 892.672 460.887 892.328 459.48C891.984 458.066 891.504 456.801 890.887 455.684C890.277 454.566 889.59 453.695 888.824 453.07L889.281 451.746C890.312 452.316 891.293 453.27 892.223 454.605C893.16 455.941 893.859 457.414 894.32 459.023C894.789 460.633 895.023 462.355 895.023 464.191Z" fill="black"/>
<path d="M14.8555 144.586C14.6445 146.391 13.9766 147.785 12.8516 148.77C11.7344 149.746 10.2461 150.234 8.38672 150.234C6.37109 150.234 4.75391 149.512 3.53516 148.066C2.32422 146.621 1.71875 144.688 1.71875 142.266V140.625C1.71875 139.039 2 137.645 2.5625 136.441C3.13281 135.238 3.9375 134.316 4.97656 133.676C6.01562 133.027 7.21875 132.703 8.58594 132.703C10.3984 132.703 11.8516 133.211 12.9453 134.227C14.0391 135.234 14.6758 136.633 14.8555 138.422H12.5938C12.3984 137.062 11.9727 136.078 11.3164 135.469C10.668 134.859 9.75781 134.555 8.58594 134.555C7.14844 134.555 6.01953 135.086 5.19922 136.148C4.38672 137.211 3.98047 138.723 3.98047 140.684V142.336C3.98047 144.188 4.36719 145.66 5.14062 146.754C5.91406 147.848 6.99609 148.395 8.38672 148.395C9.63672 148.395 10.5938 148.113 11.2578 147.551C11.9297 146.98 12.375 145.992 12.5938 144.586H14.8555ZM31.0508 150H28.7891V142.113H20.1875V150H17.9375V132.938H20.1875V140.273H28.7891V132.938H31.0508V150ZM44.6914 142.113H37.2969V148.16H45.8867V150H35.0469V132.938H45.7695V134.789H37.2969V140.273H44.6914V142.113ZM61.2383 144.586C61.0273 146.391 60.3594 147.785 59.2344 148.77C58.1172 149.746 56.6289 150.234 54.7695 150.234C52.7539 150.234 51.1367 149.512 49.918 148.066C48.707 146.621 48.1016 144.688 48.1016 142.266V140.625C48.1016 139.039 48.3828 137.645 48.9453 136.441C49.5156 135.238 50.3203 134.316 51.3594 133.676C52.3984 133.027 53.6016 132.703 54.9688 132.703C56.7812 132.703 58.2344 133.211 59.3281 134.227C60.4219 135.234 61.0586 136.633 61.2383 138.422H58.9766C58.7812 137.062 58.3555 136.078 57.6992 135.469C57.0508 134.859 56.1406 134.555 54.9688 134.555C53.5312 134.555 52.4023 135.086 51.582 136.148C50.7695 137.211 50.3633 138.723 50.3633 140.684V142.336C50.3633 144.188 50.75 145.66 51.5234 146.754C52.2969 147.848 53.3789 148.395 54.7695 148.395C56.0195 148.395 56.9766 148.113 57.6406 147.551C58.3125 146.98 58.7578 145.992 58.9766 144.586H61.2383ZM68.6562 142.066L66.5703 144.234V150H64.3203V132.938H66.5703V141.375L74.1523 132.938H76.8711L70.1562 140.473L77.3984 150H74.7031L68.6562 142.066ZM88.168 151.77H77.4336V150H88.168V151.77ZM90.1953 150V132.938H95.0117C96.4961 132.938 97.8086 133.266 98.9492 133.922C100.09 134.578 100.969 135.512 101.586 136.723C102.211 137.934 102.527 139.324 102.535 140.895V141.984C102.535 143.594 102.223 145.004 101.598 146.215C100.98 147.426 100.094 148.355 98.9375 149.004C97.7891 149.652 96.4492 149.984 94.918 150H90.1953ZM92.4453 134.789V148.16H94.8125C96.5469 148.16 97.8945 147.621 98.8555 146.543C99.8242 145.465 100.309 143.93 100.309 141.938V140.941C100.309 139.004 99.8516 137.5 98.9375 136.43C98.0312 135.352 96.7422 134.805 95.0703 134.789H92.4453ZM108.359 150H106.109V132.938H108.359V150ZM117.512 142.395C115.582 141.84 114.176 141.16 113.293 140.355C112.418 139.543 111.98 138.543 111.98 137.355C111.98 136.012 112.516 134.902 113.586 134.027C114.664 133.145 116.062 132.703 117.781 132.703C118.953 132.703 119.996 132.93 120.91 133.383C121.832 133.836 122.543 134.461 123.043 135.258C123.551 136.055 123.805 136.926 123.805 137.871H121.543C121.543 136.84 121.215 136.031 120.559 135.445C119.902 134.852 118.977 134.555 117.781 134.555C116.672 134.555 115.805 134.801 115.18 135.293C114.562 135.777 114.254 136.453 114.254 137.32C114.254 138.016 114.547 138.605 115.133 139.09C115.727 139.566 116.73 140.004 118.145 140.402C119.566 140.801 120.676 141.242 121.473 141.727C122.277 142.203 122.871 142.762 123.254 143.402C123.645 144.043 123.84 144.797 123.84 145.664C123.84 147.047 123.301 148.156 122.223 148.992C121.145 149.82 119.703 150.234 117.898 150.234C116.727 150.234 115.633 150.012 114.617 149.566C113.602 149.113 112.816 148.496 112.262 147.715C111.715 146.934 111.441 146.047 111.441 145.055H113.703C113.703 146.086 114.082 146.902 114.84 147.504C115.605 148.098 116.625 148.395 117.898 148.395C119.086 148.395 119.996 148.152 120.629 147.668C121.262 147.184 121.578 146.523 121.578 145.688C121.578 144.852 121.285 144.207 120.699 143.754C120.113 143.293 119.051 142.84 117.512 142.395ZM128.984 143.32V150H126.734V132.938H133.027C134.895 132.938 136.355 133.414 137.41 134.367C138.473 135.32 139.004 136.582 139.004 138.152C139.004 139.809 138.484 141.086 137.445 141.984C136.414 142.875 134.934 143.32 133.004 143.32H128.984ZM128.984 141.48H133.027C134.23 141.48 135.152 141.199 135.793 140.637C136.434 140.066 136.754 139.246 136.754 138.176C136.754 137.16 136.434 136.348 135.793 135.738C135.152 135.129 134.273 134.812 133.156 134.789H128.984V141.48ZM155 142.02C155 143.691 154.719 145.152 154.156 146.402C153.594 147.645 152.797 148.594 151.766 149.25C150.734 149.906 149.531 150.234 148.156 150.234C146.812 150.234 145.621 149.906 144.582 149.25C143.543 148.586 142.734 147.645 142.156 146.426C141.586 145.199 141.293 143.781 141.277 142.172V140.941C141.277 139.301 141.562 137.852 142.133 136.594C142.703 135.336 143.508 134.375 144.547 133.711C145.594 133.039 146.789 132.703 148.133 132.703C149.5 132.703 150.703 133.035 151.742 133.699C152.789 134.355 153.594 135.312 154.156 136.57C154.719 137.82 155 139.277 155 140.941V142.02ZM152.762 140.918C152.762 138.895 152.355 137.344 151.543 136.266C150.73 135.18 149.594 134.637 148.133 134.637C146.711 134.637 145.59 135.18 144.77 136.266C143.957 137.344 143.539 138.844 143.516 140.766V142.02C143.516 143.98 143.926 145.523 144.746 146.648C145.574 147.766 146.711 148.324 148.156 148.324C149.609 148.324 150.734 147.797 151.531 146.742C152.328 145.68 152.738 144.16 152.762 142.184V140.918ZM171.488 150H169.227L160.637 136.852V150H158.375V132.938H160.637L169.25 146.145V132.938H171.488V150ZM177.898 150H175.648V132.938H177.898V150ZM182.023 150V132.938H187.602C189.453 132.938 190.844 133.32 191.773 134.086C192.711 134.852 193.18 135.984 193.18 137.484C193.18 138.281 192.953 138.988 192.5 139.605C192.047 140.215 191.43 140.688 190.648 141.023C191.57 141.281 192.297 141.773 192.828 142.5C193.367 143.219 193.637 144.078 193.637 145.078C193.637 146.609 193.141 147.812 192.148 148.688C191.156 149.562 189.754 150 187.941 150H182.023ZM184.273 142.02V148.16H187.988C189.035 148.16 189.859 147.891 190.461 147.352C191.07 146.805 191.375 146.055 191.375 145.102C191.375 143.047 190.258 142.02 188.023 142.02H184.273ZM184.273 140.215H187.672C188.656 140.215 189.441 139.969 190.027 139.477C190.621 138.984 190.918 138.316 190.918 137.473C190.918 136.535 190.645 135.855 190.098 135.434C189.551 135.004 188.719 134.789 187.602 134.789H184.273V140.215ZM199.391 150H197.141V132.938H199.391V150ZM205.777 148.16H213.863V150H203.516V132.938H205.777V148.16ZM218.844 150H216.594V132.938H218.844V150ZM234.406 134.789H228.922V150H226.684V134.789H221.211V132.938H234.406V134.789ZM245.422 145.547H238.273L236.668 150H234.348L240.863 132.938H242.832L249.359 150H247.051L245.422 145.547ZM238.953 143.695H244.754L241.848 135.715L238.953 143.695Z" fill="black"/>
<path d="M55.0195 290.586C54.8086 292.391 54.1406 293.785 53.0156 294.77C51.8984 295.746 50.4102 296.234 48.5508 296.234C46.5352 296.234 44.918 295.512 43.6992 294.066C42.4883 292.621 41.8828 290.688 41.8828 288.266V286.625C41.8828 285.039 42.1641 283.645 42.7266 282.441C43.2969 281.238 44.1016 280.316 45.1406 279.676C46.1797 279.027 47.3828 278.703 48.75 278.703C50.5625 278.703 52.0156 279.211 53.1094 280.227C54.2031 281.234 54.8398 282.633 55.0195 284.422H52.7578C52.5625 283.062 52.1367 282.078 51.4805 281.469C50.832 280.859 49.9219 280.555 48.75 280.555C47.3125 280.555 46.1836 281.086 45.3633 282.148C44.5508 283.211 44.1445 284.723 44.1445 286.684V288.336C44.1445 290.188 44.5312 291.66 45.3047 292.754C46.0781 293.848 47.1602 294.395 48.5508 294.395C49.8008 294.395 50.7578 294.113 51.4219 293.551C52.0938 292.98 52.5391 291.992 52.7578 290.586H55.0195ZM67.5234 291.547H60.375L58.7695 296H56.4492L62.9648 278.938H64.9336L71.4609 296H69.1523L67.5234 291.547ZM61.0547 289.695H66.8555L63.9492 281.715L61.0547 289.695ZM78.7852 288.395C76.8555 287.84 75.4492 287.16 74.5664 286.355C73.6914 285.543 73.2539 284.543 73.2539 283.355C73.2539 282.012 73.7891 280.902 74.8594 280.027C75.9375 279.145 77.3359 278.703 79.0547 278.703C80.2266 278.703 81.2695 278.93 82.1836 279.383C83.1055 279.836 83.8164 280.461 84.3164 281.258C84.8242 282.055 85.0781 282.926 85.0781 283.871H82.8164C82.8164 282.84 82.4883 282.031 81.832 281.445C81.1758 280.852 80.25 280.555 79.0547 280.555C77.9453 280.555 77.0781 280.801 76.4531 281.293C75.8359 281.777 75.5273 282.453 75.5273 283.32C75.5273 284.016 75.8203 284.605 76.4062 285.09C77 285.566 78.0039 286.004 79.418 286.402C80.8398 286.801 81.9492 287.242 82.7461 287.727C83.5508 288.203 84.1445 288.762 84.5273 289.402C84.918 290.043 85.1133 290.797 85.1133 291.664C85.1133 293.047 84.5742 294.156 83.4961 294.992C82.418 295.82 80.9766 296.234 79.1719 296.234C78 296.234 76.9062 296.012 75.8906 295.566C74.875 295.113 74.0898 294.496 73.5352 293.715C72.9883 292.934 72.7148 292.047 72.7148 291.055H74.9766C74.9766 292.086 75.3555 292.902 76.1133 293.504C76.8789 294.098 77.8984 294.395 79.1719 294.395C80.3594 294.395 81.2695 294.152 81.9023 293.668C82.5352 293.184 82.8516 292.523 82.8516 291.688C82.8516 290.852 82.5586 290.207 81.9727 289.754C81.3867 289.293 80.3242 288.84 78.7852 288.395ZM101.121 296H98.8594V288.113H90.2578V296H88.0078V278.938H90.2578V286.273H98.8594V278.938H101.121V296ZM113.918 297.77H103.184V296H113.918V297.77ZM129.07 288.02C129.07 289.691 128.789 291.152 128.227 292.402C127.664 293.645 126.867 294.594 125.836 295.25C124.805 295.906 123.602 296.234 122.227 296.234C120.883 296.234 119.691 295.906 118.652 295.25C117.613 294.586 116.805 293.645 116.227 292.426C115.656 291.199 115.363 289.781 115.348 288.172V286.941C115.348 285.301 115.633 283.852 116.203 282.594C116.773 281.336 117.578 280.375 118.617 279.711C119.664 279.039 120.859 278.703 122.203 278.703C123.57 278.703 124.773 279.035 125.812 279.699C126.859 280.355 127.664 281.312 128.227 282.57C128.789 283.82 129.07 285.277 129.07 286.941V288.02ZM126.832 286.918C126.832 284.895 126.426 283.344 125.613 282.266C124.801 281.18 123.664 280.637 122.203 280.637C120.781 280.637 119.66 281.18 118.84 282.266C118.027 283.344 117.609 284.844 117.586 286.766V288.02C117.586 289.98 117.996 291.523 118.816 292.648C119.645 293.766 120.781 294.324 122.227 294.324C123.68 294.324 124.805 293.797 125.602 292.742C126.398 291.68 126.809 290.16 126.832 288.184V286.918ZM136.781 288.066L134.695 290.234V296H132.445V278.938H134.695V287.375L142.277 278.938H144.996L138.281 286.473L145.523 296H142.828L136.781 288.066Z" fill="black"/>
</svg>
