<svg width="201" height="349" viewBox="0 0 201 349" fill="none" xmlns="http://www.w3.org/2000/svg">
<path d="M43.2929 91.7071C43.6834 92.0976 44.3166 92.0976 44.7071 91.7071L51.0711 85.3431C51.4616 84.9526 51.4616 84.3195 51.0711 83.9289C50.6805 83.5384 50.0474 83.5384 49.6569 83.9289L44 89.5858L38.3431 83.9289C37.9526 83.5384 37.3195 83.5384 36.9289 83.9289C36.5384 84.3195 36.5384 84.9526 36.9289 85.3431L43.2929 91.7071ZM43 35V91H45V35H43Z" fill="black"/>
<path d="M100.293 348.707C100.683 349.098 101.317 349.098 101.707 348.707L108.071 342.343C108.462 341.953 108.462 341.319 108.071 340.929C107.681 340.538 107.047 340.538 106.657 340.929L101 346.586L95.3431 340.929C94.9526 340.538 94.3195 340.538 93.9289 340.929C93.5384 341.319 93.5384 341.953 93.9289 342.343L100.293 348.707ZM100 292V348H102V292H100Z" fill="black"/>
<path d="M160.293 91.7071C160.683 92.0976 161.317 92.0976 161.707 91.7071L168.071 85.3431C168.462 84.9526 168.462 84.3195 168.071 83.9289C167.681 83.5384 167.047 83.5384 166.657 83.9289L161 89.5858L155.343 83.9289C154.953 83.5384 154.319 83.5384 153.929 83.9289C153.538 84.3195 153.538 84.9526 153.929 85.3431L160.293 91.7071ZM160 35V91H162V35H160Z" fill="black"/>
<rect x="0.5" y="91.5" width="200" height="200" fill="#C4C4C4" stroke="black"/>
<path d="M65.7383 193.293C65.6328 194.195 65.2988 194.893 64.7363 195.385C64.1777 195.873 63.4336 196.117 62.5039 196.117C61.4961 196.117 60.6875 195.756 60.0781 195.033C59.4727 194.311 59.1699 193.344 59.1699 192.133V191.312C59.1699 190.52 59.3105 189.822 59.5918 189.221C59.877 188.619 60.2793 188.158 60.7988 187.838C61.3184 187.514 61.9199 187.352 62.6035 187.352C63.5098 187.352 64.2363 187.605 64.7832 188.113C65.3301 188.617 65.6484 189.316 65.7383 190.211H64.6074C64.5098 189.531 64.2969 189.039 63.9688 188.734C63.6445 188.43 63.1895 188.277 62.6035 188.277C61.8848 188.277 61.3203 188.543 60.9102 189.074C60.5039 189.605 60.3008 190.361 60.3008 191.342V192.168C60.3008 193.094 60.4941 193.83 60.8809 194.377C61.2676 194.924 61.8086 195.197 62.5039 195.197C63.1289 195.197 63.6074 195.057 63.9395 194.775C64.2754 194.49 64.498 193.996 64.6074 193.293H65.7383ZM73.8418 192.01C73.8418 192.846 73.7012 193.576 73.4199 194.201C73.1387 194.822 72.7402 195.297 72.2246 195.625C71.709 195.953 71.1074 196.117 70.4199 196.117C69.748 196.117 69.1523 195.953 68.6328 195.625C68.1133 195.293 67.709 194.822 67.4199 194.213C67.1348 193.6 66.9883 192.891 66.9805 192.086V191.471C66.9805 190.65 67.123 189.926 67.4082 189.297C67.6934 188.668 68.0957 188.188 68.6152 187.855C69.1387 187.52 69.7363 187.352 70.4082 187.352C71.0918 187.352 71.6934 187.518 72.2129 187.85C72.7363 188.178 73.1387 188.656 73.4199 189.285C73.7012 189.91 73.8418 190.639 73.8418 191.471V192.01ZM72.7227 191.459C72.7227 190.447 72.5195 189.672 72.1133 189.133C71.707 188.59 71.1387 188.318 70.4082 188.318C69.6973 188.318 69.1367 188.59 68.7266 189.133C68.3203 189.672 68.1113 190.422 68.0996 191.383V192.01C68.0996 192.99 68.3047 193.762 68.7148 194.324C69.1289 194.883 69.6973 195.162 70.4199 195.162C71.1465 195.162 71.709 194.898 72.1074 194.371C72.5059 193.84 72.7109 193.08 72.7227 192.092V191.459ZM76.9824 187.469L79.7715 194.43L82.5605 187.469H84.0195V196H82.8945V192.678L83 189.092L80.1992 196H79.3379L76.543 189.109L76.6543 192.678V196H75.5293V187.469H76.9824ZM87.1309 192.66V196H86.0059V187.469H89.1523C90.0859 187.469 90.8164 187.707 91.3438 188.184C91.875 188.66 92.1406 189.291 92.1406 190.076C92.1406 190.904 91.8809 191.543 91.3613 191.992C90.8457 192.438 90.1055 192.66 89.1406 192.66H87.1309ZM87.1309 191.74H89.1523C89.7539 191.74 90.2148 191.6 90.5352 191.318C90.8555 191.033 91.0156 190.623 91.0156 190.088C91.0156 189.58 90.8555 189.174 90.5352 188.869C90.2148 188.564 89.7754 188.406 89.2168 188.395H87.1309V191.74ZM97.4785 193.773H93.9043L93.1016 196H91.9414L95.1992 187.469H96.1836L99.4473 196H98.293L97.4785 193.773ZM94.2441 192.848H97.1445L95.6914 188.857L94.2441 192.848ZM103.725 192.549H101.721V196H100.59V187.469H103.414C104.375 187.469 105.113 187.688 105.629 188.125C106.148 188.562 106.408 189.199 106.408 190.035C106.408 190.566 106.264 191.029 105.975 191.424C105.689 191.818 105.291 192.113 104.779 192.309L106.783 195.93V196H105.576L103.725 192.549ZM101.721 191.629H103.449C104.008 191.629 104.451 191.484 104.779 191.195C105.111 190.906 105.277 190.52 105.277 190.035C105.277 189.508 105.119 189.104 104.803 188.822C104.49 188.541 104.037 188.398 103.443 188.395H101.721V191.629ZM112.701 193.773H109.127L108.324 196H107.164L110.422 187.469H111.406L114.67 196H113.516L112.701 193.773ZM109.467 192.848H112.367L110.914 188.857L109.467 192.848ZM120.951 188.395H118.209V196H117.09V188.395H114.354V187.469H120.951V188.395ZM128.615 192.01C128.615 192.846 128.475 193.576 128.193 194.201C127.912 194.822 127.514 195.297 126.998 195.625C126.482 195.953 125.881 196.117 125.193 196.117C124.521 196.117 123.926 195.953 123.406 195.625C122.887 195.293 122.482 194.822 122.193 194.213C121.908 193.6 121.762 192.891 121.754 192.086V191.471C121.754 190.65 121.896 189.926 122.182 189.297C122.467 188.668 122.869 188.188 123.389 187.855C123.912 187.52 124.51 187.352 125.182 187.352C125.865 187.352 126.467 187.518 126.986 187.85C127.51 188.178 127.912 188.656 128.193 189.285C128.475 189.91 128.615 190.639 128.615 191.471V192.01ZM127.496 191.459C127.496 190.447 127.293 189.672 126.887 189.133C126.48 188.59 125.912 188.318 125.182 188.318C124.471 188.318 123.91 188.59 123.5 189.133C123.094 189.672 122.885 190.422 122.873 191.383V192.01C122.873 192.99 123.078 193.762 123.488 194.324C123.902 194.883 124.471 195.162 125.193 195.162C125.92 195.162 126.482 194.898 126.881 194.371C127.279 193.84 127.484 193.08 127.496 192.092V191.459ZM133.432 192.549H131.428V196H130.297V187.469H133.121C134.082 187.469 134.82 187.688 135.336 188.125C135.855 188.562 136.115 189.199 136.115 190.035C136.115 190.566 135.971 191.029 135.682 191.424C135.396 191.818 134.998 192.113 134.486 192.309L136.49 195.93V196H135.283L133.432 192.549ZM131.428 191.629H133.156C133.715 191.629 134.158 191.484 134.486 191.195C134.818 190.906 134.984 190.52 134.984 190.035C134.984 189.508 134.826 189.104 134.51 188.822C134.197 188.541 133.744 188.398 133.15 188.395H131.428V191.629ZM142.52 192.057H138.822V195.08H143.117V196H137.697V187.469H143.059V188.395H138.822V191.137H142.52V192.057ZM82.625 206.537C82.625 205.654 82.7422 204.807 82.9766 203.994C83.2148 203.182 83.5684 202.443 84.0371 201.779C84.5059 201.115 84.9922 200.646 85.4961 200.373L85.7188 201.088C85.1484 201.525 84.6797 202.193 84.3125 203.092C83.9492 203.99 83.75 204.996 83.7148 206.109L83.709 206.607C83.709 208.115 83.9844 209.424 84.5352 210.533C84.8672 211.197 85.2617 211.717 85.7188 212.092L85.4961 212.754C84.9766 212.465 84.4805 211.98 84.0078 211.301C83.0859 209.973 82.625 208.385 82.625 206.537ZM90.2188 210H89.1289V202.775L86.9434 203.578V202.594L90.0488 201.428H90.2188V210ZM98.7441 206.361C98.7441 207.631 98.5273 208.574 98.0938 209.191C97.6602 209.809 96.9824 210.117 96.0605 210.117C95.1504 210.117 94.4766 209.816 94.0391 209.215C93.6016 208.609 93.375 207.707 93.3594 206.508V205.061C93.3594 203.807 93.5762 202.875 94.0098 202.266C94.4434 201.656 95.123 201.352 96.0488 201.352C96.9668 201.352 97.6426 201.646 98.0762 202.236C98.5098 202.822 98.7324 203.729 98.7441 204.955V206.361ZM97.6602 204.879C97.6602 203.961 97.5312 203.293 97.2734 202.875C97.0156 202.453 96.6074 202.242 96.0488 202.242C95.4941 202.242 95.0898 202.451 94.8359 202.869C94.582 203.287 94.4512 203.93 94.4434 204.797V206.531C94.4434 207.453 94.5762 208.135 94.8418 208.576C95.1113 209.014 95.5176 209.232 96.0605 209.232C96.5957 209.232 96.9922 209.025 97.25 208.611C97.5117 208.197 97.6484 207.545 97.6602 206.654V204.879ZM108.588 206.9C108.588 207.869 108.365 208.648 107.92 209.238C107.475 209.824 106.877 210.117 106.127 210.117C105.326 210.117 104.707 209.834 104.27 209.268L104.217 210H103.221V201H104.305V204.357C104.742 203.814 105.346 203.543 106.115 203.543C106.885 203.543 107.488 203.834 107.926 204.416C108.367 204.998 108.588 205.795 108.588 206.807V206.9ZM107.504 206.777C107.504 206.039 107.361 205.469 107.076 205.066C106.791 204.664 106.381 204.463 105.846 204.463C105.131 204.463 104.617 204.795 104.305 205.459V208.201C104.637 208.865 105.154 209.197 105.857 209.197C106.377 209.197 106.781 208.996 107.07 208.594C107.359 208.191 107.504 207.586 107.504 206.777ZM111.137 210H110.053V203.66H111.137V210ZM109.965 201.979C109.965 201.803 110.018 201.654 110.123 201.533C110.232 201.412 110.393 201.352 110.604 201.352C110.814 201.352 110.975 201.412 111.084 201.533C111.193 201.654 111.248 201.803 111.248 201.979C111.248 202.154 111.193 202.301 111.084 202.418C110.975 202.535 110.814 202.594 110.604 202.594C110.393 202.594 110.232 202.535 110.123 202.418C110.018 202.301 109.965 202.154 109.965 201.979ZM114.348 202.125V203.66H115.531V204.498H114.348V208.43C114.348 208.684 114.4 208.875 114.506 209.004C114.611 209.129 114.791 209.191 115.045 209.191C115.17 209.191 115.342 209.168 115.561 209.121V210C115.275 210.078 114.998 210.117 114.729 210.117C114.244 210.117 113.879 209.971 113.633 209.678C113.387 209.385 113.264 208.969 113.264 208.43V204.498H112.109V203.66H113.264V202.125H114.348ZM119.305 206.596C119.305 207.467 119.189 208.303 118.959 209.104C118.732 209.9 118.383 210.637 117.91 211.312C117.441 211.988 116.949 212.469 116.434 212.754L116.205 212.092C116.807 211.631 117.289 210.916 117.652 209.947C118.02 208.975 118.207 207.896 118.215 206.713V206.525C118.215 205.705 118.129 204.943 117.957 204.24C117.785 203.533 117.545 202.9 117.236 202.342C116.932 201.783 116.588 201.348 116.205 201.035L116.434 200.373C116.949 200.658 117.439 201.135 117.904 201.803C118.373 202.471 118.723 203.207 118.953 204.012C119.188 204.816 119.305 205.678 119.305 206.596Z" fill="black"/>
<path d="M104.553 279.01C104.553 279.846 104.412 280.576 104.131 281.201C103.85 281.822 103.451 282.297 102.936 282.625C102.42 282.953 101.818 283.117 101.131 283.117C100.459 283.117 99.8633 282.953 99.3438 282.625C98.8242 282.293 98.4199 281.822 98.1309 281.213C97.8457 280.6 97.6992 279.891 97.6914 279.086V278.471C97.6914 277.65 97.834 276.926 98.1191 276.297C98.4043 275.668 98.8066 275.188 99.3262 274.855C99.8496 274.52 100.447 274.352 101.119 274.352C101.803 274.352 102.404 274.518 102.924 274.85C103.447 275.178 103.85 275.656 104.131 276.285C104.412 276.91 104.553 277.639 104.553 278.471V279.01ZM103.434 278.459C103.434 277.447 103.23 276.672 102.824 276.133C102.418 275.59 101.85 275.318 101.119 275.318C100.408 275.318 99.8477 275.59 99.4375 276.133C99.0312 276.672 98.8223 277.422 98.8105 278.383V279.01C98.8105 279.99 99.0156 280.762 99.4258 281.324C99.8398 281.883 100.408 282.162 101.131 282.162C101.857 282.162 102.42 281.898 102.818 281.371C103.217 280.84 103.422 280.08 103.434 279.092V278.459Z" fill="black"/>
<path d="M28.7012 107.773H25.127L24.3242 110H23.1641L26.4219 101.469H27.4062L30.6699 110H29.5156L28.7012 107.773ZM25.4668 106.848H28.3672L26.9141 102.857L25.4668 106.848ZM35.6914 106.25C35.4648 106.52 35.1934 106.736 34.877 106.9C34.5645 107.064 34.2207 107.146 33.8457 107.146C33.3535 107.146 32.9238 107.025 32.5566 106.783C32.1934 106.541 31.9121 106.201 31.7129 105.764C31.5137 105.322 31.4141 104.836 31.4141 104.305C31.4141 103.734 31.5215 103.221 31.7363 102.764C31.9551 102.307 32.2637 101.957 32.6621 101.715C33.0605 101.473 33.5254 101.352 34.0566 101.352C34.9004 101.352 35.5645 101.668 36.0488 102.301C36.5371 102.93 36.7812 103.789 36.7812 104.879V105.195C36.7812 106.855 36.4531 108.068 35.7969 108.834C35.1406 109.596 34.1504 109.986 32.8262 110.006H32.6152V109.092H32.8438C33.7383 109.076 34.4258 108.844 34.9062 108.395C35.3867 107.941 35.6484 107.227 35.6914 106.25ZM34.0215 106.25C34.3848 106.25 34.7188 106.139 35.0234 105.916C35.332 105.693 35.5566 105.418 35.6973 105.09V104.656C35.6973 103.945 35.543 103.367 35.2344 102.922C34.9258 102.477 34.5352 102.254 34.0625 102.254C33.5859 102.254 33.2031 102.438 32.9141 102.805C32.625 103.168 32.4805 103.648 32.4805 104.246C32.4805 104.828 32.6191 105.309 32.8965 105.688C33.1777 106.062 33.5527 106.25 34.0215 106.25ZM41.3867 109.432C41.3867 109.244 41.4414 109.088 41.5508 108.963C41.6641 108.838 41.832 108.775 42.0547 108.775C42.2773 108.775 42.4453 108.838 42.5586 108.963C42.6758 109.088 42.7344 109.244 42.7344 109.432C42.7344 109.611 42.6758 109.762 42.5586 109.883C42.4453 110.004 42.2773 110.064 42.0547 110.064C41.832 110.064 41.6641 110.004 41.5508 109.883C41.4414 109.762 41.3867 109.611 41.3867 109.432ZM44.5508 109.432C44.5508 109.244 44.6055 109.088 44.7148 108.963C44.8281 108.838 44.9961 108.775 45.2188 108.775C45.4414 108.775 45.6094 108.838 45.7227 108.963C45.8398 109.088 45.8984 109.244 45.8984 109.432C45.8984 109.611 45.8398 109.762 45.7227 109.883C45.6094 110.004 45.4414 110.064 45.2188 110.064C44.9961 110.064 44.8281 110.004 44.7148 109.883C44.6055 109.762 44.5508 109.611 44.5508 109.432ZM55.5488 107.773H51.9746L51.1719 110H50.0117L53.2695 101.469H54.2539L57.5176 110H56.3633L55.5488 107.773ZM52.3145 106.848H55.2148L53.7617 102.857L52.3145 106.848ZM63.7344 106.361C63.7344 107.631 63.5176 108.574 63.084 109.191C62.6504 109.809 61.9727 110.117 61.0508 110.117C60.1406 110.117 59.4668 109.816 59.0293 109.215C58.5918 108.609 58.3652 107.707 58.3496 106.508V105.061C58.3496 103.807 58.5664 102.875 59 102.266C59.4336 101.656 60.1133 101.352 61.0391 101.352C61.957 101.352 62.6328 101.646 63.0664 102.236C63.5 102.822 63.7227 103.729 63.7344 104.955V106.361ZM62.6504 104.879C62.6504 103.961 62.5215 103.293 62.2637 102.875C62.0059 102.453 61.5977 102.242 61.0391 102.242C60.4844 102.242 60.0801 102.451 59.8262 102.869C59.5723 103.287 59.4414 103.93 59.4336 104.797V106.531C59.4336 107.453 59.5664 108.135 59.832 108.576C60.1016 109.014 60.5078 109.232 61.0508 109.232C61.5859 109.232 61.9824 109.025 62.2402 108.611C62.502 108.197 62.6387 107.545 62.6504 106.654V104.879Z" fill="black"/>
<path d="M140.99 110V101.469H143.779C144.705 101.469 145.4 101.66 145.865 102.043C146.334 102.426 146.568 102.992 146.568 103.742C146.568 104.141 146.455 104.494 146.229 104.803C146.002 105.107 145.693 105.344 145.303 105.512C145.764 105.641 146.127 105.887 146.393 106.25C146.662 106.609 146.797 107.039 146.797 107.539C146.797 108.305 146.549 108.906 146.053 109.344C145.557 109.781 144.855 110 143.949 110H140.99ZM142.115 106.01V109.08H143.973C144.496 109.08 144.908 108.945 145.209 108.676C145.514 108.402 145.666 108.027 145.666 107.551C145.666 106.523 145.107 106.01 143.99 106.01H142.115ZM142.115 105.107H143.814C144.307 105.107 144.699 104.984 144.992 104.738C145.289 104.492 145.438 104.158 145.438 103.736C145.438 103.268 145.301 102.928 145.027 102.717C144.754 102.502 144.338 102.395 143.779 102.395H142.115V105.107ZM152.34 106.25C152.113 106.52 151.842 106.736 151.525 106.9C151.213 107.064 150.869 107.146 150.494 107.146C150.002 107.146 149.572 107.025 149.205 106.783C148.842 106.541 148.561 106.201 148.361 105.764C148.162 105.322 148.062 104.836 148.062 104.305C148.062 103.734 148.17 103.221 148.385 102.764C148.604 102.307 148.912 101.957 149.311 101.715C149.709 101.473 150.174 101.352 150.705 101.352C151.549 101.352 152.213 101.668 152.697 102.301C153.186 102.93 153.43 103.789 153.43 104.879V105.195C153.43 106.855 153.102 108.068 152.445 108.834C151.789 109.596 150.799 109.986 149.475 110.006H149.264V109.092H149.492C150.387 109.076 151.074 108.844 151.555 108.395C152.035 107.941 152.297 107.227 152.34 106.25ZM150.67 106.25C151.033 106.25 151.367 106.139 151.672 105.916C151.98 105.693 152.205 105.418 152.346 105.09V104.656C152.346 103.945 152.191 103.367 151.883 102.922C151.574 102.477 151.184 102.254 150.711 102.254C150.234 102.254 149.852 102.438 149.562 102.805C149.273 103.168 149.129 103.648 149.129 104.246C149.129 104.828 149.268 105.309 149.545 105.688C149.826 106.062 150.201 106.25 150.67 106.25ZM158.035 109.432C158.035 109.244 158.09 109.088 158.199 108.963C158.312 108.838 158.48 108.775 158.703 108.775C158.926 108.775 159.094 108.838 159.207 108.963C159.324 109.088 159.383 109.244 159.383 109.432C159.383 109.611 159.324 109.762 159.207 109.883C159.094 110.004 158.926 110.064 158.703 110.064C158.48 110.064 158.312 110.004 158.199 109.883C158.09 109.762 158.035 109.611 158.035 109.432ZM161.199 109.432C161.199 109.244 161.254 109.088 161.363 108.963C161.477 108.838 161.645 108.775 161.867 108.775C162.09 108.775 162.258 108.838 162.371 108.963C162.488 109.088 162.547 109.244 162.547 109.432C162.547 109.611 162.488 109.762 162.371 109.883C162.258 110.004 162.09 110.064 161.867 110.064C161.645 110.064 161.477 110.004 161.363 109.883C161.254 109.762 161.199 109.611 161.199 109.432ZM167.486 110V101.469H170.275C171.201 101.469 171.896 101.66 172.361 102.043C172.83 102.426 173.064 102.992 173.064 103.742C173.064 104.141 172.951 104.494 172.725 104.803C172.498 105.107 172.189 105.344 171.799 105.512C172.26 105.641 172.623 105.887 172.889 106.25C173.158 106.609 173.293 107.039 173.293 107.539C173.293 108.305 173.045 108.906 172.549 109.344C172.053 109.781 171.352 110 170.445 110H167.486ZM168.611 106.01V109.08H170.469C170.992 109.08 171.404 108.945 171.705 108.676C172.01 108.402 172.162 108.027 172.162 107.551C172.162 106.523 171.604 106.01 170.486 106.01H168.611ZM168.611 105.107H170.311C170.803 105.107 171.195 104.984 171.488 104.738C171.785 104.492 171.934 104.158 171.934 103.736C171.934 103.268 171.797 102.928 171.523 102.717C171.25 102.502 170.834 102.395 170.275 102.395H168.611V105.107ZM180.031 106.361C180.031 107.631 179.814 108.574 179.381 109.191C178.947 109.809 178.27 110.117 177.348 110.117C176.438 110.117 175.764 109.816 175.326 109.215C174.889 108.609 174.662 107.707 174.646 106.508V105.061C174.646 103.807 174.863 102.875 175.297 102.266C175.73 101.656 176.41 101.352 177.336 101.352C178.254 101.352 178.93 101.646 179.363 102.236C179.797 102.822 180.02 103.729 180.031 104.955V106.361ZM178.947 104.879C178.947 103.961 178.818 103.293 178.561 102.875C178.303 102.453 177.895 102.242 177.336 102.242C176.781 102.242 176.377 102.451 176.123 102.869C175.869 103.287 175.738 103.93 175.73 104.797V106.531C175.73 107.453 175.863 108.135 176.129 108.576C176.398 109.014 176.805 109.232 177.348 109.232C177.883 109.232 178.279 109.025 178.537 108.611C178.799 108.197 178.936 107.545 178.947 106.654V104.879Z" fill="black"/>
<path d="M44.7988 8.77344H41.2246L40.4219 11H39.2617L42.5195 2.46875H43.5039L46.7676 11H45.6133L44.7988 8.77344ZM41.5645 7.84766H44.4648L43.0117 3.85742L41.5645 7.84766ZM26.125 21.5371C26.125 20.6543 26.2422 19.8066 26.4766 18.9941C26.7148 18.1816 27.0684 17.4434 27.5371 16.7793C28.0059 16.1152 28.4922 15.6465 28.9961 15.373L29.2188 16.0879C28.6484 16.5254 28.1797 17.1934 27.8125 18.0918C27.4492 18.9902 27.25 19.9961 27.2148 21.1094L27.209 21.6074C27.209 23.1152 27.4844 24.4238 28.0352 25.5332C28.3672 26.1973 28.7617 26.7168 29.2188 27.0918L28.9961 27.7539C28.4766 27.4648 27.9805 26.9805 27.5078 26.3008C26.5859 24.9727 26.125 23.3848 26.125 21.5371ZM33.7188 25H32.6289V17.7754L30.4434 18.5781V17.5938L33.5488 16.4277H33.7188V25ZM42.2441 21.3613C42.2441 22.6309 42.0273 23.5742 41.5938 24.1914C41.1602 24.8086 40.4824 25.1172 39.5605 25.1172C38.6504 25.1172 37.9766 24.8164 37.5391 24.2148C37.1016 23.6094 36.875 22.707 36.8594 21.5078V20.0605C36.8594 18.8066 37.0762 17.875 37.5098 17.2656C37.9434 16.6562 38.623 16.3516 39.5488 16.3516C40.4668 16.3516 41.1426 16.6465 41.5762 17.2363C42.0098 17.8223 42.2324 18.7285 42.2441 19.9551V21.3613ZM41.1602 19.8789C41.1602 18.9609 41.0312 18.293 40.7734 17.875C40.5156 17.4531 40.1074 17.2422 39.5488 17.2422C38.9941 17.2422 38.5898 17.4512 38.3359 17.8691C38.082 18.2871 37.9512 18.9297 37.9434 19.7969V21.5312C37.9434 22.4531 38.0762 23.1348 38.3418 23.5762C38.6113 24.0137 39.0176 24.2324 39.5605 24.2324C40.0957 24.2324 40.4922 24.0254 40.75 23.6113C41.0117 23.1973 41.1484 22.5449 41.1602 21.6543V19.8789ZM52.0879 21.9004C52.0879 22.8691 51.8652 23.6484 51.4199 24.2383C50.9746 24.8242 50.377 25.1172 49.627 25.1172C48.8262 25.1172 48.207 24.834 47.7695 24.2676L47.7168 25H46.7207V16H47.8047V19.3574C48.2422 18.8145 48.8457 18.543 49.6152 18.543C50.3848 18.543 50.9883 18.834 51.4258 19.416C51.8672 19.998 52.0879 20.7949 52.0879 21.8066V21.9004ZM51.0039 21.7773C51.0039 21.0391 50.8613 20.4688 50.5762 20.0664C50.291 19.6641 49.8809 19.4629 49.3457 19.4629C48.6309 19.4629 48.1172 19.7949 47.8047 20.459V23.2012C48.1367 23.8652 48.6543 24.1973 49.3574 24.1973C49.877 24.1973 50.2812 23.9961 50.5703 23.5938C50.8594 23.1914 51.0039 22.5859 51.0039 21.7773ZM54.6367 25H53.5527V18.6602H54.6367V25ZM53.4648 16.9785C53.4648 16.8027 53.5176 16.6543 53.623 16.5332C53.7324 16.4121 53.8926 16.3516 54.1035 16.3516C54.3145 16.3516 54.4746 16.4121 54.584 16.5332C54.6934 16.6543 54.748 16.8027 54.748 16.9785C54.748 17.1543 54.6934 17.3008 54.584 17.418C54.4746 17.5352 54.3145 17.5938 54.1035 17.5938C53.8926 17.5938 53.7324 17.5352 53.623 17.418C53.5176 17.3008 53.4648 17.1543 53.4648 16.9785ZM57.8477 17.125V18.6602H59.0312V19.498H57.8477V23.4297C57.8477 23.6836 57.9004 23.875 58.0059 24.0039C58.1113 24.1289 58.291 24.1914 58.5449 24.1914C58.6699 24.1914 58.8418 24.168 59.0605 24.1211V25C58.7754 25.0781 58.498 25.1172 58.2285 25.1172C57.7441 25.1172 57.3789 24.9707 57.1328 24.6777C56.8867 24.3848 56.7637 23.9688 56.7637 23.4297V19.498H55.6094V18.6602H56.7637V17.125H57.8477ZM62.8047 21.5957C62.8047 22.4668 62.6895 23.3027 62.459 24.1035C62.2324 24.9004 61.8828 25.6367 61.4102 26.3125C60.9414 26.9883 60.4492 27.4688 59.9336 27.7539L59.7051 27.0918C60.3066 26.6309 60.7891 25.916 61.1523 24.9473C61.5195 23.9746 61.707 22.8965 61.7148 21.7129V21.5254C61.7148 20.7051 61.6289 19.9434 61.457 19.2402C61.2852 18.5332 61.0449 17.9004 60.7363 17.3418C60.4316 16.7832 60.0879 16.3477 59.7051 16.0352L59.9336 15.373C60.4492 15.6582 60.9395 16.1348 61.4043 16.8027C61.873 17.4707 62.2227 18.207 62.4531 19.0117C62.6875 19.8164 62.8047 20.6777 62.8047 21.5957Z" fill="black"/>
<path d="M157.264 11V2.46875H160.053C160.979 2.46875 161.674 2.66016 162.139 3.04297C162.607 3.42578 162.842 3.99219 162.842 4.74219C162.842 5.14062 162.729 5.49414 162.502 5.80273C162.275 6.10742 161.967 6.34375 161.576 6.51172C162.037 6.64062 162.4 6.88672 162.666 7.25C162.936 7.60938 163.07 8.03906 163.07 8.53906C163.07 9.30469 162.822 9.90625 162.326 10.3438C161.83 10.7812 161.129 11 160.223 11H157.264ZM158.389 7.00977V10.0801H160.246C160.77 10.0801 161.182 9.94531 161.482 9.67578C161.787 9.40234 161.939 9.02734 161.939 8.55078C161.939 7.52344 161.381 7.00977 160.264 7.00977H158.389ZM158.389 6.10742H160.088C160.58 6.10742 160.973 5.98438 161.266 5.73828C161.562 5.49219 161.711 5.1582 161.711 4.73633C161.711 4.26758 161.574 3.92773 161.301 3.7168C161.027 3.50195 160.611 3.39453 160.053 3.39453H158.389V6.10742ZM143.125 21.5371C143.125 20.6543 143.242 19.8066 143.477 18.9941C143.715 18.1816 144.068 17.4434 144.537 16.7793C145.006 16.1152 145.492 15.6465 145.996 15.373L146.219 16.0879C145.648 16.5254 145.18 17.1934 144.812 18.0918C144.449 18.9902 144.25 19.9961 144.215 21.1094L144.209 21.6074C144.209 23.1152 144.484 24.4238 145.035 25.5332C145.367 26.1973 145.762 26.7168 146.219 27.0918L145.996 27.7539C145.477 27.4648 144.98 26.9805 144.508 26.3008C143.586 24.9727 143.125 23.3848 143.125 21.5371ZM150.719 25H149.629V17.7754L147.443 18.5781V17.5938L150.549 16.4277H150.719V25ZM159.244 21.3613C159.244 22.6309 159.027 23.5742 158.594 24.1914C158.16 24.8086 157.482 25.1172 156.561 25.1172C155.65 25.1172 154.977 24.8164 154.539 24.2148C154.102 23.6094 153.875 22.707 153.859 21.5078V20.0605C153.859 18.8066 154.076 17.875 154.51 17.2656C154.943 16.6562 155.623 16.3516 156.549 16.3516C157.467 16.3516 158.143 16.6465 158.576 17.2363C159.01 17.8223 159.232 18.7285 159.244 19.9551V21.3613ZM158.16 19.8789C158.16 18.9609 158.031 18.293 157.773 17.875C157.516 17.4531 157.107 17.2422 156.549 17.2422C155.994 17.2422 155.59 17.4512 155.336 17.8691C155.082 18.2871 154.951 18.9297 154.943 19.7969V21.5312C154.943 22.4531 155.076 23.1348 155.342 23.5762C155.611 24.0137 156.018 24.2324 156.561 24.2324C157.096 24.2324 157.492 24.0254 157.75 23.6113C158.012 23.1973 158.148 22.5449 158.16 21.6543V19.8789ZM169.088 21.9004C169.088 22.8691 168.865 23.6484 168.42 24.2383C167.975 24.8242 167.377 25.1172 166.627 25.1172C165.826 25.1172 165.207 24.834 164.77 24.2676L164.717 25H163.721V16H164.805V19.3574C165.242 18.8145 165.846 18.543 166.615 18.543C167.385 18.543 167.988 18.834 168.426 19.416C168.867 19.998 169.088 20.7949 169.088 21.8066V21.9004ZM168.004 21.7773C168.004 21.0391 167.861 20.4688 167.576 20.0664C167.291 19.6641 166.881 19.4629 166.346 19.4629C165.631 19.4629 165.117 19.7949 164.805 20.459V23.2012C165.137 23.8652 165.654 24.1973 166.357 24.1973C166.877 24.1973 167.281 23.9961 167.57 23.5938C167.859 23.1914 168.004 22.5859 168.004 21.7773ZM171.637 25H170.553V18.6602H171.637V25ZM170.465 16.9785C170.465 16.8027 170.518 16.6543 170.623 16.5332C170.732 16.4121 170.893 16.3516 171.104 16.3516C171.314 16.3516 171.475 16.4121 171.584 16.5332C171.693 16.6543 171.748 16.8027 171.748 16.9785C171.748 17.1543 171.693 17.3008 171.584 17.418C171.475 17.5352 171.314 17.5938 171.104 17.5938C170.893 17.5938 170.732 17.5352 170.623 17.418C170.518 17.3008 170.465 17.1543 170.465 16.9785ZM174.848 17.125V18.6602H176.031V19.498H174.848V23.4297C174.848 23.6836 174.9 23.875 175.006 24.0039C175.111 24.1289 175.291 24.1914 175.545 24.1914C175.67 24.1914 175.842 24.168 176.061 24.1211V25C175.775 25.0781 175.498 25.1172 175.229 25.1172C174.744 25.1172 174.379 24.9707 174.133 24.6777C173.887 24.3848 173.764 23.9688 173.764 23.4297V19.498H172.609V18.6602H173.764V17.125H174.848ZM179.805 21.5957C179.805 22.4668 179.689 23.3027 179.459 24.1035C179.232 24.9004 178.883 25.6367 178.41 26.3125C177.941 26.9883 177.449 27.4688 176.934 27.7539L176.705 27.0918C177.307 26.6309 177.789 25.916 178.152 24.9473C178.52 23.9746 178.707 22.8965 178.715 21.7129V21.5254C178.715 20.7051 178.629 19.9434 178.457 19.2402C178.285 18.5332 178.045 17.9004 177.736 17.3418C177.432 16.7832 177.088 16.3477 176.705 16.0352L176.934 15.373C177.449 15.6582 177.939 16.1348 178.404 16.8027C178.873 17.4707 179.223 18.207 179.453 19.0117C179.688 19.8164 179.805 20.6777 179.805 21.5957Z" fill="black"/>
</svg>
