<svg width="201" height="349" viewBox="0 0 201 349" fill="none" xmlns="http://www.w3.org/2000/svg">
<path d="M43.2929 91.7071C43.6834 92.0976 44.3166 92.0976 44.7071 91.7071L51.0711 85.3431C51.4616 84.9526 51.4616 84.3195 51.0711 83.9289C50.6805 83.5384 50.0474 83.5384 49.6569 83.9289L44 89.5858L38.3431 83.9289C37.9526 83.5384 37.3195 83.5384 36.9289 83.9289C36.5384 84.3195 36.5384 84.9526 36.9289 85.3431L43.2929 91.7071ZM43 35V91H45V35H43Z" fill="black"/>
<path d="M100.293 348.707C100.683 349.098 101.317 349.098 101.707 348.707L108.071 342.343C108.462 341.953 108.462 341.319 108.071 340.929C107.681 340.538 107.047 340.538 106.657 340.929L101 346.586L95.3431 340.929C94.9526 340.538 94.3195 340.538 93.9289 340.929C93.5384 341.319 93.5384 341.953 93.9289 342.343L100.293 348.707ZM100 292V348H102V292H100Z" fill="black"/>
<path d="M160.293 91.7071C160.683 92.0976 161.317 92.0976 161.707 91.7071L168.071 85.3431C168.462 84.9526 168.462 84.3195 168.071 83.9289C167.681 83.5384 167.047 83.5384 166.657 83.9289L161 89.5858L155.343 83.9289C154.953 83.5384 154.319 83.5384 153.929 83.9289C153.538 84.3195 153.538 84.9526 153.929 85.3431L160.293 91.7071ZM160 35V91H162V35H160Z" fill="black"/>
<rect x="0.5" y="91.5" width="200" height="200" fill="#C4C4C4" stroke="black"/>
<path d="M65.7383 193.293C65.6328 194.195 65.2988 194.893 64.7363 195.385C64.1777 195.873 63.4336 196.117 62.5039 196.117C61.4961 196.117 60.6875 195.756 60.0781 195.033C59.4727 194.311 59.1699 193.344 59.1699 192.133V191.312C59.1699 190.52 59.3105 189.822 59.5918 189.221C59.877 188.619 60.2793 188.158 60.7988 187.838C61.3184 187.514 61.9199 187.352 62.6035 187.352C63.5098 187.352 64.2363 187.605 64.7832 188.113C65.3301 188.617 65.6484 189.316 65.7383 190.211H64.6074C64.5098 189.531 64.2969 189.039 63.9688 188.734C63.6445 188.43 63.1895 188.277 62.6035 188.277C61.8848 188.277 61.3203 188.543 60.9102 189.074C60.5039 189.605 60.3008 190.361 60.3008 191.342V192.168C60.3008 193.094 60.4941 193.83 60.8809 194.377C61.2676 194.924 61.8086 195.197 62.5039 195.197C63.1289 195.197 63.6074 195.057 63.9395 194.775C64.2754 194.49 64.498 193.996 64.6074 193.293H65.7383ZM73.8418 192.01C73.8418 192.846 73.7012 193.576 73.4199 194.201C73.1387 194.822 72.7402 195.297 72.2246 195.625C71.709 195.953 71.1074 196.117 70.4199 196.117C69.748 196.117 69.1523 195.953 68.6328 195.625C68.1133 195.293 67.709 194.822 67.4199 194.213C67.1348 193.6 66.9883 192.891 66.9805 192.086V191.471C66.9805 190.65 67.123 189.926 67.4082 189.297C67.6934 188.668 68.0957 188.188 68.6152 187.855C69.1387 187.52 69.7363 187.352 70.4082 187.352C71.0918 187.352 71.6934 187.518 72.2129 187.85C72.7363 188.178 73.1387 188.656 73.4199 189.285C73.7012 189.91 73.8418 190.639 73.8418 191.471V192.01ZM72.7227 191.459C72.7227 190.447 72.5195 189.672 72.1133 189.133C71.707 188.59 71.1387 188.318 70.4082 188.318C69.6973 188.318 69.1367 188.59 68.7266 189.133C68.3203 189.672 68.1113 190.422 68.0996 191.383V192.01C68.0996 192.99 68.3047 193.762 68.7148 194.324C69.1289 194.883 69.6973 195.162 70.4199 195.162C71.1465 195.162 71.709 194.898 72.1074 194.371C72.5059 193.84 72.7109 193.08 72.7227 192.092V191.459ZM76.9824 187.469L79.7715 194.43L82.5605 187.469H84.0195V196H82.8945V192.678L83 189.092L80.1992 196H79.3379L76.543 189.109L76.6543 192.678V196H75.5293V187.469H76.9824ZM87.1309 192.66V196H86.0059V187.469H89.1523C90.0859 187.469 90.8164 187.707 91.3438 188.184C91.875 188.66 92.1406 189.291 92.1406 190.076C92.1406 190.904 91.8809 191.543 91.3613 191.992C90.8457 192.438 90.1055 192.66 89.1406 192.66H87.1309ZM87.1309 191.74H89.1523C89.7539 191.74 90.2148 191.6 90.5352 191.318C90.8555 191.033 91.0156 190.623 91.0156 190.088C91.0156 189.58 90.8555 189.174 90.5352 188.869C90.2148 188.564 89.7754 188.406 89.2168 188.395H87.1309V191.74ZM97.4785 193.773H93.9043L93.1016 196H91.9414L95.1992 187.469H96.1836L99.4473 196H98.293L97.4785 193.773ZM94.2441 192.848H97.1445L95.6914 188.857L94.2441 192.848ZM103.725 192.549H101.721V196H100.59V187.469H103.414C104.375 187.469 105.113 187.688 105.629 188.125C106.148 188.562 106.408 189.199 106.408 190.035C106.408 190.566 106.264 191.029 105.975 191.424C105.689 191.818 105.291 192.113 104.779 192.309L106.783 195.93V196H105.576L103.725 192.549ZM101.721 191.629H103.449C104.008 191.629 104.451 191.484 104.779 191.195C105.111 190.906 105.277 190.52 105.277 190.035C105.277 189.508 105.119 189.104 104.803 188.822C104.49 188.541 104.037 188.398 103.443 188.395H101.721V191.629ZM112.701 193.773H109.127L108.324 196H107.164L110.422 187.469H111.406L114.67 196H113.516L112.701 193.773ZM109.467 192.848H112.367L110.914 188.857L109.467 192.848ZM120.951 188.395H118.209V196H117.09V188.395H114.354V187.469H120.951V188.395ZM128.615 192.01C128.615 192.846 128.475 193.576 128.193 194.201C127.912 194.822 127.514 195.297 126.998 195.625C126.482 195.953 125.881 196.117 125.193 196.117C124.521 196.117 123.926 195.953 123.406 195.625C122.887 195.293 122.482 194.822 122.193 194.213C121.908 193.6 121.762 192.891 121.754 192.086V191.471C121.754 190.65 121.896 189.926 122.182 189.297C122.467 188.668 122.869 188.188 123.389 187.855C123.912 187.52 124.51 187.352 125.182 187.352C125.865 187.352 126.467 187.518 126.986 187.85C127.51 188.178 127.912 188.656 128.193 189.285C128.475 189.91 128.615 190.639 128.615 191.471V192.01ZM127.496 191.459C127.496 190.447 127.293 189.672 126.887 189.133C126.48 188.59 125.912 188.318 125.182 188.318C124.471 188.318 123.91 188.59 123.5 189.133C123.094 189.672 122.885 190.422 122.873 191.383V192.01C122.873 192.99 123.078 193.762 123.488 194.324C123.902 194.883 124.471 195.162 125.193 195.162C125.92 195.162 126.482 194.898 126.881 194.371C127.279 193.84 127.484 193.08 127.496 192.092V191.459ZM133.432 192.549H131.428V196H130.297V187.469H133.121C134.082 187.469 134.82 187.688 135.336 188.125C135.855 188.562 136.115 189.199 136.115 190.035C136.115 190.566 135.971 191.029 135.682 191.424C135.396 191.818 134.998 192.113 134.486 192.309L136.49 195.93V196H135.283L133.432 192.549ZM131.428 191.629H133.156C133.715 191.629 134.158 191.484 134.486 191.195C134.818 190.906 134.984 190.52 134.984 190.035C134.984 189.508 134.826 189.104 134.51 188.822C134.197 188.541 133.744 188.398 133.15 188.395H131.428V191.629ZM142.52 192.057H138.822V195.08H143.117V196H137.697V187.469H143.059V188.395H138.822V191.137H142.52V192.057ZM82.625 206.537C82.625 205.654 82.7422 204.807 82.9766 203.994C83.2148 203.182 83.5684 202.443 84.0371 201.779C84.5059 201.115 84.9922 200.646 85.4961 200.373L85.7188 201.088C85.1484 201.525 84.6797 202.193 84.3125 203.092C83.9492 203.99 83.75 204.996 83.7148 206.109L83.709 206.607C83.709 208.115 83.9844 209.424 84.5352 210.533C84.8672 211.197 85.2617 211.717 85.7188 212.092L85.4961 212.754C84.9766 212.465 84.4805 211.98 84.0078 211.301C83.0859 209.973 82.625 208.385 82.625 206.537ZM90.2188 210H89.1289V202.775L86.9434 203.578V202.594L90.0488 201.428H90.2188V210ZM97.6484 201.463V202.383H97.4492C96.6055 202.398 95.9336 202.648 95.4336 203.133C94.9336 203.617 94.6445 204.299 94.5664 205.178C95.0156 204.662 95.6289 204.404 96.4062 204.404C97.1484 204.404 97.7402 204.666 98.1816 205.189C98.627 205.713 98.8496 206.389 98.8496 207.217C98.8496 208.096 98.6094 208.799 98.1289 209.326C97.6523 209.854 97.0117 210.117 96.207 210.117C95.3906 210.117 94.7285 209.805 94.2207 209.18C93.7129 208.551 93.459 207.742 93.459 206.754V206.338C93.459 204.768 93.793 203.568 94.4609 202.74C95.1328 201.908 96.1309 201.482 97.4551 201.463H97.6484ZM96.2246 205.307C95.8535 205.307 95.5117 205.418 95.1992 205.641C94.8867 205.863 94.6699 206.143 94.5488 206.479V206.877C94.5488 207.58 94.707 208.146 95.0234 208.576C95.3398 209.006 95.7344 209.221 96.207 209.221C96.6953 209.221 97.0781 209.041 97.3555 208.682C97.6367 208.322 97.7773 207.852 97.7773 207.27C97.7773 206.684 97.6348 206.211 97.3496 205.852C97.0684 205.488 96.6934 205.307 96.2246 205.307ZM108.588 206.9C108.588 207.869 108.365 208.648 107.92 209.238C107.475 209.824 106.877 210.117 106.127 210.117C105.326 210.117 104.707 209.834 104.27 209.268L104.217 210H103.221V201H104.305V204.357C104.742 203.814 105.346 203.543 106.115 203.543C106.885 203.543 107.488 203.834 107.926 204.416C108.367 204.998 108.588 205.795 108.588 206.807V206.9ZM107.504 206.777C107.504 206.039 107.361 205.469 107.076 205.066C106.791 204.664 106.381 204.463 105.846 204.463C105.131 204.463 104.617 204.795 104.305 205.459V208.201C104.637 208.865 105.154 209.197 105.857 209.197C106.377 209.197 106.781 208.996 107.07 208.594C107.359 208.191 107.504 207.586 107.504 206.777ZM111.137 210H110.053V203.66H111.137V210ZM109.965 201.979C109.965 201.803 110.018 201.654 110.123 201.533C110.232 201.412 110.393 201.352 110.604 201.352C110.814 201.352 110.975 201.412 111.084 201.533C111.193 201.654 111.248 201.803 111.248 201.979C111.248 202.154 111.193 202.301 111.084 202.418C110.975 202.535 110.814 202.594 110.604 202.594C110.393 202.594 110.232 202.535 110.123 202.418C110.018 202.301 109.965 202.154 109.965 201.979ZM114.348 202.125V203.66H115.531V204.498H114.348V208.43C114.348 208.684 114.4 208.875 114.506 209.004C114.611 209.129 114.791 209.191 115.045 209.191C115.17 209.191 115.342 209.168 115.561 209.121V210C115.275 210.078 114.998 210.117 114.729 210.117C114.244 210.117 113.879 209.971 113.633 209.678C113.387 209.385 113.264 208.969 113.264 208.43V204.498H112.109V203.66H113.264V202.125H114.348ZM119.305 206.596C119.305 207.467 119.189 208.303 118.959 209.104C118.732 209.9 118.383 210.637 117.91 211.312C117.441 211.988 116.949 212.469 116.434 212.754L116.205 212.092C116.807 211.631 117.289 210.916 117.652 209.947C118.02 208.975 118.207 207.896 118.215 206.713V206.525C118.215 205.705 118.129 204.943 117.957 204.24C117.785 203.533 117.545 202.9 117.236 202.342C116.932 201.783 116.588 201.348 116.205 201.035L116.434 200.373C116.949 200.658 117.439 201.135 117.904 201.803C118.373 202.471 118.723 203.207 118.953 204.012C119.188 204.816 119.305 205.678 119.305 206.596Z" fill="black"/>
<path d="M104.553 279.01C104.553 279.846 104.412 280.576 104.131 281.201C103.85 281.822 103.451 282.297 102.936 282.625C102.42 282.953 101.818 283.117 101.131 283.117C100.459 283.117 99.8633 282.953 99.3438 282.625C98.8242 282.293 98.4199 281.822 98.1309 281.213C97.8457 280.6 97.6992 279.891 97.6914 279.086V278.471C97.6914 277.65 97.834 276.926 98.1191 276.297C98.4043 275.668 98.8066 275.188 99.3262 274.855C99.8496 274.52 100.447 274.352 101.119 274.352C101.803 274.352 102.404 274.518 102.924 274.85C103.447 275.178 103.85 275.656 104.131 276.285C104.412 276.91 104.553 277.639 104.553 278.471V279.01ZM103.434 278.459C103.434 277.447 103.23 276.672 102.824 276.133C102.418 275.59 101.85 275.318 101.119 275.318C100.408 275.318 99.8477 275.59 99.4375 276.133C99.0312 276.672 98.8223 277.422 98.8105 278.383V279.01C98.8105 279.99 99.0156 280.762 99.4258 281.324C99.8398 281.883 100.408 282.162 101.131 282.162C101.857 282.162 102.42 281.898 102.818 281.371C103.217 280.84 103.422 280.08 103.434 279.092V278.459Z" fill="black"/>
<path d="M23.7012 107.773H20.127L19.3242 110H18.1641L21.4219 101.469H22.4062L25.6699 110H24.5156L23.7012 107.773ZM20.4668 106.848H23.3672L21.9141 102.857L20.4668 106.848ZM30.0996 110H29.0098V102.775L26.8242 103.578V102.594L29.9297 101.428H30.0996V110ZM33.7734 105.723L34.207 101.469H38.5781V102.471H35.127L34.8691 104.797C35.2871 104.551 35.7617 104.428 36.293 104.428C37.0703 104.428 37.6875 104.686 38.1445 105.201C38.6016 105.713 38.8301 106.406 38.8301 107.281C38.8301 108.16 38.5918 108.854 38.1152 109.361C37.6426 109.865 36.9805 110.117 36.1289 110.117C35.375 110.117 34.7598 109.908 34.2832 109.49C33.8066 109.072 33.5352 108.494 33.4688 107.756H34.4941C34.5605 108.244 34.7344 108.613 35.0156 108.863C35.2969 109.109 35.668 109.232 36.1289 109.232C36.6328 109.232 37.0273 109.061 37.3125 108.717C37.6016 108.373 37.7461 107.898 37.7461 107.293C37.7461 106.723 37.5898 106.266 37.2773 105.922C36.9688 105.574 36.5566 105.4 36.041 105.4C35.5684 105.4 35.1973 105.504 34.9277 105.711L34.6406 105.945L33.7734 105.723ZM43.125 109.432C43.125 109.244 43.1797 109.088 43.2891 108.963C43.4023 108.838 43.5703 108.775 43.793 108.775C44.0156 108.775 44.1836 108.838 44.2969 108.963C44.4141 109.088 44.4727 109.244 44.4727 109.432C44.4727 109.611 44.4141 109.762 44.2969 109.883C44.1836 110.004 44.0156 110.064 43.793 110.064C43.5703 110.064 43.4023 110.004 43.2891 109.883C43.1797 109.762 43.125 109.611 43.125 109.432ZM46.2891 109.432C46.2891 109.244 46.3438 109.088 46.4531 108.963C46.5664 108.838 46.7344 108.775 46.957 108.775C47.1797 108.775 47.3477 108.838 47.4609 108.963C47.5781 109.088 47.6367 109.244 47.6367 109.432C47.6367 109.611 47.5781 109.762 47.4609 109.883C47.3477 110.004 47.1797 110.064 46.957 110.064C46.7344 110.064 46.5664 110.004 46.4531 109.883C46.3438 109.762 46.2891 109.611 46.2891 109.432ZM57.2871 107.773H53.7129L52.9102 110H51.75L55.0078 101.469H55.9922L59.2559 110H58.1016L57.2871 107.773ZM54.0527 106.848H56.9531L55.5 102.857L54.0527 106.848ZM65.4727 106.361C65.4727 107.631 65.2559 108.574 64.8223 109.191C64.3887 109.809 63.7109 110.117 62.7891 110.117C61.8789 110.117 61.2051 109.816 60.7676 109.215C60.3301 108.609 60.1035 107.707 60.0879 106.508V105.061C60.0879 103.807 60.3047 102.875 60.7383 102.266C61.1719 101.656 61.8516 101.352 62.7773 101.352C63.6953 101.352 64.3711 101.646 64.8047 102.236C65.2383 102.822 65.4609 103.729 65.4727 104.955V106.361ZM64.3887 104.879C64.3887 103.961 64.2598 103.293 64.002 102.875C63.7441 102.453 63.3359 102.242 62.7773 102.242C62.2227 102.242 61.8184 102.451 61.5645 102.869C61.3105 103.287 61.1797 103.93 61.1719 104.797V106.531C61.1719 107.453 61.3047 108.135 61.5703 108.576C61.8398 109.014 62.2461 109.232 62.7891 109.232C63.3242 109.232 63.7207 109.025 63.9785 108.611C64.2402 108.197 64.377 107.545 64.3887 106.654V104.879Z" fill="black"/>
<path d="M137.99 110V101.469H140.779C141.705 101.469 142.4 101.66 142.865 102.043C143.334 102.426 143.568 102.992 143.568 103.742C143.568 104.141 143.455 104.494 143.229 104.803C143.002 105.107 142.693 105.344 142.303 105.512C142.764 105.641 143.127 105.887 143.393 106.25C143.662 106.609 143.797 107.039 143.797 107.539C143.797 108.305 143.549 108.906 143.053 109.344C142.557 109.781 141.855 110 140.949 110H137.99ZM139.115 106.01V109.08H140.973C141.496 109.08 141.908 108.945 142.209 108.676C142.514 108.402 142.666 108.027 142.666 107.551C142.666 106.523 142.107 106.01 140.99 106.01H139.115ZM139.115 105.107H140.814C141.307 105.107 141.699 104.984 141.992 104.738C142.289 104.492 142.438 104.158 142.438 103.736C142.438 103.268 142.301 102.928 142.027 102.717C141.754 102.502 141.338 102.395 140.779 102.395H139.115V105.107ZM148.748 110H147.658V102.775L145.473 103.578V102.594L148.578 101.428H148.748V110ZM152.422 105.723L152.855 101.469H157.227V102.471H153.775L153.518 104.797C153.936 104.551 154.41 104.428 154.941 104.428C155.719 104.428 156.336 104.686 156.793 105.201C157.25 105.713 157.479 106.406 157.479 107.281C157.479 108.16 157.24 108.854 156.764 109.361C156.291 109.865 155.629 110.117 154.777 110.117C154.023 110.117 153.408 109.908 152.932 109.49C152.455 109.072 152.184 108.494 152.117 107.756H153.143C153.209 108.244 153.383 108.613 153.664 108.863C153.945 109.109 154.316 109.232 154.777 109.232C155.281 109.232 155.676 109.061 155.961 108.717C156.25 108.373 156.395 107.898 156.395 107.293C156.395 106.723 156.238 106.266 155.926 105.922C155.617 105.574 155.205 105.4 154.689 105.4C154.217 105.4 153.846 105.504 153.576 105.711L153.289 105.945L152.422 105.723ZM161.773 109.432C161.773 109.244 161.828 109.088 161.938 108.963C162.051 108.838 162.219 108.775 162.441 108.775C162.664 108.775 162.832 108.838 162.945 108.963C163.062 109.088 163.121 109.244 163.121 109.432C163.121 109.611 163.062 109.762 162.945 109.883C162.832 110.004 162.664 110.064 162.441 110.064C162.219 110.064 162.051 110.004 161.938 109.883C161.828 109.762 161.773 109.611 161.773 109.432ZM164.938 109.432C164.938 109.244 164.992 109.088 165.102 108.963C165.215 108.838 165.383 108.775 165.605 108.775C165.828 108.775 165.996 108.838 166.109 108.963C166.227 109.088 166.285 109.244 166.285 109.432C166.285 109.611 166.227 109.762 166.109 109.883C165.996 110.004 165.828 110.064 165.605 110.064C165.383 110.064 165.215 110.004 165.102 109.883C164.992 109.762 164.938 109.611 164.938 109.432ZM171.225 110V101.469H174.014C174.939 101.469 175.635 101.66 176.1 102.043C176.568 102.426 176.803 102.992 176.803 103.742C176.803 104.141 176.689 104.494 176.463 104.803C176.236 105.107 175.928 105.344 175.537 105.512C175.998 105.641 176.361 105.887 176.627 106.25C176.896 106.609 177.031 107.039 177.031 107.539C177.031 108.305 176.783 108.906 176.287 109.344C175.791 109.781 175.09 110 174.184 110H171.225ZM172.35 106.01V109.08H174.207C174.73 109.08 175.143 108.945 175.443 108.676C175.748 108.402 175.9 108.027 175.9 107.551C175.9 106.523 175.342 106.01 174.225 106.01H172.35ZM172.35 105.107H174.049C174.541 105.107 174.934 104.984 175.227 104.738C175.523 104.492 175.672 104.158 175.672 103.736C175.672 103.268 175.535 102.928 175.262 102.717C174.988 102.502 174.572 102.395 174.014 102.395H172.35V105.107ZM183.77 106.361C183.77 107.631 183.553 108.574 183.119 109.191C182.686 109.809 182.008 110.117 181.086 110.117C180.176 110.117 179.502 109.816 179.064 109.215C178.627 108.609 178.4 107.707 178.385 106.508V105.061C178.385 103.807 178.602 102.875 179.035 102.266C179.469 101.656 180.148 101.352 181.074 101.352C181.992 101.352 182.668 101.646 183.102 102.236C183.535 102.822 183.758 103.729 183.77 104.955V106.361ZM182.686 104.879C182.686 103.961 182.557 103.293 182.299 102.875C182.041 102.453 181.633 102.242 181.074 102.242C180.52 102.242 180.115 102.451 179.861 102.869C179.607 103.287 179.477 103.93 179.469 104.797V106.531C179.469 107.453 179.602 108.135 179.867 108.576C180.137 109.014 180.543 109.232 181.086 109.232C181.621 109.232 182.018 109.025 182.275 108.611C182.537 108.197 182.674 107.545 182.686 106.654V104.879Z" fill="black"/>
<path d="M44.7988 8.77344H41.2246L40.4219 11H39.2617L42.5195 2.46875H43.5039L46.7676 11H45.6133L44.7988 8.77344ZM41.5645 7.84766H44.4648L43.0117 3.85742L41.5645 7.84766ZM26.125 21.5371C26.125 20.6543 26.2422 19.8066 26.4766 18.9941C26.7148 18.1816 27.0684 17.4434 27.5371 16.7793C28.0059 16.1152 28.4922 15.6465 28.9961 15.373L29.2188 16.0879C28.6484 16.5254 28.1797 17.1934 27.8125 18.0918C27.4492 18.9902 27.25 19.9961 27.2148 21.1094L27.209 21.6074C27.209 23.1152 27.4844 24.4238 28.0352 25.5332C28.3672 26.1973 28.7617 26.7168 29.2188 27.0918L28.9961 27.7539C28.4766 27.4648 27.9805 26.9805 27.5078 26.3008C26.5859 24.9727 26.125 23.3848 26.125 21.5371ZM33.7188 25H32.6289V17.7754L30.4434 18.5781V17.5938L33.5488 16.4277H33.7188V25ZM41.1484 16.4629V17.3828H40.9492C40.1055 17.3984 39.4336 17.6484 38.9336 18.1328C38.4336 18.6172 38.1445 19.2988 38.0664 20.1777C38.5156 19.6621 39.1289 19.4043 39.9062 19.4043C40.6484 19.4043 41.2402 19.666 41.6816 20.1895C42.127 20.7129 42.3496 21.3887 42.3496 22.2168C42.3496 23.0957 42.1094 23.7988 41.6289 24.3262C41.1523 24.8535 40.5117 25.1172 39.707 25.1172C38.8906 25.1172 38.2285 24.8047 37.7207 24.1797C37.2129 23.5508 36.959 22.7422 36.959 21.7539V21.3379C36.959 19.7676 37.293 18.5684 37.9609 17.7402C38.6328 16.9082 39.6309 16.4824 40.9551 16.4629H41.1484ZM39.7246 20.3066C39.3535 20.3066 39.0117 20.418 38.6992 20.6406C38.3867 20.8633 38.1699 21.1426 38.0488 21.4785V21.877C38.0488 22.5801 38.207 23.1465 38.5234 23.5762C38.8398 24.0059 39.2344 24.2207 39.707 24.2207C40.1953 24.2207 40.5781 24.041 40.8555 23.6816C41.1367 23.3223 41.2773 22.8516 41.2773 22.2695C41.2773 21.6836 41.1348 21.2109 40.8496 20.8516C40.5684 20.4883 40.1934 20.3066 39.7246 20.3066ZM52.0879 21.9004C52.0879 22.8691 51.8652 23.6484 51.4199 24.2383C50.9746 24.8242 50.377 25.1172 49.627 25.1172C48.8262 25.1172 48.207 24.834 47.7695 24.2676L47.7168 25H46.7207V16H47.8047V19.3574C48.2422 18.8145 48.8457 18.543 49.6152 18.543C50.3848 18.543 50.9883 18.834 51.4258 19.416C51.8672 19.998 52.0879 20.7949 52.0879 21.8066V21.9004ZM51.0039 21.7773C51.0039 21.0391 50.8613 20.4688 50.5762 20.0664C50.291 19.6641 49.8809 19.4629 49.3457 19.4629C48.6309 19.4629 48.1172 19.7949 47.8047 20.459V23.2012C48.1367 23.8652 48.6543 24.1973 49.3574 24.1973C49.877 24.1973 50.2812 23.9961 50.5703 23.5938C50.8594 23.1914 51.0039 22.5859 51.0039 21.7773ZM54.6367 25H53.5527V18.6602H54.6367V25ZM53.4648 16.9785C53.4648 16.8027 53.5176 16.6543 53.623 16.5332C53.7324 16.4121 53.8926 16.3516 54.1035 16.3516C54.3145 16.3516 54.4746 16.4121 54.584 16.5332C54.6934 16.6543 54.748 16.8027 54.748 16.9785C54.748 17.1543 54.6934 17.3008 54.584 17.418C54.4746 17.5352 54.3145 17.5938 54.1035 17.5938C53.8926 17.5938 53.7324 17.5352 53.623 17.418C53.5176 17.3008 53.4648 17.1543 53.4648 16.9785ZM57.8477 17.125V18.6602H59.0312V19.498H57.8477V23.4297C57.8477 23.6836 57.9004 23.875 58.0059 24.0039C58.1113 24.1289 58.291 24.1914 58.5449 24.1914C58.6699 24.1914 58.8418 24.168 59.0605 24.1211V25C58.7754 25.0781 58.498 25.1172 58.2285 25.1172C57.7441 25.1172 57.3789 24.9707 57.1328 24.6777C56.8867 24.3848 56.7637 23.9688 56.7637 23.4297V19.498H55.6094V18.6602H56.7637V17.125H57.8477ZM62.8047 21.5957C62.8047 22.4668 62.6895 23.3027 62.459 24.1035C62.2324 24.9004 61.8828 25.6367 61.4102 26.3125C60.9414 26.9883 60.4492 27.4688 59.9336 27.7539L59.7051 27.0918C60.3066 26.6309 60.7891 25.916 61.1523 24.9473C61.5195 23.9746 61.707 22.8965 61.7148 21.7129V21.5254C61.7148 20.7051 61.6289 19.9434 61.457 19.2402C61.2852 18.5332 61.0449 17.9004 60.7363 17.3418C60.4316 16.7832 60.0879 16.3477 59.7051 16.0352L59.9336 15.373C60.4492 15.6582 60.9395 16.1348 61.4043 16.8027C61.873 17.4707 62.2227 18.207 62.4531 19.0117C62.6875 19.8164 62.8047 20.6777 62.8047 21.5957Z" fill="black"/>
<path d="M157.264 11V2.46875H160.053C160.979 2.46875 161.674 2.66016 162.139 3.04297C162.607 3.42578 162.842 3.99219 162.842 4.74219C162.842 5.14062 162.729 5.49414 162.502 5.80273C162.275 6.10742 161.967 6.34375 161.576 6.51172C162.037 6.64062 162.4 6.88672 162.666 7.25C162.936 7.60938 163.07 8.03906 163.07 8.53906C163.07 9.30469 162.822 9.90625 162.326 10.3438C161.83 10.7812 161.129 11 160.223 11H157.264ZM158.389 7.00977V10.0801H160.246C160.77 10.0801 161.182 9.94531 161.482 9.67578C161.787 9.40234 161.939 9.02734 161.939 8.55078C161.939 7.52344 161.381 7.00977 160.264 7.00977H158.389ZM158.389 6.10742H160.088C160.58 6.10742 160.973 5.98438 161.266 5.73828C161.562 5.49219 161.711 5.1582 161.711 4.73633C161.711 4.26758 161.574 3.92773 161.301 3.7168C161.027 3.50195 160.611 3.39453 160.053 3.39453H158.389V6.10742ZM143.125 21.5371C143.125 20.6543 143.242 19.8066 143.477 18.9941C143.715 18.1816 144.068 17.4434 144.537 16.7793C145.006 16.1152 145.492 15.6465 145.996 15.373L146.219 16.0879C145.648 16.5254 145.18 17.1934 144.812 18.0918C144.449 18.9902 144.25 19.9961 144.215 21.1094L144.209 21.6074C144.209 23.1152 144.484 24.4238 145.035 25.5332C145.367 26.1973 145.762 26.7168 146.219 27.0918L145.996 27.7539C145.477 27.4648 144.98 26.9805 144.508 26.3008C143.586 24.9727 143.125 23.3848 143.125 21.5371ZM150.719 25H149.629V17.7754L147.443 18.5781V17.5938L150.549 16.4277H150.719V25ZM158.148 16.4629V17.3828H157.949C157.105 17.3984 156.434 17.6484 155.934 18.1328C155.434 18.6172 155.145 19.2988 155.066 20.1777C155.516 19.6621 156.129 19.4043 156.906 19.4043C157.648 19.4043 158.24 19.666 158.682 20.1895C159.127 20.7129 159.35 21.3887 159.35 22.2168C159.35 23.0957 159.109 23.7988 158.629 24.3262C158.152 24.8535 157.512 25.1172 156.707 25.1172C155.891 25.1172 155.229 24.8047 154.721 24.1797C154.213 23.5508 153.959 22.7422 153.959 21.7539V21.3379C153.959 19.7676 154.293 18.5684 154.961 17.7402C155.633 16.9082 156.631 16.4824 157.955 16.4629H158.148ZM156.725 20.3066C156.354 20.3066 156.012 20.418 155.699 20.6406C155.387 20.8633 155.17 21.1426 155.049 21.4785V21.877C155.049 22.5801 155.207 23.1465 155.523 23.5762C155.84 24.0059 156.234 24.2207 156.707 24.2207C157.195 24.2207 157.578 24.041 157.855 23.6816C158.137 23.3223 158.277 22.8516 158.277 22.2695C158.277 21.6836 158.135 21.2109 157.85 20.8516C157.568 20.4883 157.193 20.3066 156.725 20.3066ZM169.088 21.9004C169.088 22.8691 168.865 23.6484 168.42 24.2383C167.975 24.8242 167.377 25.1172 166.627 25.1172C165.826 25.1172 165.207 24.834 164.77 24.2676L164.717 25H163.721V16H164.805V19.3574C165.242 18.8145 165.846 18.543 166.615 18.543C167.385 18.543 167.988 18.834 168.426 19.416C168.867 19.998 169.088 20.7949 169.088 21.8066V21.9004ZM168.004 21.7773C168.004 21.0391 167.861 20.4688 167.576 20.0664C167.291 19.6641 166.881 19.4629 166.346 19.4629C165.631 19.4629 165.117 19.7949 164.805 20.459V23.2012C165.137 23.8652 165.654 24.1973 166.357 24.1973C166.877 24.1973 167.281 23.9961 167.57 23.5938C167.859 23.1914 168.004 22.5859 168.004 21.7773ZM171.637 25H170.553V18.6602H171.637V25ZM170.465 16.9785C170.465 16.8027 170.518 16.6543 170.623 16.5332C170.732 16.4121 170.893 16.3516 171.104 16.3516C171.314 16.3516 171.475 16.4121 171.584 16.5332C171.693 16.6543 171.748 16.8027 171.748 16.9785C171.748 17.1543 171.693 17.3008 171.584 17.418C171.475 17.5352 171.314 17.5938 171.104 17.5938C170.893 17.5938 170.732 17.5352 170.623 17.418C170.518 17.3008 170.465 17.1543 170.465 16.9785ZM174.848 17.125V18.6602H176.031V19.498H174.848V23.4297C174.848 23.6836 174.9 23.875 175.006 24.0039C175.111 24.1289 175.291 24.1914 175.545 24.1914C175.67 24.1914 175.842 24.168 176.061 24.1211V25C175.775 25.0781 175.498 25.1172 175.229 25.1172C174.744 25.1172 174.379 24.9707 174.133 24.6777C173.887 24.3848 173.764 23.9688 173.764 23.4297V19.498H172.609V18.6602H173.764V17.125H174.848ZM179.805 21.5957C179.805 22.4668 179.689 23.3027 179.459 24.1035C179.232 24.9004 178.883 25.6367 178.41 26.3125C177.941 26.9883 177.449 27.4688 176.934 27.7539L176.705 27.0918C177.307 26.6309 177.789 25.916 178.152 24.9473C178.52 23.9746 178.707 22.8965 178.715 21.7129V21.5254C178.715 20.7051 178.629 19.9434 178.457 19.2402C178.285 18.5332 178.045 17.9004 177.736 17.3418C177.432 16.7832 177.088 16.3477 176.705 16.0352L176.934 15.373C177.449 15.6582 177.939 16.1348 178.404 16.8027C178.873 17.4707 179.223 18.207 179.453 19.0117C179.688 19.8164 179.805 20.6777 179.805 21.5957Z" fill="black"/>
</svg>
