<svg width="201" height="349" viewBox="0 0 201 349" fill="none" xmlns="http://www.w3.org/2000/svg">
<path d="M43.2929 91.7071C43.6834 92.0976 44.3166 92.0976 44.7071 91.7071L51.0711 85.3431C51.4616 84.9526 51.4616 84.3195 51.0711 83.9289C50.6805 83.5384 50.0474 83.5384 49.6569 83.9289L44 89.5858L38.3431 83.9289C37.9526 83.5384 37.3195 83.5384 36.9289 83.9289C36.5384 84.3195 36.5384 84.9526 36.9289 85.3431L43.2929 91.7071ZM43 35V91H45V35H43Z" fill="black"/>
<path d="M100.293 348.707C100.683 349.098 101.317 349.098 101.707 348.707L108.071 342.343C108.462 341.953 108.462 341.319 108.071 340.929C107.681 340.538 107.047 340.538 106.657 340.929L101 346.586L95.3431 340.929C94.9526 340.538 94.3195 340.538 93.9289 340.929C93.5384 341.319 93.5384 341.953 93.9289 342.343L100.293 348.707ZM100 292V348H102V292H100Z" fill="black"/>
<path d="M160.293 91.7071C160.683 92.0976 161.317 92.0976 161.707 91.7071L168.071 85.3431C168.462 84.9526 168.462 84.3195 168.071 83.9289C167.681 83.5384 167.047 83.5384 166.657 83.9289L161 89.5858L155.343 83.9289C154.953 83.5384 154.319 83.5384 153.929 83.9289C153.538 84.3195 153.538 84.9526 153.929 85.3431L160.293 91.7071ZM160 35V91H162V35H160Z" fill="black"/>
<rect x="0.5" y="91.5" width="200" height="200" fill="#C4C4C4" stroke="black"/>
<path d="M65.7383 193.293C65.6328 194.195 65.2988 194.893 64.7363 195.385C64.1777 195.873 63.4336 196.117 62.5039 196.117C61.4961 196.117 60.6875 195.756 60.0781 195.033C59.4727 194.311 59.1699 193.344 59.1699 192.133V191.312C59.1699 190.52 59.3105 189.822 59.5918 189.221C59.877 188.619 60.2793 188.158 60.7988 187.838C61.3184 187.514 61.9199 187.352 62.6035 187.352C63.5098 187.352 64.2363 187.605 64.7832 188.113C65.3301 188.617 65.6484 189.316 65.7383 190.211H64.6074C64.5098 189.531 64.2969 189.039 63.9688 188.734C63.6445 188.43 63.1895 188.277 62.6035 188.277C61.8848 188.277 61.3203 188.543 60.9102 189.074C60.5039 189.605 60.3008 190.361 60.3008 191.342V192.168C60.3008 193.094 60.4941 193.83 60.8809 194.377C61.2676 194.924 61.8086 195.197 62.5039 195.197C63.1289 195.197 63.6074 195.057 63.9395 194.775C64.2754 194.49 64.498 193.996 64.6074 193.293H65.7383ZM73.8418 192.01C73.8418 192.846 73.7012 193.576 73.4199 194.201C73.1387 194.822 72.7402 195.297 72.2246 195.625C71.709 195.953 71.1074 196.117 70.4199 196.117C69.748 196.117 69.1523 195.953 68.6328 195.625C68.1133 195.293 67.709 194.822 67.4199 194.213C67.1348 193.6 66.9883 192.891 66.9805 192.086V191.471C66.9805 190.65 67.123 189.926 67.4082 189.297C67.6934 188.668 68.0957 188.188 68.6152 187.855C69.1387 187.52 69.7363 187.352 70.4082 187.352C71.0918 187.352 71.6934 187.518 72.2129 187.85C72.7363 188.178 73.1387 188.656 73.4199 189.285C73.7012 189.91 73.8418 190.639 73.8418 191.471V192.01ZM72.7227 191.459C72.7227 190.447 72.5195 189.672 72.1133 189.133C71.707 188.59 71.1387 188.318 70.4082 188.318C69.6973 188.318 69.1367 188.59 68.7266 189.133C68.3203 189.672 68.1113 190.422 68.0996 191.383V192.01C68.0996 192.99 68.3047 193.762 68.7148 194.324C69.1289 194.883 69.6973 195.162 70.4199 195.162C71.1465 195.162 71.709 194.898 72.1074 194.371C72.5059 193.84 72.7109 193.08 72.7227 192.092V191.459ZM76.9824 187.469L79.7715 194.43L82.5605 187.469H84.0195V196H82.8945V192.678L83 189.092L80.1992 196H79.3379L76.543 189.109L76.6543 192.678V196H75.5293V187.469H76.9824ZM87.1309 192.66V196H86.0059V187.469H89.1523C90.0859 187.469 90.8164 187.707 91.3438 188.184C91.875 188.66 92.1406 189.291 92.1406 190.076C92.1406 190.904 91.8809 191.543 91.3613 191.992C90.8457 192.438 90.1055 192.66 89.1406 192.66H87.1309ZM87.1309 191.74H89.1523C89.7539 191.74 90.2148 191.6 90.5352 191.318C90.8555 191.033 91.0156 190.623 91.0156 190.088C91.0156 189.58 90.8555 189.174 90.5352 188.869C90.2148 188.564 89.7754 188.406 89.2168 188.395H87.1309V191.74ZM97.4785 193.773H93.9043L93.1016 196H91.9414L95.1992 187.469H96.1836L99.4473 196H98.293L97.4785 193.773ZM94.2441 192.848H97.1445L95.6914 188.857L94.2441 192.848ZM103.725 192.549H101.721V196H100.59V187.469H103.414C104.375 187.469 105.113 187.688 105.629 188.125C106.148 188.562 106.408 189.199 106.408 190.035C106.408 190.566 106.264 191.029 105.975 191.424C105.689 191.818 105.291 192.113 104.779 192.309L106.783 195.93V196H105.576L103.725 192.549ZM101.721 191.629H103.449C104.008 191.629 104.451 191.484 104.779 191.195C105.111 190.906 105.277 190.52 105.277 190.035C105.277 189.508 105.119 189.104 104.803 188.822C104.49 188.541 104.037 188.398 103.443 188.395H101.721V191.629ZM112.701 193.773H109.127L108.324 196H107.164L110.422 187.469H111.406L114.67 196H113.516L112.701 193.773ZM109.467 192.848H112.367L110.914 188.857L109.467 192.848ZM120.951 188.395H118.209V196H117.09V188.395H114.354V187.469H120.951V188.395ZM128.615 192.01C128.615 192.846 128.475 193.576 128.193 194.201C127.912 194.822 127.514 195.297 126.998 195.625C126.482 195.953 125.881 196.117 125.193 196.117C124.521 196.117 123.926 195.953 123.406 195.625C122.887 195.293 122.482 194.822 122.193 194.213C121.908 193.6 121.762 192.891 121.754 192.086V191.471C121.754 190.65 121.896 189.926 122.182 189.297C122.467 188.668 122.869 188.188 123.389 187.855C123.912 187.52 124.51 187.352 125.182 187.352C125.865 187.352 126.467 187.518 126.986 187.85C127.51 188.178 127.912 188.656 128.193 189.285C128.475 189.91 128.615 190.639 128.615 191.471V192.01ZM127.496 191.459C127.496 190.447 127.293 189.672 126.887 189.133C126.48 188.59 125.912 188.318 125.182 188.318C124.471 188.318 123.91 188.59 123.5 189.133C123.094 189.672 122.885 190.422 122.873 191.383V192.01C122.873 192.99 123.078 193.762 123.488 194.324C123.902 194.883 124.471 195.162 125.193 195.162C125.92 195.162 126.482 194.898 126.881 194.371C127.279 193.84 127.484 193.08 127.496 192.092V191.459ZM133.432 192.549H131.428V196H130.297V187.469H133.121C134.082 187.469 134.82 187.688 135.336 188.125C135.855 188.562 136.115 189.199 136.115 190.035C136.115 190.566 135.971 191.029 135.682 191.424C135.396 191.818 134.998 192.113 134.486 192.309L136.49 195.93V196H135.283L133.432 192.549ZM131.428 191.629H133.156C133.715 191.629 134.158 191.484 134.486 191.195C134.818 190.906 134.984 190.52 134.984 190.035C134.984 189.508 134.826 189.104 134.51 188.822C134.197 188.541 133.744 188.398 133.15 188.395H131.428V191.629ZM142.52 192.057H138.822V195.08H143.117V196H137.697V187.469H143.059V188.395H138.822V191.137H142.52V192.057ZM85.9941 206.537C85.9941 205.654 86.1113 204.807 86.3457 203.994C86.584 203.182 86.9375 202.443 87.4062 201.779C87.875 201.115 88.3613 200.646 88.8652 200.373L89.0879 201.088C88.5176 201.525 88.0488 202.193 87.6816 203.092C87.3184 203.99 87.1191 204.996 87.084 206.109L87.0781 206.607C87.0781 208.115 87.3535 209.424 87.9043 210.533C88.2363 211.197 88.6309 211.717 89.0879 212.092L88.8652 212.754C88.3457 212.465 87.8496 211.98 87.377 211.301C86.4551 209.973 85.9941 208.385 85.9941 206.537ZM95.6152 210H90.0254V209.221L92.9785 205.939C93.416 205.443 93.7168 205.041 93.8809 204.732C94.0488 204.42 94.1328 204.098 94.1328 203.766C94.1328 203.32 93.998 202.955 93.7285 202.67C93.459 202.385 93.0996 202.242 92.6504 202.242C92.1113 202.242 91.6914 202.396 91.3906 202.705C91.0938 203.01 90.9453 203.436 90.9453 203.982H89.8613C89.8613 203.197 90.1133 202.562 90.6172 202.078C91.125 201.594 91.8027 201.352 92.6504 201.352C93.4434 201.352 94.0703 201.561 94.5312 201.979C94.9922 202.393 95.2227 202.945 95.2227 203.637C95.2227 204.477 94.6875 205.477 93.6172 206.637L91.332 209.115H95.6152V210ZM105.219 206.9C105.219 207.869 104.996 208.648 104.551 209.238C104.105 209.824 103.508 210.117 102.758 210.117C101.957 210.117 101.338 209.834 100.9 209.268L100.848 210H99.8516V201H100.936V204.357C101.373 203.814 101.977 203.543 102.746 203.543C103.516 203.543 104.119 203.834 104.557 204.416C104.998 204.998 105.219 205.795 105.219 206.807V206.9ZM104.135 206.777C104.135 206.039 103.992 205.469 103.707 205.066C103.422 204.664 103.012 204.463 102.477 204.463C101.762 204.463 101.248 204.795 100.936 205.459V208.201C101.268 208.865 101.785 209.197 102.488 209.197C103.008 209.197 103.412 208.996 103.701 208.594C103.99 208.191 104.135 207.586 104.135 206.777ZM107.768 210H106.684V203.66H107.768V210ZM106.596 201.979C106.596 201.803 106.648 201.654 106.754 201.533C106.863 201.412 107.023 201.352 107.234 201.352C107.445 201.352 107.605 201.412 107.715 201.533C107.824 201.654 107.879 201.803 107.879 201.979C107.879 202.154 107.824 202.301 107.715 202.418C107.605 202.535 107.445 202.594 107.234 202.594C107.023 202.594 106.863 202.535 106.754 202.418C106.648 202.301 106.596 202.154 106.596 201.979ZM110.979 202.125V203.66H112.162V204.498H110.979V208.43C110.979 208.684 111.031 208.875 111.137 209.004C111.242 209.129 111.422 209.191 111.676 209.191C111.801 209.191 111.973 209.168 112.191 209.121V210C111.906 210.078 111.629 210.117 111.359 210.117C110.875 210.117 110.51 209.971 110.264 209.678C110.018 209.385 109.895 208.969 109.895 208.43V204.498H108.74V203.66H109.895V202.125H110.979ZM115.936 206.596C115.936 207.467 115.82 208.303 115.59 209.104C115.363 209.9 115.014 210.637 114.541 211.312C114.072 211.988 113.58 212.469 113.064 212.754L112.836 212.092C113.438 211.631 113.92 210.916 114.283 209.947C114.65 208.975 114.838 207.896 114.846 206.713V206.525C114.846 205.705 114.76 204.943 114.588 204.24C114.416 203.533 114.176 202.9 113.867 202.342C113.562 201.783 113.219 201.348 112.836 201.035L113.064 200.373C113.58 200.658 114.07 201.135 114.535 201.803C115.004 202.471 115.354 203.207 115.584 204.012C115.818 204.816 115.936 205.678 115.936 206.596Z" fill="black"/>
<path d="M104.553 279.01C104.553 279.846 104.412 280.576 104.131 281.201C103.85 281.822 103.451 282.297 102.936 282.625C102.42 282.953 101.818 283.117 101.131 283.117C100.459 283.117 99.8633 282.953 99.3438 282.625C98.8242 282.293 98.4199 281.822 98.1309 281.213C97.8457 280.6 97.6992 279.891 97.6914 279.086V278.471C97.6914 277.65 97.834 276.926 98.1191 276.297C98.4043 275.668 98.8066 275.188 99.3262 274.855C99.8496 274.52 100.447 274.352 101.119 274.352C101.803 274.352 102.404 274.518 102.924 274.85C103.447 275.178 103.85 275.656 104.131 276.285C104.412 276.91 104.553 277.639 104.553 278.471V279.01ZM103.434 278.459C103.434 277.447 103.23 276.672 102.824 276.133C102.418 275.59 101.85 275.318 101.119 275.318C100.408 275.318 99.8477 275.59 99.4375 276.133C99.0312 276.672 98.8223 277.422 98.8105 278.383V279.01C98.8105 279.99 99.0156 280.762 99.4258 281.324C99.8398 281.883 100.408 282.162 101.131 282.162C101.857 282.162 102.42 281.898 102.818 281.371C103.217 280.84 103.422 280.08 103.434 279.092V278.459Z" fill="black"/>
<path d="M32.7012 107.773H29.127L28.3242 110H27.1641L30.4219 101.469H31.4062L34.6699 110H33.5156L32.7012 107.773ZM29.4668 106.848H32.3672L30.9141 102.857L29.4668 106.848ZM39.0996 110H38.0098V102.775L35.8242 103.578V102.594L38.9297 101.428H39.0996V110ZM50.2441 107.773H46.6699L45.8672 110H44.707L47.9648 101.469H48.9492L52.2129 110H51.0586L50.2441 107.773ZM47.0098 106.848H49.9102L48.457 102.857L47.0098 106.848ZM58.4297 106.361C58.4297 107.631 58.2129 108.574 57.7793 109.191C57.3457 109.809 56.668 110.117 55.7461 110.117C54.8359 110.117 54.1621 109.816 53.7246 109.215C53.2871 108.609 53.0605 107.707 53.0449 106.508V105.061C53.0449 103.807 53.2617 102.875 53.6953 102.266C54.1289 101.656 54.8086 101.352 55.7344 101.352C56.6523 101.352 57.3281 101.646 57.7617 102.236C58.1953 102.822 58.418 103.729 58.4297 104.955V106.361ZM57.3457 104.879C57.3457 103.961 57.2168 103.293 56.959 102.875C56.7012 102.453 56.293 102.242 55.7344 102.242C55.1797 102.242 54.7754 102.451 54.5215 102.869C54.2676 103.287 54.1367 103.93 54.1289 104.797V106.531C54.1289 107.453 54.2617 108.135 54.5273 108.576C54.7969 109.014 55.2031 109.232 55.7461 109.232C56.2812 109.232 56.6777 109.025 56.9355 108.611C57.1973 108.197 57.334 107.545 57.3457 106.654V104.879Z" fill="black"/>
<path d="M145.99 110V101.469H148.779C149.705 101.469 150.4 101.66 150.865 102.043C151.334 102.426 151.568 102.992 151.568 103.742C151.568 104.141 151.455 104.494 151.229 104.803C151.002 105.107 150.693 105.344 150.303 105.512C150.764 105.641 151.127 105.887 151.393 106.25C151.662 106.609 151.797 107.039 151.797 107.539C151.797 108.305 151.549 108.906 151.053 109.344C150.557 109.781 149.855 110 148.949 110H145.99ZM147.115 106.01V109.08H148.973C149.496 109.08 149.908 108.945 150.209 108.676C150.514 108.402 150.666 108.027 150.666 107.551C150.666 106.523 150.107 106.01 148.99 106.01H147.115ZM147.115 105.107H148.814C149.307 105.107 149.699 104.984 149.992 104.738C150.289 104.492 150.438 104.158 150.438 103.736C150.438 103.268 150.301 102.928 150.027 102.717C149.754 102.502 149.338 102.395 148.779 102.395H147.115V105.107ZM156.748 110H155.658V102.775L153.473 103.578V102.594L156.578 101.428H156.748V110ZM163.182 110V101.469H165.971C166.896 101.469 167.592 101.66 168.057 102.043C168.525 102.426 168.76 102.992 168.76 103.742C168.76 104.141 168.646 104.494 168.42 104.803C168.193 105.107 167.885 105.344 167.494 105.512C167.955 105.641 168.318 105.887 168.584 106.25C168.854 106.609 168.988 107.039 168.988 107.539C168.988 108.305 168.74 108.906 168.244 109.344C167.748 109.781 167.047 110 166.141 110H163.182ZM164.307 106.01V109.08H166.164C166.688 109.08 167.1 108.945 167.4 108.676C167.705 108.402 167.857 108.027 167.857 107.551C167.857 106.523 167.299 106.01 166.182 106.01H164.307ZM164.307 105.107H166.006C166.498 105.107 166.891 104.984 167.184 104.738C167.48 104.492 167.629 104.158 167.629 103.736C167.629 103.268 167.492 102.928 167.219 102.717C166.945 102.502 166.529 102.395 165.971 102.395H164.307V105.107ZM175.727 106.361C175.727 107.631 175.51 108.574 175.076 109.191C174.643 109.809 173.965 110.117 173.043 110.117C172.133 110.117 171.459 109.816 171.021 109.215C170.584 108.609 170.357 107.707 170.342 106.508V105.061C170.342 103.807 170.559 102.875 170.992 102.266C171.426 101.656 172.105 101.352 173.031 101.352C173.949 101.352 174.625 101.646 175.059 102.236C175.492 102.822 175.715 103.729 175.727 104.955V106.361ZM174.643 104.879C174.643 103.961 174.514 103.293 174.256 102.875C173.998 102.453 173.59 102.242 173.031 102.242C172.477 102.242 172.072 102.451 171.818 102.869C171.564 103.287 171.434 103.93 171.426 104.797V106.531C171.426 107.453 171.559 108.135 171.824 108.576C172.094 109.014 172.5 109.232 173.043 109.232C173.578 109.232 173.975 109.025 174.232 108.611C174.494 108.197 174.631 107.545 174.643 106.654V104.879Z" fill="black"/>
<path d="M44.2988 8.77344H40.7246L39.9219 11H38.7617L42.0195 2.46875H43.0039L46.2676 11H45.1133L44.2988 8.77344ZM41.0645 7.84766H43.9648L42.5117 3.85742L41.0645 7.84766ZM28.9941 21.5371C28.9941 20.6543 29.1113 19.8066 29.3457 18.9941C29.584 18.1816 29.9375 17.4434 30.4062 16.7793C30.875 16.1152 31.3613 15.6465 31.8652 15.373L32.0879 16.0879C31.5176 16.5254 31.0488 17.1934 30.6816 18.0918C30.3184 18.9902 30.1191 19.9961 30.084 21.1094L30.0781 21.6074C30.0781 23.1152 30.3535 24.4238 30.9043 25.5332C31.2363 26.1973 31.6309 26.7168 32.0879 27.0918L31.8652 27.7539C31.3457 27.4648 30.8496 26.9805 30.377 26.3008C29.4551 24.9727 28.9941 23.3848 28.9941 21.5371ZM38.6152 25H33.0254V24.2207L35.9785 20.9395C36.416 20.4434 36.7168 20.041 36.8809 19.7324C37.0488 19.4199 37.1328 19.0977 37.1328 18.7656C37.1328 18.3203 36.998 17.9551 36.7285 17.6699C36.459 17.3848 36.0996 17.2422 35.6504 17.2422C35.1113 17.2422 34.6914 17.3965 34.3906 17.7051C34.0938 18.0098 33.9453 18.4355 33.9453 18.9824H32.8613C32.8613 18.1973 33.1133 17.5625 33.6172 17.0781C34.125 16.5938 34.8027 16.3516 35.6504 16.3516C36.4434 16.3516 37.0703 16.5605 37.5312 16.9785C37.9922 17.3926 38.2227 17.9453 38.2227 18.6367C38.2227 19.4766 37.6875 20.4766 36.6172 21.6367L34.332 24.1152H38.6152V25ZM48.2188 21.9004C48.2188 22.8691 47.9961 23.6484 47.5508 24.2383C47.1055 24.8242 46.5078 25.1172 45.7578 25.1172C44.957 25.1172 44.3379 24.834 43.9004 24.2676L43.8477 25H42.8516V16H43.9355V19.3574C44.373 18.8145 44.9766 18.543 45.7461 18.543C46.5156 18.543 47.1191 18.834 47.5566 19.416C47.998 19.998 48.2188 20.7949 48.2188 21.8066V21.9004ZM47.1348 21.7773C47.1348 21.0391 46.9922 20.4688 46.707 20.0664C46.4219 19.6641 46.0117 19.4629 45.4766 19.4629C44.7617 19.4629 44.248 19.7949 43.9355 20.459V23.2012C44.2676 23.8652 44.7852 24.1973 45.4883 24.1973C46.0078 24.1973 46.4121 23.9961 46.7012 23.5938C46.9902 23.1914 47.1348 22.5859 47.1348 21.7773ZM50.7676 25H49.6836V18.6602H50.7676V25ZM49.5957 16.9785C49.5957 16.8027 49.6484 16.6543 49.7539 16.5332C49.8633 16.4121 50.0234 16.3516 50.2344 16.3516C50.4453 16.3516 50.6055 16.4121 50.7148 16.5332C50.8242 16.6543 50.8789 16.8027 50.8789 16.9785C50.8789 17.1543 50.8242 17.3008 50.7148 17.418C50.6055 17.5352 50.4453 17.5938 50.2344 17.5938C50.0234 17.5938 49.8633 17.5352 49.7539 17.418C49.6484 17.3008 49.5957 17.1543 49.5957 16.9785ZM53.9785 17.125V18.6602H55.1621V19.498H53.9785V23.4297C53.9785 23.6836 54.0312 23.875 54.1367 24.0039C54.2422 24.1289 54.4219 24.1914 54.6758 24.1914C54.8008 24.1914 54.9727 24.168 55.1914 24.1211V25C54.9062 25.0781 54.6289 25.1172 54.3594 25.1172C53.875 25.1172 53.5098 24.9707 53.2637 24.6777C53.0176 24.3848 52.8945 23.9688 52.8945 23.4297V19.498H51.7402V18.6602H52.8945V17.125H53.9785ZM58.9355 21.5957C58.9355 22.4668 58.8203 23.3027 58.5898 24.1035C58.3633 24.9004 58.0137 25.6367 57.541 26.3125C57.0723 26.9883 56.5801 27.4688 56.0645 27.7539L55.8359 27.0918C56.4375 26.6309 56.9199 25.916 57.2832 24.9473C57.6504 23.9746 57.8379 22.8965 57.8457 21.7129V21.5254C57.8457 20.7051 57.7598 19.9434 57.5879 19.2402C57.416 18.5332 57.1758 17.9004 56.8672 17.3418C56.5625 16.7832 56.2188 16.3477 55.8359 16.0352L56.0645 15.373C56.5801 15.6582 57.0703 16.1348 57.5352 16.8027C58.0039 17.4707 58.3535 18.207 58.584 19.0117C58.8184 19.8164 58.9355 20.6777 58.9355 21.5957Z" fill="black"/>
<path d="M156.764 11V2.46875H159.553C160.479 2.46875 161.174 2.66016 161.639 3.04297C162.107 3.42578 162.342 3.99219 162.342 4.74219C162.342 5.14062 162.229 5.49414 162.002 5.80273C161.775 6.10742 161.467 6.34375 161.076 6.51172C161.537 6.64062 161.9 6.88672 162.166 7.25C162.436 7.60938 162.57 8.03906 162.57 8.53906C162.57 9.30469 162.322 9.90625 161.826 10.3438C161.33 10.7812 160.629 11 159.723 11H156.764ZM157.889 7.00977V10.0801H159.746C160.27 10.0801 160.682 9.94531 160.982 9.67578C161.287 9.40234 161.439 9.02734 161.439 8.55078C161.439 7.52344 160.881 7.00977 159.764 7.00977H157.889ZM157.889 6.10742H159.588C160.08 6.10742 160.473 5.98438 160.766 5.73828C161.062 5.49219 161.211 5.1582 161.211 4.73633C161.211 4.26758 161.074 3.92773 160.801 3.7168C160.527 3.50195 160.111 3.39453 159.553 3.39453H157.889V6.10742ZM145.994 21.5371C145.994 20.6543 146.111 19.8066 146.346 18.9941C146.584 18.1816 146.938 17.4434 147.406 16.7793C147.875 16.1152 148.361 15.6465 148.865 15.373L149.088 16.0879C148.518 16.5254 148.049 17.1934 147.682 18.0918C147.318 18.9902 147.119 19.9961 147.084 21.1094L147.078 21.6074C147.078 23.1152 147.354 24.4238 147.904 25.5332C148.236 26.1973 148.631 26.7168 149.088 27.0918L148.865 27.7539C148.346 27.4648 147.85 26.9805 147.377 26.3008C146.455 24.9727 145.994 23.3848 145.994 21.5371ZM155.615 25H150.025V24.2207L152.979 20.9395C153.416 20.4434 153.717 20.041 153.881 19.7324C154.049 19.4199 154.133 19.0977 154.133 18.7656C154.133 18.3203 153.998 17.9551 153.729 17.6699C153.459 17.3848 153.1 17.2422 152.65 17.2422C152.111 17.2422 151.691 17.3965 151.391 17.7051C151.094 18.0098 150.945 18.4355 150.945 18.9824H149.861C149.861 18.1973 150.113 17.5625 150.617 17.0781C151.125 16.5938 151.803 16.3516 152.65 16.3516C153.443 16.3516 154.07 16.5605 154.531 16.9785C154.992 17.3926 155.223 17.9453 155.223 18.6367C155.223 19.4766 154.688 20.4766 153.617 21.6367L151.332 24.1152H155.615V25ZM165.219 21.9004C165.219 22.8691 164.996 23.6484 164.551 24.2383C164.105 24.8242 163.508 25.1172 162.758 25.1172C161.957 25.1172 161.338 24.834 160.9 24.2676L160.848 25H159.852V16H160.936V19.3574C161.373 18.8145 161.977 18.543 162.746 18.543C163.516 18.543 164.119 18.834 164.557 19.416C164.998 19.998 165.219 20.7949 165.219 21.8066V21.9004ZM164.135 21.7773C164.135 21.0391 163.992 20.4688 163.707 20.0664C163.422 19.6641 163.012 19.4629 162.477 19.4629C161.762 19.4629 161.248 19.7949 160.936 20.459V23.2012C161.268 23.8652 161.785 24.1973 162.488 24.1973C163.008 24.1973 163.412 23.9961 163.701 23.5938C163.99 23.1914 164.135 22.5859 164.135 21.7773ZM167.768 25H166.684V18.6602H167.768V25ZM166.596 16.9785C166.596 16.8027 166.648 16.6543 166.754 16.5332C166.863 16.4121 167.023 16.3516 167.234 16.3516C167.445 16.3516 167.605 16.4121 167.715 16.5332C167.824 16.6543 167.879 16.8027 167.879 16.9785C167.879 17.1543 167.824 17.3008 167.715 17.418C167.605 17.5352 167.445 17.5938 167.234 17.5938C167.023 17.5938 166.863 17.5352 166.754 17.418C166.648 17.3008 166.596 17.1543 166.596 16.9785ZM170.979 17.125V18.6602H172.162V19.498H170.979V23.4297C170.979 23.6836 171.031 23.875 171.137 24.0039C171.242 24.1289 171.422 24.1914 171.676 24.1914C171.801 24.1914 171.973 24.168 172.191 24.1211V25C171.906 25.0781 171.629 25.1172 171.359 25.1172C170.875 25.1172 170.51 24.9707 170.264 24.6777C170.018 24.3848 169.895 23.9688 169.895 23.4297V19.498H168.74V18.6602H169.895V17.125H170.979ZM175.936 21.5957C175.936 22.4668 175.82 23.3027 175.59 24.1035C175.363 24.9004 175.014 25.6367 174.541 26.3125C174.072 26.9883 173.58 27.4688 173.064 27.7539L172.836 27.0918C173.438 26.6309 173.92 25.916 174.283 24.9473C174.65 23.9746 174.838 22.8965 174.846 21.7129V21.5254C174.846 20.7051 174.76 19.9434 174.588 19.2402C174.416 18.5332 174.176 17.9004 173.867 17.3418C173.562 16.7832 173.219 16.3477 172.836 16.0352L173.064 15.373C173.58 15.6582 174.07 16.1348 174.535 16.8027C175.004 17.4707 175.354 18.207 175.584 19.0117C175.818 19.8164 175.936 20.6777 175.936 21.5957Z" fill="black"/>
</svg>
