<svg width="190" height="344" viewBox="0 0 190 344" fill="none" xmlns="http://www.w3.org/2000/svg">
<path d="M1.98047 22L1.98047 4.9375L7.55859 4.9375C9.41016 4.9375 10.8008 5.32031 11.7305 6.08594C12.668 6.85156 13.1367 7.98437 13.1367 9.48437C13.1367 10.2812 12.9102 10.9883 12.457 11.6055C12.0039 12.2148 11.3867 12.6875 10.6055 13.0234C11.5273 13.2812 12.2539 13.7734 12.7852 14.5C13.3242 15.2187 13.5938 16.0781 13.5938 17.0781C13.5938 18.6094 13.0977 19.8125 12.1055 20.6875C11.1133 21.5625 9.71094 22 7.89844 22H1.98047ZM4.23047 14.0195L4.23047 20.1602H7.94531C8.99219 20.1602 9.81641 19.8906 10.418 19.3516C11.0273 18.8047 11.332 18.0547 11.332 17.1016C11.332 15.0469 10.2148 14.0195 7.98047 14.0195L4.23047 14.0195ZM4.23047 12.2148L7.62891 12.2148C8.61328 12.2148 9.39844 11.9687 9.98438 11.4766C10.5781 10.9844 10.875 10.3164 10.875 9.47266C10.875 8.53516 10.6016 7.85547 10.0547 7.43359C9.50781 7.00391 8.67578 6.78906 7.55859 6.78906H4.23047L4.23047 12.2148ZM23.4961 22H21.3164L21.3164 7.55078L16.9453 9.15625V7.1875L23.1562 4.85547H23.4961L23.4961 22Z" fill="black"/>
<path d="M55.9023 18.0469L48.7539 18.0469L47.1484 22.5H44.8281L51.3438 5.4375L53.3125 5.4375L59.8398 22.5H57.5312L55.9023 18.0469ZM49.4336 16.1953H55.2344L52.3281 8.21484L49.4336 16.1953ZM68.6992 22.5H66.5195V8.05078L62.1484 9.65625V7.6875L68.3594 5.35547H68.6992V22.5Z" fill="black"/>
<path d="M32.5 105L32.5 178.5M42.5 53.8857L42.5 28.5M22.5 54.8621L22.5 28.5" stroke="black" stroke-width="2"/>
<path fill-rule="evenodd" clip-rule="evenodd" d="M15.5 47.75C12.8556 46.1526 12.5 45.5 12.5 45.5L12.5 41.8437L14.9375 43.8437C14.9375 43.8437 21.9375 49.5 32.5 49.5C43.0625 49.5 50.0625 43.8437 50.0625 43.8437L52.5 41.8438L52.5 45.5C51.5625 46.2812 50.8437 46.9219 49.5 47.7187C46.4002 49.5915 40.4733 52.5 32.5 52.5C24.5493 52.5 18.6206 49.6033 15.5 47.75Z" fill="black"/>
<path fill-rule="evenodd" clip-rule="evenodd" d="M52.5 47.5938L50.0625 49.5937C50.0625 49.5937 43.0625 55.25 32.5 55.25C21.9375 55.25 14.9375 49.5937 14.9375 49.5937L12.5 47.5937L12.5 64.75C12.5 67.1581 12.4755 72.4397 14.9062 78.375C17.337 84.3103 22.2495 90.9115 31.7812 96.0625L32.5 94.75L33.2187 96.0625C52.2844 85.7594 52.5 69.5066 52.5 64.75L52.5 47.5938ZM49.5 53.4687L49.5 64.75C49.5 69.4342 49.6302 83.0368 32.5 92.7187C24.0709 87.952 19.8161 82.1975 17.6875 77C15.4921 71.6393 15.5 67.1581 15.5 64.75L15.5 53.5C18.6084 55.3736 24.5493 58.25 32.5 58.25C40.4733 58.25 46.4002 55.3415 49.5 53.4687Z" fill="black"/>
<path d="M36.5 100.5C36.5 101.561 36.0786 102.578 35.3284 103.328C34.5783 104.079 33.5609 104.5 32.5 104.5C31.4391 104.5 30.4217 104.079 29.6716 103.328C28.9214 102.578 28.5 101.561 28.5 100.5C28.5 99.4391 28.9214 98.4217 29.6716 97.6716C30.4217 96.9214 31.4391 96.5 32.5 96.5C33.5609 96.5 34.5783 96.9214 35.3284 97.6716C36.0786 98.4217 36.5 99.4391 36.5 100.5Z" stroke="black" stroke-width="3"/>
<path d="M117.48 22.5V5.4375L123.059 5.4375C124.91 5.4375 126.301 5.82031 127.23 6.58594C128.168 7.35156 128.637 8.48437 128.637 9.98437C128.637 10.7812 128.41 11.4883 127.957 12.1055C127.504 12.7148 126.887 13.1875 126.105 13.5234C127.027 13.7812 127.754 14.2734 128.285 15C128.824 15.7187 129.094 16.5781 129.094 17.5781C129.094 19.1094 128.598 20.3125 127.605 21.1875C126.613 22.0625 125.211 22.5 123.398 22.5H117.48ZM119.73 14.5195V20.6602H123.445C124.492 20.6602 125.316 20.3906 125.918 19.8516C126.527 19.3047 126.832 18.5547 126.832 17.6016C126.832 15.5469 125.715 14.5195 123.48 14.5195L119.73 14.5195ZM119.73 12.7148L123.129 12.7148C124.113 12.7148 124.898 12.4687 125.484 11.9766C126.078 11.4844 126.375 10.8164 126.375 9.97266C126.375 9.03516 126.102 8.35547 125.555 7.93359C125.008 7.50391 124.176 7.28906 123.059 7.28906H119.73V12.7148ZM142.57 15.2227C142.57 17.7617 142.137 19.6484 141.27 20.8828C140.402 22.1172 139.047 22.7344 137.203 22.7344C135.383 22.7344 134.035 22.1328 133.16 20.9297C132.285 19.7187 131.832 17.9141 131.801 15.5156V12.6211C131.801 10.1133 132.234 8.25 133.102 7.03125C133.969 5.8125 135.328 5.20312 137.18 5.20312C139.016 5.20312 140.367 5.79297 141.234 6.97266C142.102 8.14453 142.547 9.95703 142.57 12.4102V15.2227ZM140.402 12.2578C140.402 10.4219 140.145 9.08594 139.629 8.25C139.113 7.40625 138.297 6.98437 137.18 6.98437C136.07 6.98437 135.262 7.40234 134.754 8.23828C134.246 9.07422 133.984 10.3594 133.969 12.0937V15.5625C133.969 17.4062 134.234 18.7695 134.766 19.6523C135.305 20.5273 136.117 20.9648 137.203 20.9648C138.273 20.9648 139.066 20.5508 139.582 19.7227C140.105 18.8945 140.379 17.5898 140.402 15.8086V12.2578Z" fill="black"/>
<path d="M171.402 18.5469L164.254 18.5469L162.648 23H160.328L166.844 5.9375L168.812 5.9375L175.34 23H173.031L171.402 18.5469ZM164.934 16.6953H170.734L167.828 8.71484L164.934 16.6953ZM187.773 15.7227C187.773 18.2617 187.34 20.1484 186.473 21.3828C185.605 22.6172 184.25 23.2344 182.406 23.2344C180.586 23.2344 179.238 22.6328 178.363 21.4297C177.488 20.2187 177.035 18.4141 177.004 16.0156V13.1211C177.004 10.6133 177.438 8.75 178.305 7.53125C179.172 6.3125 180.531 5.70312 182.383 5.70312C184.219 5.70312 185.57 6.29297 186.438 7.47266C187.305 8.64453 187.75 10.457 187.773 12.9102V15.7227ZM185.605 12.7578C185.605 10.9219 185.348 9.58594 184.832 8.75C184.316 7.90625 183.5 7.48437 182.383 7.48437C181.273 7.48437 180.465 7.90234 179.957 8.73828C179.449 9.57422 179.188 10.8594 179.172 12.5937V16.0625C179.172 17.9062 179.438 19.2695 179.969 20.1523C180.508 21.0273 181.32 21.4648 182.406 21.4648C183.477 21.4648 184.27 21.0508 184.785 20.2227C185.309 19.3945 185.582 18.0898 185.605 16.3086V12.7578Z" fill="black"/>
<path d="M99.6055 329.52C99.6055 331.191 99.3242 332.652 98.7617 333.902C98.1992 335.145 97.4023 336.094 96.3711 336.75C95.3398 337.406 94.1367 337.734 92.7617 337.734C91.418 337.734 90.2266 337.406 89.1875 336.75C88.1484 336.086 87.3398 335.145 86.7617 333.926C86.1914 332.699 85.8984 331.281 85.8828 329.672V328.441C85.8828 326.801 86.168 325.352 86.7383 324.094C87.3086 322.836 88.1133 321.875 89.1523 321.211C90.1992 320.539 91.3945 320.203 92.7383 320.203C94.1055 320.203 95.3086 320.535 96.3477 321.199C97.3945 321.855 98.1992 322.812 98.7617 324.07C99.3242 325.32 99.6055 326.777 99.6055 328.441V329.52ZM97.3672 328.418C97.3672 326.395 96.9609 324.844 96.1484 323.766C95.3359 322.68 94.1992 322.137 92.7383 322.137C91.3164 322.137 90.1953 322.68 89.375 323.766C88.5625 324.844 88.1445 326.344 88.1211 328.266V329.52C88.1211 331.48 88.5312 333.023 89.3516 334.148C90.1797 335.266 91.3164 335.824 92.7617 335.824C94.2148 335.824 95.3398 335.297 96.1367 334.242C96.9336 333.18 97.3438 331.66 97.3672 329.684V328.418Z" fill="black"/>
<path d="M148 105.5L148 179M158 54.3857L158 29M138 55.3621L138 29" stroke="black" stroke-width="2"/>
<path fill-rule="evenodd" clip-rule="evenodd" d="M131 48.25C128.356 46.6526 128 46 128 46L128 42.3437L130.437 44.3437C130.437 44.3437 137.438 50 148 50C158.562 50 165.562 44.3437 165.562 44.3437L168 42.3438L168 46C167.062 46.7812 166.344 47.4219 165 48.2187C161.9 50.0915 155.973 53 148 53C140.049 53 134.121 50.1033 131 48.25Z" fill="black"/>
<path fill-rule="evenodd" clip-rule="evenodd" d="M168 48.0938L165.562 50.0937C165.562 50.0937 158.562 55.75 148 55.75C137.438 55.75 130.437 50.0937 130.437 50.0937L128 48.0937L128 65.25C128 67.6581 127.975 72.9397 130.406 78.875C132.837 84.8103 137.75 91.4115 147.281 96.5625L148 95.25L148.719 96.5625C167.784 86.2594 168 70.0066 168 65.25L168 48.0938ZM165 53.9687L165 65.25C165 69.9342 165.13 83.5368 148 93.2187C139.571 88.452 135.316 82.6975 133.187 77.5C130.992 72.1393 131 67.6581 131 65.25L131 54C134.108 55.8736 140.049 58.75 148 58.75C155.973 58.75 161.9 55.8415 165 53.9687Z" fill="black"/>
<path d="M152 101C152 102.061 151.579 103.078 150.828 103.828C150.078 104.579 149.061 105 148 105C146.939 105 145.922 104.579 145.172 103.828C144.421 103.078 144 102.061 144 101C144 99.9391 144.421 98.9217 145.172 98.1716C145.922 97.4214 146.939 97 148 97C149.061 97 150.078 97.4214 150.828 98.1716C151.579 98.9217 152 99.9391 152 101Z" stroke="black" stroke-width="3"/>
<path d="M112.5 225.5L72.5 225.5L72.5 245.976C72.5 257.244 81.5 265.976 92.5 265.976C103.5 265.976 112.5 257.244 112.5 245.976L112.5 225.5ZM109.643 228.357L109.643 245.976C109.643 255.737 102.003 262.643 92.5 262.643C82.9971 262.643 75.3571 255.261 75.3571 245.5L75.3571 228.357L109.643 228.357V228.357Z" fill="black"/>
<line x1="32.5" y1="177.5" x2="81.5" y2="177.5" stroke="black" stroke-width="2"/>
<line x1="105.5" y1="226.5" x2="105.5" y2="177.5" stroke="black" stroke-width="2"/>
<line x1="92.5" y1="314.5" x2="92.5" y2="265.5" stroke="black" stroke-width="2"/>
<line x1="81.5" y1="176.5" x2="81.5" y2="225.5" stroke="black" stroke-width="2"/>
<line x1="105.5" y1="178.5" x2="148.5" y2="178.5" stroke="black" stroke-width="2"/>
</svg>
