<svg width="321" height="344" viewBox="0 0 321 344" fill="none" xmlns="http://www.w3.org/2000/svg">
<path d="M166.98 22V4.9375L172.559 4.9375C174.41 4.9375 175.801 5.32031 176.73 6.08594C177.668 6.85156 178.137 7.98437 178.137 9.48437C178.137 10.2812 177.91 10.9883 177.457 11.6055C177.004 12.2148 176.387 12.6875 175.605 13.0234C176.527 13.2812 177.254 13.7734 177.785 14.5C178.324 15.2187 178.594 16.0781 178.594 17.0781C178.594 18.6094 178.098 19.8125 177.105 20.6875C176.113 21.5625 174.711 22 172.898 22H166.98ZM169.23 14.0195V20.1602H172.945C173.992 20.1602 174.816 19.8906 175.418 19.3516C176.027 18.8047 176.332 18.0547 176.332 17.1016C176.332 15.0469 175.215 14.0195 172.98 14.0195L169.23 14.0195ZM169.23 12.2148L172.629 12.2148C173.613 12.2148 174.398 11.9687 174.984 11.4766C175.578 10.9844 175.875 10.3164 175.875 9.47266C175.875 8.53516 175.602 7.85547 175.055 7.43359C174.508 7.00391 173.676 6.78906 172.559 6.78906H169.23V12.2148ZM188.496 22H186.316V7.55078L181.945 9.15625V7.1875L188.156 4.85547H188.496V22Z" fill="black"/>
<path d="M220.902 18.0469L213.754 18.0469L212.148 22.5H209.828L216.344 5.4375L218.312 5.4375L224.84 22.5H222.531L220.902 18.0469ZM214.434 16.1953H220.234L217.328 8.21484L214.434 16.1953ZM233.699 22.5H231.52V8.05078L227.148 9.65625V7.6875L233.359 5.35547H233.699V22.5Z" fill="black"/>
<path d="M197.5 105L197.5 227.5M207.5 53.8857L207.5 28.5M187.5 54.8621L187.5 28.5" stroke="black" stroke-width="2"/>
<path fill-rule="evenodd" clip-rule="evenodd" d="M180.5 47.75C177.856 46.1526 177.5 45.5 177.5 45.5L177.5 41.8437L179.937 43.8437C179.937 43.8437 186.938 49.5 197.5 49.5C208.062 49.5 215.062 43.8437 215.062 43.8437L217.5 41.8438L217.5 45.5C216.562 46.2812 215.844 46.9219 214.5 47.7187C211.4 49.5915 205.473 52.5 197.5 52.5C189.549 52.5 183.621 49.6033 180.5 47.75Z" fill="black"/>
<path fill-rule="evenodd" clip-rule="evenodd" d="M217.5 47.5938L215.062 49.5937C215.062 49.5937 208.062 55.25 197.5 55.25C186.938 55.25 179.937 49.5937 179.937 49.5937L177.5 47.5937L177.5 64.75C177.5 67.1581 177.475 72.4397 179.906 78.375C182.337 84.3103 187.25 90.9115 196.781 96.0625L197.5 94.75L198.219 96.0625C217.284 85.7594 217.5 69.5066 217.5 64.75L217.5 47.5938ZM214.5 53.4687L214.5 64.75C214.5 69.4342 214.63 83.0368 197.5 92.7187C189.071 87.952 184.816 82.1975 182.687 77C180.492 71.6393 180.5 67.1581 180.5 64.75L180.5 53.5C183.608 55.3736 189.549 58.25 197.5 58.25C205.473 58.25 211.4 55.3415 214.5 53.4687Z" fill="black"/>
<path d="M201.5 100.5C201.5 101.561 201.079 102.578 200.328 103.328C199.578 104.079 198.561 104.5 197.5 104.5C196.439 104.5 195.422 104.079 194.672 103.328C193.921 102.578 193.5 101.561 193.5 100.5C193.5 99.4391 193.921 98.4217 194.672 97.6716C195.422 96.9214 196.439 96.5 197.5 96.5C198.561 96.5 199.578 96.9214 200.328 97.6716C201.079 98.4217 201.5 99.4391 201.5 100.5Z" stroke="black" stroke-width="3"/>
<path d="M248.48 22.5V5.4375L254.059 5.4375C255.91 5.4375 257.301 5.82031 258.23 6.58594C259.168 7.35156 259.637 8.48437 259.637 9.98437C259.637 10.7812 259.41 11.4883 258.957 12.1055C258.504 12.7148 257.887 13.1875 257.105 13.5234C258.027 13.7812 258.754 14.2734 259.285 15C259.824 15.7187 260.094 16.5781 260.094 17.5781C260.094 19.1094 259.598 20.3125 258.605 21.1875C257.613 22.0625 256.211 22.5 254.398 22.5H248.48ZM250.73 14.5195V20.6602H254.445C255.492 20.6602 256.316 20.3906 256.918 19.8516C257.527 19.3047 257.832 18.5547 257.832 17.6016C257.832 15.5469 256.715 14.5195 254.48 14.5195L250.73 14.5195ZM250.73 12.7148L254.129 12.7148C255.113 12.7148 255.898 12.4687 256.484 11.9766C257.078 11.4844 257.375 10.8164 257.375 9.97266C257.375 9.03516 257.102 8.35547 256.555 7.93359C256.008 7.50391 255.176 7.28906 254.059 7.28906H250.73V12.7148ZM273.57 15.2227C273.57 17.7617 273.137 19.6484 272.27 20.8828C271.402 22.1172 270.047 22.7344 268.203 22.7344C266.383 22.7344 265.035 22.1328 264.16 20.9297C263.285 19.7187 262.832 17.9141 262.801 15.5156V12.6211C262.801 10.1133 263.234 8.25 264.102 7.03125C264.969 5.8125 266.328 5.20312 268.18 5.20312C270.016 5.20312 271.367 5.79297 272.234 6.97266C273.102 8.14453 273.547 9.95703 273.57 12.4102V15.2227ZM271.402 12.2578C271.402 10.4219 271.145 9.08594 270.629 8.25C270.113 7.40625 269.297 6.98437 268.18 6.98437C267.07 6.98437 266.262 7.40234 265.754 8.23828C265.246 9.07422 264.984 10.3594 264.969 12.0937V15.5625C264.969 17.4062 265.234 18.7695 265.766 19.6523C266.305 20.5273 267.117 20.9648 268.203 20.9648C269.273 20.9648 270.066 20.5508 270.582 19.7227C271.105 18.8945 271.379 17.5898 271.402 15.8086V12.2578Z" fill="black"/>
<path d="M302.402 18.5469L295.254 18.5469L293.648 23H291.328L297.844 5.9375L299.812 5.9375L306.34 23H304.031L302.402 18.5469ZM295.934 16.6953H301.734L298.828 8.71484L295.934 16.6953ZM318.773 15.7227C318.773 18.2617 318.34 20.1484 317.473 21.3828C316.605 22.6172 315.25 23.2344 313.406 23.2344C311.586 23.2344 310.238 22.6328 309.363 21.4297C308.488 20.2187 308.035 18.4141 308.004 16.0156V13.1211C308.004 10.6133 308.438 8.75 309.305 7.53125C310.172 6.3125 311.531 5.70312 313.383 5.70312C315.219 5.70312 316.57 6.29297 317.438 7.47266C318.305 8.64453 318.75 10.457 318.773 12.9102V15.7227ZM316.605 12.7578C316.605 10.9219 316.348 9.58594 315.832 8.75C315.316 7.90625 314.5 7.48437 313.383 7.48437C312.273 7.48437 311.465 7.90234 310.957 8.73828C310.449 9.57422 310.188 10.8594 310.172 12.5937V16.0625C310.172 17.9062 310.438 19.2695 310.969 20.1523C311.508 21.0273 312.32 21.4648 313.406 21.4648C314.477 21.4648 315.27 21.0508 315.785 20.2227C316.309 19.3945 316.582 18.0898 316.605 16.3086V12.7578Z" fill="black"/>
<path d="M201.605 329.52C201.605 331.191 201.324 332.652 200.762 333.902C200.199 335.145 199.402 336.094 198.371 336.75C197.34 337.406 196.137 337.734 194.762 337.734C193.418 337.734 192.227 337.406 191.188 336.75C190.148 336.086 189.34 335.145 188.762 333.926C188.191 332.699 187.898 331.281 187.883 329.672V328.441C187.883 326.801 188.168 325.352 188.738 324.094C189.309 322.836 190.113 321.875 191.152 321.211C192.199 320.539 193.395 320.203 194.738 320.203C196.105 320.203 197.309 320.535 198.348 321.199C199.395 321.855 200.199 322.812 200.762 324.07C201.324 325.32 201.605 326.777 201.605 328.441V329.52ZM199.367 328.418C199.367 326.395 198.961 324.844 198.148 323.766C197.336 322.68 196.199 322.137 194.738 322.137C193.316 322.137 192.195 322.68 191.375 323.766C190.562 324.844 190.145 326.344 190.121 328.266V329.52C190.121 331.48 190.531 333.023 191.352 334.148C192.18 335.266 193.316 335.824 194.762 335.824C196.215 335.824 197.34 335.297 198.137 334.242C198.934 333.18 199.344 331.66 199.367 329.684V328.418Z" fill="black"/>
<path d="M279 105.5L279 189.5M289 54.3857L289 29M269 55.3621L269 29" stroke="black" stroke-width="2"/>
<path fill-rule="evenodd" clip-rule="evenodd" d="M262 48.25C259.356 46.6526 259 46 259 46L259 42.3437L261.437 44.3437C261.437 44.3437 268.438 50 279 50C289.562 50 296.562 44.3437 296.562 44.3437L299 42.3438L299 46C298.062 46.7812 297.344 47.4219 296 48.2187C292.9 50.0915 286.973 53 279 53C271.049 53 265.121 50.1033 262 48.25Z" fill="black"/>
<path fill-rule="evenodd" clip-rule="evenodd" d="M299 48.0938L296.562 50.0937C296.562 50.0937 289.562 55.75 279 55.75C268.438 55.75 261.437 50.0937 261.437 50.0937L259 48.0937L259 65.25C259 67.6581 258.975 72.9397 261.406 78.875C263.837 84.8103 268.75 91.4115 278.281 96.5625L279 95.25L279.719 96.5625C298.784 86.2594 299 70.0066 299 65.25L299 48.0938ZM296 53.9687L296 65.25C296 69.9342 296.13 83.5368 279 93.2187C270.571 88.452 266.316 82.6975 264.187 77.5C261.992 72.1393 262 67.6581 262 65.25L262 54C265.108 55.8736 271.049 58.75 279 58.75C286.973 58.75 292.9 55.8415 296 53.9687Z" fill="black"/>
<path d="M283 101C283 102.061 282.579 103.078 281.828 103.828C281.078 104.579 280.061 105 279 105C277.939 105 276.922 104.579 276.172 103.828C275.421 103.078 275 102.061 275 101C275 99.9391 275.421 98.9217 276.172 98.1716C276.922 97.4214 277.939 97 279 97C280.061 97 281.078 97.4214 281.828 98.1716C282.579 98.9217 283 99.9391 283 101Z" stroke="black" stroke-width="3"/>
<path d="M214.5 225.5L174.5 225.5L174.5 245.976C174.5 257.244 183.5 265.976 194.5 265.976C205.5 265.976 214.5 257.244 214.5 245.976L214.5 225.5ZM211.643 228.357L211.643 245.976C211.643 255.737 204.003 262.643 194.5 262.643C184.997 262.643 177.357 255.261 177.357 245.5L177.357 228.357L211.643 228.357V228.357Z" fill="black"/>
<path d="M80.9805 22V4.9375L86.5586 4.9375C88.4102 4.9375 89.8008 5.32031 90.7305 6.08594C91.668 6.85156 92.1367 7.98437 92.1367 9.48437C92.1367 10.2812 91.9102 10.9883 91.457 11.6055C91.0039 12.2148 90.3867 12.6875 89.6055 13.0234C90.5273 13.2812 91.2539 13.7734 91.7852 14.5C92.3242 15.2187 92.5938 16.0781 92.5938 17.0781C92.5938 18.6094 92.0977 19.8125 91.1055 20.6875C90.1133 21.5625 88.7109 22 86.8984 22H80.9805ZM83.2305 14.0195V20.1602H86.9453C87.9922 20.1602 88.8164 19.8906 89.418 19.3516C90.0273 18.8047 90.332 18.0547 90.332 17.1016C90.332 15.0469 89.2148 14.0195 86.9805 14.0195L83.2305 14.0195ZM83.2305 12.2148L86.6289 12.2148C87.6133 12.2148 88.3984 11.9687 88.9844 11.4766C89.5781 10.9844 89.875 10.3164 89.875 9.47266C89.875 8.53516 89.6016 7.85547 89.0547 7.43359C88.5078 7.00391 87.6758 6.78906 86.5586 6.78906H83.2305V12.2148ZM106.551 22H95.3711V20.4414L101.277 13.8789C102.152 12.8867 102.754 12.082 103.082 11.4648C103.418 10.8398 103.586 10.1953 103.586 9.53125C103.586 8.64062 103.316 7.91016 102.777 7.33984C102.238 6.76953 101.52 6.48437 100.621 6.48437C99.543 6.48437 98.7031 6.79297 98.1016 7.41016C97.5078 8.01953 97.2109 8.87109 97.2109 9.96484L95.043 9.96484C95.043 8.39453 95.5469 7.125 96.5547 6.15625C97.5703 5.1875 98.9258 4.70312 100.621 4.70312C102.207 4.70312 103.461 5.12109 104.383 5.95703C105.305 6.78516 105.766 7.89062 105.766 9.27344C105.766 10.9531 104.695 12.9531 102.555 15.2734L97.9844 20.2305H106.551V22Z" fill="black"/>
<path d="M134.902 18.0469L127.754 18.0469L126.148 22.5H123.828L130.344 5.4375L132.312 5.4375L138.84 22.5H136.531L134.902 18.0469ZM128.434 16.1953H134.234L131.328 8.21484L128.434 16.1953ZM151.754 22.5H140.574V20.9414L146.48 14.3789C147.355 13.3867 147.957 12.582 148.285 11.9648C148.621 11.3398 148.789 10.6953 148.789 10.0312C148.789 9.14062 148.52 8.41016 147.98 7.83984C147.441 7.26953 146.723 6.98437 145.824 6.98437C144.746 6.98437 143.906 7.29297 143.305 7.91016C142.711 8.51953 142.414 9.37109 142.414 10.4648H140.246C140.246 8.89453 140.75 7.625 141.758 6.65625C142.773 5.6875 144.129 5.20312 145.824 5.20312C147.41 5.20312 148.664 5.62109 149.586 6.45703C150.508 7.28516 150.969 8.39062 150.969 9.77344C150.969 11.4531 149.898 13.4531 147.758 15.7734L143.188 20.7305H151.754V22.5Z" fill="black"/>
<path d="M111.5 105L111.5 189M121.5 53.8857L121.5 28.5M101.5 54.8621L101.5 28.5" stroke="black" stroke-width="2"/>
<path fill-rule="evenodd" clip-rule="evenodd" d="M94.5 47.75C91.8556 46.1526 91.5 45.5 91.5 45.5L91.5 41.8437L93.9375 43.8437C93.9375 43.8437 100.938 49.5 111.5 49.5C122.062 49.5 129.062 43.8437 129.062 43.8437L131.5 41.8438L131.5 45.5C130.562 46.2812 129.844 46.9219 128.5 47.7187C125.4 49.5915 119.473 52.5 111.5 52.5C103.549 52.5 97.6206 49.6033 94.5 47.75Z" fill="black"/>
<path fill-rule="evenodd" clip-rule="evenodd" d="M131.5 47.5938L129.062 49.5937C129.062 49.5937 122.062 55.25 111.5 55.25C100.938 55.25 93.9375 49.5937 93.9375 49.5937L91.5 47.5937L91.5 64.75C91.5 67.1581 91.4755 72.4397 93.9062 78.375C96.337 84.3103 101.25 90.9115 110.781 96.0625L111.5 94.75L112.219 96.0625C131.284 85.7594 131.5 69.5066 131.5 64.75L131.5 47.5938ZM128.5 53.4687L128.5 64.75C128.5 69.4342 128.63 83.0368 111.5 92.7187C103.071 87.952 98.8161 82.1975 96.6875 77C94.4921 71.6393 94.5 67.1581 94.5 64.75L94.5 53.5C97.6084 55.3736 103.549 58.25 111.5 58.25C119.473 58.25 125.4 55.3415 128.5 53.4687Z" fill="black"/>
<path d="M115.5 100.5C115.5 101.561 115.079 102.578 114.328 103.328C113.578 104.079 112.561 104.5 111.5 104.5C110.439 104.5 109.422 104.079 108.672 103.328C107.921 102.578 107.5 101.561 107.5 100.5C107.5 99.4391 107.921 98.4217 108.672 97.6716C109.422 96.9214 110.439 96.5 111.5 96.5C112.561 96.5 113.578 96.9214 114.328 97.6716C115.079 98.4217 115.5 99.4391 115.5 100.5Z" stroke="black" stroke-width="3"/>
<line x1="207.5" y1="226.5" x2="207.5" y2="187.5" stroke="black" stroke-width="2"/>
<line x1="279.5" y1="188.5" x2="206.5" y2="188.5" stroke="black" stroke-width="2"/>
<line x1="187.5" y1="188.5" x2="110.5" y2="188.5" stroke="black" stroke-width="2"/>
<path d="M1.98047 22L1.98047 4.9375L7.55859 4.9375C9.41016 4.9375 10.8008 5.32031 11.7305 6.08594C12.668 6.85156 13.1367 7.98437 13.1367 9.48437C13.1367 10.2812 12.9102 10.9883 12.457 11.6055C12.0039 12.2148 11.3867 12.6875 10.6055 13.0234C11.5273 13.2812 12.2539 13.7734 12.7852 14.5C13.3242 15.2187 13.5938 16.0781 13.5938 17.0781C13.5938 18.6094 13.0977 19.8125 12.1055 20.6875C11.1133 21.5625 9.71094 22 7.89844 22H1.98047ZM4.23047 14.0195L4.23047 20.1602H7.94531C8.99219 20.1602 9.81641 19.8906 10.418 19.3516C11.0273 18.8047 11.332 18.0547 11.332 17.1016C11.332 15.0469 10.2148 14.0195 7.98047 14.0195L4.23047 14.0195ZM4.23047 12.2148L7.62891 12.2148C8.61328 12.2148 9.39844 11.9687 9.98438 11.4766C10.5781 10.9844 10.875 10.3164 10.875 9.47266C10.875 8.53516 10.6016 7.85547 10.0547 7.43359C9.50781 7.00391 8.67578 6.78906 7.55859 6.78906H4.23047L4.23047 12.2148ZM19.5234 12.4141H21.1523C22.1758 12.3984 22.9805 12.1289 23.5664 11.6055C24.1523 11.082 24.4453 10.375 24.4453 9.48437C24.4453 7.48437 23.4492 6.48437 21.457 6.48437C20.5195 6.48437 19.7695 6.75391 19.207 7.29297C18.6523 7.82422 18.375 8.53125 18.375 9.41406L16.207 9.41406C16.207 8.0625 16.6992 6.94141 17.6836 6.05078C18.6758 5.15234 19.9336 4.70312 21.457 4.70312C23.0664 4.70312 24.3281 5.12891 25.2422 5.98047C26.1562 6.83203 26.6133 8.01562 26.6133 9.53125C26.6133 10.2734 26.3711 10.9922 25.8867 11.6875C25.4102 12.3828 24.7578 12.9023 23.9297 13.2461C24.8672 13.543 25.5898 14.0352 26.0977 14.7227C26.6133 15.4102 26.8711 16.25 26.8711 17.2422C26.8711 18.7734 26.3711 19.9883 25.3711 20.8867C24.3711 21.7852 23.0703 22.2344 21.4688 22.2344C19.8672 22.2344 18.5625 21.8008 17.5547 20.9336C16.5547 20.0664 16.0547 18.9219 16.0547 17.5H18.2344C18.2344 18.3984 18.5273 19.1172 19.1133 19.6562C19.6992 20.1953 20.4844 20.4648 21.4688 20.4648C22.5156 20.4648 23.3164 20.1914 23.8711 19.6445C24.4258 19.0977 24.7031 18.3125 24.7031 17.2891C24.7031 16.2969 24.3984 15.5352 23.7891 15.0039C23.1797 14.4727 22.3008 14.1992 21.1523 14.1836H19.5234V12.4141Z" fill="black"/>
<path d="M55.9023 18.0469L48.7539 18.0469L47.1484 22.5H44.8281L51.3438 5.4375L53.3125 5.4375L59.8398 22.5H57.5312L55.9023 18.0469ZM49.4336 16.1953H55.2344L52.3281 8.21484L49.4336 16.1953ZM64.7266 12.9141H66.3555C67.3789 12.8984 68.1836 12.6289 68.7695 12.1055C69.3555 11.582 69.6484 10.875 69.6484 9.98437C69.6484 7.98437 68.6523 6.98437 66.6602 6.98437C65.7227 6.98437 64.9727 7.25391 64.4102 7.79297C63.8555 8.32422 63.5781 9.03125 63.5781 9.91406H61.4102C61.4102 8.5625 61.9023 7.44141 62.8867 6.55078C63.8789 5.65234 65.1367 5.20312 66.6602 5.20312C68.2695 5.20312 69.5312 5.62891 70.4453 6.48047C71.3594 7.33203 71.8164 8.51562 71.8164 10.0312C71.8164 10.7734 71.5742 11.4922 71.0898 12.1875C70.6133 12.8828 69.9609 13.4023 69.1328 13.7461C70.0703 14.043 70.793 14.5352 71.3008 15.2227C71.8164 15.9102 72.0742 16.75 72.0742 17.7422C72.0742 19.2734 71.5742 20.4883 70.5742 21.3867C69.5742 22.2852 68.2734 22.7344 66.6719 22.7344C65.0703 22.7344 63.7656 22.3008 62.7578 21.4336C61.7578 20.5664 61.2578 19.4219 61.2578 18H63.4375C63.4375 18.8984 63.7305 19.6172 64.3164 20.1562C64.9023 20.6953 65.6875 20.9648 66.6719 20.9648C67.7188 20.9648 68.5195 20.6914 69.0742 20.1445C69.6289 19.5977 69.9062 18.8125 69.9062 17.7891C69.9062 16.7969 69.6016 16.0352 68.9922 15.5039C68.3828 14.9727 67.5039 14.6992 66.3555 14.6836H64.7266V12.9141Z" fill="black"/>
<path d="M32.5 105L32.5 197M42.5 53.8857L42.5 28.5M22.5 54.8621L22.5 28.5" stroke="black" stroke-width="2"/>
<path fill-rule="evenodd" clip-rule="evenodd" d="M15.5 47.75C12.8556 46.1526 12.5 45.5 12.5 45.5L12.5 41.8437L14.9375 43.8437C14.9375 43.8437 21.9375 49.5 32.5 49.5C43.0625 49.5 50.0625 43.8437 50.0625 43.8437L52.5 41.8438L52.5 45.5C51.5625 46.2812 50.8437 46.9219 49.5 47.7187C46.4002 49.5915 40.4733 52.5 32.5 52.5C24.5493 52.5 18.6206 49.6033 15.5 47.75Z" fill="black"/>
<path fill-rule="evenodd" clip-rule="evenodd" d="M52.5 47.5938L50.0625 49.5937C50.0625 49.5937 43.0625 55.25 32.5 55.25C21.9375 55.25 14.9375 49.5937 14.9375 49.5937L12.5 47.5937L12.5 64.75C12.5 67.1581 12.4755 72.4397 14.9062 78.375C17.337 84.3103 22.2495 90.9115 31.7812 96.0625L32.5 94.75L33.2187 96.0625C52.2844 85.7594 52.5 69.5066 52.5 64.75L52.5 47.5938ZM49.5 53.4687L49.5 64.75C49.5 69.4342 49.6302 83.0368 32.5 92.7187C24.0709 87.952 19.8161 82.1975 17.6875 77C15.4921 71.6393 15.5 67.1581 15.5 64.75L15.5 53.5C18.6084 55.3736 24.5493 58.25 32.5 58.25C40.4733 58.25 46.4002 55.3415 49.5 53.4687Z" fill="black"/>
<path d="M36.5 100.5C36.5 101.561 36.0786 102.578 35.3284 103.328C34.5783 104.079 33.5609 104.5 32.5 104.5C31.4391 104.5 30.4217 104.079 29.6716 103.328C28.9214 102.578 28.5 101.561 28.5 100.5C28.5 99.4391 28.9214 98.4217 29.6716 97.6716C30.4217 96.9214 31.4391 96.5 32.5 96.5C33.5609 96.5 34.5783 96.9214 35.3284 97.6716C36.0786 98.4217 36.5 99.4391 36.5 100.5Z" stroke="black" stroke-width="3"/>
<line x1="179.5" y1="196.5" x2="31.5" y2="196.5" stroke="black" stroke-width="2"/>
<line x1="194.5" y1="314.5" x2="194.5" y2="265.5" stroke="black" stroke-width="2"/>
<line x1="187.5" y1="187.5" x2="187.5" y2="225.5" stroke="black" stroke-width="2"/>
<line x1="178.5" y1="195.5" x2="178.5" y2="226.5" stroke="black" stroke-width="2"/>
</svg>
