<svg width="426" height="274" viewBox="0 0 426 274" fill="none" xmlns="http://www.w3.org/2000/svg">
<path d="M245.152 178.02C245.152 179.691 244.871 181.152 244.309 182.402C243.746 183.645 242.949 184.594 241.918 185.25C240.887 185.906 239.684 186.234 238.309 186.234C236.965 186.234 235.773 185.906 234.734 185.25C233.695 184.586 232.887 183.645 232.309 182.426C231.738 181.199 231.445 179.781 231.43 178.172V176.941C231.43 175.301 231.715 173.852 232.285 172.594C232.855 171.336 233.66 170.375 234.699 169.711C235.746 169.039 236.941 168.703 238.285 168.703C239.652 168.703 240.855 169.035 241.895 169.699C242.941 170.355 243.746 171.312 244.309 172.57C244.871 173.82 245.152 175.277 245.152 176.941V178.02ZM242.914 176.918C242.914 174.895 242.508 173.344 241.695 172.266C240.883 171.18 239.746 170.637 238.285 170.637C236.863 170.637 235.742 171.18 234.922 172.266C234.109 173.344 233.691 174.844 233.668 176.766V178.02C233.668 179.98 234.078 181.523 234.898 182.648C235.727 183.766 236.863 184.324 238.309 184.324C239.762 184.324 240.887 183.797 241.684 182.742C242.48 181.68 242.891 180.16 242.914 178.184V176.918ZM255.09 186H252.91V171.551L248.539 173.156V171.188L254.75 168.855H255.09V186ZM281.082 178.02C281.082 179.691 280.801 181.152 280.238 182.402C279.676 183.645 278.879 184.594 277.848 185.25C276.816 185.906 275.613 186.234 274.238 186.234C272.895 186.234 271.703 185.906 270.664 185.25C269.625 184.586 268.816 183.645 268.238 182.426C267.668 181.199 267.375 179.781 267.359 178.172V176.941C267.359 175.301 267.645 173.852 268.215 172.594C268.785 171.336 269.59 170.375 270.629 169.711C271.676 169.039 272.871 168.703 274.215 168.703C275.582 168.703 276.785 169.035 277.824 169.699C278.871 170.355 279.676 171.312 280.238 172.57C280.801 173.82 281.082 175.277 281.082 176.941V178.02ZM278.844 176.918C278.844 174.895 278.438 173.344 277.625 172.266C276.812 171.18 275.676 170.637 274.215 170.637C272.793 170.637 271.672 171.18 270.852 172.266C270.039 173.344 269.621 174.844 269.598 176.766V178.02C269.598 179.98 270.008 181.523 270.828 182.648C271.656 183.766 272.793 184.324 274.238 184.324C275.691 184.324 276.816 183.797 277.613 182.742C278.41 181.68 278.82 180.16 278.844 178.184V176.918ZM294.594 178.723C294.594 181.262 294.16 183.148 293.293 184.383C292.426 185.617 291.07 186.234 289.227 186.234C287.406 186.234 286.059 185.633 285.184 184.43C284.309 183.219 283.855 181.414 283.824 179.016V176.121C283.824 173.613 284.258 171.75 285.125 170.531C285.992 169.312 287.352 168.703 289.203 168.703C291.039 168.703 292.391 169.293 293.258 170.473C294.125 171.645 294.57 173.457 294.594 175.91V178.723ZM292.426 175.758C292.426 173.922 292.168 172.586 291.652 171.75C291.137 170.906 290.32 170.484 289.203 170.484C288.094 170.484 287.285 170.902 286.777 171.738C286.27 172.574 286.008 173.859 285.992 175.594V179.062C285.992 180.906 286.258 182.27 286.789 183.152C287.328 184.027 288.141 184.465 289.227 184.465C290.297 184.465 291.09 184.051 291.605 183.223C292.129 182.395 292.402 181.09 292.426 179.309V175.758Z" fill="black"/>
<path d="M167.586 109.414C168.367 110.195 169.633 110.195 170.414 109.414L183.142 96.6863C183.923 95.9052 183.923 94.6389 183.142 93.8579C182.361 93.0768 181.095 93.0768 180.314 93.8579L169 105.172L157.686 93.8579C156.905 93.0768 155.639 93.0768 154.858 93.8579C154.077 94.6389 154.077 95.9052 154.858 96.6863L167.586 109.414ZM167 28L167 108L171 108L171 28L167 28Z" fill="black"/>
<path d="M341.586 111.414C342.367 112.195 343.633 112.195 344.414 111.414L357.142 98.6863C357.923 97.9052 357.923 96.6389 357.142 95.8579C356.361 95.0768 355.095 95.0768 354.314 95.8579L343 107.172L331.686 95.8579C330.905 95.0768 329.639 95.0768 328.858 95.8579C328.077 96.6389 328.077 97.9052 328.858 98.6863L341.586 111.414ZM341 28L341 110L345 110L345 28L341 28Z" fill="black"/>
<path d="M262.586 273.414C263.367 274.195 264.633 274.195 265.414 273.414L278.142 260.686C278.923 259.905 278.923 258.639 278.142 257.858C277.361 257.077 276.095 257.077 275.314 257.858L264 269.172L252.686 257.858C251.905 257.077 250.639 257.077 249.858 257.858C249.077 258.639 249.077 259.905 249.858 260.686L262.586 273.414ZM262 193L262 272L266 272L266 193L262 193Z" fill="black"/>
<path d="M140.414 162.414C141.195 161.633 141.195 160.367 140.414 159.586L127.686 146.858C126.905 146.077 125.639 146.077 124.858 146.858C124.077 147.639 124.077 148.905 124.858 149.686L136.172 161L124.858 172.314C124.077 173.095 124.077 174.361 124.858 175.142C125.639 175.923 126.905 175.923 127.686 175.142L140.414 162.414ZM1.74846e-07 163L139 163L139 159L-1.74846e-07 159L1.74846e-07 163Z" fill="black"/>
<line x1="176.586" y1="191.414" x2="96.5858" y2="111.414" stroke="black" stroke-width="4"/>
<line y1="-2" x2="113.137" y2="-2" transform="matrix(-0.707107 0.707107 0.707107 0.707107 426 113)" stroke="black" stroke-width="4"/>
<line x1="346" y1="190.5" x2="175" y2="190.5" stroke="black" stroke-width="5"/>
<line x1="423" y1="112" x2="98" y2="112" stroke="black" stroke-width="4"/>
<path d="M155.059 126.395C153.129 125.84 151.723 125.16 150.84 124.355C149.965 123.543 149.527 122.543 149.527 121.355C149.527 120.012 150.062 118.902 151.133 118.027C152.211 117.145 153.609 116.703 155.328 116.703C156.5 116.703 157.543 116.93 158.457 117.383C159.379 117.836 160.09 118.461 160.59 119.258C161.098 120.055 161.352 120.926 161.352 121.871H159.09C159.09 120.84 158.762 120.031 158.105 119.445C157.449 118.852 156.523 118.555 155.328 118.555C154.219 118.555 153.352 118.801 152.727 119.293C152.109 119.777 151.801 120.453 151.801 121.32C151.801 122.016 152.094 122.605 152.68 123.09C153.273 123.566 154.277 124.004 155.691 124.402C157.113 124.801 158.223 125.242 159.02 125.727C159.824 126.203 160.418 126.762 160.801 127.402C161.191 128.043 161.387 128.797 161.387 129.664C161.387 131.047 160.848 132.156 159.77 132.992C158.691 133.82 157.25 134.234 155.445 134.234C154.273 134.234 153.18 134.012 152.164 133.566C151.148 133.113 150.363 132.496 149.809 131.715C149.262 130.934 148.988 130.047 148.988 129.055H151.25C151.25 130.086 151.629 130.902 152.387 131.504C153.152 132.098 154.172 132.395 155.445 132.395C156.633 132.395 157.543 132.152 158.176 131.668C158.809 131.184 159.125 130.523 159.125 129.688C159.125 128.852 158.832 128.207 158.246 127.754C157.66 127.293 156.598 126.84 155.059 126.395ZM173.855 124.461H164.082V122.574H173.855V124.461ZM173.855 129.324H164.082V127.449H173.855V129.324ZM187.59 126.723C187.59 129.262 187.156 131.148 186.289 132.383C185.422 133.617 184.066 134.234 182.223 134.234C180.402 134.234 179.055 133.633 178.18 132.43C177.305 131.219 176.852 129.414 176.82 127.016V124.121C176.82 121.613 177.254 119.75 178.121 118.531C178.988 117.312 180.348 116.703 182.199 116.703C184.035 116.703 185.387 117.293 186.254 118.473C187.121 119.645 187.566 121.457 187.59 123.91V126.723ZM185.422 123.758C185.422 121.922 185.164 120.586 184.648 119.75C184.133 118.906 183.316 118.484 182.199 118.484C181.09 118.484 180.281 118.902 179.773 119.738C179.266 120.574 179.004 121.859 178.988 123.594V127.062C178.988 128.906 179.254 130.27 179.785 131.152C180.324 132.027 181.137 132.465 182.223 132.465C183.293 132.465 184.086 132.051 184.602 131.223C185.125 130.395 185.398 129.09 185.422 127.309V123.758Z" fill="black"/>
<path d="M326.059 132.395C324.129 131.84 322.723 131.16 321.84 130.355C320.965 129.543 320.527 128.543 320.527 127.355C320.527 126.012 321.062 124.902 322.133 124.027C323.211 123.145 324.609 122.703 326.328 122.703C327.5 122.703 328.543 122.93 329.457 123.383C330.379 123.836 331.09 124.461 331.59 125.258C332.098 126.055 332.352 126.926 332.352 127.871H330.09C330.09 126.84 329.762 126.031 329.105 125.445C328.449 124.852 327.523 124.555 326.328 124.555C325.219 124.555 324.352 124.801 323.727 125.293C323.109 125.777 322.801 126.453 322.801 127.32C322.801 128.016 323.094 128.605 323.68 129.09C324.273 129.566 325.277 130.004 326.691 130.402C328.113 130.801 329.223 131.242 330.02 131.727C330.824 132.203 331.418 132.762 331.801 133.402C332.191 134.043 332.387 134.797 332.387 135.664C332.387 137.047 331.848 138.156 330.77 138.992C329.691 139.82 328.25 140.234 326.445 140.234C325.273 140.234 324.18 140.012 323.164 139.566C322.148 139.113 321.363 138.496 320.809 137.715C320.262 136.934 319.988 136.047 319.988 135.055H322.25C322.25 136.086 322.629 136.902 323.387 137.504C324.152 138.098 325.172 138.395 326.445 138.395C327.633 138.395 328.543 138.152 329.176 137.668C329.809 137.184 330.125 136.523 330.125 135.688C330.125 134.852 329.832 134.207 329.246 133.754C328.66 133.293 327.598 132.84 326.059 132.395ZM344.855 130.461H335.082V128.574H344.855V130.461ZM344.855 135.324H335.082V133.449H344.855V135.324ZM355.016 140H352.836V125.551L348.465 127.156V125.188L354.676 122.855H355.016V140Z" fill="black"/>
<path d="M160.383 160.395C158.453 159.84 157.047 159.16 156.164 158.355C155.289 157.543 154.852 156.543 154.852 155.355C154.852 154.012 155.387 152.902 156.457 152.027C157.535 151.145 158.934 150.703 160.652 150.703C161.824 150.703 162.867 150.93 163.781 151.383C164.703 151.836 165.414 152.461 165.914 153.258C166.422 154.055 166.676 154.926 166.676 155.871H164.414C164.414 154.84 164.086 154.031 163.43 153.445C162.773 152.852 161.848 152.555 160.652 152.555C159.543 152.555 158.676 152.801 158.051 153.293C157.434 153.777 157.125 154.453 157.125 155.32C157.125 156.016 157.418 156.605 158.004 157.09C158.598 157.566 159.602 158.004 161.016 158.402C162.438 158.801 163.547 159.242 164.344 159.727C165.148 160.203 165.742 160.762 166.125 161.402C166.516 162.043 166.711 162.797 166.711 163.664C166.711 165.047 166.172 166.156 165.094 166.992C164.016 167.82 162.574 168.234 160.77 168.234C159.598 168.234 158.504 168.012 157.488 167.566C156.473 167.113 155.688 166.496 155.133 165.715C154.586 164.934 154.312 164.047 154.312 163.055H156.574C156.574 164.086 156.953 164.902 157.711 165.504C158.477 166.098 159.496 166.395 160.77 166.395C161.957 166.395 162.867 166.152 163.5 165.668C164.133 165.184 164.449 164.523 164.449 163.688C164.449 162.852 164.156 162.207 163.57 161.754C162.984 161.293 161.922 160.84 160.383 160.395Z" fill="black"/>
<path d="M148.793 17.5469H141.645L140.039 22H137.719L144.234 4.9375H146.203L152.73 22H150.422L148.793 17.5469ZM142.324 15.6953H148.125L145.219 7.71484L142.324 15.6953ZM161.59 22H159.41V7.55078L155.039 9.15625V7.1875L161.25 4.85547H161.59V22ZM183.879 17.5469H176.73L175.125 22H172.805L179.32 4.9375H181.289L187.816 22H185.508L183.879 17.5469ZM177.41 15.6953H183.211L180.305 7.71484L177.41 15.6953ZM200.25 14.7227C200.25 17.2617 199.816 19.1484 198.949 20.3828C198.082 21.6172 196.727 22.2344 194.883 22.2344C193.062 22.2344 191.715 21.6328 190.84 20.4297C189.965 19.2188 189.512 17.4141 189.48 15.0156V12.1211C189.48 9.61328 189.914 7.75 190.781 6.53125C191.648 5.3125 193.008 4.70312 194.859 4.70312C196.695 4.70312 198.047 5.29297 198.914 6.47266C199.781 7.64453 200.227 9.45703 200.25 11.9102V14.7227ZM198.082 11.7578C198.082 9.92188 197.824 8.58594 197.309 7.75C196.793 6.90625 195.977 6.48438 194.859 6.48438C193.75 6.48438 192.941 6.90234 192.434 7.73828C191.926 8.57422 191.664 9.85938 191.648 11.5938V15.0625C191.648 16.9062 191.914 18.2695 192.445 19.1523C192.984 20.0273 193.797 20.4648 194.883 20.4648C195.953 20.4648 196.746 20.0508 197.262 19.2227C197.785 18.3945 198.059 17.0898 198.082 15.3086V11.7578Z" fill="black"/>
<path d="M316.074 22V4.9375H321.652C323.504 4.9375 324.895 5.32031 325.824 6.08594C326.762 6.85156 327.23 7.98438 327.23 9.48438C327.23 10.2812 327.004 10.9883 326.551 11.6055C326.098 12.2148 325.48 12.6875 324.699 13.0234C325.621 13.2812 326.348 13.7734 326.879 14.5C327.418 15.2188 327.688 16.0781 327.688 17.0781C327.688 18.6094 327.191 19.8125 326.199 20.6875C325.207 21.5625 323.805 22 321.992 22H316.074ZM318.324 14.0195V20.1602H322.039C323.086 20.1602 323.91 19.8906 324.512 19.3516C325.121 18.8047 325.426 18.0547 325.426 17.1016C325.426 15.0469 324.309 14.0195 322.074 14.0195H318.324ZM318.324 12.2148H321.723C322.707 12.2148 323.492 11.9688 324.078 11.4766C324.672 10.9844 324.969 10.3164 324.969 9.47266C324.969 8.53516 324.695 7.85547 324.148 7.43359C323.602 7.00391 322.77 6.78906 321.652 6.78906H318.324V12.2148ZM337.59 22H335.41V7.55078L331.039 9.15625V7.1875L337.25 4.85547H337.59V22ZM350.457 22V4.9375H356.035C357.887 4.9375 359.277 5.32031 360.207 6.08594C361.145 6.85156 361.613 7.98438 361.613 9.48438C361.613 10.2812 361.387 10.9883 360.934 11.6055C360.48 12.2148 359.863 12.6875 359.082 13.0234C360.004 13.2812 360.73 13.7734 361.262 14.5C361.801 15.2188 362.07 16.0781 362.07 17.0781C362.07 18.6094 361.574 19.8125 360.582 20.6875C359.59 21.5625 358.188 22 356.375 22H350.457ZM352.707 14.0195V20.1602H356.422C357.469 20.1602 358.293 19.8906 358.895 19.3516C359.504 18.8047 359.809 18.0547 359.809 17.1016C359.809 15.0469 358.691 14.0195 356.457 14.0195H352.707ZM352.707 12.2148H356.105C357.09 12.2148 357.875 11.9688 358.461 11.4766C359.055 10.9844 359.352 10.3164 359.352 9.47266C359.352 8.53516 359.078 7.85547 358.531 7.43359C357.984 7.00391 357.152 6.78906 356.035 6.78906H352.707V12.2148ZM375.547 14.7227C375.547 17.2617 375.113 19.1484 374.246 20.3828C373.379 21.6172 372.023 22.2344 370.18 22.2344C368.359 22.2344 367.012 21.6328 366.137 20.4297C365.262 19.2188 364.809 17.4141 364.777 15.0156V12.1211C364.777 9.61328 365.211 7.75 366.078 6.53125C366.945 5.3125 368.305 4.70312 370.156 4.70312C371.992 4.70312 373.344 5.29297 374.211 6.47266C375.078 7.64453 375.523 9.45703 375.547 11.9102V14.7227ZM373.379 11.7578C373.379 9.92188 373.121 8.58594 372.605 7.75C372.09 6.90625 371.273 6.48438 370.156 6.48438C369.047 6.48438 368.238 6.90234 367.73 7.73828C367.223 8.57422 366.961 9.85938 366.945 11.5938V15.0625C366.945 16.9062 367.211 18.2695 367.742 19.1523C368.281 20.0273 369.094 20.4648 370.18 20.4648C371.25 20.4648 372.043 20.0508 372.559 19.2227C373.082 18.3945 373.355 17.0898 373.379 15.3086V11.7578Z" fill="black"/>
<line x1="190.133" y1="49.4821" x2="150.133" y2="60.4821" stroke="#8C8C8C"/>
<line x1="363.133" y1="49.4821" x2="323.133" y2="60.4821" stroke="#8C8C8C"/>
<path d="M208.859 62H197.68V60.4414L203.586 53.8789C204.461 52.8867 205.062 52.082 205.391 51.4648C205.727 50.8398 205.895 50.1953 205.895 49.5312C205.895 48.6406 205.625 47.9102 205.086 47.3398C204.547 46.7695 203.828 46.4844 202.93 46.4844C201.852 46.4844 201.012 46.793 200.41 47.4102C199.816 48.0195 199.52 48.8711 199.52 49.9648H197.352C197.352 48.3945 197.855 47.125 198.863 46.1562C199.879 45.1875 201.234 44.7031 202.93 44.7031C204.516 44.7031 205.77 45.1211 206.691 45.957C207.613 46.7852 208.074 47.8906 208.074 49.2734C208.074 50.9531 207.004 52.9531 204.863 55.2734L200.293 60.2305H208.859V62Z" fill="black"/>
<line x1="285.133" y1="220.482" x2="245.133" y2="231.482" stroke="#8C8C8C"/>
<path d="M303.859 233H292.68V231.441L298.586 224.879C299.461 223.887 300.062 223.082 300.391 222.465C300.727 221.84 300.895 221.195 300.895 220.531C300.895 219.641 300.625 218.91 300.086 218.34C299.547 217.77 298.828 217.484 297.93 217.484C296.852 217.484 296.012 217.793 295.41 218.41C294.816 219.02 294.52 219.871 294.52 220.965H292.352C292.352 219.395 292.855 218.125 293.863 217.156C294.879 216.188 296.234 215.703 297.93 215.703C299.516 215.703 300.77 216.121 301.691 216.957C302.613 217.785 303.074 218.891 303.074 220.273C303.074 221.953 302.004 223.953 299.863 226.273L295.293 231.23H303.859V233Z" fill="black"/>
<path d="M384.859 60H373.68V58.4414L379.586 51.8789C380.461 50.8867 381.062 50.082 381.391 49.4648C381.727 48.8398 381.895 48.1953 381.895 47.5312C381.895 46.6406 381.625 45.9102 381.086 45.3398C380.547 44.7695 379.828 44.4844 378.93 44.4844C377.852 44.4844 377.012 44.793 376.41 45.4102C375.816 46.0195 375.52 46.8711 375.52 47.9648H373.352C373.352 46.3945 373.855 45.125 374.863 44.1562C375.879 43.1875 377.234 42.7031 378.93 42.7031C380.516 42.7031 381.77 43.1211 382.691 43.957C383.613 44.7852 384.074 45.8906 384.074 47.2734C384.074 48.9531 383.004 50.9531 380.863 53.2734L376.293 58.2305H384.859V60Z" fill="black"/>
</svg>
