<svg width="426" height="274" viewBox="0 0 426 274" fill="none" xmlns="http://www.w3.org/2000/svg">
<path d="M236.348 178.02C236.348 179.691 236.066 181.152 235.504 182.402C234.941 183.645 234.145 184.594 233.113 185.25C232.082 185.906 230.879 186.234 229.504 186.234C228.16 186.234 226.969 185.906 225.93 185.25C224.891 184.586 224.082 183.645 223.504 182.426C222.934 181.199 222.641 179.781 222.625 178.172V176.941C222.625 175.301 222.91 173.852 223.48 172.594C224.051 171.336 224.855 170.375 225.895 169.711C226.941 169.039 228.137 168.703 229.48 168.703C230.848 168.703 232.051 169.035 233.09 169.699C234.137 170.355 234.941 171.312 235.504 172.57C236.066 173.82 236.348 175.277 236.348 176.941V178.02ZM234.109 176.918C234.109 174.895 233.703 173.344 232.891 172.266C232.078 171.18 230.941 170.637 229.48 170.637C228.059 170.637 226.938 171.18 226.117 172.266C225.305 173.344 224.887 174.844 224.863 176.766V178.02C224.863 179.98 225.273 181.523 226.094 182.648C226.922 183.766 228.059 184.324 229.504 184.324C230.957 184.324 232.082 183.797 232.879 182.742C233.676 181.68 234.086 180.16 234.109 178.184V176.918ZM250.176 170.156L243.109 186H240.836L247.879 170.719H238.645V168.938H250.176V170.156ZM258.859 184.863C258.859 184.488 258.969 184.176 259.188 183.926C259.414 183.676 259.75 183.551 260.195 183.551C260.641 183.551 260.977 183.676 261.203 183.926C261.438 184.176 261.555 184.488 261.555 184.863C261.555 185.223 261.438 185.523 261.203 185.766C260.977 186.008 260.641 186.129 260.195 186.129C259.75 186.129 259.414 186.008 259.188 185.766C258.969 185.523 258.859 185.223 258.859 184.863ZM265.188 184.863C265.188 184.488 265.297 184.176 265.516 183.926C265.742 183.676 266.078 183.551 266.523 183.551C266.969 183.551 267.305 183.676 267.531 183.926C267.766 184.176 267.883 184.488 267.883 184.863C267.883 185.223 267.766 185.523 267.531 185.766C267.305 186.008 266.969 186.129 266.523 186.129C266.078 186.129 265.742 186.008 265.516 185.766C265.297 185.523 265.188 185.223 265.188 184.863ZM290.887 178.02C290.887 179.691 290.605 181.152 290.043 182.402C289.48 183.645 288.684 184.594 287.652 185.25C286.621 185.906 285.418 186.234 284.043 186.234C282.699 186.234 281.508 185.906 280.469 185.25C279.43 184.586 278.621 183.645 278.043 182.426C277.473 181.199 277.18 179.781 277.164 178.172V176.941C277.164 175.301 277.449 173.852 278.02 172.594C278.59 171.336 279.395 170.375 280.434 169.711C281.48 169.039 282.676 168.703 284.02 168.703C285.387 168.703 286.59 169.035 287.629 169.699C288.676 170.355 289.48 171.312 290.043 172.57C290.605 173.82 290.887 175.277 290.887 176.941V178.02ZM288.648 176.918C288.648 174.895 288.242 173.344 287.43 172.266C286.617 171.18 285.48 170.637 284.02 170.637C282.598 170.637 281.477 171.18 280.656 172.266C279.844 173.344 279.426 174.844 279.402 176.766V178.02C279.402 179.98 279.812 181.523 280.633 182.648C281.461 183.766 282.598 184.324 284.043 184.324C285.496 184.324 286.621 183.797 287.418 182.742C288.215 181.68 288.625 180.16 288.648 178.184V176.918ZM304.398 178.723C304.398 181.262 303.965 183.148 303.098 184.383C302.23 185.617 300.875 186.234 299.031 186.234C297.211 186.234 295.863 185.633 294.988 184.43C294.113 183.219 293.66 181.414 293.629 179.016V176.121C293.629 173.613 294.062 171.75 294.93 170.531C295.797 169.312 297.156 168.703 299.008 168.703C300.844 168.703 302.195 169.293 303.062 170.473C303.93 171.645 304.375 173.457 304.398 175.91V178.723ZM302.23 175.758C302.23 173.922 301.973 172.586 301.457 171.75C300.941 170.906 300.125 170.484 299.008 170.484C297.898 170.484 297.09 170.902 296.582 171.738C296.074 172.574 295.812 173.859 295.797 175.594V179.062C295.797 180.906 296.062 182.27 296.594 183.152C297.133 184.027 297.945 184.465 299.031 184.465C300.102 184.465 300.895 184.051 301.41 183.223C301.934 182.395 302.207 181.09 302.23 179.309V175.758Z" fill="black"/>
<path d="M167.586 109.414C168.367 110.195 169.633 110.195 170.414 109.414L183.142 96.6863C183.923 95.9052 183.923 94.6389 183.142 93.8579C182.361 93.0768 181.095 93.0768 180.314 93.8579L169 105.172L157.686 93.8579C156.905 93.0768 155.639 93.0768 154.858 93.8579C154.077 94.6389 154.077 95.9052 154.858 96.6863L167.586 109.414ZM167 28L167 108L171 108L171 28L167 28Z" fill="black"/>
<path d="M341.586 111.414C342.367 112.195 343.633 112.195 344.414 111.414L357.142 98.6863C357.923 97.9052 357.923 96.6389 357.142 95.8579C356.361 95.0768 355.095 95.0768 354.314 95.8579L343 107.172L331.686 95.8579C330.905 95.0768 329.639 95.0768 328.858 95.8579C328.077 96.6389 328.077 97.9052 328.858 98.6863L341.586 111.414ZM341 28L341 110L345 110L345 28L341 28Z" fill="black"/>
<path d="M262.586 273.414C263.367 274.195 264.633 274.195 265.414 273.414L278.142 260.686C278.923 259.905 278.923 258.639 278.142 257.858C277.361 257.077 276.095 257.077 275.314 257.858L264 269.172L252.686 257.858C251.905 257.077 250.639 257.077 249.858 257.858C249.077 258.639 249.077 259.905 249.858 260.686L262.586 273.414ZM262 193L262 272L266 272L266 193L262 193Z" fill="black"/>
<path d="M140.414 162.414C141.195 161.633 141.195 160.367 140.414 159.586L127.686 146.858C126.905 146.077 125.639 146.077 124.858 146.858C124.077 147.639 124.077 148.905 124.858 149.686L136.172 161L124.858 172.314C124.077 173.095 124.077 174.361 124.858 175.142C125.639 175.923 126.905 175.923 127.686 175.142L140.414 162.414ZM1.74846e-07 163L139 163L139 159L-1.74846e-07 159L1.74846e-07 163Z" fill="black"/>
<line x1="176.586" y1="191.414" x2="96.5858" y2="111.414" stroke="black" stroke-width="4"/>
<line y1="-2" x2="113.137" y2="-2" transform="matrix(-0.707107 0.707107 0.707107 0.707107 426 113)" stroke="black" stroke-width="4"/>
<line x1="346" y1="190.5" x2="175" y2="190.5" stroke="black" stroke-width="5"/>
<line x1="423" y1="112" x2="98" y2="112" stroke="black" stroke-width="4"/>
<path d="M155.059 128.395C153.129 127.84 151.723 127.16 150.84 126.355C149.965 125.543 149.527 124.543 149.527 123.355C149.527 122.012 150.062 120.902 151.133 120.027C152.211 119.145 153.609 118.703 155.328 118.703C156.5 118.703 157.543 118.93 158.457 119.383C159.379 119.836 160.09 120.461 160.59 121.258C161.098 122.055 161.352 122.926 161.352 123.871H159.09C159.09 122.84 158.762 122.031 158.105 121.445C157.449 120.852 156.523 120.555 155.328 120.555C154.219 120.555 153.352 120.801 152.727 121.293C152.109 121.777 151.801 122.453 151.801 123.32C151.801 124.016 152.094 124.605 152.68 125.09C153.273 125.566 154.277 126.004 155.691 126.402C157.113 126.801 158.223 127.242 159.02 127.727C159.824 128.203 160.418 128.762 160.801 129.402C161.191 130.043 161.387 130.797 161.387 131.664C161.387 133.047 160.848 134.156 159.77 134.992C158.691 135.82 157.25 136.234 155.445 136.234C154.273 136.234 153.18 136.012 152.164 135.566C151.148 135.113 150.363 134.496 149.809 133.715C149.262 132.934 148.988 132.047 148.988 131.055H151.25C151.25 132.086 151.629 132.902 152.387 133.504C153.152 134.098 154.172 134.395 155.445 134.395C156.633 134.395 157.543 134.152 158.176 133.668C158.809 133.184 159.125 132.523 159.125 131.688C159.125 130.852 158.832 130.207 158.246 129.754C157.66 129.293 156.598 128.84 155.059 128.395ZM173.855 126.461H164.082V124.574H173.855V126.461ZM173.855 131.324H164.082V129.449H173.855V131.324ZM187.59 128.723C187.59 131.262 187.156 133.148 186.289 134.383C185.422 135.617 184.066 136.234 182.223 136.234C180.402 136.234 179.055 135.633 178.18 134.43C177.305 133.219 176.852 131.414 176.82 129.016V126.121C176.82 123.613 177.254 121.75 178.121 120.531C178.988 119.312 180.348 118.703 182.199 118.703C184.035 118.703 185.387 119.293 186.254 120.473C187.121 121.645 187.566 123.457 187.59 125.91V128.723ZM185.422 125.758C185.422 123.922 185.164 122.586 184.648 121.75C184.133 120.906 183.316 120.484 182.199 120.484C181.09 120.484 180.281 120.902 179.773 121.738C179.266 122.574 179.004 123.859 178.988 125.594V129.062C178.988 130.906 179.254 132.27 179.785 133.152C180.324 134.027 181.137 134.465 182.223 134.465C183.293 134.465 184.086 134.051 184.602 133.223C185.125 132.395 185.398 131.09 185.422 129.309V125.758Z" fill="black"/>
<path d="M326.059 128.395C324.129 127.84 322.723 127.16 321.84 126.355C320.965 125.543 320.527 124.543 320.527 123.355C320.527 122.012 321.062 120.902 322.133 120.027C323.211 119.145 324.609 118.703 326.328 118.703C327.5 118.703 328.543 118.93 329.457 119.383C330.379 119.836 331.09 120.461 331.59 121.258C332.098 122.055 332.352 122.926 332.352 123.871H330.09C330.09 122.84 329.762 122.031 329.105 121.445C328.449 120.852 327.523 120.555 326.328 120.555C325.219 120.555 324.352 120.801 323.727 121.293C323.109 121.777 322.801 122.453 322.801 123.32C322.801 124.016 323.094 124.605 323.68 125.09C324.273 125.566 325.277 126.004 326.691 126.402C328.113 126.801 329.223 127.242 330.02 127.727C330.824 128.203 331.418 128.762 331.801 129.402C332.191 130.043 332.387 130.797 332.387 131.664C332.387 133.047 331.848 134.156 330.77 134.992C329.691 135.82 328.25 136.234 326.445 136.234C325.273 136.234 324.18 136.012 323.164 135.566C322.148 135.113 321.363 134.496 320.809 133.715C320.262 132.934 319.988 132.047 319.988 131.055H322.25C322.25 132.086 322.629 132.902 323.387 133.504C324.152 134.098 325.172 134.395 326.445 134.395C327.633 134.395 328.543 134.152 329.176 133.668C329.809 133.184 330.125 132.523 330.125 131.688C330.125 130.852 329.832 130.207 329.246 129.754C328.66 129.293 327.598 128.84 326.059 128.395ZM344.855 126.461H335.082V124.574H344.855V126.461ZM344.855 131.324H335.082V129.449H344.855V131.324ZM355.016 136H352.836V121.551L348.465 123.156V121.188L354.676 118.855H355.016V136Z" fill="black"/>
<path d="M160.383 160.395C158.453 159.84 157.047 159.16 156.164 158.355C155.289 157.543 154.852 156.543 154.852 155.355C154.852 154.012 155.387 152.902 156.457 152.027C157.535 151.145 158.934 150.703 160.652 150.703C161.824 150.703 162.867 150.93 163.781 151.383C164.703 151.836 165.414 152.461 165.914 153.258C166.422 154.055 166.676 154.926 166.676 155.871H164.414C164.414 154.84 164.086 154.031 163.43 153.445C162.773 152.852 161.848 152.555 160.652 152.555C159.543 152.555 158.676 152.801 158.051 153.293C157.434 153.777 157.125 154.453 157.125 155.32C157.125 156.016 157.418 156.605 158.004 157.09C158.598 157.566 159.602 158.004 161.016 158.402C162.438 158.801 163.547 159.242 164.344 159.727C165.148 160.203 165.742 160.762 166.125 161.402C166.516 162.043 166.711 162.797 166.711 163.664C166.711 165.047 166.172 166.156 165.094 166.992C164.016 167.82 162.574 168.234 160.77 168.234C159.598 168.234 158.504 168.012 157.488 167.566C156.473 167.113 155.688 166.496 155.133 165.715C154.586 164.934 154.312 164.047 154.312 163.055H156.574C156.574 164.086 156.953 164.902 157.711 165.504C158.477 166.098 159.496 166.395 160.77 166.395C161.957 166.395 162.867 166.152 163.5 165.668C164.133 165.184 164.449 164.523 164.449 163.688C164.449 162.852 164.156 162.207 163.57 161.754C162.984 161.293 161.922 160.84 160.383 160.395Z" fill="black"/>
<path d="M139.488 17.5469H132.34L130.734 22H128.414L134.93 4.9375H136.898L143.426 22H141.117L139.488 17.5469ZM133.02 15.6953H138.82L135.914 7.71484L133.02 15.6953ZM156.176 6.15625L149.109 22H146.836L153.879 6.71875H144.645V4.9375H156.176V6.15625ZM164.859 20.8633C164.859 20.4883 164.969 20.1758 165.188 19.9258C165.414 19.6758 165.75 19.5508 166.195 19.5508C166.641 19.5508 166.977 19.6758 167.203 19.9258C167.438 20.1758 167.555 20.4883 167.555 20.8633C167.555 21.2227 167.438 21.5234 167.203 21.7656C166.977 22.0078 166.641 22.1289 166.195 22.1289C165.75 22.1289 165.414 22.0078 165.188 21.7656C164.969 21.5234 164.859 21.2227 164.859 20.8633ZM171.188 20.8633C171.188 20.4883 171.297 20.1758 171.516 19.9258C171.742 19.6758 172.078 19.5508 172.523 19.5508C172.969 19.5508 173.305 19.6758 173.531 19.9258C173.766 20.1758 173.883 20.4883 173.883 20.8633C173.883 21.2227 173.766 21.5234 173.531 21.7656C173.305 22.0078 172.969 22.1289 172.523 22.1289C172.078 22.1289 171.742 22.0078 171.516 21.7656C171.297 21.5234 171.188 21.2227 171.188 20.8633ZM193.184 17.5469H186.035L184.43 22H182.109L188.625 4.9375H190.594L197.121 22H194.812L193.184 17.5469ZM186.715 15.6953H192.516L189.609 7.71484L186.715 15.6953ZM209.555 14.7227C209.555 17.2617 209.121 19.1484 208.254 20.3828C207.387 21.6172 206.031 22.2344 204.188 22.2344C202.367 22.2344 201.02 21.6328 200.145 20.4297C199.27 19.2188 198.816 17.4141 198.785 15.0156V12.1211C198.785 9.61328 199.219 7.75 200.086 6.53125C200.953 5.3125 202.312 4.70312 204.164 4.70312C206 4.70312 207.352 5.29297 208.219 6.47266C209.086 7.64453 209.531 9.45703 209.555 11.9102V14.7227ZM207.387 11.7578C207.387 9.92188 207.129 8.58594 206.613 7.75C206.098 6.90625 205.281 6.48438 204.164 6.48438C203.055 6.48438 202.246 6.90234 201.738 7.73828C201.23 8.57422 200.969 9.85938 200.953 11.5938V15.0625C200.953 16.9062 201.219 18.2695 201.75 19.1523C202.289 20.0273 203.102 20.4648 204.188 20.4648C205.258 20.4648 206.051 20.0508 206.566 19.2227C207.09 18.3945 207.363 17.0898 207.387 15.3086V11.7578Z" fill="black"/>
<path d="M306.27 22V4.9375H311.848C313.699 4.9375 315.09 5.32031 316.02 6.08594C316.957 6.85156 317.426 7.98438 317.426 9.48438C317.426 10.2812 317.199 10.9883 316.746 11.6055C316.293 12.2148 315.676 12.6875 314.895 13.0234C315.816 13.2812 316.543 13.7734 317.074 14.5C317.613 15.2188 317.883 16.0781 317.883 17.0781C317.883 18.6094 317.387 19.8125 316.395 20.6875C315.402 21.5625 314 22 312.188 22H306.27ZM308.52 14.0195V20.1602H312.234C313.281 20.1602 314.105 19.8906 314.707 19.3516C315.316 18.8047 315.621 18.0547 315.621 17.1016C315.621 15.0469 314.504 14.0195 312.27 14.0195H308.52ZM308.52 12.2148H311.918C312.902 12.2148 313.688 11.9688 314.273 11.4766C314.867 10.9844 315.164 10.3164 315.164 9.47266C315.164 8.53516 314.891 7.85547 314.344 7.43359C313.797 7.00391 312.965 6.78906 311.848 6.78906H308.52V12.2148ZM331.676 6.15625L324.609 22H322.336L329.379 6.71875H320.145V4.9375H331.676V6.15625ZM340.359 20.8633C340.359 20.4883 340.469 20.1758 340.688 19.9258C340.914 19.6758 341.25 19.5508 341.695 19.5508C342.141 19.5508 342.477 19.6758 342.703 19.9258C342.938 20.1758 343.055 20.4883 343.055 20.8633C343.055 21.2227 342.938 21.5234 342.703 21.7656C342.477 22.0078 342.141 22.1289 341.695 22.1289C341.25 22.1289 340.914 22.0078 340.688 21.7656C340.469 21.5234 340.359 21.2227 340.359 20.8633ZM346.688 20.8633C346.688 20.4883 346.797 20.1758 347.016 19.9258C347.242 19.6758 347.578 19.5508 348.023 19.5508C348.469 19.5508 348.805 19.6758 349.031 19.9258C349.266 20.1758 349.383 20.4883 349.383 20.8633C349.383 21.2227 349.266 21.5234 349.031 21.7656C348.805 22.0078 348.469 22.1289 348.023 22.1289C347.578 22.1289 347.242 22.0078 347.016 21.7656C346.797 21.5234 346.688 21.2227 346.688 20.8633ZM359.262 22V4.9375H364.84C366.691 4.9375 368.082 5.32031 369.012 6.08594C369.949 6.85156 370.418 7.98438 370.418 9.48438C370.418 10.2812 370.191 10.9883 369.738 11.6055C369.285 12.2148 368.668 12.6875 367.887 13.0234C368.809 13.2812 369.535 13.7734 370.066 14.5C370.605 15.2188 370.875 16.0781 370.875 17.0781C370.875 18.6094 370.379 19.8125 369.387 20.6875C368.395 21.5625 366.992 22 365.18 22H359.262ZM361.512 14.0195V20.1602H365.227C366.273 20.1602 367.098 19.8906 367.699 19.3516C368.309 18.8047 368.613 18.0547 368.613 17.1016C368.613 15.0469 367.496 14.0195 365.262 14.0195H361.512ZM361.512 12.2148H364.91C365.895 12.2148 366.68 11.9688 367.266 11.4766C367.859 10.9844 368.156 10.3164 368.156 9.47266C368.156 8.53516 367.883 7.85547 367.336 7.43359C366.789 7.00391 365.957 6.78906 364.84 6.78906H361.512V12.2148ZM384.352 14.7227C384.352 17.2617 383.918 19.1484 383.051 20.3828C382.184 21.6172 380.828 22.2344 378.984 22.2344C377.164 22.2344 375.816 21.6328 374.941 20.4297C374.066 19.2188 373.613 17.4141 373.582 15.0156V12.1211C373.582 9.61328 374.016 7.75 374.883 6.53125C375.75 5.3125 377.109 4.70312 378.961 4.70312C380.797 4.70312 382.148 5.29297 383.016 6.47266C383.883 7.64453 384.328 9.45703 384.352 11.9102V14.7227ZM382.184 11.7578C382.184 9.92188 381.926 8.58594 381.41 7.75C380.895 6.90625 380.078 6.48438 378.961 6.48438C377.852 6.48438 377.043 6.90234 376.535 7.73828C376.027 8.57422 375.766 9.85938 375.75 11.5938V15.0625C375.75 16.9062 376.016 18.2695 376.547 19.1523C377.086 20.0273 377.898 20.4648 378.984 20.4648C380.055 20.4648 380.848 20.0508 381.363 19.2227C381.887 18.3945 382.16 17.0898 382.184 15.3086V11.7578Z" fill="black"/>
<line x1="190.133" y1="49.4821" x2="150.133" y2="60.4821" stroke="#8C8C8C"/>
<line x1="363.133" y1="49.4821" x2="323.133" y2="60.4821" stroke="#8C8C8C"/>
<path d="M208.027 49.3906C208.027 50.2422 207.801 51 207.348 51.6641C206.902 52.3281 206.297 52.8477 205.531 53.2227C206.422 53.6055 207.125 54.1641 207.641 54.8984C208.164 55.6328 208.426 56.4648 208.426 57.3945C208.426 58.8711 207.926 60.0469 206.926 60.9219C205.934 61.7969 204.625 62.2344 203 62.2344C201.359 62.2344 200.043 61.7969 199.051 60.9219C198.066 60.0391 197.574 58.8633 197.574 57.3945C197.574 56.4727 197.824 55.6406 198.324 54.8984C198.832 54.1562 199.531 53.5938 200.422 53.2109C199.664 52.8359 199.066 52.3164 198.629 51.6523C198.191 50.9883 197.973 50.2344 197.973 49.3906C197.973 47.9531 198.434 46.8125 199.355 45.9688C200.277 45.125 201.492 44.7031 203 44.7031C204.5 44.7031 205.711 45.125 206.633 45.9688C207.562 46.8125 208.027 47.9531 208.027 49.3906ZM206.258 57.3477C206.258 56.3945 205.953 55.6172 205.344 55.0156C204.742 54.4141 203.953 54.1133 202.977 54.1133C202 54.1133 201.215 54.4102 200.621 55.0039C200.035 55.5977 199.742 56.3789 199.742 57.3477C199.742 58.3164 200.027 59.0781 200.598 59.6328C201.176 60.1875 201.977 60.4648 203 60.4648C204.016 60.4648 204.812 60.1875 205.391 59.6328C205.969 59.0703 206.258 58.3086 206.258 57.3477ZM203 46.4844C202.148 46.4844 201.457 46.75 200.926 47.2812C200.402 47.8047 200.141 48.5195 200.141 49.4258C200.141 50.293 200.398 50.9961 200.914 51.5352C201.438 52.0664 202.133 52.332 203 52.332C203.867 52.332 204.559 52.0664 205.074 51.5352C205.598 50.9961 205.859 50.293 205.859 49.4258C205.859 48.5586 205.59 47.8516 205.051 47.3047C204.512 46.7578 203.828 46.4844 203 46.4844Z" fill="black"/>
<line x1="285.133" y1="220.482" x2="245.133" y2="231.482" stroke="#8C8C8C"/>
<path d="M303.027 220.391C303.027 221.242 302.801 222 302.348 222.664C301.902 223.328 301.297 223.848 300.531 224.223C301.422 224.605 302.125 225.164 302.641 225.898C303.164 226.633 303.426 227.465 303.426 228.395C303.426 229.871 302.926 231.047 301.926 231.922C300.934 232.797 299.625 233.234 298 233.234C296.359 233.234 295.043 232.797 294.051 231.922C293.066 231.039 292.574 229.863 292.574 228.395C292.574 227.473 292.824 226.641 293.324 225.898C293.832 225.156 294.531 224.594 295.422 224.211C294.664 223.836 294.066 223.316 293.629 222.652C293.191 221.988 292.973 221.234 292.973 220.391C292.973 218.953 293.434 217.812 294.355 216.969C295.277 216.125 296.492 215.703 298 215.703C299.5 215.703 300.711 216.125 301.633 216.969C302.562 217.812 303.027 218.953 303.027 220.391ZM301.258 228.348C301.258 227.395 300.953 226.617 300.344 226.016C299.742 225.414 298.953 225.113 297.977 225.113C297 225.113 296.215 225.41 295.621 226.004C295.035 226.598 294.742 227.379 294.742 228.348C294.742 229.316 295.027 230.078 295.598 230.633C296.176 231.188 296.977 231.465 298 231.465C299.016 231.465 299.812 231.188 300.391 230.633C300.969 230.07 301.258 229.309 301.258 228.348ZM298 217.484C297.148 217.484 296.457 217.75 295.926 218.281C295.402 218.805 295.141 219.52 295.141 220.426C295.141 221.293 295.398 221.996 295.914 222.535C296.438 223.066 297.133 223.332 298 223.332C298.867 223.332 299.559 223.066 300.074 222.535C300.598 221.996 300.859 221.293 300.859 220.426C300.859 219.559 300.59 218.852 300.051 218.305C299.512 217.758 298.828 217.484 298 217.484Z" fill="black"/>
<path d="M384.027 47.3906C384.027 48.2422 383.801 49 383.348 49.6641C382.902 50.3281 382.297 50.8477 381.531 51.2227C382.422 51.6055 383.125 52.1641 383.641 52.8984C384.164 53.6328 384.426 54.4648 384.426 55.3945C384.426 56.8711 383.926 58.0469 382.926 58.9219C381.934 59.7969 380.625 60.2344 379 60.2344C377.359 60.2344 376.043 59.7969 375.051 58.9219C374.066 58.0391 373.574 56.8633 373.574 55.3945C373.574 54.4727 373.824 53.6406 374.324 52.8984C374.832 52.1562 375.531 51.5938 376.422 51.2109C375.664 50.8359 375.066 50.3164 374.629 49.6523C374.191 48.9883 373.973 48.2344 373.973 47.3906C373.973 45.9531 374.434 44.8125 375.355 43.9688C376.277 43.125 377.492 42.7031 379 42.7031C380.5 42.7031 381.711 43.125 382.633 43.9688C383.562 44.8125 384.027 45.9531 384.027 47.3906ZM382.258 55.3477C382.258 54.3945 381.953 53.6172 381.344 53.0156C380.742 52.4141 379.953 52.1133 378.977 52.1133C378 52.1133 377.215 52.4102 376.621 53.0039C376.035 53.5977 375.742 54.3789 375.742 55.3477C375.742 56.3164 376.027 57.0781 376.598 57.6328C377.176 58.1875 377.977 58.4648 379 58.4648C380.016 58.4648 380.812 58.1875 381.391 57.6328C381.969 57.0703 382.258 56.3086 382.258 55.3477ZM379 44.4844C378.148 44.4844 377.457 44.75 376.926 45.2812C376.402 45.8047 376.141 46.5195 376.141 47.4258C376.141 48.293 376.398 48.9961 376.914 49.5352C377.438 50.0664 378.133 50.332 379 50.332C379.867 50.332 380.559 50.0664 381.074 49.5352C381.598 48.9961 381.859 48.293 381.859 47.4258C381.859 46.5586 381.59 45.8516 381.051 45.3047C380.512 44.7578 379.828 44.4844 379 44.4844Z" fill="black"/>
</svg>
