<svg width="426" height="274" viewBox="0 0 426 274" fill="none" xmlns="http://www.w3.org/2000/svg">
<path d="M236.348 178.02C236.348 179.691 236.066 181.152 235.504 182.402C234.941 183.645 234.145 184.594 233.113 185.25C232.082 185.906 230.879 186.234 229.504 186.234C228.16 186.234 226.969 185.906 225.93 185.25C224.891 184.586 224.082 183.645 223.504 182.426C222.934 181.199 222.641 179.781 222.625 178.172V176.941C222.625 175.301 222.91 173.852 223.48 172.594C224.051 171.336 224.855 170.375 225.895 169.711C226.941 169.039 228.137 168.703 229.48 168.703C230.848 168.703 232.051 169.035 233.09 169.699C234.137 170.355 234.941 171.312 235.504 172.57C236.066 173.82 236.348 175.277 236.348 176.941V178.02ZM234.109 176.918C234.109 174.895 233.703 173.344 232.891 172.266C232.078 171.18 230.941 170.637 229.48 170.637C228.059 170.637 226.938 171.18 226.117 172.266C225.305 173.344 224.887 174.844 224.863 176.766V178.02C224.863 179.98 225.273 181.523 226.094 182.648C226.922 183.766 228.059 184.324 229.504 184.324C230.957 184.324 232.082 183.797 232.879 182.742C233.676 181.68 234.086 180.16 234.109 178.184V176.918ZM242.312 176.414H243.941C244.965 176.398 245.77 176.129 246.355 175.605C246.941 175.082 247.234 174.375 247.234 173.484C247.234 171.484 246.238 170.484 244.246 170.484C243.309 170.484 242.559 170.754 241.996 171.293C241.441 171.824 241.164 172.531 241.164 173.414H238.996C238.996 172.062 239.488 170.941 240.473 170.051C241.465 169.152 242.723 168.703 244.246 168.703C245.855 168.703 247.117 169.129 248.031 169.98C248.945 170.832 249.402 172.016 249.402 173.531C249.402 174.273 249.16 174.992 248.676 175.688C248.199 176.383 247.547 176.902 246.719 177.246C247.656 177.543 248.379 178.035 248.887 178.723C249.402 179.41 249.66 180.25 249.66 181.242C249.66 182.773 249.16 183.988 248.16 184.887C247.16 185.785 245.859 186.234 244.258 186.234C242.656 186.234 241.352 185.801 240.344 184.934C239.344 184.066 238.844 182.922 238.844 181.5H241.023C241.023 182.398 241.316 183.117 241.902 183.656C242.488 184.195 243.273 184.465 244.258 184.465C245.305 184.465 246.105 184.191 246.66 183.645C247.215 183.098 247.492 182.312 247.492 181.289C247.492 180.297 247.188 179.535 246.578 179.004C245.969 178.473 245.09 178.199 243.941 178.184H242.312V176.414ZM258.859 184.863C258.859 184.488 258.969 184.176 259.188 183.926C259.414 183.676 259.75 183.551 260.195 183.551C260.641 183.551 260.977 183.676 261.203 183.926C261.438 184.176 261.555 184.488 261.555 184.863C261.555 185.223 261.438 185.523 261.203 185.766C260.977 186.008 260.641 186.129 260.195 186.129C259.75 186.129 259.414 186.008 259.188 185.766C258.969 185.523 258.859 185.223 258.859 184.863ZM265.188 184.863C265.188 184.488 265.297 184.176 265.516 183.926C265.742 183.676 266.078 183.551 266.523 183.551C266.969 183.551 267.305 183.676 267.531 183.926C267.766 184.176 267.883 184.488 267.883 184.863C267.883 185.223 267.766 185.523 267.531 185.766C267.305 186.008 266.969 186.129 266.523 186.129C266.078 186.129 265.742 186.008 265.516 185.766C265.297 185.523 265.188 185.223 265.188 184.863ZM290.887 178.02C290.887 179.691 290.605 181.152 290.043 182.402C289.48 183.645 288.684 184.594 287.652 185.25C286.621 185.906 285.418 186.234 284.043 186.234C282.699 186.234 281.508 185.906 280.469 185.25C279.43 184.586 278.621 183.645 278.043 182.426C277.473 181.199 277.18 179.781 277.164 178.172V176.941C277.164 175.301 277.449 173.852 278.02 172.594C278.59 171.336 279.395 170.375 280.434 169.711C281.48 169.039 282.676 168.703 284.02 168.703C285.387 168.703 286.59 169.035 287.629 169.699C288.676 170.355 289.48 171.312 290.043 172.57C290.605 173.82 290.887 175.277 290.887 176.941V178.02ZM288.648 176.918C288.648 174.895 288.242 173.344 287.43 172.266C286.617 171.18 285.48 170.637 284.02 170.637C282.598 170.637 281.477 171.18 280.656 172.266C279.844 173.344 279.426 174.844 279.402 176.766V178.02C279.402 179.98 279.812 181.523 280.633 182.648C281.461 183.766 282.598 184.324 284.043 184.324C285.496 184.324 286.621 183.797 287.418 182.742C288.215 181.68 288.625 180.16 288.648 178.184V176.918ZM304.398 178.723C304.398 181.262 303.965 183.148 303.098 184.383C302.23 185.617 300.875 186.234 299.031 186.234C297.211 186.234 295.863 185.633 294.988 184.43C294.113 183.219 293.66 181.414 293.629 179.016V176.121C293.629 173.613 294.062 171.75 294.93 170.531C295.797 169.312 297.156 168.703 299.008 168.703C300.844 168.703 302.195 169.293 303.062 170.473C303.93 171.645 304.375 173.457 304.398 175.91V178.723ZM302.23 175.758C302.23 173.922 301.973 172.586 301.457 171.75C300.941 170.906 300.125 170.484 299.008 170.484C297.898 170.484 297.09 170.902 296.582 171.738C296.074 172.574 295.812 173.859 295.797 175.594V179.062C295.797 180.906 296.062 182.27 296.594 183.152C297.133 184.027 297.945 184.465 299.031 184.465C300.102 184.465 300.895 184.051 301.41 183.223C301.934 182.395 302.207 181.09 302.23 179.309V175.758Z" fill="black"/>
<path d="M167.586 109.414C168.367 110.195 169.633 110.195 170.414 109.414L183.142 96.6863C183.923 95.9052 183.923 94.6389 183.142 93.8579C182.361 93.0768 181.095 93.0768 180.314 93.8579L169 105.172L157.686 93.8579C156.905 93.0768 155.639 93.0768 154.858 93.8579C154.077 94.6389 154.077 95.9052 154.858 96.6863L167.586 109.414ZM167 28L167 108L171 108L171 28L167 28Z" fill="black"/>
<path d="M341.586 111.414C342.367 112.195 343.633 112.195 344.414 111.414L357.142 98.6863C357.923 97.9052 357.923 96.6389 357.142 95.8579C356.361 95.0768 355.095 95.0768 354.314 95.8579L343 107.172L331.686 95.8579C330.905 95.0768 329.639 95.0768 328.858 95.8579C328.077 96.6389 328.077 97.9052 328.858 98.6863L341.586 111.414ZM341 28L341 110L345 110L345 28L341 28Z" fill="black"/>
<path d="M262.586 273.414C263.367 274.195 264.633 274.195 265.414 273.414L278.142 260.686C278.923 259.905 278.923 258.639 278.142 257.858C277.361 257.077 276.095 257.077 275.314 257.858L264 269.172L252.686 257.858C251.905 257.077 250.639 257.077 249.858 257.858C249.077 258.639 249.077 259.905 249.858 260.686L262.586 273.414ZM262 193L262 272L266 272L266 193L262 193Z" fill="black"/>
<path d="M140.414 162.414C141.195 161.633 141.195 160.367 140.414 159.586L127.686 146.858C126.905 146.077 125.639 146.077 124.858 146.858C124.077 147.639 124.077 148.905 124.858 149.686L136.172 161L124.858 172.314C124.077 173.095 124.077 174.361 124.858 175.142C125.639 175.923 126.905 175.923 127.686 175.142L140.414 162.414ZM1.74846e-07 163L139 163L139 159L-1.74846e-07 159L1.74846e-07 163Z" fill="black"/>
<line x1="176.586" y1="191.414" x2="96.5858" y2="111.414" stroke="black" stroke-width="4"/>
<line y1="-2" x2="113.137" y2="-2" transform="matrix(-0.707107 0.707107 0.707107 0.707107 426 113)" stroke="black" stroke-width="4"/>
<line x1="346" y1="190.5" x2="175" y2="190.5" stroke="black" stroke-width="5"/>
<line x1="423" y1="112" x2="98" y2="112" stroke="black" stroke-width="4"/>
<path d="M155.059 126.395C153.129 125.84 151.723 125.16 150.84 124.355C149.965 123.543 149.527 122.543 149.527 121.355C149.527 120.012 150.062 118.902 151.133 118.027C152.211 117.145 153.609 116.703 155.328 116.703C156.5 116.703 157.543 116.93 158.457 117.383C159.379 117.836 160.09 118.461 160.59 119.258C161.098 120.055 161.352 120.926 161.352 121.871H159.09C159.09 120.84 158.762 120.031 158.105 119.445C157.449 118.852 156.523 118.555 155.328 118.555C154.219 118.555 153.352 118.801 152.727 119.293C152.109 119.777 151.801 120.453 151.801 121.32C151.801 122.016 152.094 122.605 152.68 123.09C153.273 123.566 154.277 124.004 155.691 124.402C157.113 124.801 158.223 125.242 159.02 125.727C159.824 126.203 160.418 126.762 160.801 127.402C161.191 128.043 161.387 128.797 161.387 129.664C161.387 131.047 160.848 132.156 159.77 132.992C158.691 133.82 157.25 134.234 155.445 134.234C154.273 134.234 153.18 134.012 152.164 133.566C151.148 133.113 150.363 132.496 149.809 131.715C149.262 130.934 148.988 130.047 148.988 129.055H151.25C151.25 130.086 151.629 130.902 152.387 131.504C153.152 132.098 154.172 132.395 155.445 132.395C156.633 132.395 157.543 132.152 158.176 131.668C158.809 131.184 159.125 130.523 159.125 129.688C159.125 128.852 158.832 128.207 158.246 127.754C157.66 127.293 156.598 126.84 155.059 126.395ZM173.855 124.461H164.082V122.574H173.855V124.461ZM173.855 129.324H164.082V127.449H173.855V129.324ZM187.59 126.723C187.59 129.262 187.156 131.148 186.289 132.383C185.422 133.617 184.066 134.234 182.223 134.234C180.402 134.234 179.055 133.633 178.18 132.43C177.305 131.219 176.852 129.414 176.82 127.016V124.121C176.82 121.613 177.254 119.75 178.121 118.531C178.988 117.312 180.348 116.703 182.199 116.703C184.035 116.703 185.387 117.293 186.254 118.473C187.121 119.645 187.566 121.457 187.59 123.91V126.723ZM185.422 123.758C185.422 121.922 185.164 120.586 184.648 119.75C184.133 118.906 183.316 118.484 182.199 118.484C181.09 118.484 180.281 118.902 179.773 119.738C179.266 120.574 179.004 121.859 178.988 123.594V127.062C178.988 128.906 179.254 130.27 179.785 131.152C180.324 132.027 181.137 132.465 182.223 132.465C183.293 132.465 184.086 132.051 184.602 131.223C185.125 130.395 185.398 129.09 185.422 127.309V123.758Z" fill="black"/>
<path d="M326.059 132.395C324.129 131.84 322.723 131.16 321.84 130.355C320.965 129.543 320.527 128.543 320.527 127.355C320.527 126.012 321.062 124.902 322.133 124.027C323.211 123.145 324.609 122.703 326.328 122.703C327.5 122.703 328.543 122.93 329.457 123.383C330.379 123.836 331.09 124.461 331.59 125.258C332.098 126.055 332.352 126.926 332.352 127.871H330.09C330.09 126.84 329.762 126.031 329.105 125.445C328.449 124.852 327.523 124.555 326.328 124.555C325.219 124.555 324.352 124.801 323.727 125.293C323.109 125.777 322.801 126.453 322.801 127.32C322.801 128.016 323.094 128.605 323.68 129.09C324.273 129.566 325.277 130.004 326.691 130.402C328.113 130.801 329.223 131.242 330.02 131.727C330.824 132.203 331.418 132.762 331.801 133.402C332.191 134.043 332.387 134.797 332.387 135.664C332.387 137.047 331.848 138.156 330.77 138.992C329.691 139.82 328.25 140.234 326.445 140.234C325.273 140.234 324.18 140.012 323.164 139.566C322.148 139.113 321.363 138.496 320.809 137.715C320.262 136.934 319.988 136.047 319.988 135.055H322.25C322.25 136.086 322.629 136.902 323.387 137.504C324.152 138.098 325.172 138.395 326.445 138.395C327.633 138.395 328.543 138.152 329.176 137.668C329.809 137.184 330.125 136.523 330.125 135.688C330.125 134.852 329.832 134.207 329.246 133.754C328.66 133.293 327.598 132.84 326.059 132.395ZM344.855 130.461H335.082V128.574H344.855V130.461ZM344.855 135.324H335.082V133.449H344.855V135.324ZM355.016 140H352.836V125.551L348.465 127.156V125.188L354.676 122.855H355.016V140Z" fill="black"/>
<path d="M160.383 160.395C158.453 159.84 157.047 159.16 156.164 158.355C155.289 157.543 154.852 156.543 154.852 155.355C154.852 154.012 155.387 152.902 156.457 152.027C157.535 151.145 158.934 150.703 160.652 150.703C161.824 150.703 162.867 150.93 163.781 151.383C164.703 151.836 165.414 152.461 165.914 153.258C166.422 154.055 166.676 154.926 166.676 155.871H164.414C164.414 154.84 164.086 154.031 163.43 153.445C162.773 152.852 161.848 152.555 160.652 152.555C159.543 152.555 158.676 152.801 158.051 153.293C157.434 153.777 157.125 154.453 157.125 155.32C157.125 156.016 157.418 156.605 158.004 157.09C158.598 157.566 159.602 158.004 161.016 158.402C162.438 158.801 163.547 159.242 164.344 159.727C165.148 160.203 165.742 160.762 166.125 161.402C166.516 162.043 166.711 162.797 166.711 163.664C166.711 165.047 166.172 166.156 165.094 166.992C164.016 167.82 162.574 168.234 160.77 168.234C159.598 168.234 158.504 168.012 157.488 167.566C156.473 167.113 155.688 166.496 155.133 165.715C154.586 164.934 154.312 164.047 154.312 163.055H156.574C156.574 164.086 156.953 164.902 157.711 165.504C158.477 166.098 159.496 166.395 160.77 166.395C161.957 166.395 162.867 166.152 163.5 165.668C164.133 165.184 164.449 164.523 164.449 163.688C164.449 162.852 164.156 162.207 163.57 161.754C162.984 161.293 161.922 160.84 160.383 160.395Z" fill="black"/>
<path d="M139.488 17.5469H132.34L130.734 22H128.414L134.93 4.9375H136.898L143.426 22H141.117L139.488 17.5469ZM133.02 15.6953H138.82L135.914 7.71484L133.02 15.6953ZM148.312 12.4141H149.941C150.965 12.3984 151.77 12.1289 152.355 11.6055C152.941 11.082 153.234 10.375 153.234 9.48438C153.234 7.48437 152.238 6.48438 150.246 6.48438C149.309 6.48438 148.559 6.75391 147.996 7.29297C147.441 7.82422 147.164 8.53125 147.164 9.41406H144.996C144.996 8.0625 145.488 6.94141 146.473 6.05078C147.465 5.15234 148.723 4.70312 150.246 4.70312C151.855 4.70312 153.117 5.12891 154.031 5.98047C154.945 6.83203 155.402 8.01562 155.402 9.53125C155.402 10.2734 155.16 10.9922 154.676 11.6875C154.199 12.3828 153.547 12.9023 152.719 13.2461C153.656 13.543 154.379 14.0352 154.887 14.7227C155.402 15.4102 155.66 16.25 155.66 17.2422C155.66 18.7734 155.16 19.9883 154.16 20.8867C153.16 21.7852 151.859 22.2344 150.258 22.2344C148.656 22.2344 147.352 21.8008 146.344 20.9336C145.344 20.0664 144.844 18.9219 144.844 17.5H147.023C147.023 18.3984 147.316 19.1172 147.902 19.6562C148.488 20.1953 149.273 20.4648 150.258 20.4648C151.305 20.4648 152.105 20.1914 152.66 19.6445C153.215 19.0977 153.492 18.3125 153.492 17.2891C153.492 16.2969 153.188 15.5352 152.578 15.0039C151.969 14.4727 151.09 14.1992 149.941 14.1836H148.312V12.4141ZM164.859 20.8633C164.859 20.4883 164.969 20.1758 165.188 19.9258C165.414 19.6758 165.75 19.5508 166.195 19.5508C166.641 19.5508 166.977 19.6758 167.203 19.9258C167.438 20.1758 167.555 20.4883 167.555 20.8633C167.555 21.2227 167.438 21.5234 167.203 21.7656C166.977 22.0078 166.641 22.1289 166.195 22.1289C165.75 22.1289 165.414 22.0078 165.188 21.7656C164.969 21.5234 164.859 21.2227 164.859 20.8633ZM171.188 20.8633C171.188 20.4883 171.297 20.1758 171.516 19.9258C171.742 19.6758 172.078 19.5508 172.523 19.5508C172.969 19.5508 173.305 19.6758 173.531 19.9258C173.766 20.1758 173.883 20.4883 173.883 20.8633C173.883 21.2227 173.766 21.5234 173.531 21.7656C173.305 22.0078 172.969 22.1289 172.523 22.1289C172.078 22.1289 171.742 22.0078 171.516 21.7656C171.297 21.5234 171.188 21.2227 171.188 20.8633ZM193.184 17.5469H186.035L184.43 22H182.109L188.625 4.9375H190.594L197.121 22H194.812L193.184 17.5469ZM186.715 15.6953H192.516L189.609 7.71484L186.715 15.6953ZM209.555 14.7227C209.555 17.2617 209.121 19.1484 208.254 20.3828C207.387 21.6172 206.031 22.2344 204.188 22.2344C202.367 22.2344 201.02 21.6328 200.145 20.4297C199.27 19.2188 198.816 17.4141 198.785 15.0156V12.1211C198.785 9.61328 199.219 7.75 200.086 6.53125C200.953 5.3125 202.312 4.70312 204.164 4.70312C206 4.70312 207.352 5.29297 208.219 6.47266C209.086 7.64453 209.531 9.45703 209.555 11.9102V14.7227ZM207.387 11.7578C207.387 9.92188 207.129 8.58594 206.613 7.75C206.098 6.90625 205.281 6.48438 204.164 6.48438C203.055 6.48438 202.246 6.90234 201.738 7.73828C201.23 8.57422 200.969 9.85938 200.953 11.5938V15.0625C200.953 16.9062 201.219 18.2695 201.75 19.1523C202.289 20.0273 203.102 20.4648 204.188 20.4648C205.258 20.4648 206.051 20.0508 206.566 19.2227C207.09 18.3945 207.363 17.0898 207.387 15.3086V11.7578Z" fill="black"/>
<path d="M306.27 22V4.9375H311.848C313.699 4.9375 315.09 5.32031 316.02 6.08594C316.957 6.85156 317.426 7.98438 317.426 9.48438C317.426 10.2812 317.199 10.9883 316.746 11.6055C316.293 12.2148 315.676 12.6875 314.895 13.0234C315.816 13.2812 316.543 13.7734 317.074 14.5C317.613 15.2188 317.883 16.0781 317.883 17.0781C317.883 18.6094 317.387 19.8125 316.395 20.6875C315.402 21.5625 314 22 312.188 22H306.27ZM308.52 14.0195V20.1602H312.234C313.281 20.1602 314.105 19.8906 314.707 19.3516C315.316 18.8047 315.621 18.0547 315.621 17.1016C315.621 15.0469 314.504 14.0195 312.27 14.0195H308.52ZM308.52 12.2148H311.918C312.902 12.2148 313.688 11.9688 314.273 11.4766C314.867 10.9844 315.164 10.3164 315.164 9.47266C315.164 8.53516 314.891 7.85547 314.344 7.43359C313.797 7.00391 312.965 6.78906 311.848 6.78906H308.52V12.2148ZM323.812 12.4141H325.441C326.465 12.3984 327.27 12.1289 327.855 11.6055C328.441 11.082 328.734 10.375 328.734 9.48438C328.734 7.48437 327.738 6.48438 325.746 6.48438C324.809 6.48438 324.059 6.75391 323.496 7.29297C322.941 7.82422 322.664 8.53125 322.664 9.41406H320.496C320.496 8.0625 320.988 6.94141 321.973 6.05078C322.965 5.15234 324.223 4.70312 325.746 4.70312C327.355 4.70312 328.617 5.12891 329.531 5.98047C330.445 6.83203 330.902 8.01562 330.902 9.53125C330.902 10.2734 330.66 10.9922 330.176 11.6875C329.699 12.3828 329.047 12.9023 328.219 13.2461C329.156 13.543 329.879 14.0352 330.387 14.7227C330.902 15.4102 331.16 16.25 331.16 17.2422C331.16 18.7734 330.66 19.9883 329.66 20.8867C328.66 21.7852 327.359 22.2344 325.758 22.2344C324.156 22.2344 322.852 21.8008 321.844 20.9336C320.844 20.0664 320.344 18.9219 320.344 17.5H322.523C322.523 18.3984 322.816 19.1172 323.402 19.6562C323.988 20.1953 324.773 20.4648 325.758 20.4648C326.805 20.4648 327.605 20.1914 328.16 19.6445C328.715 19.0977 328.992 18.3125 328.992 17.2891C328.992 16.2969 328.688 15.5352 328.078 15.0039C327.469 14.4727 326.59 14.1992 325.441 14.1836H323.812V12.4141ZM340.359 20.8633C340.359 20.4883 340.469 20.1758 340.688 19.9258C340.914 19.6758 341.25 19.5508 341.695 19.5508C342.141 19.5508 342.477 19.6758 342.703 19.9258C342.938 20.1758 343.055 20.4883 343.055 20.8633C343.055 21.2227 342.938 21.5234 342.703 21.7656C342.477 22.0078 342.141 22.1289 341.695 22.1289C341.25 22.1289 340.914 22.0078 340.688 21.7656C340.469 21.5234 340.359 21.2227 340.359 20.8633ZM346.688 20.8633C346.688 20.4883 346.797 20.1758 347.016 19.9258C347.242 19.6758 347.578 19.5508 348.023 19.5508C348.469 19.5508 348.805 19.6758 349.031 19.9258C349.266 20.1758 349.383 20.4883 349.383 20.8633C349.383 21.2227 349.266 21.5234 349.031 21.7656C348.805 22.0078 348.469 22.1289 348.023 22.1289C347.578 22.1289 347.242 22.0078 347.016 21.7656C346.797 21.5234 346.688 21.2227 346.688 20.8633ZM359.262 22V4.9375H364.84C366.691 4.9375 368.082 5.32031 369.012 6.08594C369.949 6.85156 370.418 7.98438 370.418 9.48438C370.418 10.2812 370.191 10.9883 369.738 11.6055C369.285 12.2148 368.668 12.6875 367.887 13.0234C368.809 13.2812 369.535 13.7734 370.066 14.5C370.605 15.2188 370.875 16.0781 370.875 17.0781C370.875 18.6094 370.379 19.8125 369.387 20.6875C368.395 21.5625 366.992 22 365.18 22H359.262ZM361.512 14.0195V20.1602H365.227C366.273 20.1602 367.098 19.8906 367.699 19.3516C368.309 18.8047 368.613 18.0547 368.613 17.1016C368.613 15.0469 367.496 14.0195 365.262 14.0195H361.512ZM361.512 12.2148H364.91C365.895 12.2148 366.68 11.9688 367.266 11.4766C367.859 10.9844 368.156 10.3164 368.156 9.47266C368.156 8.53516 367.883 7.85547 367.336 7.43359C366.789 7.00391 365.957 6.78906 364.84 6.78906H361.512V12.2148ZM384.352 14.7227C384.352 17.2617 383.918 19.1484 383.051 20.3828C382.184 21.6172 380.828 22.2344 378.984 22.2344C377.164 22.2344 375.816 21.6328 374.941 20.4297C374.066 19.2188 373.613 17.4141 373.582 15.0156V12.1211C373.582 9.61328 374.016 7.75 374.883 6.53125C375.75 5.3125 377.109 4.70312 378.961 4.70312C380.797 4.70312 382.148 5.29297 383.016 6.47266C383.883 7.64453 384.328 9.45703 384.352 11.9102V14.7227ZM382.184 11.7578C382.184 9.92188 381.926 8.58594 381.41 7.75C380.895 6.90625 380.078 6.48438 378.961 6.48438C377.852 6.48438 377.043 6.90234 376.535 7.73828C376.027 8.57422 375.766 9.85938 375.75 11.5938V15.0625C375.75 16.9062 376.016 18.2695 376.547 19.1523C377.086 20.0273 377.898 20.4648 378.984 20.4648C380.055 20.4648 380.848 20.0508 381.363 19.2227C381.887 18.3945 382.16 17.0898 382.184 15.3086V11.7578Z" fill="black"/>
<line x1="190.133" y1="49.4821" x2="150.133" y2="60.4821" stroke="#8C8C8C"/>
<line x1="363.133" y1="49.4821" x2="323.133" y2="60.4821" stroke="#8C8C8C"/>
<path d="M206.832 56.2695H209.199V58.0391H206.832V62H204.652V58.0391H196.883V56.7617L204.523 44.9375H206.832V56.2695ZM199.344 56.2695H204.652V47.9023L204.395 48.3711L199.344 56.2695Z" fill="black"/>
<line x1="285.133" y1="220.482" x2="245.133" y2="231.482" stroke="#8C8C8C"/>
<path d="M301.832 227.27H304.199V229.039H301.832V233H299.652V229.039H291.883V227.762L299.523 215.938H301.832V227.27ZM294.344 227.27H299.652V218.902L299.395 219.371L294.344 227.27Z" fill="black"/>
<path d="M382.832 54.2695H385.199V56.0391H382.832V60H380.652V56.0391H372.883V54.7617L380.523 42.9375H382.832V54.2695ZM375.344 54.2695H380.652V45.9023L380.395 46.3711L375.344 54.2695Z" fill="black"/>
</svg>
