<svg width="426" height="274" viewBox="0 0 426 274" fill="none" xmlns="http://www.w3.org/2000/svg">
<path d="M270.355 178.02C270.355 179.691 270.074 181.152 269.512 182.402C268.949 183.645 268.152 184.594 267.121 185.25C266.09 185.906 264.887 186.234 263.512 186.234C262.168 186.234 260.977 185.906 259.938 185.25C258.898 184.586 258.09 183.645 257.512 182.426C256.941 181.199 256.648 179.781 256.633 178.172V176.941C256.633 175.301 256.918 173.852 257.488 172.594C258.059 171.336 258.863 170.375 259.902 169.711C260.949 169.039 262.145 168.703 263.488 168.703C264.855 168.703 266.059 169.035 267.098 169.699C268.145 170.355 268.949 171.312 269.512 172.57C270.074 173.82 270.355 175.277 270.355 176.941V178.02ZM268.117 176.918C268.117 174.895 267.711 173.344 266.898 172.266C266.086 171.18 264.949 170.637 263.488 170.637C262.066 170.637 260.945 171.18 260.125 172.266C259.312 173.344 258.895 174.844 258.871 176.766V178.02C258.871 179.98 259.281 181.523 260.102 182.648C260.93 183.766 262.066 184.324 263.512 184.324C264.965 184.324 266.09 183.797 266.887 182.742C267.684 181.68 268.094 180.16 268.117 178.184V176.918Z" fill="black"/>
<path d="M167.586 109.414C168.367 110.195 169.633 110.195 170.414 109.414L183.142 96.6863C183.923 95.9052 183.923 94.6389 183.142 93.8579C182.361 93.0768 181.095 93.0768 180.314 93.8579L169 105.172L157.686 93.8579C156.905 93.0768 155.639 93.0768 154.858 93.8579C154.077 94.6389 154.077 95.9052 154.858 96.6863L167.586 109.414ZM167 28L167 108L171 108L171 28L167 28Z" fill="black"/>
<path d="M341.586 111.414C342.367 112.195 343.633 112.195 344.414 111.414L357.142 98.6863C357.923 97.9052 357.923 96.6389 357.142 95.8579C356.361 95.0768 355.095 95.0768 354.314 95.8579L343 107.172L331.686 95.8579C330.905 95.0768 329.639 95.0768 328.858 95.8579C328.077 96.6389 328.077 97.9052 328.858 98.6863L341.586 111.414ZM341 28L341 110L345 110L345 28L341 28Z" fill="black"/>
<path d="M262.586 273.414C263.367 274.195 264.633 274.195 265.414 273.414L278.142 260.686C278.923 259.905 278.923 258.639 278.142 257.858C277.361 257.077 276.095 257.077 275.314 257.858L264 269.172L252.686 257.858C251.905 257.077 250.639 257.077 249.858 257.858C249.077 258.639 249.077 259.905 249.858 260.686L262.586 273.414ZM262 193L262 272L266 272L266 193L262 193Z" fill="black"/>
<path d="M140.414 162.414C141.195 161.633 141.195 160.367 140.414 159.586L127.686 146.858C126.905 146.077 125.639 146.077 124.858 146.858C124.077 147.639 124.077 148.905 124.858 149.686L136.172 161L124.858 172.314C124.077 173.095 124.077 174.361 124.858 175.142C125.639 175.923 126.905 175.923 127.686 175.142L140.414 162.414ZM1.74846e-07 163L139 163L139 159L-1.74846e-07 159L1.74846e-07 163Z" fill="black"/>
<line x1="176.586" y1="191.414" x2="96.5858" y2="111.414" stroke="black" stroke-width="4"/>
<line y1="-2" x2="113.137" y2="-2" transform="matrix(-0.707107 0.707107 0.707107 0.707107 426 113)" stroke="black" stroke-width="4"/>
<line x1="346" y1="190.5" x2="175" y2="190.5" stroke="black" stroke-width="5"/>
<line x1="423" y1="112" x2="98" y2="112" stroke="black" stroke-width="4"/>
<path d="M173.379 126.723C173.379 129.262 172.945 131.148 172.078 132.383C171.211 133.617 169.855 134.234 168.012 134.234C166.191 134.234 164.844 133.633 163.969 132.43C163.094 131.219 162.641 129.414 162.609 127.016V124.121C162.609 121.613 163.043 119.75 163.91 118.531C164.777 117.312 166.137 116.703 167.988 116.703C169.824 116.703 171.176 117.293 172.043 118.473C172.91 119.645 173.355 121.457 173.379 123.91V126.723ZM171.211 123.758C171.211 121.922 170.953 120.586 170.438 119.75C169.922 118.906 169.105 118.484 167.988 118.484C166.879 118.484 166.07 118.902 165.562 119.738C165.055 120.574 164.793 121.859 164.777 123.594V127.062C164.777 128.906 165.043 130.27 165.574 131.152C166.113 132.027 166.926 132.465 168.012 132.465C169.082 132.465 169.875 132.051 170.391 131.223C170.914 130.395 171.188 129.09 171.211 127.309V123.758Z" fill="black"/>
<path d="M340.805 140H338.625V125.551L334.254 127.156V125.188L340.465 122.855H340.805V140Z" fill="black"/>
<path d="M160.383 160.395C158.453 159.84 157.047 159.16 156.164 158.355C155.289 157.543 154.852 156.543 154.852 155.355C154.852 154.012 155.387 152.902 156.457 152.027C157.535 151.145 158.934 150.703 160.652 150.703C161.824 150.703 162.867 150.93 163.781 151.383C164.703 151.836 165.414 152.461 165.914 153.258C166.422 154.055 166.676 154.926 166.676 155.871H164.414C164.414 154.84 164.086 154.031 163.43 153.445C162.773 152.852 161.848 152.555 160.652 152.555C159.543 152.555 158.676 152.801 158.051 153.293C157.434 153.777 157.125 154.453 157.125 155.32C157.125 156.016 157.418 156.605 158.004 157.09C158.598 157.566 159.602 158.004 161.016 158.402C162.438 158.801 163.547 159.242 164.344 159.727C165.148 160.203 165.742 160.762 166.125 161.402C166.516 162.043 166.711 162.797 166.711 163.664C166.711 165.047 166.172 166.156 165.094 166.992C164.016 167.82 162.574 168.234 160.77 168.234C159.598 168.234 158.504 168.012 157.488 167.566C156.473 167.113 155.688 166.496 155.133 165.715C154.586 164.934 154.312 164.047 154.312 163.055H156.574C156.574 164.086 156.953 164.902 157.711 165.504C158.477 166.098 159.496 166.395 160.77 166.395C161.957 166.395 162.867 166.152 163.5 165.668C164.133 165.184 164.449 164.523 164.449 163.688C164.449 162.852 164.156 162.207 163.57 161.754C162.984 161.293 161.922 160.84 160.383 160.395Z" fill="black"/>
<path d="M165.887 22H163.637V4.9375H165.887V22ZM176.574 22H174.395V7.55078L170.023 9.15625V7.1875L176.234 4.85547H176.574V22Z" fill="black"/>
<path d="M339.887 22H337.637V4.9375H339.887V22ZM354.148 14.7227C354.148 17.2617 353.715 19.1484 352.848 20.3828C351.98 21.6172 350.625 22.2344 348.781 22.2344C346.961 22.2344 345.613 21.6328 344.738 20.4297C343.863 19.2188 343.41 17.4141 343.379 15.0156V12.1211C343.379 9.61328 343.812 7.75 344.68 6.53125C345.547 5.3125 346.906 4.70312 348.758 4.70312C350.594 4.70312 351.945 5.29297 352.812 6.47266C353.68 7.64453 354.125 9.45703 354.148 11.9102V14.7227ZM351.98 11.7578C351.98 9.92188 351.723 8.58594 351.207 7.75C350.691 6.90625 349.875 6.48438 348.758 6.48438C347.648 6.48438 346.84 6.90234 346.332 7.73828C345.824 8.57422 345.562 9.85938 345.547 11.5938V15.0625C345.547 16.9062 345.812 18.2695 346.344 19.1523C346.883 20.0273 347.695 20.4648 348.781 20.4648C349.852 20.4648 350.645 20.0508 351.16 19.2227C351.684 18.3945 351.957 17.0898 351.98 15.3086V11.7578Z" fill="black"/>
</svg>
