<?xml version="1.0" encoding="UTF-8" standalone="no"?>
<!DOCTYPE svg PUBLIC "-//W3C//DTD SVG 1.1//EN"
 "http://www.w3.org/Graphics/SVG/1.1/DTD/svg11.dtd">
<!-- Generated by graphviz version 2.43.0 (0)
 -->
<!-- Title: %3 Pages: 1 -->
<svg width="569pt" height="836pt"
 viewBox="0.00 0.00 569.48 836.00" xmlns="http://www.w3.org/2000/svg" xmlns:xlink="http://www.w3.org/1999/xlink">
<g id="graph0" class="graph" transform="scale(1 1) rotate(0) translate(4 832)">
<title>%3</title>
<polygon fill="white" stroke="transparent" points="-4,4 -4,-832 565.48,-832 565.48,4 -4,4"/>
<!-- T3_CODICE2_ERRORE -->
<g id="node1" class="node">
<title>T3_CODICE2_ERRORE</title>
<ellipse fill="none" stroke="black" cx="116.99" cy="-666" rx="116.98" ry="18"/>
<text text-anchor="middle" x="116.99" y="-662.3" font-family="Times,serif" font-size="14.00">T3_CODICE2_ERRORE</text>
</g>
<!-- BLOCCO -->
<g id="node4" class="node">
<title>BLOCCO</title>
<ellipse fill="none" stroke="black" cx="193.99" cy="-738" rx="51.99" ry="18"/>
<text text-anchor="middle" x="193.99" y="-734.3" font-family="Times,serif" font-size="14.00">BLOCCO</text>
</g>
<!-- T3_CODICE2_ERRORE&#45;&gt;BLOCCO -->
<g id="edge15" class="edge">
<title>T3_CODICE2_ERRORE&#45;&gt;BLOCCO</title>
<path fill="none" stroke="black" d="M135.63,-683.95C146.75,-694.05 160.9,-706.92 172.49,-717.46"/>
<polygon fill="black" stroke="black" points="171.44,-718.86 176.32,-720.93 173.79,-716.27 171.44,-718.86"/>
</g>
<!-- T3_CODICE1 -->
<g id="node2" class="node">
<title>T3_CODICE1</title>
<ellipse fill="none" stroke="black" cx="268.99" cy="-522" rx="71.49" ry="18"/>
<text text-anchor="middle" x="268.99" y="-518.3" font-family="Times,serif" font-size="14.00">T3_CODICE1</text>
</g>
<!-- T3_CODICE2 -->
<g id="node9" class="node">
<title>T3_CODICE2</title>
<ellipse fill="none" stroke="black" cx="322.99" cy="-594" rx="71.49" ry="18"/>
<text text-anchor="middle" x="322.99" y="-590.3" font-family="Times,serif" font-size="14.00">T3_CODICE2</text>
</g>
<!-- T3_CODICE1&#45;&gt;T3_CODICE2 -->
<g id="edge14" class="edge">
<title>T3_CODICE1&#45;&gt;T3_CODICE2</title>
<path fill="none" stroke="black" d="M282.06,-539.95C289.56,-549.66 299.02,-561.93 306.96,-572.23"/>
<polygon fill="black" stroke="black" points="305.6,-573.32 310.04,-576.21 308.37,-571.18 305.6,-573.32"/>
</g>
<!-- T3_CODICE1_ERRORE -->
<g id="node12" class="node">
<title>T3_CODICE1_ERRORE</title>
<ellipse fill="none" stroke="black" cx="116.99" cy="-594" rx="116.98" ry="18"/>
<text text-anchor="middle" x="116.99" y="-590.3" font-family="Times,serif" font-size="14.00">T3_CODICE1_ERRORE</text>
</g>
<!-- T3_CODICE1&#45;&gt;T3_CODICE1_ERRORE -->
<g id="edge11" class="edge">
<title>T3_CODICE1&#45;&gt;T3_CODICE1_ERRORE</title>
<path fill="none" stroke="black" d="M236.01,-538.19C212.84,-548.86 181.73,-563.19 157.12,-574.52"/>
<polygon fill="black" stroke="black" points="156.1,-573.06 152.29,-576.74 157.56,-576.24 156.1,-573.06"/>
</g>
<!-- T1_CODICE2 -->
<g id="node3" class="node">
<title>T1_CODICE2</title>
<ellipse fill="none" stroke="black" cx="489.99" cy="-162" rx="71.49" ry="18"/>
<text text-anchor="middle" x="489.99" y="-158.3" font-family="Times,serif" font-size="14.00">T1_CODICE2</text>
</g>
<!-- T1_CODICE2_ERRORE -->
<g id="node8" class="node">
<title>T1_CODICE2_ERRORE</title>
<ellipse fill="none" stroke="black" cx="283.99" cy="-234" rx="116.98" ry="18"/>
<text text-anchor="middle" x="283.99" y="-230.3" font-family="Times,serif" font-size="14.00">T1_CODICE2_ERRORE</text>
</g>
<!-- T1_CODICE2&#45;&gt;T1_CODICE2_ERRORE -->
<g id="edge22" class="edge">
<title>T1_CODICE2&#45;&gt;T1_CODICE2_ERRORE</title>
<path fill="none" stroke="black" d="M449.29,-176.83C416.55,-187.96 370.34,-203.66 335.11,-215.63"/>
<polygon fill="black" stroke="black" points="334.16,-214.1 329.99,-217.37 335.29,-217.42 334.16,-214.1"/>
</g>
<!-- T1_CODICE3 -->
<g id="node10" class="node">
<title>T1_CODICE3</title>
<ellipse fill="none" stroke="black" cx="489.99" cy="-234" rx="71.49" ry="18"/>
<text text-anchor="middle" x="489.99" y="-230.3" font-family="Times,serif" font-size="14.00">T1_CODICE3</text>
</g>
<!-- T1_CODICE2&#45;&gt;T1_CODICE3 -->
<g id="edge23" class="edge">
<title>T1_CODICE2&#45;&gt;T1_CODICE3</title>
<path fill="none" stroke="black" d="M489.99,-180.3C489.99,-189.54 489.99,-201.02 489.99,-210.89"/>
<polygon fill="black" stroke="black" points="488.24,-210.9 489.99,-215.9 491.74,-210.9 488.24,-210.9"/>
</g>
<!-- BLOCCO&#45;&gt;BLOCCO -->
<g id="edge18" class="edge">
<title>BLOCCO&#45;&gt;BLOCCO</title>
<path fill="none" stroke="black" d="M230,-724.9C247.96,-723.09 263.99,-727.45 263.99,-738 263.99,-747.56 250.83,-752.04 234.99,-751.45"/>
<polygon fill="black" stroke="black" points="235.11,-749.7 230,-751.1 234.87,-753.19 235.11,-749.7"/>
</g>
<!-- T2_CODICE1 -->
<g id="node5" class="node">
<title>T2_CODICE1</title>
<ellipse fill="none" stroke="black" cx="336.99" cy="-306" rx="71.49" ry="18"/>
<text text-anchor="middle" x="336.99" y="-302.3" font-family="Times,serif" font-size="14.00">T2_CODICE1</text>
</g>
<!-- T2_CODICE2 -->
<g id="node14" class="node">
<title>T2_CODICE2</title>
<ellipse fill="none" stroke="black" cx="390.99" cy="-378" rx="71.49" ry="18"/>
<text text-anchor="middle" x="390.99" y="-374.3" font-family="Times,serif" font-size="14.00">T2_CODICE2</text>
</g>
<!-- T2_CODICE1&#45;&gt;T2_CODICE2 -->
<g id="edge28" class="edge">
<title>T2_CODICE1&#45;&gt;T2_CODICE2</title>
<path fill="none" stroke="black" d="M350.06,-323.95C357.56,-333.66 367.02,-345.93 374.96,-356.23"/>
<polygon fill="black" stroke="black" points="373.6,-357.32 378.04,-360.21 376.37,-355.18 373.6,-357.32"/>
</g>
<!-- T2_CODICE1_ERRORE -->
<g id="node18" class="node">
<title>T2_CODICE1_ERRORE</title>
<ellipse fill="none" stroke="black" cx="184.99" cy="-378" rx="116.98" ry="18"/>
<text text-anchor="middle" x="184.99" y="-374.3" font-family="Times,serif" font-size="14.00">T2_CODICE1_ERRORE</text>
</g>
<!-- T2_CODICE1&#45;&gt;T2_CODICE1_ERRORE -->
<g id="edge3" class="edge">
<title>T2_CODICE1&#45;&gt;T2_CODICE1_ERRORE</title>
<path fill="none" stroke="black" d="M304.01,-322.19C280.84,-332.86 249.73,-347.19 225.12,-358.52"/>
<polygon fill="black" stroke="black" points="224.1,-357.06 220.29,-360.74 225.56,-360.24 224.1,-357.06"/>
</g>
<!-- RICHIESTA -->
<g id="node6" class="node">
<title>RICHIESTA</title>
<ellipse fill="none" stroke="black" cx="421.99" cy="-738" rx="63.89" ry="18"/>
<text text-anchor="middle" x="421.99" y="-734.3" font-family="Times,serif" font-size="14.00">RICHIESTA</text>
</g>
<!-- RICHIESTA&#45;&gt;RICHIESTA -->
<g id="edge20" class="edge">
<title>RICHIESTA&#45;&gt;RICHIESTA</title>
<path fill="none" stroke="black" d="M465.69,-724.77C485.97,-723.32 503.68,-727.73 503.68,-738 503.68,-747.38 488.88,-751.88 470.86,-751.48"/>
<polygon fill="black" stroke="black" points="470.77,-749.72 465.69,-751.23 470.61,-753.22 470.77,-749.72"/>
</g>
<!-- EROGAZIONE -->
<g id="node7" class="node">
<title>EROGAZIONE</title>
<ellipse fill="none" stroke="black" cx="421.99" cy="-810" rx="77.19" ry="18"/>
<text text-anchor="middle" x="421.99" y="-806.3" font-family="Times,serif" font-size="14.00">EROGAZIONE</text>
</g>
<!-- RICHIESTA&#45;&gt;EROGAZIONE -->
<g id="edge21" class="edge">
<title>RICHIESTA&#45;&gt;EROGAZIONE</title>
<path fill="none" stroke="black" d="M421.99,-756.3C421.99,-765.54 421.99,-777.02 421.99,-786.89"/>
<polygon fill="black" stroke="black" points="420.24,-786.9 421.99,-791.9 423.74,-786.9 420.24,-786.9"/>
</g>
<!-- T1_CODICE2_ERRORE&#45;&gt;T2_CODICE1 -->
<g id="edge24" class="edge">
<title>T1_CODICE2_ERRORE&#45;&gt;T2_CODICE1</title>
<path fill="none" stroke="black" d="M296.82,-251.95C304.11,-261.58 313.3,-273.72 321.05,-283.95"/>
<polygon fill="black" stroke="black" points="319.86,-285.28 324.28,-288.21 322.65,-283.17 319.86,-285.28"/>
</g>
<!-- T3_CODICE2&#45;&gt;T3_CODICE2_ERRORE -->
<g id="edge17" class="edge">
<title>T3_CODICE2&#45;&gt;T3_CODICE2_ERRORE</title>
<path fill="none" stroke="black" d="M282.29,-608.83C249.55,-619.96 203.34,-635.66 168.11,-647.63"/>
<polygon fill="black" stroke="black" points="167.16,-646.1 162.99,-649.37 168.29,-649.42 167.16,-646.1"/>
</g>
<!-- T3_CODICE3 -->
<g id="node19" class="node">
<title>T3_CODICE3</title>
<ellipse fill="none" stroke="black" cx="322.99" cy="-666" rx="71.49" ry="18"/>
<text text-anchor="middle" x="322.99" y="-662.3" font-family="Times,serif" font-size="14.00">T3_CODICE3</text>
</g>
<!-- T3_CODICE2&#45;&gt;T3_CODICE3 -->
<g id="edge6" class="edge">
<title>T3_CODICE2&#45;&gt;T3_CODICE3</title>
<path fill="none" stroke="black" d="M322.99,-612.3C322.99,-621.54 322.99,-633.02 322.99,-642.89"/>
<polygon fill="black" stroke="black" points="321.24,-642.9 322.99,-647.9 324.74,-642.9 321.24,-642.9"/>
</g>
<!-- T1_CODICE3&#45;&gt;T2_CODICE1 -->
<g id="edge29" class="edge">
<title>T1_CODICE3&#45;&gt;T2_CODICE1</title>
<path fill="none" stroke="black" d="M457.17,-250.02C432.95,-261.1 399.94,-276.2 374.65,-287.77"/>
<polygon fill="black" stroke="black" points="373.84,-286.22 370.02,-289.89 375.3,-289.4 373.84,-286.22"/>
</g>
<!-- T1_CODICE3&#45;&gt;RICHIESTA -->
<g id="edge12" class="edge">
<title>T1_CODICE3&#45;&gt;RICHIESTA</title>
<path fill="none" stroke="black" d="M489.99,-252.05C489.99,-278.71 489.99,-331.89 489.99,-377 489.99,-377 489.99,-377 489.99,-595 489.99,-641.96 459.36,-689.85 439.22,-716.26"/>
<polygon fill="black" stroke="black" points="437.76,-715.29 436.08,-720.32 440.52,-717.43 437.76,-715.29"/>
</g>
<!-- T2_CODICE2_ERRORE -->
<g id="node11" class="node">
<title>T2_CODICE2_ERRORE</title>
<ellipse fill="none" stroke="black" cx="184.99" cy="-450" rx="116.98" ry="18"/>
<text text-anchor="middle" x="184.99" y="-446.3" font-family="Times,serif" font-size="14.00">T2_CODICE2_ERRORE</text>
</g>
<!-- T2_CODICE2_ERRORE&#45;&gt;T3_CODICE1 -->
<g id="edge7" class="edge">
<title>T2_CODICE2_ERRORE&#45;&gt;T3_CODICE1</title>
<path fill="none" stroke="black" d="M205.32,-467.95C217.28,-477.91 232.45,-490.55 244.99,-501"/>
<polygon fill="black" stroke="black" points="244.17,-502.6 249.13,-504.45 246.41,-499.91 244.17,-502.6"/>
</g>
<!-- T3_CODICE1_ERRORE&#45;&gt;T3_CODICE2_ERRORE -->
<g id="edge19" class="edge">
<title>T3_CODICE1_ERRORE&#45;&gt;T3_CODICE2_ERRORE</title>
<path fill="none" stroke="black" d="M116.99,-612.3C116.99,-621.54 116.99,-633.02 116.99,-642.89"/>
<polygon fill="black" stroke="black" points="115.24,-642.9 116.99,-647.9 118.74,-642.9 115.24,-642.9"/>
</g>
<!-- INSERIMENTO -->
<g id="node13" class="node">
<title>INSERIMENTO</title>
<ellipse fill="none" stroke="black" cx="386.99" cy="-18" rx="82.59" ry="18"/>
<text text-anchor="middle" x="386.99" y="-14.3" font-family="Times,serif" font-size="14.00">INSERIMENTO</text>
</g>
<!-- INSERIMENTO&#45;&gt;INSERIMENTO -->
<g id="edge10" class="edge">
<title>INSERIMENTO&#45;&gt;INSERIMENTO</title>
<path fill="none" stroke="black" d="M442.57,-4.67C466.76,-3.54 487.53,-7.98 487.53,-18 487.53,-27.32 469.58,-31.81 447.61,-31.48"/>
<polygon fill="black" stroke="black" points="447.62,-29.73 442.57,-31.33 447.51,-33.23 447.62,-29.73"/>
</g>
<!-- T1_CODICE1 -->
<g id="node17" class="node">
<title>T1_CODICE1</title>
<ellipse fill="none" stroke="black" cx="386.99" cy="-90" rx="71.49" ry="18"/>
<text text-anchor="middle" x="386.99" y="-86.3" font-family="Times,serif" font-size="14.00">T1_CODICE1</text>
</g>
<!-- INSERIMENTO&#45;&gt;T1_CODICE1 -->
<g id="edge2" class="edge">
<title>INSERIMENTO&#45;&gt;T1_CODICE1</title>
<path fill="none" stroke="black" d="M386.99,-36.3C386.99,-45.54 386.99,-57.02 386.99,-66.89"/>
<polygon fill="black" stroke="black" points="385.24,-66.9 386.99,-71.9 388.74,-66.9 385.24,-66.9"/>
</g>
<!-- T2_CODICE2&#45;&gt;T2_CODICE2_ERRORE -->
<g id="edge5" class="edge">
<title>T2_CODICE2&#45;&gt;T2_CODICE2_ERRORE</title>
<path fill="none" stroke="black" d="M350.29,-392.83C317.55,-403.96 271.34,-419.66 236.11,-431.63"/>
<polygon fill="black" stroke="black" points="235.16,-430.1 230.99,-433.37 236.29,-433.42 235.16,-430.1"/>
</g>
<!-- T2_CODICE3 -->
<g id="node15" class="node">
<title>T2_CODICE3</title>
<ellipse fill="none" stroke="black" cx="390.99" cy="-450" rx="71.49" ry="18"/>
<text text-anchor="middle" x="390.99" y="-446.3" font-family="Times,serif" font-size="14.00">T2_CODICE3</text>
</g>
<!-- T2_CODICE2&#45;&gt;T2_CODICE3 -->
<g id="edge8" class="edge">
<title>T2_CODICE2&#45;&gt;T2_CODICE3</title>
<path fill="none" stroke="black" d="M390.99,-396.3C390.99,-405.54 390.99,-417.02 390.99,-426.89"/>
<polygon fill="black" stroke="black" points="389.24,-426.9 390.99,-431.9 392.74,-426.9 389.24,-426.9"/>
</g>
<!-- T2_CODICE3&#45;&gt;T3_CODICE1 -->
<g id="edge26" class="edge">
<title>T2_CODICE3&#45;&gt;T3_CODICE1</title>
<path fill="none" stroke="black" d="M363.61,-466.71C345.09,-477.34 320.55,-491.42 301.1,-502.57"/>
<polygon fill="black" stroke="black" points="299.74,-501.34 296.28,-505.34 301.49,-504.37 299.74,-501.34"/>
</g>
<!-- T2_CODICE3&#45;&gt;RICHIESTA -->
<g id="edge1" class="edge">
<title>T2_CODICE3&#45;&gt;RICHIESTA</title>
<path fill="none" stroke="black" d="M392.84,-468.03C398.16,-517.2 413.57,-659.33 419.56,-714.62"/>
<polygon fill="black" stroke="black" points="417.84,-714.91 420.11,-719.69 421.31,-714.53 417.84,-714.91"/>
</g>
<!-- T1_CODICE1_ERRORE -->
<g id="node16" class="node">
<title>T1_CODICE1_ERRORE</title>
<ellipse fill="none" stroke="black" cx="283.99" cy="-162" rx="116.98" ry="18"/>
<text text-anchor="middle" x="283.99" y="-158.3" font-family="Times,serif" font-size="14.00">T1_CODICE1_ERRORE</text>
</g>
<!-- T1_CODICE1_ERRORE&#45;&gt;T1_CODICE2_ERRORE -->
<g id="edge13" class="edge">
<title>T1_CODICE1_ERRORE&#45;&gt;T1_CODICE2_ERRORE</title>
<path fill="none" stroke="black" d="M283.99,-180.3C283.99,-189.54 283.99,-201.02 283.99,-210.89"/>
<polygon fill="black" stroke="black" points="282.24,-210.9 283.99,-215.9 285.74,-210.9 282.24,-210.9"/>
</g>
<!-- T1_CODICE1&#45;&gt;T1_CODICE2 -->
<g id="edge25" class="edge">
<title>T1_CODICE1&#45;&gt;T1_CODICE2</title>
<path fill="none" stroke="black" d="M410.62,-107.06C425.82,-117.39 445.66,-130.87 461.7,-141.77"/>
<polygon fill="black" stroke="black" points="460.99,-143.41 466.11,-144.77 462.96,-140.52 460.99,-143.41"/>
</g>
<!-- T1_CODICE1&#45;&gt;T1_CODICE1_ERRORE -->
<g id="edge9" class="edge">
<title>T1_CODICE1&#45;&gt;T1_CODICE1_ERRORE</title>
<path fill="none" stroke="black" d="M363.36,-107.06C348.38,-117.24 328.89,-130.49 312.97,-141.3"/>
<polygon fill="black" stroke="black" points="311.74,-140.03 308.59,-144.28 313.7,-142.92 311.74,-140.03"/>
</g>
<!-- T2_CODICE1_ERRORE&#45;&gt;T2_CODICE2_ERRORE -->
<g id="edge4" class="edge">
<title>T2_CODICE1_ERRORE&#45;&gt;T2_CODICE2_ERRORE</title>
<path fill="none" stroke="black" d="M184.99,-396.3C184.99,-405.54 184.99,-417.02 184.99,-426.89"/>
<polygon fill="black" stroke="black" points="183.24,-426.9 184.99,-431.9 186.74,-426.9 183.24,-426.9"/>
</g>
<!-- T3_CODICE3&#45;&gt;BLOCCO -->
<g id="edge16" class="edge">
<title>T3_CODICE3&#45;&gt;BLOCCO</title>
<path fill="none" stroke="black" d="M294.36,-682.54C273.93,-693.62 246.47,-708.52 225.43,-719.94"/>
<polygon fill="black" stroke="black" points="224.34,-718.54 220.78,-722.46 226.01,-721.62 224.34,-718.54"/>
</g>
<!-- T3_CODICE3&#45;&gt;RICHIESTA -->
<g id="edge27" class="edge">
<title>T3_CODICE3&#45;&gt;RICHIESTA</title>
<path fill="none" stroke="black" d="M345.95,-683.24C360.67,-693.65 379.85,-707.2 395.25,-718.1"/>
<polygon fill="black" stroke="black" points="394.4,-719.64 399.49,-721.09 396.42,-716.78 394.4,-719.64"/>
</g>
</g>
</svg>
