<?xml version="1.0" encoding="UTF-8" standalone="no"?>
<!DOCTYPE svg PUBLIC "-//W3C//DTD SVG 1.1//EN"
 "http://www.w3.org/Graphics/SVG/1.1/DTD/svg11.dtd">
<!-- Generated by graphviz version 2.43.0 (0)
 -->
<!-- Title: %3 Pages: 1 -->
<svg width="587pt" height="836pt"
 viewBox="0.00 0.00 586.53 836.00" xmlns="http://www.w3.org/2000/svg" xmlns:xlink="http://www.w3.org/1999/xlink">
<g id="graph0" class="graph" transform="scale(1 1) rotate(0) translate(4 832)">
<title>%3</title>
<polygon fill="white" stroke="transparent" points="-4,4 -4,-832 582.53,-832 582.53,4 -4,4"/>
<!-- INSERIMENTO -->
<g id="node1" class="node">
<title>INSERIMENTO</title>
<ellipse fill="none" stroke="black" cx="477.99" cy="-18" rx="82.59" ry="18"/>
<text text-anchor="middle" x="477.99" y="-14.3" font-family="Times,serif" font-size="14.00">INSERIMENTO</text>
</g>
<!-- INSERIMENTO&#45;&gt;INSERIMENTO -->
<g id="edge11" class="edge">
<title>INSERIMENTO&#45;&gt;INSERIMENTO</title>
<path fill="none" stroke="black" d="M533.57,-4.67C557.76,-3.54 578.53,-7.98 578.53,-18 578.53,-27.32 560.58,-31.81 538.61,-31.48"/>
<polygon fill="black" stroke="black" points="538.62,-29.73 533.57,-31.33 538.51,-33.23 538.62,-29.73"/>
</g>
<!-- T1_CODICE1 -->
<g id="node12" class="node">
<title>T1_CODICE1</title>
<ellipse fill="none" stroke="black" cx="428.99" cy="-90" rx="71.49" ry="18"/>
<text text-anchor="middle" x="428.99" y="-86.3" font-family="Times,serif" font-size="14.00">T1_CODICE1</text>
</g>
<!-- INSERIMENTO&#45;&gt;T1_CODICE1 -->
<g id="edge16" class="edge">
<title>INSERIMENTO&#45;&gt;T1_CODICE1</title>
<path fill="none" stroke="black" d="M466.13,-35.95C459.39,-45.58 450.89,-57.72 443.72,-67.95"/>
<polygon fill="black" stroke="black" points="442.18,-67.11 440.74,-72.21 445.04,-69.12 442.18,-67.11"/>
</g>
<!-- EROGAZIONE -->
<g id="node2" class="node">
<title>EROGAZIONE</title>
<ellipse fill="none" stroke="black" cx="440.99" cy="-810" rx="77.19" ry="18"/>
<text text-anchor="middle" x="440.99" y="-806.3" font-family="Times,serif" font-size="14.00">EROGAZIONE</text>
</g>
<!-- RICHIESTA -->
<g id="node3" class="node">
<title>RICHIESTA</title>
<ellipse fill="none" stroke="black" cx="440.99" cy="-738" rx="63.89" ry="18"/>
<text text-anchor="middle" x="440.99" y="-734.3" font-family="Times,serif" font-size="14.00">RICHIESTA</text>
</g>
<!-- RICHIESTA&#45;&gt;INSERIMENTO -->
<g id="edge20" class="edge">
<title>RICHIESTA&#45;&gt;INSERIMENTO</title>
<path fill="none" stroke="black" d="M459.44,-720.65C484.98,-696.1 527.99,-647.04 527.99,-595 527.99,-161 527.99,-161 527.99,-161 527.99,-120.55 523.61,-109.71 508.99,-72 504.75,-61.07 498.43,-49.74 492.6,-40.38"/>
<polygon fill="black" stroke="black" points="493.95,-39.24 489.79,-35.96 490.99,-41.12 493.95,-39.24"/>
</g>
<!-- RICHIESTA&#45;&gt;EROGAZIONE -->
<g id="edge10" class="edge">
<title>RICHIESTA&#45;&gt;EROGAZIONE</title>
<path fill="none" stroke="black" d="M440.99,-756.3C440.99,-765.54 440.99,-777.02 440.99,-786.89"/>
<polygon fill="black" stroke="black" points="439.24,-786.9 440.99,-791.9 442.74,-786.9 439.24,-786.9"/>
</g>
<!-- T2_CODICE2 -->
<g id="node4" class="node">
<title>T2_CODICE2</title>
<ellipse fill="none" stroke="black" cx="360.99" cy="-378" rx="71.49" ry="18"/>
<text text-anchor="middle" x="360.99" y="-374.3" font-family="Times,serif" font-size="14.00">T2_CODICE2</text>
</g>
<!-- T2_CODICE3 -->
<g id="node7" class="node">
<title>T2_CODICE3</title>
<ellipse fill="none" stroke="black" cx="360.99" cy="-450" rx="71.49" ry="18"/>
<text text-anchor="middle" x="360.99" y="-446.3" font-family="Times,serif" font-size="14.00">T2_CODICE3</text>
</g>
<!-- T2_CODICE2&#45;&gt;T2_CODICE3 -->
<g id="edge19" class="edge">
<title>T2_CODICE2&#45;&gt;T2_CODICE3</title>
<path fill="none" stroke="black" d="M360.99,-396.3C360.99,-405.54 360.99,-417.02 360.99,-426.89"/>
<polygon fill="black" stroke="black" points="359.24,-426.9 360.99,-431.9 362.74,-426.9 359.24,-426.9"/>
</g>
<!-- T2_CODICE2_ERRORE -->
<g id="node18" class="node">
<title>T2_CODICE2_ERRORE</title>
<ellipse fill="none" stroke="black" cx="154.99" cy="-450" rx="116.98" ry="18"/>
<text text-anchor="middle" x="154.99" y="-446.3" font-family="Times,serif" font-size="14.00">T2_CODICE2_ERRORE</text>
</g>
<!-- T2_CODICE2&#45;&gt;T2_CODICE2_ERRORE -->
<g id="edge1" class="edge">
<title>T2_CODICE2&#45;&gt;T2_CODICE2_ERRORE</title>
<path fill="none" stroke="black" d="M320.29,-392.83C287.55,-403.96 241.34,-419.66 206.11,-431.63"/>
<polygon fill="black" stroke="black" points="205.16,-430.1 200.99,-433.37 206.29,-433.42 205.16,-430.1"/>
</g>
<!-- T1_CODICE3 -->
<g id="node5" class="node">
<title>T1_CODICE3</title>
<ellipse fill="none" stroke="black" cx="428.99" cy="-234" rx="71.49" ry="18"/>
<text text-anchor="middle" x="428.99" y="-230.3" font-family="Times,serif" font-size="14.00">T1_CODICE3</text>
</g>
<!-- T1_CODICE3&#45;&gt;RICHIESTA -->
<g id="edge17" class="edge">
<title>T1_CODICE3&#45;&gt;RICHIESTA</title>
<path fill="none" stroke="black" d="M435.26,-252.22C444.32,-278.68 459.99,-331.08 459.99,-377 459.99,-377 459.99,-377 459.99,-595 459.99,-637.62 451.48,-686.79 445.85,-714.66"/>
<polygon fill="black" stroke="black" points="444.12,-714.36 444.83,-719.61 447.55,-715.07 444.12,-714.36"/>
</g>
<!-- T2_CODICE1 -->
<g id="node11" class="node">
<title>T2_CODICE1</title>
<ellipse fill="none" stroke="black" cx="306.99" cy="-306" rx="71.49" ry="18"/>
<text text-anchor="middle" x="306.99" y="-302.3" font-family="Times,serif" font-size="14.00">T2_CODICE1</text>
</g>
<!-- T1_CODICE3&#45;&gt;T2_CODICE1 -->
<g id="edge28" class="edge">
<title>T1_CODICE3&#45;&gt;T2_CODICE1</title>
<path fill="none" stroke="black" d="M401.61,-250.71C383.09,-261.34 358.55,-275.42 339.1,-286.57"/>
<polygon fill="black" stroke="black" points="337.74,-285.34 334.28,-289.34 339.49,-288.37 337.74,-285.34"/>
</g>
<!-- T1_CODICE2 -->
<g id="node6" class="node">
<title>T1_CODICE2</title>
<ellipse fill="none" stroke="black" cx="428.99" cy="-162" rx="71.49" ry="18"/>
<text text-anchor="middle" x="428.99" y="-158.3" font-family="Times,serif" font-size="14.00">T1_CODICE2</text>
</g>
<!-- T1_CODICE2&#45;&gt;T1_CODICE3 -->
<g id="edge6" class="edge">
<title>T1_CODICE2&#45;&gt;T1_CODICE3</title>
<path fill="none" stroke="black" d="M428.99,-180.3C428.99,-189.54 428.99,-201.02 428.99,-210.89"/>
<polygon fill="black" stroke="black" points="427.24,-210.9 428.99,-215.9 430.74,-210.9 427.24,-210.9"/>
</g>
<!-- T1_CODICE2_ERRORE -->
<g id="node8" class="node">
<title>T1_CODICE2_ERRORE</title>
<ellipse fill="none" stroke="black" cx="222.99" cy="-234" rx="116.98" ry="18"/>
<text text-anchor="middle" x="222.99" y="-230.3" font-family="Times,serif" font-size="14.00">T1_CODICE2_ERRORE</text>
</g>
<!-- T1_CODICE2&#45;&gt;T1_CODICE2_ERRORE -->
<g id="edge27" class="edge">
<title>T1_CODICE2&#45;&gt;T1_CODICE2_ERRORE</title>
<path fill="none" stroke="black" d="M388.29,-176.83C355.55,-187.96 309.34,-203.66 274.11,-215.63"/>
<polygon fill="black" stroke="black" points="273.16,-214.1 268.99,-217.37 274.29,-217.42 273.16,-214.1"/>
</g>
<!-- T2_CODICE3&#45;&gt;RICHIESTA -->
<g id="edge13" class="edge">
<title>T2_CODICE3&#45;&gt;RICHIESTA</title>
<path fill="none" stroke="black" d="M367.34,-468.23C376.05,-492.2 391.87,-537.03 402.99,-576 416.99,-625.08 429.87,-683.61 436.43,-714.81"/>
<polygon fill="black" stroke="black" points="434.77,-715.41 437.51,-719.95 438.19,-714.69 434.77,-715.41"/>
</g>
<!-- T3_CODICE1 -->
<g id="node13" class="node">
<title>T3_CODICE1</title>
<ellipse fill="none" stroke="black" cx="238.99" cy="-522" rx="71.49" ry="18"/>
<text text-anchor="middle" x="238.99" y="-518.3" font-family="Times,serif" font-size="14.00">T3_CODICE1</text>
</g>
<!-- T2_CODICE3&#45;&gt;T3_CODICE1 -->
<g id="edge15" class="edge">
<title>T2_CODICE3&#45;&gt;T3_CODICE1</title>
<path fill="none" stroke="black" d="M333.61,-466.71C315.09,-477.34 290.55,-491.42 271.1,-502.57"/>
<polygon fill="black" stroke="black" points="269.74,-501.34 266.28,-505.34 271.49,-504.37 269.74,-501.34"/>
</g>
<!-- T1_CODICE2_ERRORE&#45;&gt;T2_CODICE1 -->
<g id="edge4" class="edge">
<title>T1_CODICE2_ERRORE&#45;&gt;T2_CODICE1</title>
<path fill="none" stroke="black" d="M243.32,-251.95C255.28,-261.91 270.45,-274.55 282.99,-285"/>
<polygon fill="black" stroke="black" points="282.17,-286.6 287.13,-288.45 284.41,-283.91 282.17,-286.6"/>
</g>
<!-- BLOCCO -->
<g id="node9" class="node">
<title>BLOCCO</title>
<ellipse fill="none" stroke="black" cx="212.99" cy="-738" rx="51.99" ry="18"/>
<text text-anchor="middle" x="212.99" y="-734.3" font-family="Times,serif" font-size="14.00">BLOCCO</text>
</g>
<!-- BLOCCO&#45;&gt;BLOCCO -->
<g id="edge14" class="edge">
<title>BLOCCO&#45;&gt;BLOCCO</title>
<path fill="none" stroke="black" d="M249,-724.9C266.96,-723.09 282.99,-727.45 282.99,-738 282.99,-747.56 269.83,-752.04 253.99,-751.45"/>
<polygon fill="black" stroke="black" points="254.11,-749.7 249,-751.1 253.87,-753.19 254.11,-749.7"/>
</g>
<!-- T1_CODICE1_ERRORE -->
<g id="node10" class="node">
<title>T1_CODICE1_ERRORE</title>
<ellipse fill="none" stroke="black" cx="222.99" cy="-162" rx="116.98" ry="18"/>
<text text-anchor="middle" x="222.99" y="-158.3" font-family="Times,serif" font-size="14.00">T1_CODICE1_ERRORE</text>
</g>
<!-- T1_CODICE1_ERRORE&#45;&gt;T1_CODICE2_ERRORE -->
<g id="edge25" class="edge">
<title>T1_CODICE1_ERRORE&#45;&gt;T1_CODICE2_ERRORE</title>
<path fill="none" stroke="black" d="M222.99,-180.3C222.99,-189.54 222.99,-201.02 222.99,-210.89"/>
<polygon fill="black" stroke="black" points="221.24,-210.9 222.99,-215.9 224.74,-210.9 221.24,-210.9"/>
</g>
<!-- T2_CODICE1&#45;&gt;T2_CODICE2 -->
<g id="edge3" class="edge">
<title>T2_CODICE1&#45;&gt;T2_CODICE2</title>
<path fill="none" stroke="black" d="M320.06,-323.95C327.56,-333.66 337.02,-345.93 344.96,-356.23"/>
<polygon fill="black" stroke="black" points="343.6,-357.32 348.04,-360.21 346.37,-355.18 343.6,-357.32"/>
</g>
<!-- T2_CODICE1_ERRORE -->
<g id="node14" class="node">
<title>T2_CODICE1_ERRORE</title>
<ellipse fill="none" stroke="black" cx="154.99" cy="-378" rx="116.98" ry="18"/>
<text text-anchor="middle" x="154.99" y="-374.3" font-family="Times,serif" font-size="14.00">T2_CODICE1_ERRORE</text>
</g>
<!-- T2_CODICE1&#45;&gt;T2_CODICE1_ERRORE -->
<g id="edge5" class="edge">
<title>T2_CODICE1&#45;&gt;T2_CODICE1_ERRORE</title>
<path fill="none" stroke="black" d="M274.01,-322.19C250.84,-332.86 219.73,-347.19 195.12,-358.52"/>
<polygon fill="black" stroke="black" points="194.1,-357.06 190.29,-360.74 195.56,-360.24 194.1,-357.06"/>
</g>
<!-- T1_CODICE1&#45;&gt;T1_CODICE2 -->
<g id="edge12" class="edge">
<title>T1_CODICE1&#45;&gt;T1_CODICE2</title>
<path fill="none" stroke="black" d="M428.99,-108.3C428.99,-117.54 428.99,-129.02 428.99,-138.89"/>
<polygon fill="black" stroke="black" points="427.24,-138.9 428.99,-143.9 430.74,-138.9 427.24,-138.9"/>
</g>
<!-- T1_CODICE1&#45;&gt;T1_CODICE1_ERRORE -->
<g id="edge24" class="edge">
<title>T1_CODICE1&#45;&gt;T1_CODICE1_ERRORE</title>
<path fill="none" stroke="black" d="M388.29,-104.83C355.55,-115.96 309.34,-131.66 274.11,-143.63"/>
<polygon fill="black" stroke="black" points="273.16,-142.1 268.99,-145.37 274.29,-145.42 273.16,-142.1"/>
</g>
<!-- T3_CODICE2 -->
<g id="node17" class="node">
<title>T3_CODICE2</title>
<ellipse fill="none" stroke="black" cx="322.99" cy="-594" rx="71.49" ry="18"/>
<text text-anchor="middle" x="322.99" y="-590.3" font-family="Times,serif" font-size="14.00">T3_CODICE2</text>
</g>
<!-- T3_CODICE1&#45;&gt;T3_CODICE2 -->
<g id="edge22" class="edge">
<title>T3_CODICE1&#45;&gt;T3_CODICE2</title>
<path fill="none" stroke="black" d="M258.9,-539.59C271.03,-549.7 286.61,-562.68 299.36,-573.31"/>
<polygon fill="black" stroke="black" points="298.26,-574.67 303.23,-576.53 300.5,-571.98 298.26,-574.67"/>
</g>
<!-- T3_CODICE1_ERRORE -->
<g id="node19" class="node">
<title>T3_CODICE1_ERRORE</title>
<ellipse fill="none" stroke="black" cx="116.99" cy="-594" rx="116.98" ry="18"/>
<text text-anchor="middle" x="116.99" y="-590.3" font-family="Times,serif" font-size="14.00">T3_CODICE1_ERRORE</text>
</g>
<!-- T3_CODICE1&#45;&gt;T3_CODICE1_ERRORE -->
<g id="edge29" class="edge">
<title>T3_CODICE1&#45;&gt;T3_CODICE1_ERRORE</title>
<path fill="none" stroke="black" d="M211.61,-538.71C193.61,-549.04 169.92,-562.63 150.75,-573.63"/>
<polygon fill="black" stroke="black" points="149.44,-572.36 145.98,-576.37 151.19,-575.4 149.44,-572.36"/>
</g>
<!-- T2_CODICE1_ERRORE&#45;&gt;T2_CODICE2_ERRORE -->
<g id="edge2" class="edge">
<title>T2_CODICE1_ERRORE&#45;&gt;T2_CODICE2_ERRORE</title>
<path fill="none" stroke="black" d="M154.99,-396.3C154.99,-405.54 154.99,-417.02 154.99,-426.89"/>
<polygon fill="black" stroke="black" points="153.24,-426.9 154.99,-431.9 156.74,-426.9 153.24,-426.9"/>
</g>
<!-- T3_CODICE2_ERRORE -->
<g id="node15" class="node">
<title>T3_CODICE2_ERRORE</title>
<ellipse fill="none" stroke="black" cx="116.99" cy="-666" rx="116.98" ry="18"/>
<text text-anchor="middle" x="116.99" y="-662.3" font-family="Times,serif" font-size="14.00">T3_CODICE2_ERRORE</text>
</g>
<!-- T3_CODICE2_ERRORE&#45;&gt;BLOCCO -->
<g id="edge18" class="edge">
<title>T3_CODICE2_ERRORE&#45;&gt;BLOCCO</title>
<path fill="none" stroke="black" d="M140.23,-683.95C154.53,-694.37 172.88,-707.75 187.57,-718.46"/>
<polygon fill="black" stroke="black" points="186.53,-719.88 191.61,-721.41 188.6,-717.05 186.53,-719.88"/>
</g>
<!-- T3_CODICE3 -->
<g id="node16" class="node">
<title>T3_CODICE3</title>
<ellipse fill="none" stroke="black" cx="322.99" cy="-666" rx="71.49" ry="18"/>
<text text-anchor="middle" x="322.99" y="-662.3" font-family="Times,serif" font-size="14.00">T3_CODICE3</text>
</g>
<!-- T3_CODICE3&#45;&gt;RICHIESTA -->
<g id="edge7" class="edge">
<title>T3_CODICE3&#45;&gt;RICHIESTA</title>
<path fill="none" stroke="black" d="M349.77,-682.88C367.69,-693.52 391.35,-707.55 410.08,-718.66"/>
<polygon fill="black" stroke="black" points="409.53,-720.37 414.73,-721.42 411.32,-717.36 409.53,-720.37"/>
</g>
<!-- T3_CODICE3&#45;&gt;BLOCCO -->
<g id="edge9" class="edge">
<title>T3_CODICE3&#45;&gt;BLOCCO</title>
<path fill="none" stroke="black" d="M298.03,-682.88C281.08,-693.67 258.65,-707.94 241.08,-719.13"/>
<polygon fill="black" stroke="black" points="240,-717.74 236.72,-721.9 241.88,-720.69 240,-717.74"/>
</g>
<!-- T3_CODICE2&#45;&gt;T3_CODICE2_ERRORE -->
<g id="edge8" class="edge">
<title>T3_CODICE2&#45;&gt;T3_CODICE2_ERRORE</title>
<path fill="none" stroke="black" d="M282.29,-608.83C249.55,-619.96 203.34,-635.66 168.11,-647.63"/>
<polygon fill="black" stroke="black" points="167.16,-646.1 162.99,-649.37 168.29,-649.42 167.16,-646.1"/>
</g>
<!-- T3_CODICE2&#45;&gt;T3_CODICE3 -->
<g id="edge23" class="edge">
<title>T3_CODICE2&#45;&gt;T3_CODICE3</title>
<path fill="none" stroke="black" d="M322.99,-612.3C322.99,-621.54 322.99,-633.02 322.99,-642.89"/>
<polygon fill="black" stroke="black" points="321.24,-642.9 322.99,-647.9 324.74,-642.9 321.24,-642.9"/>
</g>
<!-- T2_CODICE2_ERRORE&#45;&gt;T3_CODICE1 -->
<g id="edge21" class="edge">
<title>T2_CODICE2_ERRORE&#45;&gt;T3_CODICE1</title>
<path fill="none" stroke="black" d="M175.32,-467.95C187.28,-477.91 202.45,-490.55 214.99,-501"/>
<polygon fill="black" stroke="black" points="214.17,-502.6 219.13,-504.45 216.41,-499.91 214.17,-502.6"/>
</g>
<!-- T3_CODICE1_ERRORE&#45;&gt;T3_CODICE2_ERRORE -->
<g id="edge26" class="edge">
<title>T3_CODICE1_ERRORE&#45;&gt;T3_CODICE2_ERRORE</title>
<path fill="none" stroke="black" d="M116.99,-612.3C116.99,-621.54 116.99,-633.02 116.99,-642.89"/>
<polygon fill="black" stroke="black" points="115.24,-642.9 116.99,-647.9 118.74,-642.9 115.24,-642.9"/>
</g>
</g>
</svg>
