<svg width="440" height="208" viewBox="0 0 440 208" fill="none" xmlns="http://www.w3.org/2000/svg">
<rect x="330.5" y="77.5" width="54" height="54" fill="white" stroke="black"/>
<path d="M357.293 76.7071C357.683 77.0976 358.317 77.0976 358.707 76.7071L365.071 70.3431C365.462 69.9526 365.462 69.3195 365.071 68.9289C364.681 68.5384 364.047 68.5384 363.657 68.9289L358 74.5858L352.343 68.9289C351.953 68.5384 351.319 68.5384 350.929 68.9289C350.538 69.3195 350.538 69.9526 350.929 70.3431L357.293 76.7071ZM357 20V76H359V20H357Z" fill="black"/>
<path d="M356.701 8.77344H353.127L352.324 11H351.164L354.422 2.46875H355.406L358.67 11H357.516L356.701 8.77344ZM353.467 7.84766H356.367L354.914 3.85742L353.467 7.84766ZM363.1 11H362.01V3.77539L359.824 4.57812V3.59375L362.93 2.42773H363.1V11Z" fill="black"/>
<path d="M357.293 188.707C357.683 189.098 358.317 189.098 358.707 188.707L365.071 182.343C365.462 181.953 365.462 181.319 365.071 180.929C364.681 180.538 364.047 180.538 363.657 180.929L358 186.586L352.343 180.929C351.953 180.538 351.319 180.538 350.929 180.929C350.538 181.319 350.538 181.953 350.929 182.343L357.293 188.707ZM357 132V188H359V132H357Z" fill="black"/>
<path d="M358.553 201.01C358.553 201.846 358.412 202.576 358.131 203.201C357.85 203.822 357.451 204.297 356.936 204.625C356.42 204.953 355.818 205.117 355.131 205.117C354.459 205.117 353.863 204.953 353.344 204.625C352.824 204.293 352.42 203.822 352.131 203.213C351.846 202.6 351.699 201.891 351.691 201.086V200.471C351.691 199.65 351.834 198.926 352.119 198.297C352.404 197.668 352.807 197.188 353.326 196.855C353.85 196.52 354.447 196.352 355.119 196.352C355.803 196.352 356.404 196.518 356.924 196.85C357.447 197.178 357.85 197.656 358.131 198.285C358.412 198.91 358.553 199.639 358.553 200.471V201.01ZM357.434 200.459C357.434 199.447 357.23 198.672 356.824 198.133C356.418 197.59 355.85 197.318 355.119 197.318C354.408 197.318 353.848 197.59 353.438 198.133C353.031 198.672 352.822 199.422 352.811 200.383V201.01C352.811 201.99 353.016 202.762 353.426 203.324C353.84 203.883 354.408 204.162 355.131 204.162C355.857 204.162 356.42 203.898 356.818 203.371C357.217 202.84 357.422 202.08 357.434 201.092V200.459ZM363.521 205H362.432V197.775L360.246 198.578V197.594L363.352 196.428H363.521V205Z" fill="black"/>
<rect x="385.5" y="77.5" width="54" height="54" fill="white" stroke="black"/>
<path d="M412.293 76.7071C412.683 77.0976 413.317 77.0976 413.707 76.7071L420.071 70.3431C420.462 69.9526 420.462 69.3195 420.071 68.9289C419.681 68.5384 419.047 68.5384 418.657 68.9289L413 74.5858L407.343 68.9289C406.953 68.5384 406.319 68.5384 405.929 68.9289C405.538 69.3195 405.538 69.9526 405.929 70.3431L412.293 76.7071ZM412 20V76H414V20H412Z" fill="black"/>
<path d="M411.701 8.77344H408.127L407.324 11H406.164L409.422 2.46875H410.406L413.67 11H412.516L411.701 8.77344ZM408.467 7.84766H411.367L409.914 3.85742L408.467 7.84766ZM419.887 7.36133C419.887 8.63086 419.67 9.57422 419.236 10.1914C418.803 10.8086 418.125 11.1172 417.203 11.1172C416.293 11.1172 415.619 10.8164 415.182 10.2148C414.744 9.60938 414.518 8.70703 414.502 7.50781V6.06055C414.502 4.80664 414.719 3.875 415.152 3.26562C415.586 2.65625 416.266 2.35156 417.191 2.35156C418.109 2.35156 418.785 2.64648 419.219 3.23633C419.652 3.82227 419.875 4.72852 419.887 5.95508V7.36133ZM418.803 5.87891C418.803 4.96094 418.674 4.29297 418.416 3.875C418.158 3.45312 417.75 3.24219 417.191 3.24219C416.637 3.24219 416.232 3.45117 415.979 3.86914C415.725 4.28711 415.594 4.92969 415.586 5.79688V7.53125C415.586 8.45312 415.719 9.13477 415.984 9.57617C416.254 10.0137 416.66 10.2324 417.203 10.2324C417.738 10.2324 418.135 10.0254 418.393 9.61133C418.654 9.19727 418.791 8.54492 418.803 7.6543V5.87891Z" fill="black"/>
<path d="M412.293 188.707C412.683 189.098 413.317 189.098 413.707 188.707L420.071 182.343C420.462 181.953 420.462 181.319 420.071 180.929C419.681 180.538 419.047 180.538 418.657 180.929L413 186.586L407.343 180.929C406.953 180.538 406.319 180.538 405.929 180.929C405.538 181.319 405.538 181.953 405.929 182.343L412.293 188.707ZM412 132V188H414V132H412Z" fill="black"/>
<path d="M413.553 201.01C413.553 201.846 413.412 202.576 413.131 203.201C412.85 203.822 412.451 204.297 411.936 204.625C411.42 204.953 410.818 205.117 410.131 205.117C409.459 205.117 408.863 204.953 408.344 204.625C407.824 204.293 407.42 203.822 407.131 203.213C406.846 202.6 406.699 201.891 406.691 201.086V200.471C406.691 199.65 406.834 198.926 407.119 198.297C407.404 197.668 407.807 197.188 408.326 196.855C408.85 196.52 409.447 196.352 410.119 196.352C410.803 196.352 411.404 196.518 411.924 196.85C412.447 197.178 412.85 197.656 413.131 198.285C413.412 198.91 413.553 199.639 413.553 200.471V201.01ZM412.434 200.459C412.434 199.447 412.23 198.672 411.824 198.133C411.418 197.59 410.85 197.318 410.119 197.318C409.408 197.318 408.848 197.59 408.438 198.133C408.031 198.672 407.822 199.422 407.811 200.383V201.01C407.811 201.99 408.016 202.762 408.426 203.324C408.84 203.883 409.408 204.162 410.131 204.162C410.857 204.162 411.42 203.898 411.818 203.371C412.217 202.84 412.422 202.08 412.434 201.092V200.459ZM420.309 201.361C420.309 202.631 420.092 203.574 419.658 204.191C419.225 204.809 418.547 205.117 417.625 205.117C416.715 205.117 416.041 204.816 415.604 204.215C415.166 203.609 414.939 202.707 414.924 201.508V200.061C414.924 198.807 415.141 197.875 415.574 197.266C416.008 196.656 416.688 196.352 417.613 196.352C418.531 196.352 419.207 196.646 419.641 197.236C420.074 197.822 420.297 198.729 420.309 199.955V201.361ZM419.225 199.879C419.225 198.961 419.096 198.293 418.838 197.875C418.58 197.453 418.172 197.242 417.613 197.242C417.059 197.242 416.654 197.451 416.4 197.869C416.146 198.287 416.016 198.93 416.008 199.797V201.531C416.008 202.453 416.141 203.135 416.406 203.576C416.676 204.014 417.082 204.232 417.625 204.232C418.16 204.232 418.557 204.025 418.814 203.611C419.076 203.197 419.213 202.545 419.225 201.654V199.879Z" fill="black"/>
<rect x="220.5" y="77.5" width="54" height="54" fill="white" stroke="black"/>
<path d="M247.293 76.7071C247.683 77.0976 248.317 77.0976 248.707 76.7071L255.071 70.3431C255.462 69.9526 255.462 69.3195 255.071 68.9289C254.681 68.5384 254.047 68.5384 253.657 68.9289L248 74.5858L242.343 68.9289C241.953 68.5384 241.319 68.5384 240.929 68.9289C240.538 69.3195 240.538 69.9526 240.929 70.3431L247.293 76.7071ZM247 20V76H249V20H247Z" fill="black"/>
<path d="M246.701 8.77344H243.127L242.324 11H241.164L244.422 2.46875H245.406L248.67 11H247.516L246.701 8.77344ZM243.467 7.84766H246.367L244.914 3.85742L243.467 7.84766ZM251.113 6.20703H251.928C252.439 6.19922 252.842 6.06445 253.135 5.80273C253.428 5.54102 253.574 5.1875 253.574 4.74219C253.574 3.74219 253.076 3.24219 252.08 3.24219C251.611 3.24219 251.236 3.37695 250.955 3.64648C250.678 3.91211 250.539 4.26562 250.539 4.70703H249.455C249.455 4.03125 249.701 3.4707 250.193 3.02539C250.689 2.57617 251.318 2.35156 252.08 2.35156C252.885 2.35156 253.516 2.56445 253.973 2.99023C254.43 3.41602 254.658 4.00781 254.658 4.76562C254.658 5.13672 254.537 5.49609 254.295 5.84375C254.057 6.19141 253.73 6.45117 253.316 6.62305C253.785 6.77148 254.146 7.01758 254.4 7.36133C254.658 7.70508 254.787 8.125 254.787 8.62109C254.787 9.38672 254.537 9.99414 254.037 10.4434C253.537 10.8926 252.887 11.1172 252.086 11.1172C251.285 11.1172 250.633 10.9004 250.129 10.4668C249.629 10.0332 249.379 9.46094 249.379 8.75H250.469C250.469 9.19922 250.615 9.55859 250.908 9.82812C251.201 10.0977 251.594 10.2324 252.086 10.2324C252.609 10.2324 253.01 10.0957 253.287 9.82227C253.564 9.54883 253.703 9.15625 253.703 8.64453C253.703 8.14844 253.551 7.76758 253.246 7.50195C252.941 7.23633 252.502 7.09961 251.928 7.0918H251.113V6.20703Z" fill="black"/>
<path d="M247.293 188.707C247.683 189.098 248.317 189.098 248.707 188.707L255.071 182.343C255.462 181.953 255.462 181.319 255.071 180.929C254.681 180.538 254.047 180.538 253.657 180.929L248 186.586L242.343 180.929C241.953 180.538 241.319 180.538 240.929 180.929C240.538 181.319 240.538 181.953 240.929 182.343L247.293 188.707ZM247 132V188H249V132H247Z" fill="black"/>
<path d="M248.553 201.01C248.553 201.846 248.412 202.576 248.131 203.201C247.85 203.822 247.451 204.297 246.936 204.625C246.42 204.953 245.818 205.117 245.131 205.117C244.459 205.117 243.863 204.953 243.344 204.625C242.824 204.293 242.42 203.822 242.131 203.213C241.846 202.6 241.699 201.891 241.691 201.086V200.471C241.691 199.65 241.834 198.926 242.119 198.297C242.404 197.668 242.807 197.188 243.326 196.855C243.85 196.52 244.447 196.352 245.119 196.352C245.803 196.352 246.404 196.518 246.924 196.85C247.447 197.178 247.85 197.656 248.131 198.285C248.412 198.91 248.553 199.639 248.553 200.471V201.01ZM247.434 200.459C247.434 199.447 247.23 198.672 246.824 198.133C246.418 197.59 245.85 197.318 245.119 197.318C244.408 197.318 243.848 197.59 243.438 198.133C243.031 198.672 242.822 199.422 242.811 200.383V201.01C242.811 201.99 243.016 202.762 243.426 203.324C243.84 203.883 244.408 204.162 245.131 204.162C245.857 204.162 246.42 203.898 246.818 203.371C247.217 202.84 247.422 202.08 247.434 201.092V200.459ZM251.535 200.207H252.35C252.861 200.199 253.264 200.064 253.557 199.803C253.85 199.541 253.996 199.188 253.996 198.742C253.996 197.742 253.498 197.242 252.502 197.242C252.033 197.242 251.658 197.377 251.377 197.646C251.1 197.912 250.961 198.266 250.961 198.707H249.877C249.877 198.031 250.123 197.471 250.615 197.025C251.111 196.576 251.74 196.352 252.502 196.352C253.307 196.352 253.938 196.564 254.395 196.99C254.852 197.416 255.08 198.008 255.08 198.766C255.08 199.137 254.959 199.496 254.717 199.844C254.479 200.191 254.152 200.451 253.738 200.623C254.207 200.771 254.568 201.018 254.822 201.361C255.08 201.705 255.209 202.125 255.209 202.621C255.209 203.387 254.959 203.994 254.459 204.443C253.959 204.893 253.309 205.117 252.508 205.117C251.707 205.117 251.055 204.9 250.551 204.467C250.051 204.033 249.801 203.461 249.801 202.75H250.891C250.891 203.199 251.037 203.559 251.33 203.828C251.623 204.098 252.016 204.232 252.508 204.232C253.031 204.232 253.432 204.096 253.709 203.822C253.986 203.549 254.125 203.156 254.125 202.645C254.125 202.148 253.973 201.768 253.668 201.502C253.363 201.236 252.924 201.1 252.35 201.092H251.535V200.207Z" fill="black"/>
<rect x="275.5" y="77.5" width="54" height="54" fill="white" stroke="black"/>
<path d="M302.293 76.7071C302.683 77.0976 303.317 77.0976 303.707 76.7071L310.071 70.3431C310.462 69.9526 310.462 69.3195 310.071 68.9289C309.681 68.5384 309.047 68.5384 308.657 68.9289L303 74.5858L297.343 68.9289C296.953 68.5384 296.319 68.5384 295.929 68.9289C295.538 69.3195 295.538 69.9526 295.929 70.3431L302.293 76.7071ZM302 20V76H304V20H302Z" fill="black"/>
<path d="M301.701 8.77344H298.127L297.324 11H296.164L299.422 2.46875H300.406L303.67 11H302.516L301.701 8.77344ZM298.467 7.84766H301.367L299.914 3.85742L298.467 7.84766ZM310.127 11H304.537V10.2207L307.49 6.93945C307.928 6.44336 308.229 6.04102 308.393 5.73242C308.561 5.41992 308.645 5.09766 308.645 4.76562C308.645 4.32031 308.51 3.95508 308.24 3.66992C307.971 3.38477 307.611 3.24219 307.162 3.24219C306.623 3.24219 306.203 3.39648 305.902 3.70508C305.605 4.00977 305.457 4.43555 305.457 4.98242H304.373C304.373 4.19727 304.625 3.5625 305.129 3.07812C305.637 2.59375 306.314 2.35156 307.162 2.35156C307.955 2.35156 308.582 2.56055 309.043 2.97852C309.504 3.39258 309.734 3.94531 309.734 4.63672C309.734 5.47656 309.199 6.47656 308.129 7.63672L305.844 10.1152H310.127V11Z" fill="black"/>
<path d="M302.293 188.707C302.683 189.098 303.317 189.098 303.707 188.707L310.071 182.343C310.462 181.953 310.462 181.319 310.071 180.929C309.681 180.538 309.047 180.538 308.657 180.929L303 186.586L297.343 180.929C296.953 180.538 296.319 180.538 295.929 180.929C295.538 181.319 295.538 181.953 295.929 182.343L302.293 188.707ZM302 132V188H304V132H302Z" fill="black"/>
<path d="M303.553 201.01C303.553 201.846 303.412 202.576 303.131 203.201C302.85 203.822 302.451 204.297 301.936 204.625C301.42 204.953 300.818 205.117 300.131 205.117C299.459 205.117 298.863 204.953 298.344 204.625C297.824 204.293 297.42 203.822 297.131 203.213C296.846 202.6 296.699 201.891 296.691 201.086V200.471C296.691 199.65 296.834 198.926 297.119 198.297C297.404 197.668 297.807 197.188 298.326 196.855C298.85 196.52 299.447 196.352 300.119 196.352C300.803 196.352 301.404 196.518 301.924 196.85C302.447 197.178 302.85 197.656 303.131 198.285C303.412 198.91 303.553 199.639 303.553 200.471V201.01ZM302.434 200.459C302.434 199.447 302.23 198.672 301.824 198.133C301.418 197.59 300.85 197.318 300.119 197.318C299.408 197.318 298.848 197.59 298.438 198.133C298.031 198.672 297.822 199.422 297.811 200.383V201.01C297.811 201.99 298.016 202.762 298.426 203.324C298.84 203.883 299.408 204.162 300.131 204.162C300.857 204.162 301.42 203.898 301.818 203.371C302.217 202.84 302.422 202.08 302.434 201.092V200.459ZM310.549 205H304.959V204.221L307.912 200.939C308.35 200.443 308.65 200.041 308.814 199.732C308.982 199.42 309.066 199.098 309.066 198.766C309.066 198.32 308.932 197.955 308.662 197.67C308.393 197.385 308.033 197.242 307.584 197.242C307.045 197.242 306.625 197.396 306.324 197.705C306.027 198.01 305.879 198.436 305.879 198.982H304.795C304.795 198.197 305.047 197.562 305.551 197.078C306.059 196.594 306.736 196.352 307.584 196.352C308.377 196.352 309.004 196.561 309.465 196.979C309.926 197.393 310.156 197.945 310.156 198.637C310.156 199.477 309.621 200.477 308.551 201.637L306.266 204.115H310.549V205Z" fill="black"/>
<rect x="110.5" y="77.5" width="54" height="54" fill="white" stroke="black"/>
<path d="M137.293 76.7071C137.683 77.0976 138.317 77.0976 138.707 76.7071L145.071 70.3431C145.462 69.9526 145.462 69.3195 145.071 68.9289C144.681 68.5384 144.047 68.5384 143.657 68.9289L138 74.5858L132.343 68.9289C131.953 68.5384 131.319 68.5384 130.929 68.9289C130.538 69.3195 130.538 69.9526 130.929 70.3431L137.293 76.7071ZM137 20V76H139V20H137Z" fill="black"/>
<path d="M136.701 8.77344H133.127L132.324 11H131.164L134.422 2.46875H135.406L138.67 11H137.516L136.701 8.77344ZM133.467 7.84766H136.367L134.914 3.85742L133.467 7.84766ZM140.035 6.72266L140.469 2.46875H144.84V3.4707H141.389L141.131 5.79688C141.549 5.55078 142.023 5.42773 142.555 5.42773C143.332 5.42773 143.949 5.68555 144.406 6.20117C144.863 6.71289 145.092 7.40625 145.092 8.28125C145.092 9.16016 144.854 9.85352 144.377 10.3613C143.904 10.8652 143.242 11.1172 142.391 11.1172C141.637 11.1172 141.021 10.9082 140.545 10.4902C140.068 10.0723 139.797 9.49414 139.73 8.75586H140.756C140.822 9.24414 140.996 9.61328 141.277 9.86328C141.559 10.1094 141.93 10.2324 142.391 10.2324C142.895 10.2324 143.289 10.0605 143.574 9.7168C143.863 9.37305 144.008 8.89844 144.008 8.29297C144.008 7.72266 143.852 7.26562 143.539 6.92188C143.23 6.57422 142.818 6.40039 142.303 6.40039C141.83 6.40039 141.459 6.50391 141.189 6.71094L140.902 6.94531L140.035 6.72266Z" fill="black"/>
<path d="M137.293 188.707C137.683 189.098 138.317 189.098 138.707 188.707L145.071 182.343C145.462 181.953 145.462 181.319 145.071 180.929C144.681 180.538 144.047 180.538 143.657 180.929L138 186.586L132.343 180.929C131.953 180.538 131.319 180.538 130.929 180.929C130.538 181.319 130.538 181.953 130.929 182.343L137.293 188.707ZM137 132V188H139V132H137Z" fill="black"/>
<path d="M138.553 201.01C138.553 201.846 138.412 202.576 138.131 203.201C137.85 203.822 137.451 204.297 136.936 204.625C136.42 204.953 135.818 205.117 135.131 205.117C134.459 205.117 133.863 204.953 133.344 204.625C132.824 204.293 132.42 203.822 132.131 203.213C131.846 202.6 131.699 201.891 131.691 201.086V200.471C131.691 199.65 131.834 198.926 132.119 198.297C132.404 197.668 132.807 197.188 133.326 196.855C133.85 196.52 134.447 196.352 135.119 196.352C135.803 196.352 136.404 196.518 136.924 196.85C137.447 197.178 137.85 197.656 138.131 198.285C138.412 198.91 138.553 199.639 138.553 200.471V201.01ZM137.434 200.459C137.434 199.447 137.23 198.672 136.824 198.133C136.418 197.59 135.85 197.318 135.119 197.318C134.408 197.318 133.848 197.59 133.438 198.133C133.031 198.672 132.822 199.422 132.811 200.383V201.01C132.811 201.99 133.016 202.762 133.426 203.324C133.84 203.883 134.408 204.162 135.131 204.162C135.857 204.162 136.42 203.898 136.818 203.371C137.217 202.84 137.422 202.08 137.434 201.092V200.459ZM140.457 200.723L140.891 196.469H145.262V197.471H141.811L141.553 199.797C141.971 199.551 142.445 199.428 142.977 199.428C143.754 199.428 144.371 199.686 144.828 200.201C145.285 200.713 145.514 201.406 145.514 202.281C145.514 203.16 145.275 203.854 144.799 204.361C144.326 204.865 143.664 205.117 142.812 205.117C142.059 205.117 141.443 204.908 140.967 204.49C140.49 204.072 140.219 203.494 140.152 202.756H141.178C141.244 203.244 141.418 203.613 141.699 203.863C141.98 204.109 142.352 204.232 142.812 204.232C143.316 204.232 143.711 204.061 143.996 203.717C144.285 203.373 144.43 202.898 144.43 202.293C144.43 201.723 144.273 201.266 143.961 200.922C143.652 200.574 143.24 200.4 142.725 200.4C142.252 200.4 141.881 200.504 141.611 200.711L141.324 200.945L140.457 200.723Z" fill="black"/>
<rect x="165.5" y="77.5" width="54" height="54" fill="white" stroke="black"/>
<path d="M192.293 76.7071C192.683 77.0976 193.317 77.0976 193.707 76.7071L200.071 70.3431C200.462 69.9526 200.462 69.3195 200.071 68.9289C199.681 68.5384 199.047 68.5384 198.657 68.9289L193 74.5858L187.343 68.9289C186.953 68.5384 186.319 68.5384 185.929 68.9289C185.538 69.3195 185.538 69.9526 185.929 70.3431L192.293 76.7071ZM192 20V76H194V20H192Z" fill="black"/>
<path d="M191.701 8.77344H188.127L187.324 11H186.164L189.422 2.46875H190.406L193.67 11H192.516L191.701 8.77344ZM188.467 7.84766H191.367L189.914 3.85742L188.467 7.84766ZM199.113 8.13477H200.297V9.01953H199.113V11H198.023V9.01953H194.139V8.38086L197.959 2.46875H199.113V8.13477ZM195.369 8.13477H198.023V3.95117L197.895 4.18555L195.369 8.13477Z" fill="black"/>
<path d="M192.293 188.707C192.683 189.098 193.317 189.098 193.707 188.707L200.071 182.343C200.462 181.953 200.462 181.319 200.071 180.929C199.681 180.538 199.047 180.538 198.657 180.929L193 186.586L187.343 180.929C186.953 180.538 186.319 180.538 185.929 180.929C185.538 181.319 185.538 181.953 185.929 182.343L192.293 188.707ZM192 132V188H194V132H192Z" fill="black"/>
<path d="M193.553 201.01C193.553 201.846 193.412 202.576 193.131 203.201C192.85 203.822 192.451 204.297 191.936 204.625C191.42 204.953 190.818 205.117 190.131 205.117C189.459 205.117 188.863 204.953 188.344 204.625C187.824 204.293 187.42 203.822 187.131 203.213C186.846 202.6 186.699 201.891 186.691 201.086V200.471C186.691 199.65 186.834 198.926 187.119 198.297C187.404 197.668 187.807 197.188 188.326 196.855C188.85 196.52 189.447 196.352 190.119 196.352C190.803 196.352 191.404 196.518 191.924 196.85C192.447 197.178 192.85 197.656 193.131 198.285C193.412 198.91 193.553 199.639 193.553 200.471V201.01ZM192.434 200.459C192.434 199.447 192.23 198.672 191.824 198.133C191.418 197.59 190.85 197.318 190.119 197.318C189.408 197.318 188.848 197.59 188.438 198.133C188.031 198.672 187.822 199.422 187.811 200.383V201.01C187.811 201.99 188.016 202.762 188.426 203.324C188.84 203.883 189.408 204.162 190.131 204.162C190.857 204.162 191.42 203.898 191.818 203.371C192.217 202.84 192.422 202.08 192.434 201.092V200.459ZM199.535 202.135H200.719V203.02H199.535V205H198.445V203.02H194.561V202.381L198.381 196.469H199.535V202.135ZM195.791 202.135H198.445V197.951L198.316 198.186L195.791 202.135Z" fill="black"/>
<rect x="0.5" y="77.5" width="54" height="54" fill="white" stroke="black"/>
<path d="M27.2929 76.7071C27.6834 77.0976 28.3166 77.0976 28.7071 76.7071L35.0711 70.3431C35.4616 69.9526 35.4616 69.3195 35.0711 68.9289C34.6805 68.5384 34.0474 68.5384 33.6569 68.9289L28 74.5858L22.3431 68.9289C21.9526 68.5384 21.3195 68.5384 20.9289 68.9289C20.5384 69.3195 20.5384 69.9526 20.9289 70.3431L27.2929 76.7071ZM27 20L27 76H29L29 20H27Z" fill="black"/>
<path d="M26.7012 8.77344H23.127L22.3242 11H21.1641L24.4219 2.46875H25.4062L28.6699 11H27.5156L26.7012 8.77344ZM23.4668 7.84766H26.3672L24.9141 3.85742L23.4668 7.84766ZM35.0449 3.07812L31.5117 11H30.375L33.8965 3.35938H29.2793V2.46875H35.0449V3.07812Z" fill="black"/>
<path d="M27.2929 188.707C27.6834 189.098 28.3166 189.098 28.7071 188.707L35.0711 182.343C35.4616 181.953 35.4616 181.319 35.0711 180.929C34.6805 180.538 34.0474 180.538 33.6569 180.929L28 186.586L22.3431 180.929C21.9526 180.538 21.3195 180.538 20.9289 180.929C20.5384 181.319 20.5384 181.953 20.9289 182.343L27.2929 188.707ZM27 132L27 188H29L29 132H27Z" fill="black"/>
<path d="M28.5527 201.01C28.5527 201.846 28.4121 202.576 28.1309 203.201C27.8496 203.822 27.4512 204.297 26.9355 204.625C26.4199 204.953 25.8184 205.117 25.1309 205.117C24.459 205.117 23.8633 204.953 23.3438 204.625C22.8242 204.293 22.4199 203.822 22.1309 203.213C21.8457 202.6 21.6992 201.891 21.6914 201.086V200.471C21.6914 199.65 21.834 198.926 22.1191 198.297C22.4043 197.668 22.8066 197.188 23.3262 196.855C23.8496 196.52 24.4473 196.352 25.1191 196.352C25.8027 196.352 26.4043 196.518 26.9238 196.85C27.4473 197.178 27.8496 197.656 28.1309 198.285C28.4121 198.91 28.5527 199.639 28.5527 200.471V201.01ZM27.4336 200.459C27.4336 199.447 27.2305 198.672 26.8242 198.133C26.418 197.59 25.8496 197.318 25.1191 197.318C24.4082 197.318 23.8477 197.59 23.4375 198.133C23.0312 198.672 22.8223 199.422 22.8105 200.383V201.01C22.8105 201.99 23.0156 202.762 23.4258 203.324C23.8398 203.883 24.4082 204.162 25.1309 204.162C25.8574 204.162 26.4199 203.898 26.8184 203.371C27.2168 202.84 27.4219 202.08 27.4336 201.092V200.459ZM35.4668 197.078L31.9336 205H30.7969L34.3184 197.359H29.7012V196.469H35.4668V197.078Z" fill="black"/>
<rect x="55.5" y="77.5" width="54" height="54" fill="white" stroke="black"/>
<path d="M82.2929 76.7071C82.6834 77.0976 83.3166 77.0976 83.7071 76.7071L90.0711 70.3431C90.4616 69.9526 90.4616 69.3195 90.0711 68.9289C89.6805 68.5384 89.0474 68.5384 88.6569 68.9289L83 74.5858L77.3431 68.9289C76.9526 68.5384 76.3195 68.5384 75.9289 68.9289C75.5384 69.3195 75.5384 69.9526 75.9289 70.3431L82.2929 76.7071ZM82 20V76H84V20H82Z" fill="black"/>
<path d="M81.7012 8.77344H78.127L77.3242 11H76.1641L79.4219 2.46875H80.4062L83.6699 11H82.5156L81.7012 8.77344ZM78.4668 7.84766H81.3672L79.9141 3.85742L78.4668 7.84766ZM88.791 2.46289V3.38281H88.5918C87.748 3.39844 87.0762 3.64844 86.5762 4.13281C86.0762 4.61719 85.7871 5.29883 85.709 6.17773C86.1582 5.66211 86.7715 5.4043 87.5488 5.4043C88.291 5.4043 88.8828 5.66602 89.3242 6.18945C89.7695 6.71289 89.9922 7.38867 89.9922 8.2168C89.9922 9.0957 89.752 9.79883 89.2715 10.3262C88.7949 10.8535 88.1543 11.1172 87.3496 11.1172C86.5332 11.1172 85.8711 10.8047 85.3633 10.1797C84.8555 9.55078 84.6016 8.74219 84.6016 7.75391V7.33789C84.6016 5.76758 84.9355 4.56836 85.6035 3.74023C86.2754 2.9082 87.2734 2.48242 88.5977 2.46289H88.791ZM87.3672 6.30664C86.9961 6.30664 86.6543 6.41797 86.3418 6.64062C86.0293 6.86328 85.8125 7.14258 85.6914 7.47852V7.87695C85.6914 8.58008 85.8496 9.14648 86.166 9.57617C86.4824 10.0059 86.877 10.2207 87.3496 10.2207C87.8379 10.2207 88.2207 10.041 88.498 9.68164C88.7793 9.32227 88.9199 8.85156 88.9199 8.26953C88.9199 7.68359 88.7773 7.21094 88.4922 6.85156C88.2109 6.48828 87.8359 6.30664 87.3672 6.30664Z" fill="black"/>
<path d="M82.2929 188.707C82.6834 189.098 83.3166 189.098 83.7071 188.707L90.0711 182.343C90.4616 181.953 90.4616 181.319 90.0711 180.929C89.6805 180.538 89.0474 180.538 88.6569 180.929L83 186.586L77.3431 180.929C76.9526 180.538 76.3195 180.538 75.9289 180.929C75.5384 181.319 75.5384 181.953 75.9289 182.343L82.2929 188.707ZM82 132V188H84V132H82Z" fill="black"/>
<path d="M83.5527 201.01C83.5527 201.846 83.4121 202.576 83.1309 203.201C82.8496 203.822 82.4512 204.297 81.9355 204.625C81.4199 204.953 80.8184 205.117 80.1309 205.117C79.459 205.117 78.8633 204.953 78.3438 204.625C77.8242 204.293 77.4199 203.822 77.1309 203.213C76.8457 202.6 76.6992 201.891 76.6914 201.086V200.471C76.6914 199.65 76.834 198.926 77.1191 198.297C77.4043 197.668 77.8066 197.188 78.3262 196.855C78.8496 196.52 79.4473 196.352 80.1191 196.352C80.8027 196.352 81.4043 196.518 81.9238 196.85C82.4473 197.178 82.8496 197.656 83.1309 198.285C83.4121 198.91 83.5527 199.639 83.5527 200.471V201.01ZM82.4336 200.459C82.4336 199.447 82.2305 198.672 81.8242 198.133C81.418 197.59 80.8496 197.318 80.1191 197.318C79.4082 197.318 78.8477 197.59 78.4375 198.133C78.0312 198.672 77.8223 199.422 77.8105 200.383V201.01C77.8105 201.99 78.0156 202.762 78.4258 203.324C78.8398 203.883 79.4082 204.162 80.1309 204.162C80.8574 204.162 81.4199 203.898 81.8184 203.371C82.2168 202.84 82.4219 202.08 82.4336 201.092V200.459ZM89.2129 196.463V197.383H89.0137C88.1699 197.398 87.498 197.648 86.998 198.133C86.498 198.617 86.209 199.299 86.1309 200.178C86.5801 199.662 87.1934 199.404 87.9707 199.404C88.7129 199.404 89.3047 199.666 89.7461 200.189C90.1914 200.713 90.4141 201.389 90.4141 202.217C90.4141 203.096 90.1738 203.799 89.6934 204.326C89.2168 204.854 88.5762 205.117 87.7715 205.117C86.9551 205.117 86.293 204.805 85.7852 204.18C85.2773 203.551 85.0234 202.742 85.0234 201.754V201.338C85.0234 199.768 85.3574 198.568 86.0254 197.74C86.6973 196.908 87.6953 196.482 89.0195 196.463H89.2129ZM87.7891 200.307C87.418 200.307 87.0762 200.418 86.7637 200.641C86.4512 200.863 86.2344 201.143 86.1133 201.479V201.877C86.1133 202.58 86.2715 203.146 86.5879 203.576C86.9043 204.006 87.2988 204.221 87.7715 204.221C88.2598 204.221 88.6426 204.041 88.9199 203.682C89.2012 203.322 89.3418 202.852 89.3418 202.27C89.3418 201.684 89.1992 201.211 88.9141 200.852C88.6328 200.488 88.2578 200.307 87.7891 200.307Z" fill="black"/>
</svg>
