<svg width="880" height="208" viewBox="0 0 880 208" fill="none" xmlns="http://www.w3.org/2000/svg">
<rect x="770.5" y="77.5" width="54" height="54" fill="white" stroke="black"/>
<path d="M797.293 76.7071C797.683 77.0976 798.317 77.0976 798.707 76.7071L805.071 70.3431C805.462 69.9526 805.462 69.3195 805.071 68.9289C804.681 68.5384 804.047 68.5384 803.657 68.9289L798 74.5858L792.343 68.9289C791.953 68.5384 791.319 68.5384 790.929 68.9289C790.538 69.3195 790.538 69.9526 790.929 70.3431L797.293 76.7071ZM797 20V76H799V20H797Z" fill="black"/>
<path d="M796.701 8.77344H793.127L792.324 11H791.164L794.422 2.46875H795.406L798.67 11H797.516L796.701 8.77344ZM793.467 7.84766H796.367L794.914 3.85742L793.467 7.84766ZM803.1 11H802.01V3.77539L799.824 4.57812V3.59375L802.93 2.42773H803.1V11Z" fill="black"/>
<path d="M797.293 188.707C797.683 189.098 798.317 189.098 798.707 188.707L805.071 182.343C805.462 181.953 805.462 181.319 805.071 180.929C804.681 180.538 804.047 180.538 803.657 180.929L798 186.586L792.343 180.929C791.953 180.538 791.319 180.538 790.929 180.929C790.538 181.319 790.538 181.953 790.929 182.343L797.293 188.707ZM797 132V188H799V132H797Z" fill="black"/>
<path d="M798.553 201.01C798.553 201.846 798.412 202.576 798.131 203.201C797.85 203.822 797.451 204.297 796.936 204.625C796.42 204.953 795.818 205.117 795.131 205.117C794.459 205.117 793.863 204.953 793.344 204.625C792.824 204.293 792.42 203.822 792.131 203.213C791.846 202.6 791.699 201.891 791.691 201.086V200.471C791.691 199.65 791.834 198.926 792.119 198.297C792.404 197.668 792.807 197.188 793.326 196.855C793.85 196.52 794.447 196.352 795.119 196.352C795.803 196.352 796.404 196.518 796.924 196.85C797.447 197.178 797.85 197.656 798.131 198.285C798.412 198.91 798.553 199.639 798.553 200.471V201.01ZM797.434 200.459C797.434 199.447 797.23 198.672 796.824 198.133C796.418 197.59 795.85 197.318 795.119 197.318C794.408 197.318 793.848 197.59 793.438 198.133C793.031 198.672 792.822 199.422 792.811 200.383V201.01C792.811 201.99 793.016 202.762 793.426 203.324C793.84 203.883 794.408 204.162 795.131 204.162C795.857 204.162 796.42 203.898 796.818 203.371C797.217 202.84 797.422 202.08 797.434 201.092V200.459ZM803.521 205H802.432V197.775L800.246 198.578V197.594L803.352 196.428H803.521V205Z" fill="black"/>
<rect x="825.5" y="77.5" width="54" height="54" fill="white" stroke="black"/>
<path d="M852.293 76.7071C852.683 77.0976 853.317 77.0976 853.707 76.7071L860.071 70.3431C860.462 69.9526 860.462 69.3195 860.071 68.9289C859.681 68.5384 859.047 68.5384 858.657 68.9289L853 74.5858L847.343 68.9289C846.953 68.5384 846.319 68.5384 845.929 68.9289C845.538 69.3195 845.538 69.9526 845.929 70.3431L852.293 76.7071ZM852 20V76H854V20H852Z" fill="black"/>
<path d="M851.701 8.77344H848.127L847.324 11H846.164L849.422 2.46875H850.406L853.67 11H852.516L851.701 8.77344ZM848.467 7.84766H851.367L849.914 3.85742L848.467 7.84766ZM859.887 7.36133C859.887 8.63086 859.67 9.57422 859.236 10.1914C858.803 10.8086 858.125 11.1172 857.203 11.1172C856.293 11.1172 855.619 10.8164 855.182 10.2148C854.744 9.60938 854.518 8.70703 854.502 7.50781V6.06055C854.502 4.80664 854.719 3.875 855.152 3.26562C855.586 2.65625 856.266 2.35156 857.191 2.35156C858.109 2.35156 858.785 2.64648 859.219 3.23633C859.652 3.82227 859.875 4.72852 859.887 5.95508V7.36133ZM858.803 5.87891C858.803 4.96094 858.674 4.29297 858.416 3.875C858.158 3.45312 857.75 3.24219 857.191 3.24219C856.637 3.24219 856.232 3.45117 855.979 3.86914C855.725 4.28711 855.594 4.92969 855.586 5.79688V7.53125C855.586 8.45312 855.719 9.13477 855.984 9.57617C856.254 10.0137 856.66 10.2324 857.203 10.2324C857.738 10.2324 858.135 10.0254 858.393 9.61133C858.654 9.19727 858.791 8.54492 858.803 7.6543V5.87891Z" fill="black"/>
<path d="M852.293 188.707C852.683 189.098 853.317 189.098 853.707 188.707L860.071 182.343C860.462 181.953 860.462 181.319 860.071 180.929C859.681 180.538 859.047 180.538 858.657 180.929L853 186.586L847.343 180.929C846.953 180.538 846.319 180.538 845.929 180.929C845.538 181.319 845.538 181.953 845.929 182.343L852.293 188.707ZM852 132V188H854V132H852Z" fill="black"/>
<path d="M853.553 201.01C853.553 201.846 853.412 202.576 853.131 203.201C852.85 203.822 852.451 204.297 851.936 204.625C851.42 204.953 850.818 205.117 850.131 205.117C849.459 205.117 848.863 204.953 848.344 204.625C847.824 204.293 847.42 203.822 847.131 203.213C846.846 202.6 846.699 201.891 846.691 201.086V200.471C846.691 199.65 846.834 198.926 847.119 198.297C847.404 197.668 847.807 197.188 848.326 196.855C848.85 196.52 849.447 196.352 850.119 196.352C850.803 196.352 851.404 196.518 851.924 196.85C852.447 197.178 852.85 197.656 853.131 198.285C853.412 198.91 853.553 199.639 853.553 200.471V201.01ZM852.434 200.459C852.434 199.447 852.23 198.672 851.824 198.133C851.418 197.59 850.85 197.318 850.119 197.318C849.408 197.318 848.848 197.59 848.438 198.133C848.031 198.672 847.822 199.422 847.811 200.383V201.01C847.811 201.99 848.016 202.762 848.426 203.324C848.84 203.883 849.408 204.162 850.131 204.162C850.857 204.162 851.42 203.898 851.818 203.371C852.217 202.84 852.422 202.08 852.434 201.092V200.459ZM860.309 201.361C860.309 202.631 860.092 203.574 859.658 204.191C859.225 204.809 858.547 205.117 857.625 205.117C856.715 205.117 856.041 204.816 855.604 204.215C855.166 203.609 854.939 202.707 854.924 201.508V200.061C854.924 198.807 855.141 197.875 855.574 197.266C856.008 196.656 856.688 196.352 857.613 196.352C858.531 196.352 859.207 196.646 859.641 197.236C860.074 197.822 860.297 198.729 860.309 199.955V201.361ZM859.225 199.879C859.225 198.961 859.096 198.293 858.838 197.875C858.58 197.453 858.172 197.242 857.613 197.242C857.059 197.242 856.654 197.451 856.4 197.869C856.146 198.287 856.016 198.93 856.008 199.797V201.531C856.008 202.453 856.141 203.135 856.406 203.576C856.676 204.014 857.082 204.232 857.625 204.232C858.16 204.232 858.557 204.025 858.814 203.611C859.076 203.197 859.213 202.545 859.225 201.654V199.879Z" fill="black"/>
<rect x="660.5" y="77.5" width="54" height="54" fill="white" stroke="black"/>
<path d="M687.293 76.7071C687.683 77.0976 688.317 77.0976 688.707 76.7071L695.071 70.3431C695.462 69.9526 695.462 69.3195 695.071 68.9289C694.681 68.5384 694.047 68.5384 693.657 68.9289L688 74.5858L682.343 68.9289C681.953 68.5384 681.319 68.5384 680.929 68.9289C680.538 69.3195 680.538 69.9526 680.929 70.3431L687.293 76.7071ZM687 20V76H689V20H687Z" fill="black"/>
<path d="M686.701 8.77344H683.127L682.324 11H681.164L684.422 2.46875H685.406L688.67 11H687.516L686.701 8.77344ZM683.467 7.84766H686.367L684.914 3.85742L683.467 7.84766ZM691.113 6.20703H691.928C692.439 6.19922 692.842 6.06445 693.135 5.80273C693.428 5.54102 693.574 5.1875 693.574 4.74219C693.574 3.74219 693.076 3.24219 692.08 3.24219C691.611 3.24219 691.236 3.37695 690.955 3.64648C690.678 3.91211 690.539 4.26562 690.539 4.70703H689.455C689.455 4.03125 689.701 3.4707 690.193 3.02539C690.689 2.57617 691.318 2.35156 692.08 2.35156C692.885 2.35156 693.516 2.56445 693.973 2.99023C694.43 3.41602 694.658 4.00781 694.658 4.76562C694.658 5.13672 694.537 5.49609 694.295 5.84375C694.057 6.19141 693.73 6.45117 693.316 6.62305C693.785 6.77148 694.146 7.01758 694.4 7.36133C694.658 7.70508 694.787 8.125 694.787 8.62109C694.787 9.38672 694.537 9.99414 694.037 10.4434C693.537 10.8926 692.887 11.1172 692.086 11.1172C691.285 11.1172 690.633 10.9004 690.129 10.4668C689.629 10.0332 689.379 9.46094 689.379 8.75H690.469C690.469 9.19922 690.615 9.55859 690.908 9.82812C691.201 10.0977 691.594 10.2324 692.086 10.2324C692.609 10.2324 693.01 10.0957 693.287 9.82227C693.564 9.54883 693.703 9.15625 693.703 8.64453C693.703 8.14844 693.551 7.76758 693.246 7.50195C692.941 7.23633 692.502 7.09961 691.928 7.0918H691.113V6.20703Z" fill="black"/>
<path d="M687.293 188.707C687.683 189.098 688.317 189.098 688.707 188.707L695.071 182.343C695.462 181.953 695.462 181.319 695.071 180.929C694.681 180.538 694.047 180.538 693.657 180.929L688 186.586L682.343 180.929C681.953 180.538 681.319 180.538 680.929 180.929C680.538 181.319 680.538 181.953 680.929 182.343L687.293 188.707ZM687 132V188H689V132H687Z" fill="black"/>
<path d="M688.553 201.01C688.553 201.846 688.412 202.576 688.131 203.201C687.85 203.822 687.451 204.297 686.936 204.625C686.42 204.953 685.818 205.117 685.131 205.117C684.459 205.117 683.863 204.953 683.344 204.625C682.824 204.293 682.42 203.822 682.131 203.213C681.846 202.6 681.699 201.891 681.691 201.086V200.471C681.691 199.65 681.834 198.926 682.119 198.297C682.404 197.668 682.807 197.188 683.326 196.855C683.85 196.52 684.447 196.352 685.119 196.352C685.803 196.352 686.404 196.518 686.924 196.85C687.447 197.178 687.85 197.656 688.131 198.285C688.412 198.91 688.553 199.639 688.553 200.471V201.01ZM687.434 200.459C687.434 199.447 687.23 198.672 686.824 198.133C686.418 197.59 685.85 197.318 685.119 197.318C684.408 197.318 683.848 197.59 683.438 198.133C683.031 198.672 682.822 199.422 682.811 200.383V201.01C682.811 201.99 683.016 202.762 683.426 203.324C683.84 203.883 684.408 204.162 685.131 204.162C685.857 204.162 686.42 203.898 686.818 203.371C687.217 202.84 687.422 202.08 687.434 201.092V200.459ZM691.535 200.207H692.35C692.861 200.199 693.264 200.064 693.557 199.803C693.85 199.541 693.996 199.188 693.996 198.742C693.996 197.742 693.498 197.242 692.502 197.242C692.033 197.242 691.658 197.377 691.377 197.646C691.1 197.912 690.961 198.266 690.961 198.707H689.877C689.877 198.031 690.123 197.471 690.615 197.025C691.111 196.576 691.74 196.352 692.502 196.352C693.307 196.352 693.938 196.564 694.395 196.99C694.852 197.416 695.08 198.008 695.08 198.766C695.08 199.137 694.959 199.496 694.717 199.844C694.479 200.191 694.152 200.451 693.738 200.623C694.207 200.771 694.568 201.018 694.822 201.361C695.08 201.705 695.209 202.125 695.209 202.621C695.209 203.387 694.959 203.994 694.459 204.443C693.959 204.893 693.309 205.117 692.508 205.117C691.707 205.117 691.055 204.9 690.551 204.467C690.051 204.033 689.801 203.461 689.801 202.75H690.891C690.891 203.199 691.037 203.559 691.33 203.828C691.623 204.098 692.016 204.232 692.508 204.232C693.031 204.232 693.432 204.096 693.709 203.822C693.986 203.549 694.125 203.156 694.125 202.645C694.125 202.148 693.973 201.768 693.668 201.502C693.363 201.236 692.924 201.1 692.35 201.092H691.535V200.207Z" fill="black"/>
<rect x="715.5" y="77.5" width="54" height="54" fill="white" stroke="black"/>
<path d="M742.293 76.7071C742.683 77.0976 743.317 77.0976 743.707 76.7071L750.071 70.3431C750.462 69.9526 750.462 69.3195 750.071 68.9289C749.681 68.5384 749.047 68.5384 748.657 68.9289L743 74.5858L737.343 68.9289C736.953 68.5384 736.319 68.5384 735.929 68.9289C735.538 69.3195 735.538 69.9526 735.929 70.3431L742.293 76.7071ZM742 20V76H744V20H742Z" fill="black"/>
<path d="M741.701 8.77344H738.127L737.324 11H736.164L739.422 2.46875H740.406L743.67 11H742.516L741.701 8.77344ZM738.467 7.84766H741.367L739.914 3.85742L738.467 7.84766ZM750.127 11H744.537V10.2207L747.49 6.93945C747.928 6.44336 748.229 6.04102 748.393 5.73242C748.561 5.41992 748.645 5.09766 748.645 4.76562C748.645 4.32031 748.51 3.95508 748.24 3.66992C747.971 3.38477 747.611 3.24219 747.162 3.24219C746.623 3.24219 746.203 3.39648 745.902 3.70508C745.605 4.00977 745.457 4.43555 745.457 4.98242H744.373C744.373 4.19727 744.625 3.5625 745.129 3.07812C745.637 2.59375 746.314 2.35156 747.162 2.35156C747.955 2.35156 748.582 2.56055 749.043 2.97852C749.504 3.39258 749.734 3.94531 749.734 4.63672C749.734 5.47656 749.199 6.47656 748.129 7.63672L745.844 10.1152H750.127V11Z" fill="black"/>
<path d="M742.293 188.707C742.683 189.098 743.317 189.098 743.707 188.707L750.071 182.343C750.462 181.953 750.462 181.319 750.071 180.929C749.681 180.538 749.047 180.538 748.657 180.929L743 186.586L737.343 180.929C736.953 180.538 736.319 180.538 735.929 180.929C735.538 181.319 735.538 181.953 735.929 182.343L742.293 188.707ZM742 132V188H744V132H742Z" fill="black"/>
<path d="M743.553 201.01C743.553 201.846 743.412 202.576 743.131 203.201C742.85 203.822 742.451 204.297 741.936 204.625C741.42 204.953 740.818 205.117 740.131 205.117C739.459 205.117 738.863 204.953 738.344 204.625C737.824 204.293 737.42 203.822 737.131 203.213C736.846 202.6 736.699 201.891 736.691 201.086V200.471C736.691 199.65 736.834 198.926 737.119 198.297C737.404 197.668 737.807 197.188 738.326 196.855C738.85 196.52 739.447 196.352 740.119 196.352C740.803 196.352 741.404 196.518 741.924 196.85C742.447 197.178 742.85 197.656 743.131 198.285C743.412 198.91 743.553 199.639 743.553 200.471V201.01ZM742.434 200.459C742.434 199.447 742.23 198.672 741.824 198.133C741.418 197.59 740.85 197.318 740.119 197.318C739.408 197.318 738.848 197.59 738.438 198.133C738.031 198.672 737.822 199.422 737.811 200.383V201.01C737.811 201.99 738.016 202.762 738.426 203.324C738.84 203.883 739.408 204.162 740.131 204.162C740.857 204.162 741.42 203.898 741.818 203.371C742.217 202.84 742.422 202.08 742.434 201.092V200.459ZM750.549 205H744.959V204.221L747.912 200.939C748.35 200.443 748.65 200.041 748.814 199.732C748.982 199.42 749.066 199.098 749.066 198.766C749.066 198.32 748.932 197.955 748.662 197.67C748.393 197.385 748.033 197.242 747.584 197.242C747.045 197.242 746.625 197.396 746.324 197.705C746.027 198.01 745.879 198.436 745.879 198.982H744.795C744.795 198.197 745.047 197.562 745.551 197.078C746.059 196.594 746.736 196.352 747.584 196.352C748.377 196.352 749.004 196.561 749.465 196.979C749.926 197.393 750.156 197.945 750.156 198.637C750.156 199.477 749.621 200.477 748.551 201.637L746.266 204.115H750.549V205Z" fill="black"/>
<rect x="550.5" y="77.5" width="54" height="54" fill="white" stroke="black"/>
<path d="M577.293 76.7071C577.683 77.0976 578.317 77.0976 578.707 76.7071L585.071 70.3431C585.462 69.9526 585.462 69.3195 585.071 68.9289C584.681 68.5384 584.047 68.5384 583.657 68.9289L578 74.5858L572.343 68.9289C571.953 68.5384 571.319 68.5384 570.929 68.9289C570.538 69.3195 570.538 69.9526 570.929 70.3431L577.293 76.7071ZM577 20V76H579V20H577Z" fill="black"/>
<path d="M576.701 8.77344H573.127L572.324 11H571.164L574.422 2.46875H575.406L578.67 11H577.516L576.701 8.77344ZM573.467 7.84766H576.367L574.914 3.85742L573.467 7.84766ZM580.035 6.72266L580.469 2.46875H584.84V3.4707H581.389L581.131 5.79688C581.549 5.55078 582.023 5.42773 582.555 5.42773C583.332 5.42773 583.949 5.68555 584.406 6.20117C584.863 6.71289 585.092 7.40625 585.092 8.28125C585.092 9.16016 584.854 9.85352 584.377 10.3613C583.904 10.8652 583.242 11.1172 582.391 11.1172C581.637 11.1172 581.021 10.9082 580.545 10.4902C580.068 10.0723 579.797 9.49414 579.73 8.75586H580.756C580.822 9.24414 580.996 9.61328 581.277 9.86328C581.559 10.1094 581.93 10.2324 582.391 10.2324C582.895 10.2324 583.289 10.0605 583.574 9.7168C583.863 9.37305 584.008 8.89844 584.008 8.29297C584.008 7.72266 583.852 7.26562 583.539 6.92188C583.23 6.57422 582.818 6.40039 582.303 6.40039C581.83 6.40039 581.459 6.50391 581.189 6.71094L580.902 6.94531L580.035 6.72266Z" fill="black"/>
<path d="M577.293 188.707C577.683 189.098 578.317 189.098 578.707 188.707L585.071 182.343C585.462 181.953 585.462 181.319 585.071 180.929C584.681 180.538 584.047 180.538 583.657 180.929L578 186.586L572.343 180.929C571.953 180.538 571.319 180.538 570.929 180.929C570.538 181.319 570.538 181.953 570.929 182.343L577.293 188.707ZM577 132V188H579V132H577Z" fill="black"/>
<path d="M578.553 201.01C578.553 201.846 578.412 202.576 578.131 203.201C577.85 203.822 577.451 204.297 576.936 204.625C576.42 204.953 575.818 205.117 575.131 205.117C574.459 205.117 573.863 204.953 573.344 204.625C572.824 204.293 572.42 203.822 572.131 203.213C571.846 202.6 571.699 201.891 571.691 201.086V200.471C571.691 199.65 571.834 198.926 572.119 198.297C572.404 197.668 572.807 197.188 573.326 196.855C573.85 196.52 574.447 196.352 575.119 196.352C575.803 196.352 576.404 196.518 576.924 196.85C577.447 197.178 577.85 197.656 578.131 198.285C578.412 198.91 578.553 199.639 578.553 200.471V201.01ZM577.434 200.459C577.434 199.447 577.23 198.672 576.824 198.133C576.418 197.59 575.85 197.318 575.119 197.318C574.408 197.318 573.848 197.59 573.438 198.133C573.031 198.672 572.822 199.422 572.811 200.383V201.01C572.811 201.99 573.016 202.762 573.426 203.324C573.84 203.883 574.408 204.162 575.131 204.162C575.857 204.162 576.42 203.898 576.818 203.371C577.217 202.84 577.422 202.08 577.434 201.092V200.459ZM580.457 200.723L580.891 196.469H585.262V197.471H581.811L581.553 199.797C581.971 199.551 582.445 199.428 582.977 199.428C583.754 199.428 584.371 199.686 584.828 200.201C585.285 200.713 585.514 201.406 585.514 202.281C585.514 203.16 585.275 203.854 584.799 204.361C584.326 204.865 583.664 205.117 582.812 205.117C582.059 205.117 581.443 204.908 580.967 204.49C580.49 204.072 580.219 203.494 580.152 202.756H581.178C581.244 203.244 581.418 203.613 581.699 203.863C581.98 204.109 582.352 204.232 582.812 204.232C583.316 204.232 583.711 204.061 583.996 203.717C584.285 203.373 584.43 202.898 584.43 202.293C584.43 201.723 584.273 201.266 583.961 200.922C583.652 200.574 583.24 200.4 582.725 200.4C582.252 200.4 581.881 200.504 581.611 200.711L581.324 200.945L580.457 200.723Z" fill="black"/>
<rect x="605.5" y="77.5" width="54" height="54" fill="white" stroke="black"/>
<path d="M632.293 76.7071C632.683 77.0976 633.317 77.0976 633.707 76.7071L640.071 70.3431C640.462 69.9526 640.462 69.3195 640.071 68.9289C639.681 68.5384 639.047 68.5384 638.657 68.9289L633 74.5858L627.343 68.9289C626.953 68.5384 626.319 68.5384 625.929 68.9289C625.538 69.3195 625.538 69.9526 625.929 70.3431L632.293 76.7071ZM632 20V76H634V20H632Z" fill="black"/>
<path d="M631.701 8.77344H628.127L627.324 11H626.164L629.422 2.46875H630.406L633.67 11H632.516L631.701 8.77344ZM628.467 7.84766H631.367L629.914 3.85742L628.467 7.84766ZM639.113 8.13477H640.297V9.01953H639.113V11H638.023V9.01953H634.139V8.38086L637.959 2.46875H639.113V8.13477ZM635.369 8.13477H638.023V3.95117L637.895 4.18555L635.369 8.13477Z" fill="black"/>
<path d="M632.293 188.707C632.683 189.098 633.317 189.098 633.707 188.707L640.071 182.343C640.462 181.953 640.462 181.319 640.071 180.929C639.681 180.538 639.047 180.538 638.657 180.929L633 186.586L627.343 180.929C626.953 180.538 626.319 180.538 625.929 180.929C625.538 181.319 625.538 181.953 625.929 182.343L632.293 188.707ZM632 132V188H634V132H632Z" fill="black"/>
<path d="M633.553 201.01C633.553 201.846 633.412 202.576 633.131 203.201C632.85 203.822 632.451 204.297 631.936 204.625C631.42 204.953 630.818 205.117 630.131 205.117C629.459 205.117 628.863 204.953 628.344 204.625C627.824 204.293 627.42 203.822 627.131 203.213C626.846 202.6 626.699 201.891 626.691 201.086V200.471C626.691 199.65 626.834 198.926 627.119 198.297C627.404 197.668 627.807 197.188 628.326 196.855C628.85 196.52 629.447 196.352 630.119 196.352C630.803 196.352 631.404 196.518 631.924 196.85C632.447 197.178 632.85 197.656 633.131 198.285C633.412 198.91 633.553 199.639 633.553 200.471V201.01ZM632.434 200.459C632.434 199.447 632.23 198.672 631.824 198.133C631.418 197.59 630.85 197.318 630.119 197.318C629.408 197.318 628.848 197.59 628.438 198.133C628.031 198.672 627.822 199.422 627.811 200.383V201.01C627.811 201.99 628.016 202.762 628.426 203.324C628.84 203.883 629.408 204.162 630.131 204.162C630.857 204.162 631.42 203.898 631.818 203.371C632.217 202.84 632.422 202.08 632.434 201.092V200.459ZM639.535 202.135H640.719V203.02H639.535V205H638.445V203.02H634.561V202.381L638.381 196.469H639.535V202.135ZM635.791 202.135H638.445V197.951L638.316 198.186L635.791 202.135Z" fill="black"/>
<rect x="440.5" y="77.5" width="54" height="54" fill="white" stroke="black"/>
<path d="M467.293 76.7071C467.683 77.0976 468.317 77.0976 468.707 76.7071L475.071 70.3431C475.462 69.9526 475.462 69.3195 475.071 68.9289C474.681 68.5384 474.047 68.5384 473.657 68.9289L468 74.5858L462.343 68.9289C461.953 68.5384 461.319 68.5384 460.929 68.9289C460.538 69.3195 460.538 69.9526 460.929 70.3431L467.293 76.7071ZM467 20V76H469V20H467Z" fill="black"/>
<path d="M466.701 8.77344H463.127L462.324 11H461.164L464.422 2.46875H465.406L468.67 11H467.516L466.701 8.77344ZM463.467 7.84766H466.367L464.914 3.85742L463.467 7.84766ZM475.045 3.07812L471.512 11H470.375L473.896 3.35938H469.279V2.46875H475.045V3.07812Z" fill="black"/>
<path d="M467.293 188.707C467.683 189.098 468.317 189.098 468.707 188.707L475.071 182.343C475.462 181.953 475.462 181.319 475.071 180.929C474.681 180.538 474.047 180.538 473.657 180.929L468 186.586L462.343 180.929C461.953 180.538 461.319 180.538 460.929 180.929C460.538 181.319 460.538 181.953 460.929 182.343L467.293 188.707ZM467 132V188H469V132H467Z" fill="black"/>
<path d="M468.553 201.01C468.553 201.846 468.412 202.576 468.131 203.201C467.85 203.822 467.451 204.297 466.936 204.625C466.42 204.953 465.818 205.117 465.131 205.117C464.459 205.117 463.863 204.953 463.344 204.625C462.824 204.293 462.42 203.822 462.131 203.213C461.846 202.6 461.699 201.891 461.691 201.086V200.471C461.691 199.65 461.834 198.926 462.119 198.297C462.404 197.668 462.807 197.188 463.326 196.855C463.85 196.52 464.447 196.352 465.119 196.352C465.803 196.352 466.404 196.518 466.924 196.85C467.447 197.178 467.85 197.656 468.131 198.285C468.412 198.91 468.553 199.639 468.553 200.471V201.01ZM467.434 200.459C467.434 199.447 467.23 198.672 466.824 198.133C466.418 197.59 465.85 197.318 465.119 197.318C464.408 197.318 463.848 197.59 463.438 198.133C463.031 198.672 462.822 199.422 462.811 200.383V201.01C462.811 201.99 463.016 202.762 463.426 203.324C463.84 203.883 464.408 204.162 465.131 204.162C465.857 204.162 466.42 203.898 466.818 203.371C467.217 202.84 467.422 202.08 467.434 201.092V200.459ZM475.467 197.078L471.934 205H470.797L474.318 197.359H469.701V196.469H475.467V197.078Z" fill="black"/>
<rect x="495.5" y="77.5" width="54" height="54" fill="white" stroke="black"/>
<path d="M522.293 76.7071C522.683 77.0976 523.317 77.0976 523.707 76.7071L530.071 70.3431C530.462 69.9526 530.462 69.3195 530.071 68.9289C529.681 68.5384 529.047 68.5384 528.657 68.9289L523 74.5858L517.343 68.9289C516.953 68.5384 516.319 68.5384 515.929 68.9289C515.538 69.3195 515.538 69.9526 515.929 70.3431L522.293 76.7071ZM522 20V76H524V20H522Z" fill="black"/>
<path d="M521.701 8.77344H518.127L517.324 11H516.164L519.422 2.46875H520.406L523.67 11H522.516L521.701 8.77344ZM518.467 7.84766H521.367L519.914 3.85742L518.467 7.84766ZM528.791 2.46289V3.38281H528.592C527.748 3.39844 527.076 3.64844 526.576 4.13281C526.076 4.61719 525.787 5.29883 525.709 6.17773C526.158 5.66211 526.771 5.4043 527.549 5.4043C528.291 5.4043 528.883 5.66602 529.324 6.18945C529.77 6.71289 529.992 7.38867 529.992 8.2168C529.992 9.0957 529.752 9.79883 529.271 10.3262C528.795 10.8535 528.154 11.1172 527.35 11.1172C526.533 11.1172 525.871 10.8047 525.363 10.1797C524.855 9.55078 524.602 8.74219 524.602 7.75391V7.33789C524.602 5.76758 524.936 4.56836 525.604 3.74023C526.275 2.9082 527.273 2.48242 528.598 2.46289H528.791ZM527.367 6.30664C526.996 6.30664 526.654 6.41797 526.342 6.64062C526.029 6.86328 525.812 7.14258 525.691 7.47852V7.87695C525.691 8.58008 525.85 9.14648 526.166 9.57617C526.482 10.0059 526.877 10.2207 527.35 10.2207C527.838 10.2207 528.221 10.041 528.498 9.68164C528.779 9.32227 528.92 8.85156 528.92 8.26953C528.92 7.68359 528.777 7.21094 528.492 6.85156C528.211 6.48828 527.836 6.30664 527.367 6.30664Z" fill="black"/>
<path d="M522.293 188.707C522.683 189.098 523.317 189.098 523.707 188.707L530.071 182.343C530.462 181.953 530.462 181.319 530.071 180.929C529.681 180.538 529.047 180.538 528.657 180.929L523 186.586L517.343 180.929C516.953 180.538 516.319 180.538 515.929 180.929C515.538 181.319 515.538 181.953 515.929 182.343L522.293 188.707ZM522 132V188H524V132H522Z" fill="black"/>
<path d="M523.553 201.01C523.553 201.846 523.412 202.576 523.131 203.201C522.85 203.822 522.451 204.297 521.936 204.625C521.42 204.953 520.818 205.117 520.131 205.117C519.459 205.117 518.863 204.953 518.344 204.625C517.824 204.293 517.42 203.822 517.131 203.213C516.846 202.6 516.699 201.891 516.691 201.086V200.471C516.691 199.65 516.834 198.926 517.119 198.297C517.404 197.668 517.807 197.188 518.326 196.855C518.85 196.52 519.447 196.352 520.119 196.352C520.803 196.352 521.404 196.518 521.924 196.85C522.447 197.178 522.85 197.656 523.131 198.285C523.412 198.91 523.553 199.639 523.553 200.471V201.01ZM522.434 200.459C522.434 199.447 522.23 198.672 521.824 198.133C521.418 197.59 520.85 197.318 520.119 197.318C519.408 197.318 518.848 197.59 518.438 198.133C518.031 198.672 517.822 199.422 517.811 200.383V201.01C517.811 201.99 518.016 202.762 518.426 203.324C518.84 203.883 519.408 204.162 520.131 204.162C520.857 204.162 521.42 203.898 521.818 203.371C522.217 202.84 522.422 202.08 522.434 201.092V200.459ZM529.213 196.463V197.383H529.014C528.17 197.398 527.498 197.648 526.998 198.133C526.498 198.617 526.209 199.299 526.131 200.178C526.58 199.662 527.193 199.404 527.971 199.404C528.713 199.404 529.305 199.666 529.746 200.189C530.191 200.713 530.414 201.389 530.414 202.217C530.414 203.096 530.174 203.799 529.693 204.326C529.217 204.854 528.576 205.117 527.771 205.117C526.955 205.117 526.293 204.805 525.785 204.18C525.277 203.551 525.023 202.742 525.023 201.754V201.338C525.023 199.768 525.357 198.568 526.025 197.74C526.697 196.908 527.695 196.482 529.02 196.463H529.213ZM527.789 200.307C527.418 200.307 527.076 200.418 526.764 200.641C526.451 200.863 526.234 201.143 526.113 201.479V201.877C526.113 202.58 526.271 203.146 526.588 203.576C526.904 204.006 527.299 204.221 527.771 204.221C528.26 204.221 528.643 204.041 528.92 203.682C529.201 203.322 529.342 202.852 529.342 202.27C529.342 201.684 529.199 201.211 528.914 200.852C528.633 200.488 528.258 200.307 527.789 200.307Z" fill="black"/>
<rect x="330.5" y="77.5" width="54" height="54" fill="white" stroke="black"/>
<path d="M357.293 76.7071C357.683 77.0976 358.317 77.0976 358.707 76.7071L365.071 70.3431C365.462 69.9526 365.462 69.3195 365.071 68.9289C364.681 68.5384 364.047 68.5384 363.657 68.9289L358 74.5858L352.343 68.9289C351.953 68.5384 351.319 68.5384 350.929 68.9289C350.538 69.3195 350.538 69.9526 350.929 70.3431L357.293 76.7071ZM357 20V76H359V20H357Z" fill="black"/>
<path d="M356.701 8.77344H353.127L352.324 11H351.164L354.422 2.46875H355.406L358.67 11H357.516L356.701 8.77344ZM353.467 7.84766H356.367L354.914 3.85742L353.467 7.84766ZM363.691 7.25C363.465 7.51953 363.193 7.73633 362.877 7.90039C362.564 8.06445 362.221 8.14648 361.846 8.14648C361.354 8.14648 360.924 8.02539 360.557 7.7832C360.193 7.54102 359.912 7.20117 359.713 6.76367C359.514 6.32227 359.414 5.83594 359.414 5.30469C359.414 4.73438 359.521 4.2207 359.736 3.76367C359.955 3.30664 360.264 2.95703 360.662 2.71484C361.061 2.47266 361.525 2.35156 362.057 2.35156C362.9 2.35156 363.564 2.66797 364.049 3.30078C364.537 3.92969 364.781 4.78906 364.781 5.87891V6.19531C364.781 7.85547 364.453 9.06836 363.797 9.83398C363.141 10.5957 362.15 10.9863 360.826 11.0059H360.615V10.0918H360.844C361.738 10.0762 362.426 9.84375 362.906 9.39453C363.387 8.94141 363.648 8.22656 363.691 7.25ZM362.021 7.25C362.385 7.25 362.719 7.13867 363.023 6.91602C363.332 6.69336 363.557 6.41797 363.697 6.08984V5.65625C363.697 4.94531 363.543 4.36719 363.234 3.92188C362.926 3.47656 362.535 3.25391 362.062 3.25391C361.586 3.25391 361.203 3.4375 360.914 3.80469C360.625 4.16797 360.48 4.64844 360.48 5.24609C360.48 5.82812 360.619 6.30859 360.896 6.6875C361.178 7.0625 361.553 7.25 362.021 7.25Z" fill="black"/>
<path d="M357.293 188.707C357.683 189.098 358.317 189.098 358.707 188.707L365.071 182.343C365.462 181.953 365.462 181.319 365.071 180.929C364.681 180.538 364.047 180.538 363.657 180.929L358 186.586L352.343 180.929C351.953 180.538 351.319 180.538 350.929 180.929C350.538 181.319 350.538 181.953 350.929 182.343L357.293 188.707ZM357 132V188H359V132H357Z" fill="black"/>
<path d="M358.553 201.01C358.553 201.846 358.412 202.576 358.131 203.201C357.85 203.822 357.451 204.297 356.936 204.625C356.42 204.953 355.818 205.117 355.131 205.117C354.459 205.117 353.863 204.953 353.344 204.625C352.824 204.293 352.42 203.822 352.131 203.213C351.846 202.6 351.699 201.891 351.691 201.086V200.471C351.691 199.65 351.834 198.926 352.119 198.297C352.404 197.668 352.807 197.188 353.326 196.855C353.85 196.52 354.447 196.352 355.119 196.352C355.803 196.352 356.404 196.518 356.924 196.85C357.447 197.178 357.85 197.656 358.131 198.285C358.412 198.91 358.553 199.639 358.553 200.471V201.01ZM357.434 200.459C357.434 199.447 357.23 198.672 356.824 198.133C356.418 197.59 355.85 197.318 355.119 197.318C354.408 197.318 353.848 197.59 353.438 198.133C353.031 198.672 352.822 199.422 352.811 200.383V201.01C352.811 201.99 353.016 202.762 353.426 203.324C353.84 203.883 354.408 204.162 355.131 204.162C355.857 204.162 356.42 203.898 356.818 203.371C357.217 202.84 357.422 202.08 357.434 201.092V200.459ZM364.113 201.25C363.887 201.52 363.615 201.736 363.299 201.9C362.986 202.064 362.643 202.146 362.268 202.146C361.775 202.146 361.346 202.025 360.979 201.783C360.615 201.541 360.334 201.201 360.135 200.764C359.936 200.322 359.836 199.836 359.836 199.305C359.836 198.734 359.943 198.221 360.158 197.764C360.377 197.307 360.686 196.957 361.084 196.715C361.482 196.473 361.947 196.352 362.479 196.352C363.322 196.352 363.986 196.668 364.471 197.301C364.959 197.93 365.203 198.789 365.203 199.879V200.195C365.203 201.855 364.875 203.068 364.219 203.834C363.562 204.596 362.572 204.986 361.248 205.006H361.037V204.092H361.266C362.16 204.076 362.848 203.844 363.328 203.395C363.809 202.941 364.07 202.227 364.113 201.25ZM362.443 201.25C362.807 201.25 363.141 201.139 363.445 200.916C363.754 200.693 363.979 200.418 364.119 200.09V199.656C364.119 198.945 363.965 198.367 363.656 197.922C363.348 197.477 362.957 197.254 362.484 197.254C362.008 197.254 361.625 197.438 361.336 197.805C361.047 198.168 360.902 198.648 360.902 199.246C360.902 199.828 361.041 200.309 361.318 200.688C361.6 201.062 361.975 201.25 362.443 201.25Z" fill="black"/>
<rect x="385.5" y="77.5" width="54" height="54" fill="white" stroke="black"/>
<path d="M412.293 76.7071C412.683 77.0976 413.317 77.0976 413.707 76.7071L420.071 70.3431C420.462 69.9526 420.462 69.3195 420.071 68.9289C419.681 68.5384 419.047 68.5384 418.657 68.9289L413 74.5858L407.343 68.9289C406.953 68.5384 406.319 68.5384 405.929 68.9289C405.538 69.3195 405.538 69.9526 405.929 70.3431L412.293 76.7071ZM412 20V76H414V20H412Z" fill="black"/>
<path d="M411.701 8.77344H408.127L407.324 11H406.164L409.422 2.46875H410.406L413.67 11H412.516L411.701 8.77344ZM408.467 7.84766H411.367L409.914 3.85742L408.467 7.84766ZM419.711 4.69531C419.711 5.12109 419.598 5.5 419.371 5.83203C419.148 6.16406 418.846 6.42383 418.463 6.61133C418.908 6.80273 419.26 7.08203 419.518 7.44922C419.779 7.81641 419.91 8.23242 419.91 8.69727C419.91 9.43555 419.66 10.0234 419.16 10.4609C418.664 10.8984 418.01 11.1172 417.197 11.1172C416.377 11.1172 415.719 10.8984 415.223 10.4609C414.73 10.0195 414.484 9.43164 414.484 8.69727C414.484 8.23633 414.609 7.82031 414.859 7.44922C415.113 7.07812 415.463 6.79688 415.908 6.60547C415.529 6.41797 415.23 6.1582 415.012 5.82617C414.793 5.49414 414.684 5.11719 414.684 4.69531C414.684 3.97656 414.914 3.40625 415.375 2.98438C415.836 2.5625 416.443 2.35156 417.197 2.35156C417.947 2.35156 418.553 2.5625 419.014 2.98438C419.479 3.40625 419.711 3.97656 419.711 4.69531ZM418.826 8.67383C418.826 8.19727 418.674 7.80859 418.369 7.50781C418.068 7.20703 417.674 7.05664 417.186 7.05664C416.697 7.05664 416.305 7.20508 416.008 7.50195C415.715 7.79883 415.568 8.18945 415.568 8.67383C415.568 9.1582 415.711 9.53906 415.996 9.81641C416.285 10.0938 416.686 10.2324 417.197 10.2324C417.705 10.2324 418.104 10.0938 418.393 9.81641C418.682 9.53516 418.826 9.1543 418.826 8.67383ZM417.197 3.24219C416.771 3.24219 416.426 3.375 416.16 3.64062C415.898 3.90234 415.768 4.25977 415.768 4.71289C415.768 5.14648 415.896 5.49805 416.154 5.76758C416.416 6.0332 416.764 6.16602 417.197 6.16602C417.631 6.16602 417.977 6.0332 418.234 5.76758C418.496 5.49805 418.627 5.14648 418.627 4.71289C418.627 4.2793 418.492 3.92578 418.223 3.65234C417.953 3.37891 417.611 3.24219 417.197 3.24219Z" fill="black"/>
<path d="M412.293 188.707C412.683 189.098 413.317 189.098 413.707 188.707L420.071 182.343C420.462 181.953 420.462 181.319 420.071 180.929C419.681 180.538 419.047 180.538 418.657 180.929L413 186.586L407.343 180.929C406.953 180.538 406.319 180.538 405.929 180.929C405.538 181.319 405.538 181.953 405.929 182.343L412.293 188.707ZM412 132V188H414V132H412Z" fill="black"/>
<path d="M413.553 201.01C413.553 201.846 413.412 202.576 413.131 203.201C412.85 203.822 412.451 204.297 411.936 204.625C411.42 204.953 410.818 205.117 410.131 205.117C409.459 205.117 408.863 204.953 408.344 204.625C407.824 204.293 407.42 203.822 407.131 203.213C406.846 202.6 406.699 201.891 406.691 201.086V200.471C406.691 199.65 406.834 198.926 407.119 198.297C407.404 197.668 407.807 197.188 408.326 196.855C408.85 196.52 409.447 196.352 410.119 196.352C410.803 196.352 411.404 196.518 411.924 196.85C412.447 197.178 412.85 197.656 413.131 198.285C413.412 198.91 413.553 199.639 413.553 200.471V201.01ZM412.434 200.459C412.434 199.447 412.23 198.672 411.824 198.133C411.418 197.59 410.85 197.318 410.119 197.318C409.408 197.318 408.848 197.59 408.438 198.133C408.031 198.672 407.822 199.422 407.811 200.383V201.01C407.811 201.99 408.016 202.762 408.426 203.324C408.84 203.883 409.408 204.162 410.131 204.162C410.857 204.162 411.42 203.898 411.818 203.371C412.217 202.84 412.422 202.08 412.434 201.092V200.459ZM420.133 198.695C420.133 199.121 420.02 199.5 419.793 199.832C419.57 200.164 419.268 200.424 418.885 200.611C419.33 200.803 419.682 201.082 419.939 201.449C420.201 201.816 420.332 202.232 420.332 202.697C420.332 203.436 420.082 204.023 419.582 204.461C419.086 204.898 418.432 205.117 417.619 205.117C416.799 205.117 416.141 204.898 415.645 204.461C415.152 204.02 414.906 203.432 414.906 202.697C414.906 202.236 415.031 201.82 415.281 201.449C415.535 201.078 415.885 200.797 416.33 200.605C415.951 200.418 415.652 200.158 415.434 199.826C415.215 199.494 415.105 199.117 415.105 198.695C415.105 197.977 415.336 197.406 415.797 196.984C416.258 196.562 416.865 196.352 417.619 196.352C418.369 196.352 418.975 196.562 419.436 196.984C419.9 197.406 420.133 197.977 420.133 198.695ZM419.248 202.674C419.248 202.197 419.096 201.809 418.791 201.508C418.49 201.207 418.096 201.057 417.607 201.057C417.119 201.057 416.727 201.205 416.43 201.502C416.137 201.799 415.99 202.189 415.99 202.674C415.99 203.158 416.133 203.539 416.418 203.816C416.707 204.094 417.107 204.232 417.619 204.232C418.127 204.232 418.525 204.094 418.814 203.816C419.104 203.535 419.248 203.154 419.248 202.674ZM417.619 197.242C417.193 197.242 416.848 197.375 416.582 197.641C416.32 197.902 416.189 198.26 416.189 198.713C416.189 199.146 416.318 199.498 416.576 199.768C416.838 200.033 417.186 200.166 417.619 200.166C418.053 200.166 418.398 200.033 418.656 199.768C418.918 199.498 419.049 199.146 419.049 198.713C419.049 198.279 418.914 197.926 418.645 197.652C418.375 197.379 418.033 197.242 417.619 197.242Z" fill="black"/>
<rect x="220.5" y="77.5" width="54" height="54" fill="white" stroke="black"/>
<path d="M247.293 76.7071C247.683 77.0976 248.317 77.0976 248.707 76.7071L255.071 70.3431C255.462 69.9526 255.462 69.3195 255.071 68.9289C254.681 68.5384 254.047 68.5384 253.657 68.9289L248 74.5858L242.343 68.9289C241.953 68.5384 241.319 68.5384 240.929 68.9289C240.538 69.3195 240.538 69.9526 240.929 70.3431L247.293 76.7071ZM247 20V76H249V20H247Z" fill="black"/>
<path d="M243.701 8.77344H240.127L239.324 11H238.164L241.422 2.46875H242.406L245.67 11H244.516L243.701 8.77344ZM240.467 7.84766H243.367L241.914 3.85742L240.467 7.84766ZM250.1 11H249.01V3.77539L246.824 4.57812V3.59375L249.93 2.42773H250.1V11ZM256.838 11H255.748V3.77539L253.562 4.57812V3.59375L256.668 2.42773H256.838V11Z" fill="black"/>
<path d="M247.293 188.707C247.683 189.098 248.317 189.098 248.707 188.707L255.071 182.343C255.462 181.953 255.462 181.319 255.071 180.929C254.681 180.538 254.047 180.538 253.657 180.929L248 186.586L242.343 180.929C241.953 180.538 241.319 180.538 240.929 180.929C240.538 181.319 240.538 181.953 240.929 182.343L247.293 188.707ZM247 132V188H249V132H247Z" fill="black"/>
<path d="M245.553 201.01C245.553 201.846 245.412 202.576 245.131 203.201C244.85 203.822 244.451 204.297 243.936 204.625C243.42 204.953 242.818 205.117 242.131 205.117C241.459 205.117 240.863 204.953 240.344 204.625C239.824 204.293 239.42 203.822 239.131 203.213C238.846 202.6 238.699 201.891 238.691 201.086V200.471C238.691 199.65 238.834 198.926 239.119 198.297C239.404 197.668 239.807 197.188 240.326 196.855C240.85 196.52 241.447 196.352 242.119 196.352C242.803 196.352 243.404 196.518 243.924 196.85C244.447 197.178 244.85 197.656 245.131 198.285C245.412 198.91 245.553 199.639 245.553 200.471V201.01ZM244.434 200.459C244.434 199.447 244.23 198.672 243.824 198.133C243.418 197.59 242.85 197.318 242.119 197.318C241.408 197.318 240.848 197.59 240.438 198.133C240.031 198.672 239.822 199.422 239.811 200.383V201.01C239.811 201.99 240.016 202.762 240.426 203.324C240.84 203.883 241.408 204.162 242.131 204.162C242.857 204.162 243.42 203.898 243.818 203.371C244.217 202.84 244.422 202.08 244.434 201.092V200.459ZM250.521 205H249.432V197.775L247.246 198.578V197.594L250.352 196.428H250.521V205ZM257.26 205H256.17V197.775L253.984 198.578V197.594L257.09 196.428H257.26V205Z" fill="black"/>
<rect x="275.5" y="77.5" width="54" height="54" fill="white" stroke="black"/>
<path d="M302.293 76.7071C302.683 77.0976 303.317 77.0976 303.707 76.7071L310.071 70.3431C310.462 69.9526 310.462 69.3195 310.071 68.9289C309.681 68.5384 309.047 68.5384 308.657 68.9289L303 74.5858L297.343 68.9289C296.953 68.5384 296.319 68.5384 295.929 68.9289C295.538 69.3195 295.538 69.9526 295.929 70.3431L302.293 76.7071ZM302 20V76H304V20H302Z" fill="black"/>
<path d="M298.701 8.77344H295.127L294.324 11H293.164L296.422 2.46875H297.406L300.67 11H299.516L298.701 8.77344ZM295.467 7.84766H298.367L296.914 3.85742L295.467 7.84766ZM305.1 11H304.01V3.77539L301.824 4.57812V3.59375L304.93 2.42773H305.1V11ZM313.625 7.36133C313.625 8.63086 313.408 9.57422 312.975 10.1914C312.541 10.8086 311.863 11.1172 310.941 11.1172C310.031 11.1172 309.357 10.8164 308.92 10.2148C308.482 9.60938 308.256 8.70703 308.24 7.50781V6.06055C308.24 4.80664 308.457 3.875 308.891 3.26562C309.324 2.65625 310.004 2.35156 310.93 2.35156C311.848 2.35156 312.523 2.64648 312.957 3.23633C313.391 3.82227 313.613 4.72852 313.625 5.95508V7.36133ZM312.541 5.87891C312.541 4.96094 312.412 4.29297 312.154 3.875C311.896 3.45312 311.488 3.24219 310.93 3.24219C310.375 3.24219 309.971 3.45117 309.717 3.86914C309.463 4.28711 309.332 4.92969 309.324 5.79688V7.53125C309.324 8.45312 309.457 9.13477 309.723 9.57617C309.992 10.0137 310.398 10.2324 310.941 10.2324C311.477 10.2324 311.873 10.0254 312.131 9.61133C312.393 9.19727 312.529 8.54492 312.541 7.6543V5.87891Z" fill="black"/>
<path d="M302.293 188.707C302.683 189.098 303.317 189.098 303.707 188.707L310.071 182.343C310.462 181.953 310.462 181.319 310.071 180.929C309.681 180.538 309.047 180.538 308.657 180.929L303 186.586L297.343 180.929C296.953 180.538 296.319 180.538 295.929 180.929C295.538 181.319 295.538 181.953 295.929 182.343L302.293 188.707ZM302 132V188H304V132H302Z" fill="black"/>
<path d="M300.553 201.01C300.553 201.846 300.412 202.576 300.131 203.201C299.85 203.822 299.451 204.297 298.936 204.625C298.42 204.953 297.818 205.117 297.131 205.117C296.459 205.117 295.863 204.953 295.344 204.625C294.824 204.293 294.42 203.822 294.131 203.213C293.846 202.6 293.699 201.891 293.691 201.086V200.471C293.691 199.65 293.834 198.926 294.119 198.297C294.404 197.668 294.807 197.188 295.326 196.855C295.85 196.52 296.447 196.352 297.119 196.352C297.803 196.352 298.404 196.518 298.924 196.85C299.447 197.178 299.85 197.656 300.131 198.285C300.412 198.91 300.553 199.639 300.553 200.471V201.01ZM299.434 200.459C299.434 199.447 299.23 198.672 298.824 198.133C298.418 197.59 297.85 197.318 297.119 197.318C296.408 197.318 295.848 197.59 295.438 198.133C295.031 198.672 294.822 199.422 294.811 200.383V201.01C294.811 201.99 295.016 202.762 295.426 203.324C295.84 203.883 296.408 204.162 297.131 204.162C297.857 204.162 298.42 203.898 298.818 203.371C299.217 202.84 299.422 202.08 299.434 201.092V200.459ZM305.521 205H304.432V197.775L302.246 198.578V197.594L305.352 196.428H305.521V205ZM314.047 201.361C314.047 202.631 313.83 203.574 313.396 204.191C312.963 204.809 312.285 205.117 311.363 205.117C310.453 205.117 309.779 204.816 309.342 204.215C308.904 203.609 308.678 202.707 308.662 201.508V200.061C308.662 198.807 308.879 197.875 309.312 197.266C309.746 196.656 310.426 196.352 311.352 196.352C312.27 196.352 312.945 196.646 313.379 197.236C313.812 197.822 314.035 198.729 314.047 199.955V201.361ZM312.963 199.879C312.963 198.961 312.834 198.293 312.576 197.875C312.318 197.453 311.91 197.242 311.352 197.242C310.797 197.242 310.393 197.451 310.139 197.869C309.885 198.287 309.754 198.93 309.746 199.797V201.531C309.746 202.453 309.879 203.135 310.145 203.576C310.414 204.014 310.82 204.232 311.363 204.232C311.898 204.232 312.295 204.025 312.553 203.611C312.814 203.197 312.951 202.545 312.963 201.654V199.879Z" fill="black"/>
<rect x="110.5" y="77.5" width="54" height="54" fill="white" stroke="black"/>
<path d="M137.293 76.7071C137.683 77.0976 138.317 77.0976 138.707 76.7071L145.071 70.3431C145.462 69.9526 145.462 69.3195 145.071 68.9289C144.681 68.5384 144.047 68.5384 143.657 68.9289L138 74.5858L132.343 68.9289C131.953 68.5384 131.319 68.5384 130.929 68.9289C130.538 69.3195 130.538 69.9526 130.929 70.3431L137.293 76.7071ZM137 20V76H139V20H137Z" fill="black"/>
<path d="M132.701 8.77344H129.127L128.324 11H127.164L130.422 2.46875H131.406L134.67 11H133.516L132.701 8.77344ZM129.467 7.84766H132.367L130.914 3.85742L129.467 7.84766ZM139.1 11H138.01V3.77539L135.824 4.57812V3.59375L138.93 2.42773H139.1V11ZM143.852 6.20703H144.666C145.178 6.19922 145.58 6.06445 145.873 5.80273C146.166 5.54102 146.312 5.1875 146.312 4.74219C146.312 3.74219 145.814 3.24219 144.818 3.24219C144.35 3.24219 143.975 3.37695 143.693 3.64648C143.416 3.91211 143.277 4.26562 143.277 4.70703H142.193C142.193 4.03125 142.439 3.4707 142.932 3.02539C143.428 2.57617 144.057 2.35156 144.818 2.35156C145.623 2.35156 146.254 2.56445 146.711 2.99023C147.168 3.41602 147.396 4.00781 147.396 4.76562C147.396 5.13672 147.275 5.49609 147.033 5.84375C146.795 6.19141 146.469 6.45117 146.055 6.62305C146.523 6.77148 146.885 7.01758 147.139 7.36133C147.396 7.70508 147.525 8.125 147.525 8.62109C147.525 9.38672 147.275 9.99414 146.775 10.4434C146.275 10.8926 145.625 11.1172 144.824 11.1172C144.023 11.1172 143.371 10.9004 142.867 10.4668C142.367 10.0332 142.117 9.46094 142.117 8.75H143.207C143.207 9.19922 143.354 9.55859 143.646 9.82812C143.939 10.0977 144.332 10.2324 144.824 10.2324C145.348 10.2324 145.748 10.0957 146.025 9.82227C146.303 9.54883 146.441 9.15625 146.441 8.64453C146.441 8.14844 146.289 7.76758 145.984 7.50195C145.68 7.23633 145.24 7.09961 144.666 7.0918H143.852V6.20703Z" fill="black"/>
<path d="M137.293 188.707C137.683 189.098 138.317 189.098 138.707 188.707L145.071 182.343C145.462 181.953 145.462 181.319 145.071 180.929C144.681 180.538 144.047 180.538 143.657 180.929L138 186.586L132.343 180.929C131.953 180.538 131.319 180.538 130.929 180.929C130.538 181.319 130.538 181.953 130.929 182.343L137.293 188.707ZM137 132V188H139V132H137Z" fill="black"/>
<path d="M134.553 201.01C134.553 201.846 134.412 202.576 134.131 203.201C133.85 203.822 133.451 204.297 132.936 204.625C132.42 204.953 131.818 205.117 131.131 205.117C130.459 205.117 129.863 204.953 129.344 204.625C128.824 204.293 128.42 203.822 128.131 203.213C127.846 202.6 127.699 201.891 127.691 201.086V200.471C127.691 199.65 127.834 198.926 128.119 198.297C128.404 197.668 128.807 197.188 129.326 196.855C129.85 196.52 130.447 196.352 131.119 196.352C131.803 196.352 132.404 196.518 132.924 196.85C133.447 197.178 133.85 197.656 134.131 198.285C134.412 198.91 134.553 199.639 134.553 200.471V201.01ZM133.434 200.459C133.434 199.447 133.23 198.672 132.824 198.133C132.418 197.59 131.85 197.318 131.119 197.318C130.408 197.318 129.848 197.59 129.438 198.133C129.031 198.672 128.822 199.422 128.811 200.383V201.01C128.811 201.99 129.016 202.762 129.426 203.324C129.84 203.883 130.408 204.162 131.131 204.162C131.857 204.162 132.42 203.898 132.818 203.371C133.217 202.84 133.422 202.08 133.434 201.092V200.459ZM139.521 205H138.432V197.775L136.246 198.578V197.594L139.352 196.428H139.521V205ZM144.273 200.207H145.088C145.6 200.199 146.002 200.064 146.295 199.803C146.588 199.541 146.734 199.188 146.734 198.742C146.734 197.742 146.236 197.242 145.24 197.242C144.771 197.242 144.396 197.377 144.115 197.646C143.838 197.912 143.699 198.266 143.699 198.707H142.615C142.615 198.031 142.861 197.471 143.354 197.025C143.85 196.576 144.479 196.352 145.24 196.352C146.045 196.352 146.676 196.564 147.133 196.99C147.59 197.416 147.818 198.008 147.818 198.766C147.818 199.137 147.697 199.496 147.455 199.844C147.217 200.191 146.891 200.451 146.477 200.623C146.945 200.771 147.307 201.018 147.561 201.361C147.818 201.705 147.947 202.125 147.947 202.621C147.947 203.387 147.697 203.994 147.197 204.443C146.697 204.893 146.047 205.117 145.246 205.117C144.445 205.117 143.793 204.9 143.289 204.467C142.789 204.033 142.539 203.461 142.539 202.75H143.629C143.629 203.199 143.775 203.559 144.068 203.828C144.361 204.098 144.754 204.232 145.246 204.232C145.77 204.232 146.17 204.096 146.447 203.822C146.725 203.549 146.863 203.156 146.863 202.645C146.863 202.148 146.711 201.768 146.406 201.502C146.102 201.236 145.662 201.1 145.088 201.092H144.273V200.207Z" fill="black"/>
<rect x="165.5" y="77.5" width="54" height="54" fill="white" stroke="black"/>
<path d="M192.293 76.7071C192.683 77.0976 193.317 77.0976 193.707 76.7071L200.071 70.3431C200.462 69.9526 200.462 69.3195 200.071 68.9289C199.681 68.5384 199.047 68.5384 198.657 68.9289L193 74.5858L187.343 68.9289C186.953 68.5384 186.319 68.5384 185.929 68.9289C185.538 69.3195 185.538 69.9526 185.929 70.3431L192.293 76.7071ZM192 20V76H194V20H192Z" fill="black"/>
<path d="M187.701 8.77344H184.127L183.324 11H182.164L185.422 2.46875H186.406L189.67 11H188.516L187.701 8.77344ZM184.467 7.84766H187.367L185.914 3.85742L184.467 7.84766ZM194.1 11H193.01V3.77539L190.824 4.57812V3.59375L193.93 2.42773H194.1V11ZM202.865 11H197.275V10.2207L200.229 6.93945C200.666 6.44336 200.967 6.04102 201.131 5.73242C201.299 5.41992 201.383 5.09766 201.383 4.76562C201.383 4.32031 201.248 3.95508 200.979 3.66992C200.709 3.38477 200.35 3.24219 199.9 3.24219C199.361 3.24219 198.941 3.39648 198.641 3.70508C198.344 4.00977 198.195 4.43555 198.195 4.98242H197.111C197.111 4.19727 197.363 3.5625 197.867 3.07812C198.375 2.59375 199.053 2.35156 199.9 2.35156C200.693 2.35156 201.32 2.56055 201.781 2.97852C202.242 3.39258 202.473 3.94531 202.473 4.63672C202.473 5.47656 201.938 6.47656 200.867 7.63672L198.582 10.1152H202.865V11Z" fill="black"/>
<path d="M192.293 188.707C192.683 189.098 193.317 189.098 193.707 188.707L200.071 182.343C200.462 181.953 200.462 181.319 200.071 180.929C199.681 180.538 199.047 180.538 198.657 180.929L193 186.586L187.343 180.929C186.953 180.538 186.319 180.538 185.929 180.929C185.538 181.319 185.538 181.953 185.929 182.343L192.293 188.707ZM192 132V188H194V132H192Z" fill="black"/>
<path d="M189.553 201.01C189.553 201.846 189.412 202.576 189.131 203.201C188.85 203.822 188.451 204.297 187.936 204.625C187.42 204.953 186.818 205.117 186.131 205.117C185.459 205.117 184.863 204.953 184.344 204.625C183.824 204.293 183.42 203.822 183.131 203.213C182.846 202.6 182.699 201.891 182.691 201.086V200.471C182.691 199.65 182.834 198.926 183.119 198.297C183.404 197.668 183.807 197.188 184.326 196.855C184.85 196.52 185.447 196.352 186.119 196.352C186.803 196.352 187.404 196.518 187.924 196.85C188.447 197.178 188.85 197.656 189.131 198.285C189.412 198.91 189.553 199.639 189.553 200.471V201.01ZM188.434 200.459C188.434 199.447 188.23 198.672 187.824 198.133C187.418 197.59 186.85 197.318 186.119 197.318C185.408 197.318 184.848 197.59 184.438 198.133C184.031 198.672 183.822 199.422 183.811 200.383V201.01C183.811 201.99 184.016 202.762 184.426 203.324C184.84 203.883 185.408 204.162 186.131 204.162C186.857 204.162 187.42 203.898 187.818 203.371C188.217 202.84 188.422 202.08 188.434 201.092V200.459ZM194.521 205H193.432V197.775L191.246 198.578V197.594L194.352 196.428H194.521V205ZM203.287 205H197.697V204.221L200.65 200.939C201.088 200.443 201.389 200.041 201.553 199.732C201.721 199.42 201.805 199.098 201.805 198.766C201.805 198.32 201.67 197.955 201.4 197.67C201.131 197.385 200.771 197.242 200.322 197.242C199.783 197.242 199.363 197.396 199.062 197.705C198.766 198.01 198.617 198.436 198.617 198.982H197.533C197.533 198.197 197.785 197.562 198.289 197.078C198.797 196.594 199.475 196.352 200.322 196.352C201.115 196.352 201.742 196.561 202.203 196.979C202.664 197.393 202.895 197.945 202.895 198.637C202.895 199.477 202.359 200.477 201.289 201.637L199.004 204.115H203.287V205Z" fill="black"/>
<rect x="0.5" y="77.5" width="54" height="54" fill="white" stroke="black"/>
<path d="M27.2929 76.7071C27.6834 77.0976 28.3166 77.0976 28.7071 76.7071L35.0711 70.3431C35.4616 69.9526 35.4616 69.3195 35.0711 68.9289C34.6805 68.5384 34.0474 68.5384 33.6569 68.9289L28 74.5858L22.3431 68.9289C21.9526 68.5384 21.3195 68.5384 20.9289 68.9289C20.5384 69.3195 20.5384 69.9526 20.9289 70.3431L27.2929 76.7071ZM27 20L27 76H29L29 20H27Z" fill="black"/>
<path d="M26.7012 8.77344H23.127L22.3242 11H21.1641L24.4219 2.46875H25.4062L28.6699 11H27.5156L26.7012 8.77344ZM23.4668 7.84766H26.3672L24.9141 3.85742L23.4668 7.84766ZM33.0996 11H32.0098V3.77539L29.8242 4.57812V3.59375L32.9297 2.42773H33.0996V11ZM36.7734 6.72266L37.207 2.46875H41.5781V3.4707H38.127L37.8691 5.79688C38.2871 5.55078 38.7617 5.42773 39.293 5.42773C40.0703 5.42773 40.6875 5.68555 41.1445 6.20117C41.6016 6.71289 41.8301 7.40625 41.8301 8.28125C41.8301 9.16016 41.5918 9.85352 41.1152 10.3613C40.6426 10.8652 39.9805 11.1172 39.1289 11.1172C38.375 11.1172 37.7598 10.9082 37.2832 10.4902C36.8066 10.0723 36.5352 9.49414 36.4688 8.75586H37.4941C37.5605 9.24414 37.7344 9.61328 38.0156 9.86328C38.2969 10.1094 38.668 10.2324 39.1289 10.2324C39.6328 10.2324 40.0273 10.0605 40.3125 9.7168C40.6016 9.37305 40.7461 8.89844 40.7461 8.29297C40.7461 7.72266 40.5898 7.26562 40.2773 6.92188C39.9688 6.57422 39.5566 6.40039 39.041 6.40039C38.5684 6.40039 38.1973 6.50391 37.9277 6.71094L37.6406 6.94531L36.7734 6.72266Z" fill="black"/>
<path d="M27.2929 188.707C27.6834 189.098 28.3166 189.098 28.7071 188.707L35.0711 182.343C35.4616 181.953 35.4616 181.319 35.0711 180.929C34.6805 180.538 34.0474 180.538 33.6569 180.929L28 186.586L22.3431 180.929C21.9526 180.538 21.3195 180.538 20.9289 180.929C20.5384 181.319 20.5384 181.953 20.9289 182.343L27.2929 188.707ZM27 132L27 188H29L29 132H27Z" fill="black"/>
<path d="M25.5527 201.01C25.5527 201.846 25.4121 202.576 25.1309 203.201C24.8496 203.822 24.4512 204.297 23.9355 204.625C23.4199 204.953 22.8184 205.117 22.1309 205.117C21.459 205.117 20.8633 204.953 20.3438 204.625C19.8242 204.293 19.4199 203.822 19.1309 203.213C18.8457 202.6 18.6992 201.891 18.6914 201.086V200.471C18.6914 199.65 18.834 198.926 19.1191 198.297C19.4043 197.668 19.8066 197.188 20.3262 196.855C20.8496 196.52 21.4473 196.352 22.1191 196.352C22.8027 196.352 23.4043 196.518 23.9238 196.85C24.4473 197.178 24.8496 197.656 25.1309 198.285C25.4121 198.91 25.5527 199.639 25.5527 200.471V201.01ZM24.4336 200.459C24.4336 199.447 24.2305 198.672 23.8242 198.133C23.418 197.59 22.8496 197.318 22.1191 197.318C21.4082 197.318 20.8477 197.59 20.4375 198.133C20.0312 198.672 19.8223 199.422 19.8105 200.383V201.01C19.8105 201.99 20.0156 202.762 20.4258 203.324C20.8398 203.883 21.4082 204.162 22.1309 204.162C22.8574 204.162 23.4199 203.898 23.8184 203.371C24.2168 202.84 24.4219 202.08 24.4336 201.092V200.459ZM30.5215 205H29.4316V197.775L27.2461 198.578V197.594L30.3516 196.428H30.5215V205ZM34.1953 200.723L34.6289 196.469H39V197.471H35.5488L35.291 199.797C35.709 199.551 36.1836 199.428 36.7148 199.428C37.4922 199.428 38.1094 199.686 38.5664 200.201C39.0234 200.713 39.252 201.406 39.252 202.281C39.252 203.16 39.0137 203.854 38.5371 204.361C38.0645 204.865 37.4023 205.117 36.5508 205.117C35.7969 205.117 35.1816 204.908 34.7051 204.49C34.2285 204.072 33.957 203.494 33.8906 202.756H34.916C34.9824 203.244 35.1562 203.613 35.4375 203.863C35.7188 204.109 36.0898 204.232 36.5508 204.232C37.0547 204.232 37.4492 204.061 37.7344 203.717C38.0234 203.373 38.168 202.898 38.168 202.293C38.168 201.723 38.0117 201.266 37.6992 200.922C37.3906 200.574 36.9785 200.4 36.4629 200.4C35.9902 200.4 35.6191 200.504 35.3496 200.711L35.0625 200.945L34.1953 200.723Z" fill="black"/>
<rect x="55.5" y="77.5" width="54" height="54" fill="white" stroke="black"/>
<path d="M82.2929 76.7071C82.6834 77.0976 83.3166 77.0976 83.7071 76.7071L90.0711 70.3431C90.4616 69.9526 90.4616 69.3195 90.0711 68.9289C89.6805 68.5384 89.0474 68.5384 88.6569 68.9289L83 74.5858L77.3431 68.9289C76.9526 68.5384 76.3195 68.5384 75.9289 68.9289C75.5384 69.3195 75.5384 69.9526 75.9289 70.3431L82.2929 76.7071ZM82 20V76H84V20H82Z" fill="black"/>
<path d="M81.7012 8.77344H78.127L77.3242 11H76.1641L79.4219 2.46875H80.4062L83.6699 11H82.5156L81.7012 8.77344ZM78.4668 7.84766H81.3672L79.9141 3.85742L78.4668 7.84766ZM88.0996 11H87.0098V3.77539L84.8242 4.57812V3.59375L87.9297 2.42773H88.0996V11ZM95.8516 8.13477H97.0352V9.01953H95.8516V11H94.7617V9.01953H90.877V8.38086L94.6973 2.46875H95.8516V8.13477ZM92.1074 8.13477H94.7617V3.95117L94.6328 4.18555L92.1074 8.13477Z" fill="black"/>
<path d="M82.2929 188.707C82.6834 189.098 83.3166 189.098 83.7071 188.707L90.0711 182.343C90.4616 181.953 90.4616 181.319 90.0711 180.929C89.6805 180.538 89.0474 180.538 88.6569 180.929L83 186.586L77.3431 180.929C76.9526 180.538 76.3195 180.538 75.9289 180.929C75.5384 181.319 75.5384 181.953 75.9289 182.343L82.2929 188.707ZM82 132V188H84V132H82Z" fill="black"/>
<path d="M80.5527 201.01C80.5527 201.846 80.4121 202.576 80.1309 203.201C79.8496 203.822 79.4512 204.297 78.9355 204.625C78.4199 204.953 77.8184 205.117 77.1309 205.117C76.459 205.117 75.8633 204.953 75.3438 204.625C74.8242 204.293 74.4199 203.822 74.1309 203.213C73.8457 202.6 73.6992 201.891 73.6914 201.086V200.471C73.6914 199.65 73.834 198.926 74.1191 198.297C74.4043 197.668 74.8066 197.188 75.3262 196.855C75.8496 196.52 76.4473 196.352 77.1191 196.352C77.8027 196.352 78.4043 196.518 78.9238 196.85C79.4473 197.178 79.8496 197.656 80.1309 198.285C80.4121 198.91 80.5527 199.639 80.5527 200.471V201.01ZM79.4336 200.459C79.4336 199.447 79.2305 198.672 78.8242 198.133C78.418 197.59 77.8496 197.318 77.1191 197.318C76.4082 197.318 75.8477 197.59 75.4375 198.133C75.0312 198.672 74.8223 199.422 74.8105 200.383V201.01C74.8105 201.99 75.0156 202.762 75.4258 203.324C75.8398 203.883 76.4082 204.162 77.1309 204.162C77.8574 204.162 78.4199 203.898 78.8184 203.371C79.2168 202.84 79.4219 202.08 79.4336 201.092V200.459ZM85.5215 205H84.4316V197.775L82.2461 198.578V197.594L85.3516 196.428H85.5215V205ZM93.2734 202.135H94.457V203.02H93.2734V205H92.1836V203.02H88.2988V202.381L92.1191 196.469H93.2734V202.135ZM89.5293 202.135H92.1836V197.951L92.0547 198.186L89.5293 202.135Z" fill="black"/>
</svg>
