<svg width="55" height="208" viewBox="0 0 55 208" fill="none" xmlns="http://www.w3.org/2000/svg">
<rect x="0.5" y="77.5" width="54" height="54" fill="white" stroke="black"/>
<path d="M27.2929 76.7071C27.6834 77.0976 28.3166 77.0976 28.7071 76.7071L35.0711 70.3431C35.4616 69.9526 35.4616 69.3195 35.0711 68.9289C34.6805 68.5384 34.0474 68.5384 33.6569 68.9289L28 74.5858L22.3431 68.9289C21.9526 68.5384 21.3195 68.5384 20.9289 68.9289C20.5384 69.3195 20.5384 69.9526 20.9289 70.3431L27.2929 76.7071ZM27 20L27 76H29L29 20H27Z" fill="black"/>
<path d="M29.7012 8.77344H26.127L25.3242 11H24.1641L27.4219 2.46875H28.4062L31.6699 11H30.5156L29.7012 8.77344ZM26.4668 7.84766H29.3672L27.9141 3.85742L26.4668 7.84766Z" fill="black"/>
<path d="M27.2929 188.707C27.6834 189.098 28.3166 189.098 28.7071 188.707L35.0711 182.343C35.4616 181.953 35.4616 181.319 35.0711 180.929C34.6805 180.538 34.0474 180.538 33.6569 180.929L28 186.586L22.3431 180.929C21.9526 180.538 21.3195 180.538 20.9289 180.929C20.5384 181.319 20.5384 181.953 20.9289 182.343L27.2929 188.707ZM27 132L27 188H29L29 132H27Z" fill="black"/>
<path d="M31.5527 201.01C31.5527 201.846 31.4121 202.576 31.1309 203.201C30.8496 203.822 30.4512 204.297 29.9355 204.625C29.4199 204.953 28.8184 205.117 28.1309 205.117C27.459 205.117 26.8633 204.953 26.3438 204.625C25.8242 204.293 25.4199 203.822 25.1309 203.213C24.8457 202.6 24.6992 201.891 24.6914 201.086V200.471C24.6914 199.65 24.834 198.926 25.1191 198.297C25.4043 197.668 25.8066 197.188 26.3262 196.855C26.8496 196.52 27.4473 196.352 28.1191 196.352C28.8027 196.352 29.4043 196.518 29.9238 196.85C30.4473 197.178 30.8496 197.656 31.1309 198.285C31.4121 198.91 31.5527 199.639 31.5527 200.471V201.01ZM30.4336 200.459C30.4336 199.447 30.2305 198.672 29.8242 198.133C29.418 197.59 28.8496 197.318 28.1191 197.318C27.4082 197.318 26.8477 197.59 26.4375 198.133C26.0312 198.672 25.8223 199.422 25.8105 200.383V201.01C25.8105 201.99 26.0156 202.762 26.4258 203.324C26.8398 203.883 27.4082 204.162 28.1309 204.162C28.8574 204.162 29.4199 203.898 29.8184 203.371C30.2168 202.84 30.4219 202.08 30.4336 201.092V200.459Z" fill="black"/>
</svg>
