<svg width="550" height="208" viewBox="0 0 550 208" fill="none" xmlns="http://www.w3.org/2000/svg">
<rect x="440.5" y="77.5" width="54" height="54" fill="white" stroke="black"/>
<path d="M467.293 76.7071C467.683 77.0976 468.317 77.0976 468.707 76.7071L475.071 70.3431C475.462 69.9526 475.462 69.3195 475.071 68.9289C474.681 68.5384 474.047 68.5384 473.657 68.9289L468 74.5858L462.343 68.9289C461.953 68.5384 461.319 68.5384 460.929 68.9289C460.538 69.3195 460.538 69.9526 460.929 70.3431L467.293 76.7071ZM467 20V76H469V20H467Z" fill="black"/>
<path d="M466.701 8.77344H463.127L462.324 11H461.164L464.422 2.46875H465.406L468.67 11H467.516L466.701 8.77344ZM463.467 7.84766H466.367L464.914 3.85742L463.467 7.84766ZM473.1 11H472.01V3.77539L469.824 4.57812V3.59375L472.93 2.42773H473.1V11Z" fill="black"/>
<path d="M467.293 188.707C467.683 189.098 468.317 189.098 468.707 188.707L475.071 182.343C475.462 181.953 475.462 181.319 475.071 180.929C474.681 180.538 474.047 180.538 473.657 180.929L468 186.586L462.343 180.929C461.953 180.538 461.319 180.538 460.929 180.929C460.538 181.319 460.538 181.953 460.929 182.343L467.293 188.707ZM467 132V188H469V132H467Z" fill="black"/>
<path d="M468.553 201.01C468.553 201.846 468.412 202.576 468.131 203.201C467.85 203.822 467.451 204.297 466.936 204.625C466.42 204.953 465.818 205.117 465.131 205.117C464.459 205.117 463.863 204.953 463.344 204.625C462.824 204.293 462.42 203.822 462.131 203.213C461.846 202.6 461.699 201.891 461.691 201.086V200.471C461.691 199.65 461.834 198.926 462.119 198.297C462.404 197.668 462.807 197.188 463.326 196.855C463.85 196.52 464.447 196.352 465.119 196.352C465.803 196.352 466.404 196.518 466.924 196.85C467.447 197.178 467.85 197.656 468.131 198.285C468.412 198.91 468.553 199.639 468.553 200.471V201.01ZM467.434 200.459C467.434 199.447 467.23 198.672 466.824 198.133C466.418 197.59 465.85 197.318 465.119 197.318C464.408 197.318 463.848 197.59 463.438 198.133C463.031 198.672 462.822 199.422 462.811 200.383V201.01C462.811 201.99 463.016 202.762 463.426 203.324C463.84 203.883 464.408 204.162 465.131 204.162C465.857 204.162 466.42 203.898 466.818 203.371C467.217 202.84 467.422 202.08 467.434 201.092V200.459ZM473.521 205H472.432V197.775L470.246 198.578V197.594L473.352 196.428H473.521V205Z" fill="black"/>
<rect x="495.5" y="77.5" width="54" height="54" fill="white" stroke="black"/>
<path d="M522.293 76.7071C522.683 77.0976 523.317 77.0976 523.707 76.7071L530.071 70.3431C530.462 69.9526 530.462 69.3195 530.071 68.9289C529.681 68.5384 529.047 68.5384 528.657 68.9289L523 74.5858L517.343 68.9289C516.953 68.5384 516.319 68.5384 515.929 68.9289C515.538 69.3195 515.538 69.9526 515.929 70.3431L522.293 76.7071ZM522 20V76H524V20H522Z" fill="black"/>
<path d="M521.701 8.77344H518.127L517.324 11H516.164L519.422 2.46875H520.406L523.67 11H522.516L521.701 8.77344ZM518.467 7.84766H521.367L519.914 3.85742L518.467 7.84766ZM529.887 7.36133C529.887 8.63086 529.67 9.57422 529.236 10.1914C528.803 10.8086 528.125 11.1172 527.203 11.1172C526.293 11.1172 525.619 10.8164 525.182 10.2148C524.744 9.60938 524.518 8.70703 524.502 7.50781V6.06055C524.502 4.80664 524.719 3.875 525.152 3.26562C525.586 2.65625 526.266 2.35156 527.191 2.35156C528.109 2.35156 528.785 2.64648 529.219 3.23633C529.652 3.82227 529.875 4.72852 529.887 5.95508V7.36133ZM528.803 5.87891C528.803 4.96094 528.674 4.29297 528.416 3.875C528.158 3.45312 527.75 3.24219 527.191 3.24219C526.637 3.24219 526.232 3.45117 525.979 3.86914C525.725 4.28711 525.594 4.92969 525.586 5.79688V7.53125C525.586 8.45312 525.719 9.13477 525.984 9.57617C526.254 10.0137 526.66 10.2324 527.203 10.2324C527.738 10.2324 528.135 10.0254 528.393 9.61133C528.654 9.19727 528.791 8.54492 528.803 7.6543V5.87891Z" fill="black"/>
<path d="M522.293 188.707C522.683 189.098 523.317 189.098 523.707 188.707L530.071 182.343C530.462 181.953 530.462 181.319 530.071 180.929C529.681 180.538 529.047 180.538 528.657 180.929L523 186.586L517.343 180.929C516.953 180.538 516.319 180.538 515.929 180.929C515.538 181.319 515.538 181.953 515.929 182.343L522.293 188.707ZM522 132V188H524V132H522Z" fill="black"/>
<path d="M523.553 201.01C523.553 201.846 523.412 202.576 523.131 203.201C522.85 203.822 522.451 204.297 521.936 204.625C521.42 204.953 520.818 205.117 520.131 205.117C519.459 205.117 518.863 204.953 518.344 204.625C517.824 204.293 517.42 203.822 517.131 203.213C516.846 202.6 516.699 201.891 516.691 201.086V200.471C516.691 199.65 516.834 198.926 517.119 198.297C517.404 197.668 517.807 197.188 518.326 196.855C518.85 196.52 519.447 196.352 520.119 196.352C520.803 196.352 521.404 196.518 521.924 196.85C522.447 197.178 522.85 197.656 523.131 198.285C523.412 198.91 523.553 199.639 523.553 200.471V201.01ZM522.434 200.459C522.434 199.447 522.23 198.672 521.824 198.133C521.418 197.59 520.85 197.318 520.119 197.318C519.408 197.318 518.848 197.59 518.438 198.133C518.031 198.672 517.822 199.422 517.811 200.383V201.01C517.811 201.99 518.016 202.762 518.426 203.324C518.84 203.883 519.408 204.162 520.131 204.162C520.857 204.162 521.42 203.898 521.818 203.371C522.217 202.84 522.422 202.08 522.434 201.092V200.459ZM530.309 201.361C530.309 202.631 530.092 203.574 529.658 204.191C529.225 204.809 528.547 205.117 527.625 205.117C526.715 205.117 526.041 204.816 525.604 204.215C525.166 203.609 524.939 202.707 524.924 201.508V200.061C524.924 198.807 525.141 197.875 525.574 197.266C526.008 196.656 526.688 196.352 527.613 196.352C528.531 196.352 529.207 196.646 529.641 197.236C530.074 197.822 530.297 198.729 530.309 199.955V201.361ZM529.225 199.879C529.225 198.961 529.096 198.293 528.838 197.875C528.58 197.453 528.172 197.242 527.613 197.242C527.059 197.242 526.654 197.451 526.4 197.869C526.146 198.287 526.016 198.93 526.008 199.797V201.531C526.008 202.453 526.141 203.135 526.406 203.576C526.676 204.014 527.082 204.232 527.625 204.232C528.16 204.232 528.557 204.025 528.814 203.611C529.076 203.197 529.213 202.545 529.225 201.654V199.879Z" fill="black"/>
<rect x="330.5" y="77.5" width="54" height="54" fill="white" stroke="black"/>
<path d="M357.293 76.7071C357.683 77.0976 358.317 77.0976 358.707 76.7071L365.071 70.3431C365.462 69.9526 365.462 69.3195 365.071 68.9289C364.681 68.5384 364.047 68.5384 363.657 68.9289L358 74.5858L352.343 68.9289C351.953 68.5384 351.319 68.5384 350.929 68.9289C350.538 69.3195 350.538 69.9526 350.929 70.3431L357.293 76.7071ZM357 20V76H359V20H357Z" fill="black"/>
<path d="M356.701 8.77344H353.127L352.324 11H351.164L354.422 2.46875H355.406L358.67 11H357.516L356.701 8.77344ZM353.467 7.84766H356.367L354.914 3.85742L353.467 7.84766ZM361.113 6.20703H361.928C362.439 6.19922 362.842 6.06445 363.135 5.80273C363.428 5.54102 363.574 5.1875 363.574 4.74219C363.574 3.74219 363.076 3.24219 362.08 3.24219C361.611 3.24219 361.236 3.37695 360.955 3.64648C360.678 3.91211 360.539 4.26562 360.539 4.70703H359.455C359.455 4.03125 359.701 3.4707 360.193 3.02539C360.689 2.57617 361.318 2.35156 362.08 2.35156C362.885 2.35156 363.516 2.56445 363.973 2.99023C364.43 3.41602 364.658 4.00781 364.658 4.76562C364.658 5.13672 364.537 5.49609 364.295 5.84375C364.057 6.19141 363.73 6.45117 363.316 6.62305C363.785 6.77148 364.146 7.01758 364.4 7.36133C364.658 7.70508 364.787 8.125 364.787 8.62109C364.787 9.38672 364.537 9.99414 364.037 10.4434C363.537 10.8926 362.887 11.1172 362.086 11.1172C361.285 11.1172 360.633 10.9004 360.129 10.4668C359.629 10.0332 359.379 9.46094 359.379 8.75H360.469C360.469 9.19922 360.615 9.55859 360.908 9.82812C361.201 10.0977 361.594 10.2324 362.086 10.2324C362.609 10.2324 363.01 10.0957 363.287 9.82227C363.564 9.54883 363.703 9.15625 363.703 8.64453C363.703 8.14844 363.551 7.76758 363.246 7.50195C362.941 7.23633 362.502 7.09961 361.928 7.0918H361.113V6.20703Z" fill="black"/>
<path d="M357.293 188.707C357.683 189.098 358.317 189.098 358.707 188.707L365.071 182.343C365.462 181.953 365.462 181.319 365.071 180.929C364.681 180.538 364.047 180.538 363.657 180.929L358 186.586L352.343 180.929C351.953 180.538 351.319 180.538 350.929 180.929C350.538 181.319 350.538 181.953 350.929 182.343L357.293 188.707ZM357 132V188H359V132H357Z" fill="black"/>
<path d="M358.553 201.01C358.553 201.846 358.412 202.576 358.131 203.201C357.85 203.822 357.451 204.297 356.936 204.625C356.42 204.953 355.818 205.117 355.131 205.117C354.459 205.117 353.863 204.953 353.344 204.625C352.824 204.293 352.42 203.822 352.131 203.213C351.846 202.6 351.699 201.891 351.691 201.086V200.471C351.691 199.65 351.834 198.926 352.119 198.297C352.404 197.668 352.807 197.188 353.326 196.855C353.85 196.52 354.447 196.352 355.119 196.352C355.803 196.352 356.404 196.518 356.924 196.85C357.447 197.178 357.85 197.656 358.131 198.285C358.412 198.91 358.553 199.639 358.553 200.471V201.01ZM357.434 200.459C357.434 199.447 357.23 198.672 356.824 198.133C356.418 197.59 355.85 197.318 355.119 197.318C354.408 197.318 353.848 197.59 353.438 198.133C353.031 198.672 352.822 199.422 352.811 200.383V201.01C352.811 201.99 353.016 202.762 353.426 203.324C353.84 203.883 354.408 204.162 355.131 204.162C355.857 204.162 356.42 203.898 356.818 203.371C357.217 202.84 357.422 202.08 357.434 201.092V200.459ZM361.535 200.207H362.35C362.861 200.199 363.264 200.064 363.557 199.803C363.85 199.541 363.996 199.188 363.996 198.742C363.996 197.742 363.498 197.242 362.502 197.242C362.033 197.242 361.658 197.377 361.377 197.646C361.1 197.912 360.961 198.266 360.961 198.707H359.877C359.877 198.031 360.123 197.471 360.615 197.025C361.111 196.576 361.74 196.352 362.502 196.352C363.307 196.352 363.938 196.564 364.395 196.99C364.852 197.416 365.08 198.008 365.08 198.766C365.08 199.137 364.959 199.496 364.717 199.844C364.479 200.191 364.152 200.451 363.738 200.623C364.207 200.771 364.568 201.018 364.822 201.361C365.08 201.705 365.209 202.125 365.209 202.621C365.209 203.387 364.959 203.994 364.459 204.443C363.959 204.893 363.309 205.117 362.508 205.117C361.707 205.117 361.055 204.9 360.551 204.467C360.051 204.033 359.801 203.461 359.801 202.75H360.891C360.891 203.199 361.037 203.559 361.33 203.828C361.623 204.098 362.016 204.232 362.508 204.232C363.031 204.232 363.432 204.096 363.709 203.822C363.986 203.549 364.125 203.156 364.125 202.645C364.125 202.148 363.973 201.768 363.668 201.502C363.363 201.236 362.924 201.1 362.35 201.092H361.535V200.207Z" fill="black"/>
<rect x="385.5" y="77.5" width="54" height="54" fill="white" stroke="black"/>
<path d="M412.293 76.7071C412.683 77.0976 413.317 77.0976 413.707 76.7071L420.071 70.3431C420.462 69.9526 420.462 69.3195 420.071 68.9289C419.681 68.5384 419.047 68.5384 418.657 68.9289L413 74.5858L407.343 68.9289C406.953 68.5384 406.319 68.5384 405.929 68.9289C405.538 69.3195 405.538 69.9526 405.929 70.3431L412.293 76.7071ZM412 20V76H414V20H412Z" fill="black"/>
<path d="M411.701 8.77344H408.127L407.324 11H406.164L409.422 2.46875H410.406L413.67 11H412.516L411.701 8.77344ZM408.467 7.84766H411.367L409.914 3.85742L408.467 7.84766ZM420.127 11H414.537V10.2207L417.49 6.93945C417.928 6.44336 418.229 6.04102 418.393 5.73242C418.561 5.41992 418.645 5.09766 418.645 4.76562C418.645 4.32031 418.51 3.95508 418.24 3.66992C417.971 3.38477 417.611 3.24219 417.162 3.24219C416.623 3.24219 416.203 3.39648 415.902 3.70508C415.605 4.00977 415.457 4.43555 415.457 4.98242H414.373C414.373 4.19727 414.625 3.5625 415.129 3.07812C415.637 2.59375 416.314 2.35156 417.162 2.35156C417.955 2.35156 418.582 2.56055 419.043 2.97852C419.504 3.39258 419.734 3.94531 419.734 4.63672C419.734 5.47656 419.199 6.47656 418.129 7.63672L415.844 10.1152H420.127V11Z" fill="black"/>
<path d="M412.293 188.707C412.683 189.098 413.317 189.098 413.707 188.707L420.071 182.343C420.462 181.953 420.462 181.319 420.071 180.929C419.681 180.538 419.047 180.538 418.657 180.929L413 186.586L407.343 180.929C406.953 180.538 406.319 180.538 405.929 180.929C405.538 181.319 405.538 181.953 405.929 182.343L412.293 188.707ZM412 132V188H414V132H412Z" fill="black"/>
<path d="M413.553 201.01C413.553 201.846 413.412 202.576 413.131 203.201C412.85 203.822 412.451 204.297 411.936 204.625C411.42 204.953 410.818 205.117 410.131 205.117C409.459 205.117 408.863 204.953 408.344 204.625C407.824 204.293 407.42 203.822 407.131 203.213C406.846 202.6 406.699 201.891 406.691 201.086V200.471C406.691 199.65 406.834 198.926 407.119 198.297C407.404 197.668 407.807 197.188 408.326 196.855C408.85 196.52 409.447 196.352 410.119 196.352C410.803 196.352 411.404 196.518 411.924 196.85C412.447 197.178 412.85 197.656 413.131 198.285C413.412 198.91 413.553 199.639 413.553 200.471V201.01ZM412.434 200.459C412.434 199.447 412.23 198.672 411.824 198.133C411.418 197.59 410.85 197.318 410.119 197.318C409.408 197.318 408.848 197.59 408.438 198.133C408.031 198.672 407.822 199.422 407.811 200.383V201.01C407.811 201.99 408.016 202.762 408.426 203.324C408.84 203.883 409.408 204.162 410.131 204.162C410.857 204.162 411.42 203.898 411.818 203.371C412.217 202.84 412.422 202.08 412.434 201.092V200.459ZM420.549 205H414.959V204.221L417.912 200.939C418.35 200.443 418.65 200.041 418.814 199.732C418.982 199.42 419.066 199.098 419.066 198.766C419.066 198.32 418.932 197.955 418.662 197.67C418.393 197.385 418.033 197.242 417.584 197.242C417.045 197.242 416.625 197.396 416.324 197.705C416.027 198.01 415.879 198.436 415.879 198.982H414.795C414.795 198.197 415.047 197.562 415.551 197.078C416.059 196.594 416.736 196.352 417.584 196.352C418.377 196.352 419.004 196.561 419.465 196.979C419.926 197.393 420.156 197.945 420.156 198.637C420.156 199.477 419.621 200.477 418.551 201.637L416.266 204.115H420.549V205Z" fill="black"/>
<rect x="220.5" y="77.5" width="54" height="54" fill="white" stroke="black"/>
<path d="M247.293 76.7071C247.683 77.0976 248.317 77.0976 248.707 76.7071L255.071 70.3431C255.462 69.9526 255.462 69.3195 255.071 68.9289C254.681 68.5384 254.047 68.5384 253.657 68.9289L248 74.5858L242.343 68.9289C241.953 68.5384 241.319 68.5384 240.929 68.9289C240.538 69.3195 240.538 69.9526 240.929 70.3431L247.293 76.7071ZM247 20V76H249V20H247Z" fill="black"/>
<path d="M246.701 8.77344H243.127L242.324 11H241.164L244.422 2.46875H245.406L248.67 11H247.516L246.701 8.77344ZM243.467 7.84766H246.367L244.914 3.85742L243.467 7.84766ZM250.035 6.72266L250.469 2.46875H254.84V3.4707H251.389L251.131 5.79688C251.549 5.55078 252.023 5.42773 252.555 5.42773C253.332 5.42773 253.949 5.68555 254.406 6.20117C254.863 6.71289 255.092 7.40625 255.092 8.28125C255.092 9.16016 254.854 9.85352 254.377 10.3613C253.904 10.8652 253.242 11.1172 252.391 11.1172C251.637 11.1172 251.021 10.9082 250.545 10.4902C250.068 10.0723 249.797 9.49414 249.73 8.75586H250.756C250.822 9.24414 250.996 9.61328 251.277 9.86328C251.559 10.1094 251.93 10.2324 252.391 10.2324C252.895 10.2324 253.289 10.0605 253.574 9.7168C253.863 9.37305 254.008 8.89844 254.008 8.29297C254.008 7.72266 253.852 7.26562 253.539 6.92188C253.23 6.57422 252.818 6.40039 252.303 6.40039C251.83 6.40039 251.459 6.50391 251.189 6.71094L250.902 6.94531L250.035 6.72266Z" fill="black"/>
<path d="M247.293 188.707C247.683 189.098 248.317 189.098 248.707 188.707L255.071 182.343C255.462 181.953 255.462 181.319 255.071 180.929C254.681 180.538 254.047 180.538 253.657 180.929L248 186.586L242.343 180.929C241.953 180.538 241.319 180.538 240.929 180.929C240.538 181.319 240.538 181.953 240.929 182.343L247.293 188.707ZM247 132V188H249V132H247Z" fill="black"/>
<path d="M248.553 201.01C248.553 201.846 248.412 202.576 248.131 203.201C247.85 203.822 247.451 204.297 246.936 204.625C246.42 204.953 245.818 205.117 245.131 205.117C244.459 205.117 243.863 204.953 243.344 204.625C242.824 204.293 242.42 203.822 242.131 203.213C241.846 202.6 241.699 201.891 241.691 201.086V200.471C241.691 199.65 241.834 198.926 242.119 198.297C242.404 197.668 242.807 197.188 243.326 196.855C243.85 196.52 244.447 196.352 245.119 196.352C245.803 196.352 246.404 196.518 246.924 196.85C247.447 197.178 247.85 197.656 248.131 198.285C248.412 198.91 248.553 199.639 248.553 200.471V201.01ZM247.434 200.459C247.434 199.447 247.23 198.672 246.824 198.133C246.418 197.59 245.85 197.318 245.119 197.318C244.408 197.318 243.848 197.59 243.438 198.133C243.031 198.672 242.822 199.422 242.811 200.383V201.01C242.811 201.99 243.016 202.762 243.426 203.324C243.84 203.883 244.408 204.162 245.131 204.162C245.857 204.162 246.42 203.898 246.818 203.371C247.217 202.84 247.422 202.08 247.434 201.092V200.459ZM250.457 200.723L250.891 196.469H255.262V197.471H251.811L251.553 199.797C251.971 199.551 252.445 199.428 252.977 199.428C253.754 199.428 254.371 199.686 254.828 200.201C255.285 200.713 255.514 201.406 255.514 202.281C255.514 203.16 255.275 203.854 254.799 204.361C254.326 204.865 253.664 205.117 252.812 205.117C252.059 205.117 251.443 204.908 250.967 204.49C250.49 204.072 250.219 203.494 250.152 202.756H251.178C251.244 203.244 251.418 203.613 251.699 203.863C251.98 204.109 252.352 204.232 252.812 204.232C253.316 204.232 253.711 204.061 253.996 203.717C254.285 203.373 254.43 202.898 254.43 202.293C254.43 201.723 254.273 201.266 253.961 200.922C253.652 200.574 253.24 200.4 252.725 200.4C252.252 200.4 251.881 200.504 251.611 200.711L251.324 200.945L250.457 200.723Z" fill="black"/>
<rect x="275.5" y="77.5" width="54" height="54" fill="white" stroke="black"/>
<path d="M302.293 76.7071C302.683 77.0976 303.317 77.0976 303.707 76.7071L310.071 70.3431C310.462 69.9526 310.462 69.3195 310.071 68.9289C309.681 68.5384 309.047 68.5384 308.657 68.9289L303 74.5858L297.343 68.9289C296.953 68.5384 296.319 68.5384 295.929 68.9289C295.538 69.3195 295.538 69.9526 295.929 70.3431L302.293 76.7071ZM302 20V76H304V20H302Z" fill="black"/>
<path d="M301.701 8.77344H298.127L297.324 11H296.164L299.422 2.46875H300.406L303.67 11H302.516L301.701 8.77344ZM298.467 7.84766H301.367L299.914 3.85742L298.467 7.84766ZM309.113 8.13477H310.297V9.01953H309.113V11H308.023V9.01953H304.139V8.38086L307.959 2.46875H309.113V8.13477ZM305.369 8.13477H308.023V3.95117L307.895 4.18555L305.369 8.13477Z" fill="black"/>
<path d="M302.293 188.707C302.683 189.098 303.317 189.098 303.707 188.707L310.071 182.343C310.462 181.953 310.462 181.319 310.071 180.929C309.681 180.538 309.047 180.538 308.657 180.929L303 186.586L297.343 180.929C296.953 180.538 296.319 180.538 295.929 180.929C295.538 181.319 295.538 181.953 295.929 182.343L302.293 188.707ZM302 132V188H304V132H302Z" fill="black"/>
<path d="M303.553 201.01C303.553 201.846 303.412 202.576 303.131 203.201C302.85 203.822 302.451 204.297 301.936 204.625C301.42 204.953 300.818 205.117 300.131 205.117C299.459 205.117 298.863 204.953 298.344 204.625C297.824 204.293 297.42 203.822 297.131 203.213C296.846 202.6 296.699 201.891 296.691 201.086V200.471C296.691 199.65 296.834 198.926 297.119 198.297C297.404 197.668 297.807 197.188 298.326 196.855C298.85 196.52 299.447 196.352 300.119 196.352C300.803 196.352 301.404 196.518 301.924 196.85C302.447 197.178 302.85 197.656 303.131 198.285C303.412 198.91 303.553 199.639 303.553 200.471V201.01ZM302.434 200.459C302.434 199.447 302.23 198.672 301.824 198.133C301.418 197.59 300.85 197.318 300.119 197.318C299.408 197.318 298.848 197.59 298.438 198.133C298.031 198.672 297.822 199.422 297.811 200.383V201.01C297.811 201.99 298.016 202.762 298.426 203.324C298.84 203.883 299.408 204.162 300.131 204.162C300.857 204.162 301.42 203.898 301.818 203.371C302.217 202.84 302.422 202.08 302.434 201.092V200.459ZM309.535 202.135H310.719V203.02H309.535V205H308.445V203.02H304.561V202.381L308.381 196.469H309.535V202.135ZM305.791 202.135H308.445V197.951L308.316 198.186L305.791 202.135Z" fill="black"/>
<rect x="110.5" y="77.5" width="54" height="54" fill="white" stroke="black"/>
<path d="M137.293 76.7071C137.683 77.0976 138.317 77.0976 138.707 76.7071L145.071 70.3431C145.462 69.9526 145.462 69.3195 145.071 68.9289C144.681 68.5384 144.047 68.5384 143.657 68.9289L138 74.5858L132.343 68.9289C131.953 68.5384 131.319 68.5384 130.929 68.9289C130.538 69.3195 130.538 69.9526 130.929 70.3431L137.293 76.7071ZM137 20V76H139V20H137Z" fill="black"/>
<path d="M136.701 8.77344H133.127L132.324 11H131.164L134.422 2.46875H135.406L138.67 11H137.516L136.701 8.77344ZM133.467 7.84766H136.367L134.914 3.85742L133.467 7.84766ZM145.045 3.07812L141.512 11H140.375L143.896 3.35938H139.279V2.46875H145.045V3.07812Z" fill="black"/>
<path d="M137.293 188.707C137.683 189.098 138.317 189.098 138.707 188.707L145.071 182.343C145.462 181.953 145.462 181.319 145.071 180.929C144.681 180.538 144.047 180.538 143.657 180.929L138 186.586L132.343 180.929C131.953 180.538 131.319 180.538 130.929 180.929C130.538 181.319 130.538 181.953 130.929 182.343L137.293 188.707ZM137 132V188H139V132H137Z" fill="black"/>
<path d="M138.553 201.01C138.553 201.846 138.412 202.576 138.131 203.201C137.85 203.822 137.451 204.297 136.936 204.625C136.42 204.953 135.818 205.117 135.131 205.117C134.459 205.117 133.863 204.953 133.344 204.625C132.824 204.293 132.42 203.822 132.131 203.213C131.846 202.6 131.699 201.891 131.691 201.086V200.471C131.691 199.65 131.834 198.926 132.119 198.297C132.404 197.668 132.807 197.188 133.326 196.855C133.85 196.52 134.447 196.352 135.119 196.352C135.803 196.352 136.404 196.518 136.924 196.85C137.447 197.178 137.85 197.656 138.131 198.285C138.412 198.91 138.553 199.639 138.553 200.471V201.01ZM137.434 200.459C137.434 199.447 137.23 198.672 136.824 198.133C136.418 197.59 135.85 197.318 135.119 197.318C134.408 197.318 133.848 197.59 133.438 198.133C133.031 198.672 132.822 199.422 132.811 200.383V201.01C132.811 201.99 133.016 202.762 133.426 203.324C133.84 203.883 134.408 204.162 135.131 204.162C135.857 204.162 136.42 203.898 136.818 203.371C137.217 202.84 137.422 202.08 137.434 201.092V200.459ZM145.467 197.078L141.934 205H140.797L144.318 197.359H139.701V196.469H145.467V197.078Z" fill="black"/>
<rect x="165.5" y="77.5" width="54" height="54" fill="white" stroke="black"/>
<path d="M192.293 76.7071C192.683 77.0976 193.317 77.0976 193.707 76.7071L200.071 70.3431C200.462 69.9526 200.462 69.3195 200.071 68.9289C199.681 68.5384 199.047 68.5384 198.657 68.9289L193 74.5858L187.343 68.9289C186.953 68.5384 186.319 68.5384 185.929 68.9289C185.538 69.3195 185.538 69.9526 185.929 70.3431L192.293 76.7071ZM192 20V76H194V20H192Z" fill="black"/>
<path d="M191.701 8.77344H188.127L187.324 11H186.164L189.422 2.46875H190.406L193.67 11H192.516L191.701 8.77344ZM188.467 7.84766H191.367L189.914 3.85742L188.467 7.84766ZM198.791 2.46289V3.38281H198.592C197.748 3.39844 197.076 3.64844 196.576 4.13281C196.076 4.61719 195.787 5.29883 195.709 6.17773C196.158 5.66211 196.771 5.4043 197.549 5.4043C198.291 5.4043 198.883 5.66602 199.324 6.18945C199.77 6.71289 199.992 7.38867 199.992 8.2168C199.992 9.0957 199.752 9.79883 199.271 10.3262C198.795 10.8535 198.154 11.1172 197.35 11.1172C196.533 11.1172 195.871 10.8047 195.363 10.1797C194.855 9.55078 194.602 8.74219 194.602 7.75391V7.33789C194.602 5.76758 194.936 4.56836 195.604 3.74023C196.275 2.9082 197.273 2.48242 198.598 2.46289H198.791ZM197.367 6.30664C196.996 6.30664 196.654 6.41797 196.342 6.64062C196.029 6.86328 195.812 7.14258 195.691 7.47852V7.87695C195.691 8.58008 195.85 9.14648 196.166 9.57617C196.482 10.0059 196.877 10.2207 197.35 10.2207C197.838 10.2207 198.221 10.041 198.498 9.68164C198.779 9.32227 198.92 8.85156 198.92 8.26953C198.92 7.68359 198.777 7.21094 198.492 6.85156C198.211 6.48828 197.836 6.30664 197.367 6.30664Z" fill="black"/>
<path d="M192.293 188.707C192.683 189.098 193.317 189.098 193.707 188.707L200.071 182.343C200.462 181.953 200.462 181.319 200.071 180.929C199.681 180.538 199.047 180.538 198.657 180.929L193 186.586L187.343 180.929C186.953 180.538 186.319 180.538 185.929 180.929C185.538 181.319 185.538 181.953 185.929 182.343L192.293 188.707ZM192 132V188H194V132H192Z" fill="black"/>
<path d="M193.553 201.01C193.553 201.846 193.412 202.576 193.131 203.201C192.85 203.822 192.451 204.297 191.936 204.625C191.42 204.953 190.818 205.117 190.131 205.117C189.459 205.117 188.863 204.953 188.344 204.625C187.824 204.293 187.42 203.822 187.131 203.213C186.846 202.6 186.699 201.891 186.691 201.086V200.471C186.691 199.65 186.834 198.926 187.119 198.297C187.404 197.668 187.807 197.188 188.326 196.855C188.85 196.52 189.447 196.352 190.119 196.352C190.803 196.352 191.404 196.518 191.924 196.85C192.447 197.178 192.85 197.656 193.131 198.285C193.412 198.91 193.553 199.639 193.553 200.471V201.01ZM192.434 200.459C192.434 199.447 192.23 198.672 191.824 198.133C191.418 197.59 190.85 197.318 190.119 197.318C189.408 197.318 188.848 197.59 188.438 198.133C188.031 198.672 187.822 199.422 187.811 200.383V201.01C187.811 201.99 188.016 202.762 188.426 203.324C188.84 203.883 189.408 204.162 190.131 204.162C190.857 204.162 191.42 203.898 191.818 203.371C192.217 202.84 192.422 202.08 192.434 201.092V200.459ZM199.213 196.463V197.383H199.014C198.17 197.398 197.498 197.648 196.998 198.133C196.498 198.617 196.209 199.299 196.131 200.178C196.58 199.662 197.193 199.404 197.971 199.404C198.713 199.404 199.305 199.666 199.746 200.189C200.191 200.713 200.414 201.389 200.414 202.217C200.414 203.096 200.174 203.799 199.693 204.326C199.217 204.854 198.576 205.117 197.771 205.117C196.955 205.117 196.293 204.805 195.785 204.18C195.277 203.551 195.023 202.742 195.023 201.754V201.338C195.023 199.768 195.357 198.568 196.025 197.74C196.697 196.908 197.695 196.482 199.02 196.463H199.213ZM197.789 200.307C197.418 200.307 197.076 200.418 196.764 200.641C196.451 200.863 196.234 201.143 196.113 201.479V201.877C196.113 202.58 196.271 203.146 196.588 203.576C196.904 204.006 197.299 204.221 197.771 204.221C198.26 204.221 198.643 204.041 198.92 203.682C199.201 203.322 199.342 202.852 199.342 202.27C199.342 201.684 199.199 201.211 198.914 200.852C198.633 200.488 198.258 200.307 197.789 200.307Z" fill="black"/>
<rect x="0.5" y="77.5" width="54" height="54" fill="white" stroke="black"/>
<path d="M27.2929 76.7071C27.6834 77.0976 28.3166 77.0976 28.7071 76.7071L35.0711 70.3431C35.4616 69.9526 35.4616 69.3195 35.0711 68.9289C34.6805 68.5384 34.0474 68.5384 33.6569 68.9289L28 74.5858L22.3431 68.9289C21.9526 68.5384 21.3195 68.5384 20.9289 68.9289C20.5384 69.3195 20.5384 69.9526 20.9289 70.3431L27.2929 76.7071ZM27 20L27 76H29L29 20H27Z" fill="black"/>
<path d="M26.7012 8.77344H23.127L22.3242 11H21.1641L24.4219 2.46875H25.4062L28.6699 11H27.5156L26.7012 8.77344ZM23.4668 7.84766H26.3672L24.9141 3.85742L23.4668 7.84766ZM33.6914 7.25C33.4648 7.51953 33.1934 7.73633 32.877 7.90039C32.5645 8.06445 32.2207 8.14648 31.8457 8.14648C31.3535 8.14648 30.9238 8.02539 30.5566 7.7832C30.1934 7.54102 29.9121 7.20117 29.7129 6.76367C29.5137 6.32227 29.4141 5.83594 29.4141 5.30469C29.4141 4.73438 29.5215 4.2207 29.7363 3.76367C29.9551 3.30664 30.2637 2.95703 30.6621 2.71484C31.0605 2.47266 31.5254 2.35156 32.0566 2.35156C32.9004 2.35156 33.5645 2.66797 34.0488 3.30078C34.5371 3.92969 34.7812 4.78906 34.7812 5.87891V6.19531C34.7812 7.85547 34.4531 9.06836 33.7969 9.83398C33.1406 10.5957 32.1504 10.9863 30.8262 11.0059H30.6152V10.0918H30.8438C31.7383 10.0762 32.4258 9.84375 32.9062 9.39453C33.3867 8.94141 33.6484 8.22656 33.6914 7.25ZM32.0215 7.25C32.3848 7.25 32.7188 7.13867 33.0234 6.91602C33.332 6.69336 33.5566 6.41797 33.6973 6.08984V5.65625C33.6973 4.94531 33.543 4.36719 33.2344 3.92188C32.9258 3.47656 32.5352 3.25391 32.0625 3.25391C31.5859 3.25391 31.2031 3.4375 30.9141 3.80469C30.625 4.16797 30.4805 4.64844 30.4805 5.24609C30.4805 5.82812 30.6191 6.30859 30.8965 6.6875C31.1777 7.0625 31.5527 7.25 32.0215 7.25Z" fill="black"/>
<path d="M27.2929 188.707C27.6834 189.098 28.3166 189.098 28.7071 188.707L35.0711 182.343C35.4616 181.953 35.4616 181.319 35.0711 180.929C34.6805 180.538 34.0474 180.538 33.6569 180.929L28 186.586L22.3431 180.929C21.9526 180.538 21.3195 180.538 20.9289 180.929C20.5384 181.319 20.5384 181.953 20.9289 182.343L27.2929 188.707ZM27 132L27 188H29L29 132H27Z" fill="black"/>
<path d="M28.5527 201.01C28.5527 201.846 28.4121 202.576 28.1309 203.201C27.8496 203.822 27.4512 204.297 26.9355 204.625C26.4199 204.953 25.8184 205.117 25.1309 205.117C24.459 205.117 23.8633 204.953 23.3438 204.625C22.8242 204.293 22.4199 203.822 22.1309 203.213C21.8457 202.6 21.6992 201.891 21.6914 201.086V200.471C21.6914 199.65 21.834 198.926 22.1191 198.297C22.4043 197.668 22.8066 197.188 23.3262 196.855C23.8496 196.52 24.4473 196.352 25.1191 196.352C25.8027 196.352 26.4043 196.518 26.9238 196.85C27.4473 197.178 27.8496 197.656 28.1309 198.285C28.4121 198.91 28.5527 199.639 28.5527 200.471V201.01ZM27.4336 200.459C27.4336 199.447 27.2305 198.672 26.8242 198.133C26.418 197.59 25.8496 197.318 25.1191 197.318C24.4082 197.318 23.8477 197.59 23.4375 198.133C23.0312 198.672 22.8223 199.422 22.8105 200.383V201.01C22.8105 201.99 23.0156 202.762 23.4258 203.324C23.8398 203.883 24.4082 204.162 25.1309 204.162C25.8574 204.162 26.4199 203.898 26.8184 203.371C27.2168 202.84 27.4219 202.08 27.4336 201.092V200.459ZM34.1133 201.25C33.8867 201.52 33.6152 201.736 33.2988 201.9C32.9863 202.064 32.6426 202.146 32.2676 202.146C31.7754 202.146 31.3457 202.025 30.9785 201.783C30.6152 201.541 30.334 201.201 30.1348 200.764C29.9355 200.322 29.8359 199.836 29.8359 199.305C29.8359 198.734 29.9434 198.221 30.1582 197.764C30.377 197.307 30.6855 196.957 31.084 196.715C31.4824 196.473 31.9473 196.352 32.4785 196.352C33.3223 196.352 33.9863 196.668 34.4707 197.301C34.959 197.93 35.2031 198.789 35.2031 199.879V200.195C35.2031 201.855 34.875 203.068 34.2188 203.834C33.5625 204.596 32.5723 204.986 31.248 205.006H31.0371V204.092H31.2656C32.1602 204.076 32.8477 203.844 33.3281 203.395C33.8086 202.941 34.0703 202.227 34.1133 201.25ZM32.4434 201.25C32.8066 201.25 33.1406 201.139 33.4453 200.916C33.7539 200.693 33.9785 200.418 34.1191 200.09V199.656C34.1191 198.945 33.9648 198.367 33.6562 197.922C33.3477 197.477 32.957 197.254 32.4844 197.254C32.0078 197.254 31.625 197.438 31.3359 197.805C31.0469 198.168 30.9023 198.648 30.9023 199.246C30.9023 199.828 31.041 200.309 31.3184 200.688C31.5996 201.062 31.9746 201.25 32.4434 201.25Z" fill="black"/>
<rect x="55.5" y="77.5" width="54" height="54" fill="white" stroke="black"/>
<path d="M82.2929 76.7071C82.6834 77.0976 83.3166 77.0976 83.7071 76.7071L90.0711 70.3431C90.4616 69.9526 90.4616 69.3195 90.0711 68.9289C89.6805 68.5384 89.0474 68.5384 88.6569 68.9289L83 74.5858L77.3431 68.9289C76.9526 68.5384 76.3195 68.5384 75.9289 68.9289C75.5384 69.3195 75.5384 69.9526 75.9289 70.3431L82.2929 76.7071ZM82 20V76H84V20H82Z" fill="black"/>
<path d="M81.7012 8.77344H78.127L77.3242 11H76.1641L79.4219 2.46875H80.4062L83.6699 11H82.5156L81.7012 8.77344ZM78.4668 7.84766H81.3672L79.9141 3.85742L78.4668 7.84766ZM89.7109 4.69531C89.7109 5.12109 89.5977 5.5 89.3711 5.83203C89.1484 6.16406 88.8457 6.42383 88.4629 6.61133C88.9082 6.80273 89.2598 7.08203 89.5176 7.44922C89.7793 7.81641 89.9102 8.23242 89.9102 8.69727C89.9102 9.43555 89.6602 10.0234 89.1602 10.4609C88.6641 10.8984 88.0098 11.1172 87.1973 11.1172C86.377 11.1172 85.7188 10.8984 85.2227 10.4609C84.7305 10.0195 84.4844 9.43164 84.4844 8.69727C84.4844 8.23633 84.6094 7.82031 84.8594 7.44922C85.1133 7.07812 85.4629 6.79688 85.9082 6.60547C85.5293 6.41797 85.2305 6.1582 85.0117 5.82617C84.793 5.49414 84.6836 5.11719 84.6836 4.69531C84.6836 3.97656 84.9141 3.40625 85.375 2.98438C85.8359 2.5625 86.4434 2.35156 87.1973 2.35156C87.9473 2.35156 88.5527 2.5625 89.0137 2.98438C89.4785 3.40625 89.7109 3.97656 89.7109 4.69531ZM88.8262 8.67383C88.8262 8.19727 88.6738 7.80859 88.3691 7.50781C88.0684 7.20703 87.6738 7.05664 87.1855 7.05664C86.6973 7.05664 86.3047 7.20508 86.0078 7.50195C85.7148 7.79883 85.5684 8.18945 85.5684 8.67383C85.5684 9.1582 85.7109 9.53906 85.9961 9.81641C86.2852 10.0938 86.6855 10.2324 87.1973 10.2324C87.7051 10.2324 88.1035 10.0938 88.3926 9.81641C88.6816 9.53516 88.8262 9.1543 88.8262 8.67383ZM87.1973 3.24219C86.7715 3.24219 86.4258 3.375 86.1602 3.64062C85.8984 3.90234 85.7676 4.25977 85.7676 4.71289C85.7676 5.14648 85.8965 5.49805 86.1543 5.76758C86.416 6.0332 86.7637 6.16602 87.1973 6.16602C87.6309 6.16602 87.9766 6.0332 88.2344 5.76758C88.4961 5.49805 88.627 5.14648 88.627 4.71289C88.627 4.2793 88.4922 3.92578 88.2227 3.65234C87.9531 3.37891 87.6113 3.24219 87.1973 3.24219Z" fill="black"/>
<path d="M82.2929 188.707C82.6834 189.098 83.3166 189.098 83.7071 188.707L90.0711 182.343C90.4616 181.953 90.4616 181.319 90.0711 180.929C89.6805 180.538 89.0474 180.538 88.6569 180.929L83 186.586L77.3431 180.929C76.9526 180.538 76.3195 180.538 75.9289 180.929C75.5384 181.319 75.5384 181.953 75.9289 182.343L82.2929 188.707ZM82 132V188H84V132H82Z" fill="black"/>
<path d="M83.5527 201.01C83.5527 201.846 83.4121 202.576 83.1309 203.201C82.8496 203.822 82.4512 204.297 81.9355 204.625C81.4199 204.953 80.8184 205.117 80.1309 205.117C79.459 205.117 78.8633 204.953 78.3438 204.625C77.8242 204.293 77.4199 203.822 77.1309 203.213C76.8457 202.6 76.6992 201.891 76.6914 201.086V200.471C76.6914 199.65 76.834 198.926 77.1191 198.297C77.4043 197.668 77.8066 197.188 78.3262 196.855C78.8496 196.52 79.4473 196.352 80.1191 196.352C80.8027 196.352 81.4043 196.518 81.9238 196.85C82.4473 197.178 82.8496 197.656 83.1309 198.285C83.4121 198.91 83.5527 199.639 83.5527 200.471V201.01ZM82.4336 200.459C82.4336 199.447 82.2305 198.672 81.8242 198.133C81.418 197.59 80.8496 197.318 80.1191 197.318C79.4082 197.318 78.8477 197.59 78.4375 198.133C78.0312 198.672 77.8223 199.422 77.8105 200.383V201.01C77.8105 201.99 78.0156 202.762 78.4258 203.324C78.8398 203.883 79.4082 204.162 80.1309 204.162C80.8574 204.162 81.4199 203.898 81.8184 203.371C82.2168 202.84 82.4219 202.08 82.4336 201.092V200.459ZM90.1328 198.695C90.1328 199.121 90.0195 199.5 89.793 199.832C89.5703 200.164 89.2676 200.424 88.8848 200.611C89.3301 200.803 89.6816 201.082 89.9395 201.449C90.2012 201.816 90.332 202.232 90.332 202.697C90.332 203.436 90.082 204.023 89.582 204.461C89.0859 204.898 88.4316 205.117 87.6191 205.117C86.7988 205.117 86.1406 204.898 85.6445 204.461C85.1523 204.02 84.9062 203.432 84.9062 202.697C84.9062 202.236 85.0312 201.82 85.2812 201.449C85.5352 201.078 85.8848 200.797 86.3301 200.605C85.9512 200.418 85.6523 200.158 85.4336 199.826C85.2148 199.494 85.1055 199.117 85.1055 198.695C85.1055 197.977 85.3359 197.406 85.7969 196.984C86.2578 196.562 86.8652 196.352 87.6191 196.352C88.3691 196.352 88.9746 196.562 89.4355 196.984C89.9004 197.406 90.1328 197.977 90.1328 198.695ZM89.248 202.674C89.248 202.197 89.0957 201.809 88.791 201.508C88.4902 201.207 88.0957 201.057 87.6074 201.057C87.1191 201.057 86.7266 201.205 86.4297 201.502C86.1367 201.799 85.9902 202.189 85.9902 202.674C85.9902 203.158 86.1328 203.539 86.418 203.816C86.707 204.094 87.1074 204.232 87.6191 204.232C88.127 204.232 88.5254 204.094 88.8145 203.816C89.1035 203.535 89.248 203.154 89.248 202.674ZM87.6191 197.242C87.1934 197.242 86.8477 197.375 86.582 197.641C86.3203 197.902 86.1895 198.26 86.1895 198.713C86.1895 199.146 86.3184 199.498 86.5762 199.768C86.8379 200.033 87.1855 200.166 87.6191 200.166C88.0527 200.166 88.3984 200.033 88.6562 199.768C88.918 199.498 89.0488 199.146 89.0488 198.713C89.0488 198.279 88.9141 197.926 88.6445 197.652C88.375 197.379 88.0332 197.242 87.6191 197.242Z" fill="black"/>
</svg>
