<svg width="110" height="208" viewBox="0 0 110 208" fill="none" xmlns="http://www.w3.org/2000/svg">
<rect x="0.5" y="77.5" width="54" height="54" fill="white" stroke="black"/>
<path d="M27.2929 76.7071C27.6834 77.0976 28.3166 77.0976 28.7071 76.7071L35.0711 70.3431C35.4616 69.9526 35.4616 69.3195 35.0711 68.9289C34.6805 68.5384 34.0474 68.5384 33.6569 68.9289L28 74.5858L22.3431 68.9289C21.9526 68.5384 21.3195 68.5384 20.9289 68.9289C20.5384 69.3195 20.5384 69.9526 20.9289 70.3431L27.2929 76.7071ZM27 20L27 76H29L29 20H27Z" fill="black"/>
<path d="M26.7012 8.77344H23.127L22.3242 11H21.1641L24.4219 2.46875H25.4062L28.6699 11H27.5156L26.7012 8.77344ZM23.4668 7.84766H26.3672L24.9141 3.85742L23.4668 7.84766ZM33.0996 11H32.0098V3.77539L29.8242 4.57812V3.59375L32.9297 2.42773H33.0996V11Z" fill="black"/>
<path d="M27.2929 188.707C27.6834 189.098 28.3166 189.098 28.7071 188.707L35.0711 182.343C35.4616 181.953 35.4616 181.319 35.0711 180.929C34.6805 180.538 34.0474 180.538 33.6569 180.929L28 186.586L22.3431 180.929C21.9526 180.538 21.3195 180.538 20.9289 180.929C20.5384 181.319 20.5384 181.953 20.9289 182.343L27.2929 188.707ZM27 132L27 188H29L29 132H27Z" fill="black"/>
<path d="M28.5527 201.01C28.5527 201.846 28.4121 202.576 28.1309 203.201C27.8496 203.822 27.4512 204.297 26.9355 204.625C26.4199 204.953 25.8184 205.117 25.1309 205.117C24.459 205.117 23.8633 204.953 23.3438 204.625C22.8242 204.293 22.4199 203.822 22.1309 203.213C21.8457 202.6 21.6992 201.891 21.6914 201.086V200.471C21.6914 199.65 21.834 198.926 22.1191 198.297C22.4043 197.668 22.8066 197.188 23.3262 196.855C23.8496 196.52 24.4473 196.352 25.1191 196.352C25.8027 196.352 26.4043 196.518 26.9238 196.85C27.4473 197.178 27.8496 197.656 28.1309 198.285C28.4121 198.91 28.5527 199.639 28.5527 200.471V201.01ZM27.4336 200.459C27.4336 199.447 27.2305 198.672 26.8242 198.133C26.418 197.59 25.8496 197.318 25.1191 197.318C24.4082 197.318 23.8477 197.59 23.4375 198.133C23.0312 198.672 22.8223 199.422 22.8105 200.383V201.01C22.8105 201.99 23.0156 202.762 23.4258 203.324C23.8398 203.883 24.4082 204.162 25.1309 204.162C25.8574 204.162 26.4199 203.898 26.8184 203.371C27.2168 202.84 27.4219 202.08 27.4336 201.092V200.459ZM33.5215 205H32.4316V197.775L30.2461 198.578V197.594L33.3516 196.428H33.5215V205Z" fill="black"/>
<rect x="55.5" y="77.5" width="54" height="54" fill="white" stroke="black"/>
<path d="M82.2929 76.7071C82.6834 77.0976 83.3166 77.0976 83.7071 76.7071L90.0711 70.3431C90.4616 69.9526 90.4616 69.3195 90.0711 68.9289C89.6805 68.5384 89.0474 68.5384 88.6569 68.9289L83 74.5858L77.3431 68.9289C76.9526 68.5384 76.3195 68.5384 75.9289 68.9289C75.5384 69.3195 75.5384 69.9526 75.9289 70.3431L82.2929 76.7071ZM82 20V76H84V20H82Z" fill="black"/>
<path d="M81.7012 8.77344H78.127L77.3242 11H76.1641L79.4219 2.46875H80.4062L83.6699 11H82.5156L81.7012 8.77344ZM78.4668 7.84766H81.3672L79.9141 3.85742L78.4668 7.84766ZM89.8867 7.36133C89.8867 8.63086 89.6699 9.57422 89.2363 10.1914C88.8027 10.8086 88.125 11.1172 87.2031 11.1172C86.293 11.1172 85.6191 10.8164 85.1816 10.2148C84.7441 9.60938 84.5176 8.70703 84.502 7.50781V6.06055C84.502 4.80664 84.7188 3.875 85.1523 3.26562C85.5859 2.65625 86.2656 2.35156 87.1914 2.35156C88.1094 2.35156 88.7852 2.64648 89.2188 3.23633C89.6523 3.82227 89.875 4.72852 89.8867 5.95508V7.36133ZM88.8027 5.87891C88.8027 4.96094 88.6738 4.29297 88.416 3.875C88.1582 3.45312 87.75 3.24219 87.1914 3.24219C86.6367 3.24219 86.2324 3.45117 85.9785 3.86914C85.7246 4.28711 85.5938 4.92969 85.5859 5.79688V7.53125C85.5859 8.45312 85.7188 9.13477 85.9844 9.57617C86.2539 10.0137 86.6602 10.2324 87.2031 10.2324C87.7383 10.2324 88.1348 10.0254 88.3926 9.61133C88.6543 9.19727 88.791 8.54492 88.8027 7.6543V5.87891Z" fill="black"/>
<path d="M82.2929 188.707C82.6834 189.098 83.3166 189.098 83.7071 188.707L90.0711 182.343C90.4616 181.953 90.4616 181.319 90.0711 180.929C89.6805 180.538 89.0474 180.538 88.6569 180.929L83 186.586L77.3431 180.929C76.9526 180.538 76.3195 180.538 75.9289 180.929C75.5384 181.319 75.5384 181.953 75.9289 182.343L82.2929 188.707ZM82 132V188H84V132H82Z" fill="black"/>
<path d="M83.5527 201.01C83.5527 201.846 83.4121 202.576 83.1309 203.201C82.8496 203.822 82.4512 204.297 81.9355 204.625C81.4199 204.953 80.8184 205.117 80.1309 205.117C79.459 205.117 78.8633 204.953 78.3438 204.625C77.8242 204.293 77.4199 203.822 77.1309 203.213C76.8457 202.6 76.6992 201.891 76.6914 201.086V200.471C76.6914 199.65 76.834 198.926 77.1191 198.297C77.4043 197.668 77.8066 197.188 78.3262 196.855C78.8496 196.52 79.4473 196.352 80.1191 196.352C80.8027 196.352 81.4043 196.518 81.9238 196.85C82.4473 197.178 82.8496 197.656 83.1309 198.285C83.4121 198.91 83.5527 199.639 83.5527 200.471V201.01ZM82.4336 200.459C82.4336 199.447 82.2305 198.672 81.8242 198.133C81.418 197.59 80.8496 197.318 80.1191 197.318C79.4082 197.318 78.8477 197.59 78.4375 198.133C78.0312 198.672 77.8223 199.422 77.8105 200.383V201.01C77.8105 201.99 78.0156 202.762 78.4258 203.324C78.8398 203.883 79.4082 204.162 80.1309 204.162C80.8574 204.162 81.4199 203.898 81.8184 203.371C82.2168 202.84 82.4219 202.08 82.4336 201.092V200.459ZM90.3086 201.361C90.3086 202.631 90.0918 203.574 89.6582 204.191C89.2246 204.809 88.5469 205.117 87.625 205.117C86.7148 205.117 86.041 204.816 85.6035 204.215C85.166 203.609 84.9395 202.707 84.9238 201.508V200.061C84.9238 198.807 85.1406 197.875 85.5742 197.266C86.0078 196.656 86.6875 196.352 87.6133 196.352C88.5312 196.352 89.207 196.646 89.6406 197.236C90.0742 197.822 90.2969 198.729 90.3086 199.955V201.361ZM89.2246 199.879C89.2246 198.961 89.0957 198.293 88.8379 197.875C88.5801 197.453 88.1719 197.242 87.6133 197.242C87.0586 197.242 86.6543 197.451 86.4004 197.869C86.1465 198.287 86.0156 198.93 86.0078 199.797V201.531C86.0078 202.453 86.1406 203.135 86.4062 203.576C86.6758 204.014 87.082 204.232 87.625 204.232C88.1602 204.232 88.5566 204.025 88.8145 203.611C89.0762 203.197 89.2129 202.545 89.2246 201.654V199.879Z" fill="black"/>
</svg>
