<svg width="220" height="208" viewBox="0 0 220 208" fill="none" xmlns="http://www.w3.org/2000/svg">
<rect x="110.5" y="77.5" width="54" height="54" fill="white" stroke="black"/>
<path d="M137.293 76.7071C137.683 77.0976 138.317 77.0976 138.707 76.7071L145.071 70.3431C145.462 69.9526 145.462 69.3195 145.071 68.9289C144.681 68.5384 144.047 68.5384 143.657 68.9289L138 74.5858L132.343 68.9289C131.953 68.5384 131.319 68.5384 130.929 68.9289C130.538 69.3195 130.538 69.9526 130.929 70.3431L137.293 76.7071ZM137 20V76H139V20H137Z" fill="black"/>
<path d="M136.701 8.77344H133.127L132.324 11H131.164L134.422 2.46875H135.406L138.67 11H137.516L136.701 8.77344ZM133.467 7.84766H136.367L134.914 3.85742L133.467 7.84766ZM143.1 11H142.01V3.77539L139.824 4.57812V3.59375L142.93 2.42773H143.1V11Z" fill="black"/>
<path d="M137.293 188.707C137.683 189.098 138.317 189.098 138.707 188.707L145.071 182.343C145.462 181.953 145.462 181.319 145.071 180.929C144.681 180.538 144.047 180.538 143.657 180.929L138 186.586L132.343 180.929C131.953 180.538 131.319 180.538 130.929 180.929C130.538 181.319 130.538 181.953 130.929 182.343L137.293 188.707ZM137 132V188H139V132H137Z" fill="black"/>
<path d="M138.553 201.01C138.553 201.846 138.412 202.576 138.131 203.201C137.85 203.822 137.451 204.297 136.936 204.625C136.42 204.953 135.818 205.117 135.131 205.117C134.459 205.117 133.863 204.953 133.344 204.625C132.824 204.293 132.42 203.822 132.131 203.213C131.846 202.6 131.699 201.891 131.691 201.086V200.471C131.691 199.65 131.834 198.926 132.119 198.297C132.404 197.668 132.807 197.188 133.326 196.855C133.85 196.52 134.447 196.352 135.119 196.352C135.803 196.352 136.404 196.518 136.924 196.85C137.447 197.178 137.85 197.656 138.131 198.285C138.412 198.91 138.553 199.639 138.553 200.471V201.01ZM137.434 200.459C137.434 199.447 137.23 198.672 136.824 198.133C136.418 197.59 135.85 197.318 135.119 197.318C134.408 197.318 133.848 197.59 133.438 198.133C133.031 198.672 132.822 199.422 132.811 200.383V201.01C132.811 201.99 133.016 202.762 133.426 203.324C133.84 203.883 134.408 204.162 135.131 204.162C135.857 204.162 136.42 203.898 136.818 203.371C137.217 202.84 137.422 202.08 137.434 201.092V200.459ZM143.521 205H142.432V197.775L140.246 198.578V197.594L143.352 196.428H143.521V205Z" fill="black"/>
<rect x="165.5" y="77.5" width="54" height="54" fill="white" stroke="black"/>
<path d="M192.293 76.7071C192.683 77.0976 193.317 77.0976 193.707 76.7071L200.071 70.3431C200.462 69.9526 200.462 69.3195 200.071 68.9289C199.681 68.5384 199.047 68.5384 198.657 68.9289L193 74.5858L187.343 68.9289C186.953 68.5384 186.319 68.5384 185.929 68.9289C185.538 69.3195 185.538 69.9526 185.929 70.3431L192.293 76.7071ZM192 20V76H194V20H192Z" fill="black"/>
<path d="M191.701 8.77344H188.127L187.324 11H186.164L189.422 2.46875H190.406L193.67 11H192.516L191.701 8.77344ZM188.467 7.84766H191.367L189.914 3.85742L188.467 7.84766ZM199.887 7.36133C199.887 8.63086 199.67 9.57422 199.236 10.1914C198.803 10.8086 198.125 11.1172 197.203 11.1172C196.293 11.1172 195.619 10.8164 195.182 10.2148C194.744 9.60938 194.518 8.70703 194.502 7.50781V6.06055C194.502 4.80664 194.719 3.875 195.152 3.26562C195.586 2.65625 196.266 2.35156 197.191 2.35156C198.109 2.35156 198.785 2.64648 199.219 3.23633C199.652 3.82227 199.875 4.72852 199.887 5.95508V7.36133ZM198.803 5.87891C198.803 4.96094 198.674 4.29297 198.416 3.875C198.158 3.45312 197.75 3.24219 197.191 3.24219C196.637 3.24219 196.232 3.45117 195.979 3.86914C195.725 4.28711 195.594 4.92969 195.586 5.79688V7.53125C195.586 8.45312 195.719 9.13477 195.984 9.57617C196.254 10.0137 196.66 10.2324 197.203 10.2324C197.738 10.2324 198.135 10.0254 198.393 9.61133C198.654 9.19727 198.791 8.54492 198.803 7.6543V5.87891Z" fill="black"/>
<path d="M192.293 188.707C192.683 189.098 193.317 189.098 193.707 188.707L200.071 182.343C200.462 181.953 200.462 181.319 200.071 180.929C199.681 180.538 199.047 180.538 198.657 180.929L193 186.586L187.343 180.929C186.953 180.538 186.319 180.538 185.929 180.929C185.538 181.319 185.538 181.953 185.929 182.343L192.293 188.707ZM192 132V188H194V132H192Z" fill="black"/>
<path d="M193.553 201.01C193.553 201.846 193.412 202.576 193.131 203.201C192.85 203.822 192.451 204.297 191.936 204.625C191.42 204.953 190.818 205.117 190.131 205.117C189.459 205.117 188.863 204.953 188.344 204.625C187.824 204.293 187.42 203.822 187.131 203.213C186.846 202.6 186.699 201.891 186.691 201.086V200.471C186.691 199.65 186.834 198.926 187.119 198.297C187.404 197.668 187.807 197.188 188.326 196.855C188.85 196.52 189.447 196.352 190.119 196.352C190.803 196.352 191.404 196.518 191.924 196.85C192.447 197.178 192.85 197.656 193.131 198.285C193.412 198.91 193.553 199.639 193.553 200.471V201.01ZM192.434 200.459C192.434 199.447 192.23 198.672 191.824 198.133C191.418 197.59 190.85 197.318 190.119 197.318C189.408 197.318 188.848 197.59 188.438 198.133C188.031 198.672 187.822 199.422 187.811 200.383V201.01C187.811 201.99 188.016 202.762 188.426 203.324C188.84 203.883 189.408 204.162 190.131 204.162C190.857 204.162 191.42 203.898 191.818 203.371C192.217 202.84 192.422 202.08 192.434 201.092V200.459ZM200.309 201.361C200.309 202.631 200.092 203.574 199.658 204.191C199.225 204.809 198.547 205.117 197.625 205.117C196.715 205.117 196.041 204.816 195.604 204.215C195.166 203.609 194.939 202.707 194.924 201.508V200.061C194.924 198.807 195.141 197.875 195.574 197.266C196.008 196.656 196.688 196.352 197.613 196.352C198.531 196.352 199.207 196.646 199.641 197.236C200.074 197.822 200.297 198.729 200.309 199.955V201.361ZM199.225 199.879C199.225 198.961 199.096 198.293 198.838 197.875C198.58 197.453 198.172 197.242 197.613 197.242C197.059 197.242 196.654 197.451 196.4 197.869C196.146 198.287 196.016 198.93 196.008 199.797V201.531C196.008 202.453 196.141 203.135 196.406 203.576C196.676 204.014 197.082 204.232 197.625 204.232C198.16 204.232 198.557 204.025 198.814 203.611C199.076 203.197 199.213 202.545 199.225 201.654V199.879Z" fill="black"/>
<rect x="0.5" y="77.5" width="54" height="54" fill="white" stroke="black"/>
<path d="M27.2929 76.7071C27.6834 77.0976 28.3166 77.0976 28.7071 76.7071L35.0711 70.3431C35.4616 69.9526 35.4616 69.3195 35.0711 68.9289C34.6805 68.5384 34.0474 68.5384 33.6569 68.9289L28 74.5858L22.3431 68.9289C21.9526 68.5384 21.3195 68.5384 20.9289 68.9289C20.5384 69.3195 20.5384 69.9526 20.9289 70.3431L27.2929 76.7071ZM27 20L27 76H29L29 20H27Z" fill="black"/>
<path d="M26.7012 8.77344H23.127L22.3242 11H21.1641L24.4219 2.46875H25.4062L28.6699 11H27.5156L26.7012 8.77344ZM23.4668 7.84766H26.3672L24.9141 3.85742L23.4668 7.84766ZM31.1133 6.20703H31.9277C32.4395 6.19922 32.8418 6.06445 33.1348 5.80273C33.4277 5.54102 33.5742 5.1875 33.5742 4.74219C33.5742 3.74219 33.0762 3.24219 32.0801 3.24219C31.6113 3.24219 31.2363 3.37695 30.9551 3.64648C30.6777 3.91211 30.5391 4.26562 30.5391 4.70703H29.4551C29.4551 4.03125 29.7012 3.4707 30.1934 3.02539C30.6895 2.57617 31.3184 2.35156 32.0801 2.35156C32.8848 2.35156 33.5156 2.56445 33.9727 2.99023C34.4297 3.41602 34.6582 4.00781 34.6582 4.76562C34.6582 5.13672 34.5371 5.49609 34.2949 5.84375C34.0566 6.19141 33.7305 6.45117 33.3164 6.62305C33.7852 6.77148 34.1465 7.01758 34.4004 7.36133C34.6582 7.70508 34.7871 8.125 34.7871 8.62109C34.7871 9.38672 34.5371 9.99414 34.0371 10.4434C33.5371 10.8926 32.8867 11.1172 32.0859 11.1172C31.2852 11.1172 30.6328 10.9004 30.1289 10.4668C29.6289 10.0332 29.3789 9.46094 29.3789 8.75H30.4688C30.4688 9.19922 30.6152 9.55859 30.9082 9.82812C31.2012 10.0977 31.5938 10.2324 32.0859 10.2324C32.6094 10.2324 33.0098 10.0957 33.2871 9.82227C33.5645 9.54883 33.7031 9.15625 33.7031 8.64453C33.7031 8.14844 33.5508 7.76758 33.2461 7.50195C32.9414 7.23633 32.502 7.09961 31.9277 7.0918H31.1133V6.20703Z" fill="black"/>
<path d="M27.2929 188.707C27.6834 189.098 28.3166 189.098 28.7071 188.707L35.0711 182.343C35.4616 181.953 35.4616 181.319 35.0711 180.929C34.6805 180.538 34.0474 180.538 33.6569 180.929L28 186.586L22.3431 180.929C21.9526 180.538 21.3195 180.538 20.9289 180.929C20.5384 181.319 20.5384 181.953 20.9289 182.343L27.2929 188.707ZM27 132L27 188H29L29 132H27Z" fill="black"/>
<path d="M28.5527 201.01C28.5527 201.846 28.4121 202.576 28.1309 203.201C27.8496 203.822 27.4512 204.297 26.9355 204.625C26.4199 204.953 25.8184 205.117 25.1309 205.117C24.459 205.117 23.8633 204.953 23.3438 204.625C22.8242 204.293 22.4199 203.822 22.1309 203.213C21.8457 202.6 21.6992 201.891 21.6914 201.086V200.471C21.6914 199.65 21.834 198.926 22.1191 198.297C22.4043 197.668 22.8066 197.188 23.3262 196.855C23.8496 196.52 24.4473 196.352 25.1191 196.352C25.8027 196.352 26.4043 196.518 26.9238 196.85C27.4473 197.178 27.8496 197.656 28.1309 198.285C28.4121 198.91 28.5527 199.639 28.5527 200.471V201.01ZM27.4336 200.459C27.4336 199.447 27.2305 198.672 26.8242 198.133C26.418 197.59 25.8496 197.318 25.1191 197.318C24.4082 197.318 23.8477 197.59 23.4375 198.133C23.0312 198.672 22.8223 199.422 22.8105 200.383V201.01C22.8105 201.99 23.0156 202.762 23.4258 203.324C23.8398 203.883 24.4082 204.162 25.1309 204.162C25.8574 204.162 26.4199 203.898 26.8184 203.371C27.2168 202.84 27.4219 202.08 27.4336 201.092V200.459ZM31.5352 200.207H32.3496C32.8613 200.199 33.2637 200.064 33.5566 199.803C33.8496 199.541 33.9961 199.188 33.9961 198.742C33.9961 197.742 33.498 197.242 32.502 197.242C32.0332 197.242 31.6582 197.377 31.377 197.646C31.0996 197.912 30.9609 198.266 30.9609 198.707H29.877C29.877 198.031 30.123 197.471 30.6152 197.025C31.1113 196.576 31.7402 196.352 32.502 196.352C33.3066 196.352 33.9375 196.564 34.3945 196.99C34.8516 197.416 35.0801 198.008 35.0801 198.766C35.0801 199.137 34.959 199.496 34.7168 199.844C34.4785 200.191 34.1523 200.451 33.7383 200.623C34.207 200.771 34.5684 201.018 34.8223 201.361C35.0801 201.705 35.209 202.125 35.209 202.621C35.209 203.387 34.959 203.994 34.459 204.443C33.959 204.893 33.3086 205.117 32.5078 205.117C31.707 205.117 31.0547 204.9 30.5508 204.467C30.0508 204.033 29.8008 203.461 29.8008 202.75H30.8906C30.8906 203.199 31.0371 203.559 31.3301 203.828C31.623 204.098 32.0156 204.232 32.5078 204.232C33.0312 204.232 33.4316 204.096 33.709 203.822C33.9863 203.549 34.125 203.156 34.125 202.645C34.125 202.148 33.9727 201.768 33.668 201.502C33.3633 201.236 32.9238 201.1 32.3496 201.092H31.5352V200.207Z" fill="black"/>
<rect x="55.5" y="77.5" width="54" height="54" fill="white" stroke="black"/>
<path d="M82.2929 76.7071C82.6834 77.0976 83.3166 77.0976 83.7071 76.7071L90.0711 70.3431C90.4616 69.9526 90.4616 69.3195 90.0711 68.9289C89.6805 68.5384 89.0474 68.5384 88.6569 68.9289L83 74.5858L77.3431 68.9289C76.9526 68.5384 76.3195 68.5384 75.9289 68.9289C75.5384 69.3195 75.5384 69.9526 75.9289 70.3431L82.2929 76.7071ZM82 20V76H84V20H82Z" fill="black"/>
<path d="M81.7012 8.77344H78.127L77.3242 11H76.1641L79.4219 2.46875H80.4062L83.6699 11H82.5156L81.7012 8.77344ZM78.4668 7.84766H81.3672L79.9141 3.85742L78.4668 7.84766ZM90.127 11H84.5371V10.2207L87.4902 6.93945C87.9277 6.44336 88.2285 6.04102 88.3926 5.73242C88.5605 5.41992 88.6445 5.09766 88.6445 4.76562C88.6445 4.32031 88.5098 3.95508 88.2402 3.66992C87.9707 3.38477 87.6113 3.24219 87.1621 3.24219C86.623 3.24219 86.2031 3.39648 85.9023 3.70508C85.6055 4.00977 85.457 4.43555 85.457 4.98242H84.373C84.373 4.19727 84.625 3.5625 85.1289 3.07812C85.6367 2.59375 86.3145 2.35156 87.1621 2.35156C87.9551 2.35156 88.582 2.56055 89.043 2.97852C89.5039 3.39258 89.7344 3.94531 89.7344 4.63672C89.7344 5.47656 89.1992 6.47656 88.1289 7.63672L85.8438 10.1152H90.127V11Z" fill="black"/>
<path d="M82.2929 188.707C82.6834 189.098 83.3166 189.098 83.7071 188.707L90.0711 182.343C90.4616 181.953 90.4616 181.319 90.0711 180.929C89.6805 180.538 89.0474 180.538 88.6569 180.929L83 186.586L77.3431 180.929C76.9526 180.538 76.3195 180.538 75.9289 180.929C75.5384 181.319 75.5384 181.953 75.9289 182.343L82.2929 188.707ZM82 132V188H84V132H82Z" fill="black"/>
<path d="M83.5527 201.01C83.5527 201.846 83.4121 202.576 83.1309 203.201C82.8496 203.822 82.4512 204.297 81.9355 204.625C81.4199 204.953 80.8184 205.117 80.1309 205.117C79.459 205.117 78.8633 204.953 78.3438 204.625C77.8242 204.293 77.4199 203.822 77.1309 203.213C76.8457 202.6 76.6992 201.891 76.6914 201.086V200.471C76.6914 199.65 76.834 198.926 77.1191 198.297C77.4043 197.668 77.8066 197.188 78.3262 196.855C78.8496 196.52 79.4473 196.352 80.1191 196.352C80.8027 196.352 81.4043 196.518 81.9238 196.85C82.4473 197.178 82.8496 197.656 83.1309 198.285C83.4121 198.91 83.5527 199.639 83.5527 200.471V201.01ZM82.4336 200.459C82.4336 199.447 82.2305 198.672 81.8242 198.133C81.418 197.59 80.8496 197.318 80.1191 197.318C79.4082 197.318 78.8477 197.59 78.4375 198.133C78.0312 198.672 77.8223 199.422 77.8105 200.383V201.01C77.8105 201.99 78.0156 202.762 78.4258 203.324C78.8398 203.883 79.4082 204.162 80.1309 204.162C80.8574 204.162 81.4199 203.898 81.8184 203.371C82.2168 202.84 82.4219 202.08 82.4336 201.092V200.459ZM90.5488 205H84.959V204.221L87.9121 200.939C88.3496 200.443 88.6504 200.041 88.8145 199.732C88.9824 199.42 89.0664 199.098 89.0664 198.766C89.0664 198.32 88.9316 197.955 88.6621 197.67C88.3926 197.385 88.0332 197.242 87.584 197.242C87.0449 197.242 86.625 197.396 86.3242 197.705C86.0273 198.01 85.8789 198.436 85.8789 198.982H84.7949C84.7949 198.197 85.0469 197.562 85.5508 197.078C86.0586 196.594 86.7363 196.352 87.584 196.352C88.377 196.352 89.0039 196.561 89.4648 196.979C89.9258 197.393 90.1562 197.945 90.1562 198.637C90.1562 199.477 89.6211 200.477 88.5508 201.637L86.2656 204.115H90.5488V205Z" fill="black"/>
</svg>
